<svg width="569" height="274" viewBox="0 0 569 274" fill="none" xmlns="http://www.w3.org/2000/svg">
<g clip-path="url(#clip0_1119_6479)">
<path d="M130.372 238.972C131.78 227.655 138.793 216.505 149.586 212.822C145.329 224.47 145.33 237.248 149.588 248.896C151.247 253.381 153.558 258.198 151.998 262.719C151.028 265.533 148.653 267.685 145.999 269.031C143.345 270.377 140.399 271.018 137.491 271.647L136.918 272.12C132.3 261.693 128.965 250.288 130.372 238.972Z" fill="#F0F0F0"/>
<path d="M149.694 213.036C143.409 220.078 139.503 228.922 138.53 238.311C138.285 240.328 138.359 242.372 138.75 244.366C139.194 246.296 140.146 248.073 141.509 249.511C142.752 250.877 144.182 252.13 145.072 253.775C145.515 254.623 145.773 255.556 145.83 256.512C145.887 257.467 145.742 258.424 145.403 259.319C144.618 261.572 143.07 263.409 141.493 265.152C139.743 267.087 137.895 269.07 137.151 271.636C137.06 271.946 136.583 271.788 136.673 271.478C137.968 267.014 142.301 264.478 144.368 260.457C145.332 258.581 145.737 256.403 144.833 254.422C144.042 252.69 142.569 251.397 141.298 250.024C139.948 248.641 138.958 246.949 138.413 245.094C137.922 243.126 137.769 241.089 137.961 239.07C138.321 234.517 139.395 230.049 141.143 225.829C143.112 221.003 145.891 216.548 149.362 212.659C149.576 212.418 149.908 212.797 149.694 213.036Z" fill="white"/>
<path d="M138.666 235.27C137.113 234.893 135.744 233.976 134.805 232.683C133.865 231.391 133.416 229.806 133.537 228.212C133.563 227.89 134.065 227.914 134.039 228.237C133.924 229.721 134.342 231.197 135.22 232.399C136.097 233.601 137.375 234.45 138.823 234.793C139.138 234.868 138.979 235.345 138.666 235.27Z" fill="white"/>
<path d="M140.787 248.902C143.592 247.227 145.663 244.556 146.586 241.422C146.677 241.112 147.154 241.27 147.063 241.58C146.096 244.839 143.936 247.614 141.013 249.351C140.734 249.516 140.51 249.066 140.787 248.902Z" fill="white"/>
<path d="M143.578 221.481C144.149 221.752 144.777 221.877 145.408 221.845C146.039 221.813 146.652 221.624 147.192 221.297C147.469 221.128 147.693 221.578 147.418 221.746C146.82 222.105 146.143 222.312 145.446 222.349C144.749 222.386 144.053 222.252 143.42 221.958C143.358 221.935 143.307 221.89 143.278 221.831C143.248 221.772 143.242 221.704 143.261 221.64C143.282 221.577 143.327 221.525 143.386 221.495C143.446 221.465 143.515 221.46 143.578 221.481Z" fill="white"/>
<path d="M182.484 233.035C182.315 233.146 182.145 233.256 181.975 233.37C179.702 234.865 177.555 236.542 175.553 238.384C175.396 238.524 175.239 238.669 175.087 238.813C170.312 243.303 166.413 248.641 163.587 254.554C162.464 256.909 161.523 259.345 160.77 261.842C159.731 265.291 158.878 269.113 156.821 271.933C156.61 272.23 156.38 272.514 156.134 272.782H137.541C137.499 272.761 137.457 272.744 137.414 272.722L136.672 272.756C136.702 272.625 136.735 272.489 136.765 272.358C136.782 272.281 136.803 272.205 136.82 272.129C136.833 272.078 136.846 272.027 136.854 271.98C136.858 271.963 136.863 271.946 136.867 271.933C136.875 271.887 136.888 271.844 136.897 271.802C137.083 271.043 137.276 270.283 137.474 269.524C137.474 269.52 137.474 269.52 137.478 269.516C138.931 263.715 141.067 258.108 143.841 252.811C143.926 252.654 144.01 252.493 144.104 252.336C145.388 249.991 146.862 247.755 148.511 245.651C149.418 244.501 150.382 243.398 151.4 242.346C154.036 239.633 157.082 237.351 160.426 235.585C167.095 232.064 174.815 230.715 181.941 232.866C182.124 232.921 182.302 232.976 182.484 233.035Z" fill="#F0F0F0"/>
<path d="M182.442 233.27C173.184 235.109 164.74 239.818 158.311 246.729C156.9 248.192 155.729 249.869 154.841 251.696C154.033 253.505 153.724 255.497 153.946 257.465C154.116 259.304 154.504 261.166 154.224 263.015C154.066 263.959 153.711 264.86 153.182 265.657C152.652 266.454 151.96 267.131 151.151 267.642C149.167 268.968 146.825 269.502 144.517 269.944C141.954 270.436 139.285 270.906 137.146 272.507C136.887 272.701 136.601 272.287 136.86 272.094C140.581 269.308 145.568 269.893 149.639 267.927C151.538 267.009 153.173 265.514 153.643 263.388C154.055 261.529 153.657 259.609 153.469 257.748C153.224 255.831 153.452 253.884 154.133 252.075C154.926 250.208 156.031 248.489 157.4 246.993C160.429 243.574 163.976 240.653 167.912 238.337C172.39 235.668 177.291 233.785 182.404 232.769C182.72 232.706 182.756 233.208 182.442 233.27Z" fill="white"/>
<path d="M160.251 244.383C159.238 243.147 158.697 241.591 158.726 239.993C158.754 238.395 159.349 236.859 160.405 235.66C160.62 235.418 161.006 235.74 160.791 235.982C159.806 237.097 159.251 238.528 159.228 240.016C159.205 241.504 159.714 242.952 160.664 244.097C160.87 244.346 160.456 244.631 160.251 244.383Z" fill="white"/>
<path d="M153.738 256.544C156.986 256.896 160.247 256.01 162.871 254.064C163.131 253.871 163.417 254.284 163.157 254.477C160.423 256.497 157.027 257.412 153.648 257.039C153.326 257.003 153.417 256.508 153.738 256.544Z" fill="white"/>
<path d="M172.476 236.33C172.769 236.89 173.195 237.369 173.718 237.723C174.241 238.077 174.844 238.296 175.473 238.36C175.795 238.392 175.703 238.886 175.383 238.854C174.689 238.781 174.023 238.538 173.445 238.148C172.866 237.758 172.392 237.232 172.063 236.617C172.027 236.561 172.014 236.494 172.026 236.429C172.037 236.364 172.074 236.306 172.127 236.267C172.181 236.229 172.249 236.215 172.314 236.227C172.38 236.239 172.438 236.276 172.476 236.33Z" fill="white"/>
<path d="M465.006 242.974C463.79 233.19 457.726 223.551 448.396 220.367C452.076 230.437 452.075 241.484 448.394 251.553C446.96 255.431 444.962 259.595 446.31 263.504C447.149 265.936 449.202 267.797 451.497 268.96C453.791 270.124 456.338 270.678 458.852 271.221L459.347 271.631C463.339 262.617 466.223 252.757 465.006 242.974Z" fill="#F0F0F0"/>
<path d="M448.304 220.553C453.737 226.641 457.114 234.286 457.955 242.403C458.167 244.147 458.103 245.914 457.765 247.638C457.382 249.307 456.558 250.842 455.38 252.085C454.305 253.267 453.069 254.35 452.3 255.772C451.917 256.506 451.694 257.312 451.644 258.138C451.595 258.964 451.72 259.791 452.013 260.565C452.692 262.513 454.031 264.1 455.393 265.607C456.906 267.281 458.505 268.994 459.148 271.213C459.226 271.481 459.638 271.345 459.56 271.076C458.441 267.217 454.695 265.025 452.908 261.549C452.075 259.927 451.725 258.044 452.506 256.332C453.19 254.834 454.464 253.716 455.562 252.53C456.729 251.334 457.585 249.871 458.056 248.268C458.481 246.566 458.613 244.805 458.447 243.059C458.136 239.123 457.207 235.26 455.696 231.613C453.994 227.44 451.591 223.589 448.591 220.227C448.405 220.019 448.119 220.346 448.304 220.553Z" fill="white"/>
<path d="M457.837 239.773C459.179 239.447 460.362 238.654 461.175 237.537C461.987 236.419 462.375 235.049 462.271 233.671C462.248 233.393 461.814 233.414 461.837 233.693C461.936 234.976 461.574 236.252 460.816 237.291C460.058 238.33 458.953 239.064 457.701 239.36C457.429 239.425 457.566 239.837 457.837 239.773Z" fill="white"/>
<path d="M456.002 251.559C453.577 250.111 451.787 247.802 450.989 245.093C450.91 244.824 450.498 244.961 450.576 245.229C451.412 248.047 453.28 250.446 455.807 251.947C456.048 252.09 456.242 251.701 456.002 251.559Z" fill="white"/>
<path d="M453.59 227.851C453.097 228.085 452.553 228.194 452.008 228.166C451.463 228.138 450.933 227.975 450.466 227.692C450.227 227.546 450.033 227.935 450.27 228.08C450.788 228.391 451.373 228.57 451.976 228.602C452.578 228.634 453.179 228.518 453.726 228.264C453.78 228.244 453.824 228.205 453.85 228.154C453.876 228.103 453.881 228.044 453.865 227.989C453.846 227.935 453.807 227.89 453.756 227.864C453.704 227.838 453.645 227.833 453.59 227.851Z" fill="white"/>
<path d="M419.955 237.841C420.102 237.936 420.248 238.032 420.395 238.131C422.36 239.423 424.217 240.872 425.947 242.465C426.083 242.586 426.219 242.711 426.351 242.836C430.478 246.718 433.849 251.332 436.292 256.445C437.263 258.48 438.077 260.586 438.727 262.745C439.626 265.726 440.363 269.03 442.141 271.469C442.324 271.725 442.523 271.97 442.736 272.202H458.809C458.845 272.184 458.882 272.169 458.919 272.151L459.561 272.18C459.535 272.067 459.506 271.949 459.48 271.836C459.465 271.77 459.447 271.704 459.432 271.638C459.421 271.594 459.41 271.55 459.403 271.509C459.399 271.495 459.395 271.48 459.392 271.469C459.385 271.429 459.373 271.392 459.366 271.355C459.205 270.699 459.039 270.042 458.867 269.386C458.867 269.382 458.867 269.382 458.864 269.379C457.608 264.364 455.761 259.517 453.363 254.937C453.29 254.802 453.216 254.662 453.136 254.527C452.025 252.5 450.751 250.567 449.325 248.747C448.542 247.753 447.708 246.8 446.828 245.89C444.549 243.545 441.916 241.572 439.024 240.045C433.26 237.001 426.585 235.835 420.424 237.694C420.267 237.742 420.113 237.79 419.955 237.841Z" fill="#F0F0F0"/>
<path d="M419.993 238.045C427.997 239.635 435.297 243.706 440.855 249.681C442.074 250.946 443.087 252.395 443.855 253.975C444.553 255.538 444.82 257.26 444.628 258.962C444.481 260.552 444.146 262.162 444.388 263.76C444.524 264.576 444.831 265.355 445.289 266.044C445.747 266.733 446.345 267.318 447.045 267.76C448.76 268.906 450.784 269.368 452.78 269.751C454.995 270.176 457.303 270.582 459.152 271.966C459.376 272.133 459.624 271.776 459.4 271.609C456.183 269.201 451.872 269.706 448.352 268.006C446.71 267.213 445.297 265.92 444.89 264.083C444.534 262.476 444.878 260.816 445.041 259.207C445.253 257.55 445.056 255.866 444.466 254.302C443.781 252.688 442.826 251.203 441.643 249.909C439.024 246.953 435.957 244.428 432.555 242.426C428.684 240.118 424.447 238.49 420.027 237.612C419.753 237.558 419.721 237.992 419.993 238.045Z" fill="white"/>
<path d="M439.176 247.651C440.052 246.582 440.519 245.237 440.495 243.856C440.47 242.474 439.955 241.146 439.042 240.109C438.857 239.9 438.523 240.179 438.709 240.388C439.561 241.352 440.04 242.589 440.06 243.875C440.08 245.162 439.64 246.413 438.819 247.403C438.64 247.619 438.999 247.865 439.176 247.651Z" fill="white"/>
<path d="M444.808 258.166C442 258.47 439.181 257.704 436.912 256.022C436.687 255.855 436.44 256.212 436.665 256.379C439.029 258.125 441.964 258.916 444.886 258.594C445.164 258.563 445.085 258.135 444.808 258.166Z" fill="white"/>
<path d="M428.608 240.691C428.355 241.175 427.986 241.589 427.534 241.895C427.082 242.201 426.561 242.39 426.017 242.445C425.739 242.473 425.818 242.9 426.095 242.873C426.695 242.809 427.27 242.6 427.771 242.262C428.271 241.925 428.681 241.47 428.965 240.938C428.996 240.89 429.007 240.832 428.997 240.776C428.987 240.72 428.956 240.67 428.91 240.636C428.863 240.603 428.804 240.591 428.748 240.601C428.691 240.611 428.641 240.644 428.608 240.691Z" fill="white"/>
<path d="M498.554 20.4047H120.289C120.144 20.4047 120.004 20.3468 119.901 20.2439C119.798 20.1409 119.74 20.0013 119.74 19.8557C119.74 19.71 119.798 19.5704 119.901 19.4674C120.004 19.3645 120.144 19.3066 120.289 19.3066H498.554C498.7 19.3066 498.84 19.3645 498.942 19.4674C499.045 19.5704 499.103 19.71 499.103 19.8557C499.103 20.0013 499.045 20.1409 498.942 20.2439C498.84 20.3468 498.7 20.4047 498.554 20.4047Z" fill="#CACACA"/>
<path d="M132.646 12.7188C135.982 12.7188 138.686 10.015 138.686 6.67969C138.686 3.34441 135.982 0.640625 132.646 0.640625C129.311 0.640625 126.607 3.34441 126.607 6.67969C126.607 10.015 129.311 12.7188 132.646 12.7188Z" fill="#3F3D56"/>
<path d="M153.51 12.7188C156.845 12.7188 159.549 10.015 159.549 6.67969C159.549 3.34441 156.845 0.640625 153.51 0.640625C150.174 0.640625 147.471 3.34441 147.471 6.67969C147.471 10.015 150.174 12.7188 153.51 12.7188Z" fill="#3F3D56"/>
<path d="M174.371 12.7188C177.706 12.7188 180.41 10.015 180.41 6.67969C180.41 3.34441 177.706 0.640625 174.371 0.640625C171.036 0.640625 168.332 3.34441 168.332 6.67969C168.332 10.015 171.036 12.7188 174.371 12.7188Z" fill="#3F3D56"/>
<path d="M486.054 4.33469H471.231C470.94 4.33469 470.66 4.21901 470.454 4.0131C470.249 3.80718 470.133 3.52789 470.133 3.23668C470.133 2.94547 470.249 2.66619 470.454 2.46027C470.66 2.25435 470.94 2.13867 471.231 2.13867H486.054C486.198 2.13834 486.341 2.1665 486.475 2.22153C486.608 2.27656 486.73 2.35739 486.832 2.45938C486.934 2.56137 487.015 2.68253 487.071 2.81591C487.126 2.94929 487.155 3.09228 487.155 3.23668C487.155 3.38109 487.126 3.52408 487.071 3.65746C487.015 3.79084 486.934 3.912 486.832 4.01399C486.73 4.11598 486.608 4.1968 486.475 4.25184C486.341 4.30687 486.198 4.33502 486.054 4.33469Z" fill="#3F3D56"/>
<path d="M486.054 8.45189H471.231C470.94 8.45189 470.66 8.33621 470.454 8.13029C470.249 7.92437 470.133 7.64509 470.133 7.35388C470.133 7.06267 470.249 6.78338 470.454 6.57746C470.66 6.37155 470.94 6.25586 471.231 6.25586H486.054C486.345 6.25586 486.624 6.37155 486.83 6.57746C487.036 6.78338 487.152 7.06267 487.152 7.35388C487.152 7.64509 487.036 7.92437 486.83 8.13029C486.624 8.33621 486.345 8.45189 486.054 8.45189Z" fill="#3F3D56"/>
<path d="M486.054 12.5691H471.231C470.94 12.5691 470.66 12.4534 470.454 12.2475C470.249 12.0416 470.133 11.7623 470.133 11.4711C470.133 11.1798 470.249 10.9006 470.454 10.6946C470.66 10.4887 470.94 10.373 471.231 10.373H486.054C486.198 10.3727 486.341 10.4009 486.475 10.4559C486.608 10.5109 486.73 10.5918 486.832 10.6938C486.934 10.7957 487.015 10.9169 487.071 11.0503C487.126 11.1837 487.155 11.3267 487.155 11.4711C487.155 11.6155 487.126 11.7585 487.071 11.8918C487.015 12.0252 486.934 12.1464 486.832 12.2484C486.73 12.3504 486.608 12.4312 486.475 12.4862C486.341 12.5412 486.198 12.5694 486.054 12.5691Z" fill="#3F3D56"/>
<path d="M487.153 43.9473H408.096V91.3468H487.153V43.9473Z" fill="#03989E"/>
<path d="M471.382 113.123H424.343C423.756 113.122 423.193 112.888 422.779 112.472C422.364 112.057 422.131 111.494 422.131 110.907C422.131 110.32 422.364 109.757 422.779 109.342C423.193 108.926 423.756 108.692 424.343 108.691H471.382C471.969 108.691 472.533 108.925 472.948 109.34C473.364 109.756 473.597 110.319 473.597 110.907C473.597 111.495 473.364 112.058 472.948 112.474C472.533 112.889 471.969 113.123 471.382 113.123Z" fill="#03989E" fill-opacity="0.3"/>
<path d="M463.797 105.539H431.926C431.635 105.539 431.346 105.482 431.077 105.371C430.808 105.26 430.563 105.097 430.357 104.891C430.151 104.685 429.988 104.441 429.876 104.172C429.764 103.903 429.707 103.614 429.707 103.323C429.707 103.032 429.764 102.743 429.876 102.474C429.988 102.205 430.151 101.961 430.357 101.755C430.563 101.549 430.808 101.386 431.077 101.275C431.346 101.164 431.635 101.107 431.926 101.107H463.797C464.088 101.107 464.376 101.164 464.646 101.275C464.915 101.386 465.159 101.549 465.366 101.755C465.572 101.961 465.735 102.205 465.847 102.474C465.958 102.743 466.016 103.032 466.016 103.323C466.016 103.614 465.958 103.903 465.847 104.172C465.735 104.441 465.572 104.685 465.366 104.891C465.159 105.097 464.915 105.26 464.646 105.371C464.376 105.482 464.088 105.539 463.797 105.539Z" fill="#03989E" fill-opacity="0.3"/>
<path d="M487.153 130.141H408.096V177.54H487.153V130.141Z" fill="#F0F0F0"/>
<path d="M471.381 199.316H424.343C423.755 199.316 423.191 199.083 422.776 198.667C422.36 198.252 422.127 197.688 422.127 197.1C422.127 196.513 422.36 195.949 422.776 195.534C423.191 195.118 423.755 194.885 424.343 194.885H471.381C471.969 194.885 472.532 195.118 472.948 195.534C473.363 195.949 473.597 196.513 473.597 197.1C473.597 197.688 473.363 198.252 472.948 198.667C472.532 199.083 471.969 199.316 471.381 199.316Z" fill="#03989E" fill-opacity="0.3"/>
<path d="M463.799 191.732H431.928C431.341 191.732 430.777 191.499 430.362 191.083C429.946 190.668 429.713 190.104 429.713 189.516C429.713 188.929 429.946 188.365 430.362 187.95C430.777 187.534 431.341 187.301 431.928 187.301H463.799C464.386 187.301 464.95 187.534 465.366 187.95C465.781 188.365 466.014 188.929 466.014 189.516C466.014 190.104 465.781 190.668 465.366 191.083C464.95 191.499 464.386 191.732 463.799 191.732Z" fill="#03989E" fill-opacity="0.3"/>
<path d="M367.557 77.1792H128.923C128.335 77.1792 127.771 76.9458 127.356 76.5303C126.94 76.1148 126.707 75.5512 126.707 74.9636C126.707 74.376 126.94 73.8125 127.356 73.397C127.771 72.9815 128.335 72.748 128.923 72.748H367.557C368.145 72.748 368.709 72.9815 369.124 73.397C369.54 73.8125 369.773 74.376 369.773 74.9636C369.773 75.5512 369.54 76.1148 369.124 76.5303C368.709 76.9458 368.145 77.1792 367.557 77.1792Z" fill="#03989E" fill-opacity="0.3"/>
<path d="M367.557 93.9663H128.923C128.335 93.9663 127.771 93.7329 127.356 93.3174C126.94 92.9019 126.707 92.3384 126.707 91.7507C126.707 91.1631 126.94 90.5996 127.356 90.1841C127.771 89.7686 128.335 89.5352 128.923 89.5352H367.557C368.145 89.5352 368.709 89.7686 369.124 90.1841C369.54 90.5996 369.773 91.1631 369.773 91.7507C369.773 92.3384 369.54 92.9019 369.124 93.3174C368.709 93.7329 368.145 93.9663 367.557 93.9663Z" fill="#03989E" fill-opacity="0.3"/>
<path d="M367.557 110.753H128.923C128.335 110.753 127.771 110.52 127.356 110.105C126.94 109.689 126.707 109.125 126.707 108.538C126.707 107.95 126.94 107.387 127.356 106.971C127.771 106.556 128.335 106.322 128.923 106.322H367.557C368.145 106.322 368.709 106.556 369.124 106.971C369.54 107.387 369.773 107.95 369.773 108.538C369.773 109.125 369.54 109.689 369.124 110.105C368.709 110.52 368.145 110.753 367.557 110.753Z" fill="#03989E" fill-opacity="0.3"/>
<path d="M367.557 127.539H128.923C128.335 127.539 127.771 127.305 127.356 126.89C126.94 126.474 126.707 125.911 126.707 125.323C126.707 124.735 126.94 124.172 127.356 123.756C127.771 123.341 128.335 123.107 128.923 123.107H367.557C368.145 123.107 368.709 123.341 369.124 123.756C369.54 124.172 369.773 124.735 369.773 125.323C369.773 125.911 369.54 126.474 369.124 126.89C368.709 127.305 368.145 127.539 367.557 127.539Z" fill="#03989E" fill-opacity="0.3"/>
<path d="M367.557 161.113H128.923C128.335 161.113 127.771 160.879 127.356 160.464C126.94 160.048 126.707 159.485 126.707 158.897C126.707 158.31 126.94 157.746 127.356 157.331C127.771 156.915 128.335 156.682 128.923 156.682H367.557C368.145 156.682 368.709 156.915 369.124 157.331C369.54 157.746 369.773 158.31 369.773 158.897C369.773 159.485 369.54 160.048 369.124 160.464C368.709 160.879 368.145 161.113 367.557 161.113Z" fill="#03989E" fill-opacity="0.3"/>
<path d="M367.557 177.898H128.923C128.335 177.898 127.771 177.665 127.356 177.249C126.94 176.834 126.707 176.27 126.707 175.682C126.707 175.095 126.94 174.531 127.356 174.116C127.771 173.7 128.335 173.467 128.923 173.467H367.557C368.145 173.467 368.709 173.7 369.124 174.116C369.54 174.531 369.773 175.095 369.773 175.682C369.773 176.27 369.54 176.834 369.124 177.249C368.709 177.665 368.145 177.898 367.557 177.898Z" fill="#03989E" fill-opacity="0.3"/>
<path d="M328.136 60.3355H168.342C168.051 60.336 167.762 60.279 167.493 60.1679C167.224 60.0567 166.979 59.8936 166.773 59.6878C166.567 59.482 166.404 59.2376 166.292 58.9686C166.18 58.6996 166.123 58.4111 166.123 58.1199C166.123 57.8286 166.18 57.5402 166.292 57.2712C166.404 57.0022 166.567 56.7577 166.773 56.552C166.979 56.3462 167.224 56.1831 167.493 56.0719C167.762 55.9608 168.051 55.9038 168.342 55.9043H328.136C328.428 55.9038 328.716 55.9608 328.985 56.0719C329.254 56.1831 329.499 56.3462 329.705 56.552C329.911 56.7577 330.075 57.0022 330.186 57.2712C330.298 57.5402 330.355 57.8286 330.355 58.1199C330.355 58.4111 330.298 58.6996 330.186 58.9686C330.075 59.2376 329.911 59.482 329.705 59.6878C329.499 59.8936 329.254 60.0567 328.985 60.1679C328.716 60.279 328.428 60.336 328.136 60.3355Z" fill="#03989E" fill-opacity="0.3"/>
<path d="M389.364 268.522H393.977L396.172 250.727L389.363 250.727L389.364 268.522Z" fill="#FFB6B6"/>
<path d="M388.188 267.016L397.273 267.016C398.809 267.016 400.282 267.626 401.368 268.712C402.454 269.797 403.064 271.27 403.064 272.806V272.994L388.188 272.994L388.188 267.016Z" fill="#03989E"/>
<path d="M365.782 268.522H370.396L372.591 250.727L365.781 250.727L365.782 268.522Z" fill="#FFB6B6"/>
<path d="M364.605 267.016L373.691 267.016C375.227 267.016 376.7 267.626 377.786 268.712C378.872 269.797 379.482 271.27 379.482 272.806V272.994L364.606 272.994L364.605 267.016Z" fill="#03989E"/>
<path d="M419.657 70.219C419.657 69.4446 419.486 68.6798 419.155 67.9796C418.824 67.2794 418.343 66.6611 417.745 66.1693C417.147 65.6774 416.447 65.3243 415.696 65.1352C414.945 64.9461 414.162 64.9258 413.402 65.0757C412.642 65.2256 411.925 65.542 411.302 66.0022C410.68 66.4624 410.166 67.0548 409.8 67.737C409.434 68.4192 409.223 69.1741 409.183 69.9474C409.143 70.7207 409.275 71.4933 409.57 72.2095L398.967 88.984L392.367 102.286L397.814 107.12L402.005 102.708L415.714 75.2907C416.841 75.0031 417.84 74.3486 418.554 73.4303C419.268 72.512 419.656 71.3821 419.657 70.219Z" fill="#FFB6B6"/>
<path d="M364.635 125.24L354.242 123.629L351.767 142.43L338.278 171.456C337.398 172.005 336.701 172.801 336.274 173.746C335.847 174.691 335.71 175.741 335.879 176.763C336.049 177.786 336.518 178.736 337.227 179.492C337.936 180.248 338.854 180.777 339.863 181.012C340.873 181.247 341.93 181.177 342.9 180.812C343.87 180.446 344.71 179.801 345.314 178.958C345.917 178.116 346.258 177.113 346.291 176.077C346.325 175.041 346.051 174.018 345.504 173.137L359.607 147.671L364.635 125.24Z" fill="#FFB6B6"/>
<path d="M370.396 156.562C370.396 156.562 361.257 165.013 362.418 186.263L364.979 219.09L364.333 264.85L373.72 264.112L381.921 187.425L389.781 218.866L386.959 260.75L396.001 260.959L405.502 213.626L403.25 178.539L399.467 156.562H370.396Z" fill="#03989E"/>
<path d="M380.172 107.074L358.338 113.188L369.44 146.451L367.78 159.176L401.446 159.394L393.649 134.799C393.649 134.799 398.025 125.801 393.029 119.494L380.172 107.074Z" fill="#03989E"/>
<path d="M377.553 112.315L380.173 107.075C380.173 107.075 380.088 105.758 386.244 105.107L393.467 97.9277L400.078 104.517L388.907 121.049L377.553 112.315Z" fill="#03989E"/>
<path d="M367.072 117.554C367.072 117.554 359.211 108.821 354.844 113.188C350.477 117.554 352.716 131.44 352.716 131.44L366.318 133.551L367.072 117.554Z" fill="#03989E"/>
<path d="M371.059 83.9824C384.445 84.0425 384.444 104.396 371.058 104.454C357.673 104.394 357.674 84.0406 371.059 83.9824Z" fill="#FFB6B6"/>
<path d="M372.549 93.5432C374.359 94.6088 376.239 95.6986 378.326 95.9271C380.414 96.1556 382.777 95.2771 383.615 93.3515C383.876 92.6842 384.015 91.9751 384.025 91.2585C384.208 87.6012 382.943 84.019 380.503 81.2887C379.278 79.9504 377.779 78.8919 376.108 78.1855C374.437 77.479 372.634 77.1412 370.821 77.195C367.362 77.3454 364.166 78.9827 361.096 80.5844C358.274 82.0575 355.294 83.6805 353.76 86.4706C351.487 90.6049 353.144 95.6667 353.585 100.364C353.895 103.866 353.496 107.395 352.412 110.74C351.328 114.084 349.581 117.176 347.275 119.831L366.321 121.636C368.639 121.855 371.003 122.073 373.275 121.565C375.235 121.127 377.04 120.166 378.498 118.785C379.956 117.403 381.012 115.652 381.554 113.718C382.096 111.784 382.104 109.739 381.577 107.801C381.05 105.863 380.008 104.104 378.561 102.711C375.857 100.108 371.51 98.2655 371.403 94.5143" fill="#03989E"/>
<path d="M514.49 268.096H509.437L507.033 248.605H514.491L514.49 268.096Z" fill="#9F616A"/>
<path d="M515.778 272.994L499.484 272.993V272.787C499.484 271.105 500.153 269.492 501.342 268.303C502.531 267.114 504.144 266.445 505.826 266.445L515.778 266.446L515.778 272.994Z" fill="#03989E"/>
<path d="M561.475 268.096H556.421L554.018 248.605H561.475L561.475 268.096Z" fill="#9F616A"/>
<path d="M562.764 272.994L546.471 272.993V272.787C546.471 271.105 547.139 269.492 548.328 268.303C549.518 267.114 551.131 266.445 552.813 266.445L562.764 266.446L562.764 272.994Z" fill="#03989E"/>
<path d="M512.475 169.186C512.475 169.186 508.233 180.698 508.839 185.546C509.445 190.393 504.598 224.325 505.204 227.354C505.81 230.384 504.598 245.532 505.204 247.956C505.81 250.379 503.503 253.274 504.715 255.698C505.927 258.122 507.628 263.104 507.628 263.104L515.504 262.498L516.716 255.833C516.716 255.833 520.352 255.227 519.746 251.591C519.14 247.956 522.776 223.719 522.776 223.719L533.076 189.787L547.618 220.689C547.618 220.689 548.224 242.502 550.042 244.926C551.86 247.35 548.224 254.015 550.042 256.438C551.86 258.862 553.677 263.104 553.677 263.104H562.766V258.256C562.766 258.256 568.22 255.227 562.766 246.138L559.081 191.556L555.446 166.713L512.475 169.186Z" fill="#03989E"/>
<path d="M535.063 92.9975C541.313 92.9975 546.38 87.9307 546.38 81.6804C546.38 75.4301 541.313 70.3633 535.063 70.3633C528.813 70.3633 523.746 75.4301 523.746 81.6804C523.746 87.9307 528.813 92.9975 535.063 92.9975Z" fill="#A0616A"/>
<path d="M525.432 80.9002C526.231 82.9405 527.029 84.9808 527.828 87.0211C528.809 89.5294 529.934 92.2129 532.235 93.6127C535.076 95.341 538.87 94.4983 541.619 92.6261C544.091 90.9422 545.989 88.5422 547.057 85.7484C548.125 82.9546 548.313 79.9008 547.595 76.9972C546.877 74.0936 545.287 71.4793 543.04 69.5054C540.793 67.5315 537.995 66.2926 535.023 65.955L534.91 68.0037L532.396 65.8965C532.21 66.2155 531.954 66.4882 531.647 66.6942C531.341 66.9002 530.992 67.0341 530.626 67.0858C530.261 67.1375 529.888 67.1057 529.537 66.9928C529.185 66.8798 528.864 66.6887 528.596 66.4338C529.257 67.8026 528.495 69.4721 527.394 70.5207C526.042 71.8089 522.174 73.357 522.335 75.6599C522.442 77.1966 524.809 79.3077 525.432 80.9002Z" fill="#03989E"/>
<path d="M566.216 185.927C566.606 185.345 566.864 184.685 566.971 183.993C567.078 183.3 567.032 182.593 566.837 181.92C566.641 181.248 566.3 180.626 565.838 180.1C565.376 179.573 564.804 179.154 564.163 178.872L564.389 167.924L557.769 166.164L557.667 181.629C557.265 182.738 557.284 183.956 557.72 185.052C558.156 186.148 558.979 187.046 560.033 187.576C561.087 188.105 562.298 188.23 563.438 187.926C564.577 187.623 565.566 186.911 566.216 185.927Z" fill="#9F616A"/>
<path d="M543.47 99.9919C543.47 99.9919 534.7 95.607 526.417 98.5303C518.135 101.454 513.75 104.864 513.75 104.864L519.109 133.123L511.801 171.125C511.801 171.125 549.316 168.202 552.727 171.125C556.137 174.049 556.137 167.715 556.137 167.715L553.214 131.661L558.573 108.762L543.47 99.9919Z" fill="#3F3D56"/>
<path d="M506.453 186.576C506.991 186.127 507.424 185.566 507.721 184.931C508.018 184.297 508.173 183.605 508.174 182.905C508.175 182.204 508.022 181.512 507.727 180.877C507.431 180.241 507 179.679 506.463 179.228L509.754 168.784L503.895 165.236L499.455 180.051C498.758 181.002 498.434 182.176 498.545 183.351C498.655 184.525 499.193 185.618 500.056 186.422C500.918 187.226 502.046 187.686 503.225 187.715C504.404 187.743 505.553 187.338 506.453 186.576Z" fill="#9F616A"/>
<path d="M517.161 104.865H513.75C513.75 104.865 508.391 108.276 508.391 113.148C508.391 118.02 500.596 175.024 500.596 175.024L508.878 176.486L516.187 136.534L521.546 125.815L517.161 104.865Z" fill="#3F3D56"/>
<path d="M549.314 108.762H558.572C558.572 108.762 561.495 111.685 562.956 118.506C564.418 125.327 565.88 152.124 565.88 152.124L564.905 176.485H557.597L556.623 144.816L551.751 124.353L549.314 108.762Z" fill="#3F3D56"/>
<path d="M120.213 141.186C119.979 141.299 119.755 141.43 119.542 141.579L97.8691 133.107L97.01 127.52L88.4082 127.714L88.9678 137.753C89.013 138.564 89.32 139.339 89.8429 139.96C90.3657 140.582 91.0761 141.017 91.8673 141.201L117.656 147.183C117.971 148.133 118.568 148.964 119.366 149.566C120.165 150.168 121.128 150.512 122.128 150.553C123.127 150.595 124.115 150.331 124.961 149.797C125.806 149.263 126.469 148.484 126.862 147.564C127.254 146.644 127.357 145.626 127.156 144.646C126.956 143.666 126.462 142.77 125.74 142.078C125.019 141.385 124.103 140.929 123.116 140.77C122.128 140.61 121.116 140.755 120.213 141.186Z" fill="#9F616A"/>
<path d="M87.675 267.419L93.4275 267.418L96.1637 245.23H87.6738L87.675 267.419Z" fill="#9F616A"/>
<path d="M86.207 265.54L97.5357 265.539C99.4503 265.539 101.287 266.3 102.641 267.654C103.995 269.008 104.755 270.844 104.756 272.758V272.993L86.2074 272.994L86.207 265.54Z" fill="#03989E"/>
<path d="M59.9889 267.419L65.7414 267.418L68.4781 245.23H59.9883L59.9889 267.419Z" fill="#9F616A"/>
<path d="M58.5234 265.541L69.8521 265.541C71.7667 265.541 73.6034 266.302 74.9573 267.656C76.3112 269.01 77.0719 270.846 77.072 272.76V272.995L58.5238 272.996L58.5234 265.541Z" fill="#03989E"/>
<path d="M63.3255 98.2517C61.6872 91.4875 60.2993 83.8581 63.3889 77.6281C65.5326 73.3054 73.4631 71.8497 78.0092 73.407C82.5553 74.9643 85.8421 79.1893 87.2876 83.796C88.7332 88.4026 88.5652 93.3666 87.9352 98.1555C79.5743 97.9949 71.2135 97.8342 63.3255 98.2517Z" fill="#03989E"/>
<path d="M77.4352 98.2512C82.8198 98.2512 87.1848 93.8862 87.1848 88.5016C87.1848 83.117 82.8198 78.752 77.4352 78.752C72.0506 78.752 67.6855 83.117 67.6855 88.5016C67.6855 93.8862 72.0506 98.2512 77.4352 98.2512Z" fill="#9F616A"/>
<path d="M65.5178 86.4929C65.4868 84.852 65.786 83.2216 66.3975 81.6985C67.009 80.1755 67.9205 78.7909 69.0777 77.6271C70.2348 76.4633 71.6142 75.544 73.1337 74.9237C74.6532 74.3035 76.2819 73.9951 77.9229 74.0167C79.564 74.0383 81.184 74.3896 82.6866 75.0497C84.1892 75.7097 85.5438 76.6651 86.6699 77.859C87.796 79.053 88.6707 80.4611 89.2418 81.9997C89.813 83.5383 90.0691 85.176 89.9948 86.8155C81.6499 86.8332 73.3049 86.851 65.5178 86.4929Z" fill="#03989E"/>
<path d="M69.3437 134.221L65.2662 141.017C65.2662 141.017 54.0995 161.96 54.7636 179.32L57.2348 200.943L54.5228 206.249L56.3381 215.585L52.9668 222.273L59.0611 254.56L59.3204 261.562H69.175L68.6564 254.43L72.8057 222.976L79.8076 189.393L83.4383 218.383L82.1416 225.644L83.8273 231.739L86.1613 250.54L86.4206 259.617L95.3675 260.654L98.7388 227.071L100.684 211.047L90.2602 140L69.3437 134.221Z" fill="#03989E"/>
<path d="M68.052 101.406L61.9816 103.984L58.5723 118.095L65.7508 136.479L63.0672 145.664C71.1906 159.56 81.2454 161.579 93.0771 152.668C90.573 145.637 90.9348 138.408 93.4302 131.031C93.4302 131.031 99.6543 125.235 95.3064 117.7L91.159 106.442L86.0241 103.875L68.052 101.406Z" fill="#CBCBCB"/>
<path d="M89.9629 108.897L91.341 106.338C91.341 106.338 94.9752 106.885 96.4595 111.26C97.9437 115.635 98.3297 133.309 98.3297 133.309L90.5535 133.702L89.9629 108.897Z" fill="#CBCBCB"/>
<path d="M279.823 108.691L48.7389 168.246C48.1707 168.39 47.5686 168.303 47.0644 168.004C46.5602 167.705 46.1949 167.218 46.0486 166.651C45.9023 166.083 45.9869 165.481 46.2839 164.975C46.5809 164.47 47.066 164.103 47.633 163.955L278.717 104.4C278.999 104.326 279.293 104.309 279.582 104.349C279.87 104.389 280.148 104.486 280.4 104.634C280.651 104.782 280.871 104.978 281.046 105.21C281.221 105.443 281.349 105.708 281.422 105.991C281.495 106.273 281.511 106.567 281.47 106.856C281.429 107.144 281.331 107.422 281.183 107.673C281.034 107.924 280.838 108.143 280.604 108.317C280.371 108.492 280.105 108.619 279.823 108.691Z" fill="#03989E"/>
<path d="M59.4977 168.883C60.1574 168.555 60.7371 168.086 61.196 167.51C61.6549 166.933 61.9817 166.263 62.1536 165.546C62.3254 164.83 62.3381 164.084 62.1906 163.362C62.0432 162.64 61.7392 161.959 61.3002 161.367L65.0693 124.516H56.9238L53.9284 160.5C52.983 161.303 52.3653 162.425 52.1922 163.654C52.0191 164.882 52.3026 166.132 52.9891 167.165C53.6756 168.199 54.7173 168.944 55.9169 169.261C57.1165 169.578 58.3905 169.443 59.4977 168.883Z" fill="#9F616A"/>
<path d="M66.9415 108.152L64.087 104.117C64.087 104.117 59.0669 100.713 56.5076 108.546C53.9484 116.379 54.3421 130.89 54.3421 130.89L64.087 134.926L66.9415 108.152Z" fill="#CBCBCB"/>
<path d="M221.117 273.361H0.57884C0.425322 273.361 0.278092 273.3 0.169538 273.191C0.0609843 273.083 0 272.935 0 272.782C0 272.628 0.0609843 272.481 0.169538 272.373C0.278092 272.264 0.425322 272.203 0.57884 272.203H221.117C221.271 272.203 221.418 272.264 221.526 272.373C221.635 272.481 221.696 272.628 221.696 272.782C221.696 272.935 221.635 273.083 221.526 273.191C221.418 273.3 221.271 273.361 221.117 273.361Z" fill="#CACACA"/>
<path d="M568.422 273.361H347.884C347.73 273.361 347.583 273.3 347.474 273.191C347.366 273.083 347.305 272.935 347.305 272.782C347.305 272.628 347.366 272.481 347.474 272.373C347.583 272.264 347.73 272.203 347.884 272.203H568.422C568.575 272.203 568.722 272.264 568.831 272.373C568.94 272.481 569.001 272.628 569.001 272.782C569.001 272.935 568.94 273.083 568.831 273.191C568.722 273.3 568.575 273.361 568.422 273.361Z" fill="#CACACA"/>
</g>
<defs>
<clipPath id="clip0_1119_6479">
<rect width="569" height="272.72" fill="white" transform="translate(0 0.640625)"/>
</clipPath>
</defs>
</svg>
