<svg width="24" height="21" viewBox="0 0 24 21" fill="none" xmlns="http://www.w3.org/2000/svg">
<path d="M10.5044 1.87391C6.56741 4.39391 4.59941 7.43091 4.59941 10.9809C4.59941 12.0859 4.79241 12.6379 5.17641 12.6379L5.57241 12.5309C5.88441 12.4109 6.13541 12.3509 6.32841 12.3509C7.45541 12.3509 8.39841 12.7609 9.15341 13.5809C9.90941 14.4009 10.2874 15.4109 10.2874 16.6169C10.2874 17.7739 9.87741 18.7569 9.06241 19.5639C8.24641 20.3709 7.26241 20.7739 6.11041 20.7739C4.50241 20.7739 3.17541 20.1139 2.13041 18.7909C1.08741 17.4709 0.566406 15.8109 0.566406 13.8139C0.566406 11.5539 1.00841 9.48691 1.89641 7.61091C2.78641 5.73591 4.14041 4.04091 5.96441 2.52591C7.78841 1.01191 8.95241 0.253906 9.45641 0.253906C9.79241 0.253906 10.0684 0.415906 10.2844 0.739906C10.5004 1.06291 10.6084 1.34491 10.6084 1.58491L10.5014 1.87291L10.5044 1.87391ZM23.4644 1.87391C19.5274 4.39391 17.5604 7.42991 17.5604 10.9819C17.5604 12.0869 17.7534 12.6389 18.1374 12.6389L18.5334 12.5319C18.8454 12.4119 19.0964 12.3519 19.2894 12.3519C20.3924 12.3519 21.3294 12.7619 22.0964 13.5819C22.8664 14.4019 23.2484 15.4119 23.2484 16.6179C23.2484 17.7749 22.8384 18.7579 22.0234 19.5649C21.2074 20.3719 20.2234 20.7749 19.0714 20.7749C17.4634 20.7749 16.1364 20.1149 15.0914 18.7919C14.0484 17.4719 13.5274 15.8119 13.5274 13.8149C13.5274 11.5309 13.9754 9.44491 14.8774 7.55891C15.7774 5.67191 17.1324 3.98191 18.9444 2.49191C20.7594 1.00091 21.9164 0.254907 22.4194 0.254907C22.7564 0.254907 23.0324 0.416906 23.2494 0.740906C23.4644 1.06491 23.5724 1.34691 23.5724 1.58691L23.4644 1.87391Z" fill="#03989E"/>
</svg>
