<svg width="54" height="35" viewBox="0 0 54 35" fill="none" xmlns="http://www.w3.org/2000/svg">
<mask id="path-1-outside-1_3155_7158" maskUnits="userSpaceOnUse" x="-2.5" y="-2" width="59" height="39" fill="black">
<rect fill="white" x="-2.5" y="-2" width="59" height="39"/>
<path d="M28.62 17.44C28.62 22.6 27.34 26.74 24.78 29.86C22.26 32.98 18.76 34.54 14.28 34.54C9.84 34.54 6.42 33.1 4.02 30.22C1.62 27.3 0.42 23.26 0.42 18.1C0.42 12.9 1.68 8.74 4.2 5.62C6.76 2.46 10.26 0.879997 14.7 0.879997C19.18 0.879997 22.62 2.34 25.02 5.26C27.42 8.18 28.62 12.24 28.62 17.44ZM15.12 31.36C17.44 31.36 19.16 30.66 20.28 29.26C21 28.34 21.6 26.86 22.08 24.82C22.56 22.78 22.8 20.56 22.8 18.16C22.8 14.04 22.04 10.66 20.52 8.02C19.04 5.38 16.84 4.06 13.92 4.06C11.6 4.06 9.88 4.76 8.76 6.16C8.04 7.08 7.44 8.56 6.96 10.6C6.48 12.64 6.24 14.86 6.24 17.26C6.24 21.38 6.98 24.76 8.46 27.4C9.98 30.04 12.2 31.36 15.12 31.36ZM37.2108 34L36.8508 31.66C39.1308 31.3 40.6708 30.88 41.4708 30.4C42.2708 29.92 42.6708 29.2 42.6708 28.24V9.82C42.6708 7.82 42.5708 6.62 42.3708 6.22C42.2108 5.82 41.7308 5.62 40.9308 5.62C40.1708 5.62 38.8308 5.72 36.9108 5.92L36.4308 3.64C37.6308 3.12 39.4308 2.6 41.8308 2.08C44.2308 1.52 46.0908 1.22 47.4108 1.18L48.0708 1.78V29.68C48.0708 30.16 48.1708 30.48 48.3708 30.64C48.6108 30.76 48.9108 30.86 49.2708 30.94L53.8908 31.66L53.6508 34H37.2108Z"/>
</mask>
<path d="M24.78 29.86L23.2339 28.5914L23.229 28.5973L23.2241 28.6033L24.78 29.86ZM4.02 30.22L2.47488 31.49L2.48356 31.5004L4.02 30.22ZM4.2 5.62L2.64597 4.36104L2.64412 4.36332L4.2 5.62ZM25.02 5.26L23.4749 6.52993L25.02 5.26ZM20.28 29.26L21.8417 30.5094L21.8484 30.501L21.855 30.4926L20.28 29.26ZM22.08 24.82L20.1332 24.3619L20.1332 24.3619L22.08 24.82ZM20.52 8.02L18.7754 8.99801L18.781 9.008L18.7868 9.01793L20.52 8.02ZM8.76 6.16L7.19826 4.91061L7.19158 4.91896L7.18499 4.92738L8.76 6.16ZM6.96 10.6L5.01317 10.1419L5.01317 10.1419L6.96 10.6ZM8.46 27.4L6.71544 28.378L6.72104 28.388L6.72676 28.3979L8.46 27.4ZM26.62 17.44C26.62 22.2687 25.4267 25.9188 23.2339 28.5914L26.3261 31.1286C29.2533 27.5612 30.62 22.9313 30.62 17.44H26.62ZM23.2241 28.6033C21.1315 31.1942 18.2359 32.54 14.28 32.54V36.54C19.2841 36.54 23.3885 34.7658 26.3359 31.1167L23.2241 28.6033ZM14.28 32.54C10.3124 32.54 7.50514 31.2781 5.55644 28.9396L2.48356 31.5004C5.33486 34.9219 9.36765 36.54 14.28 36.54V32.54ZM5.56508 28.9501C3.55087 26.4994 2.42 22.9653 2.42 18.1H-1.58C-1.58 23.5547 -0.310873 28.1005 2.47492 31.4899L5.56508 28.9501ZM2.42 18.1C2.42 13.2201 3.59904 9.54705 5.75588 6.87667L2.64412 4.36332C-0.239042 7.93295 -1.58 12.5799 -1.58 18.1H2.42ZM5.75403 6.87896C7.89625 4.23466 10.8001 2.88 14.7 2.88V-1.12C9.71988 -1.12 5.62375 0.685339 2.64597 4.36104L5.75403 6.87896ZM14.7 2.88C18.7048 2.88 21.5266 4.15948 23.4749 6.52993L26.5651 3.99007C23.7134 0.520516 19.6552 -1.12 14.7 -1.12V2.88ZM23.4749 6.52993C25.4871 8.97807 26.62 12.5303 26.62 17.44H30.62C30.62 11.9497 29.3529 7.38193 26.5651 3.99007L23.4749 6.52993ZM15.12 33.36C17.854 33.36 20.2358 32.5168 21.8417 30.5094L18.7183 28.0106C18.0842 28.8032 17.026 29.36 15.12 29.36V33.36ZM21.855 30.4926C22.8437 29.2293 23.525 27.4108 24.0268 25.2781L20.1332 24.3619C19.675 26.3092 19.1563 27.4507 18.705 28.0274L21.855 30.4926ZM24.0268 25.2781C24.5468 23.0681 24.8 20.6924 24.8 18.16H20.8C20.8 20.4276 20.5732 22.4919 20.1332 24.3619L24.0268 25.2781ZM24.8 18.16C24.8 13.8085 23.999 10.0542 22.2532 7.02207L18.7868 9.01793C20.081 11.2658 20.8 14.2715 20.8 18.16H24.8ZM22.2646 7.04199C21.385 5.47309 20.2373 4.20399 18.789 3.33501C17.3371 2.46387 15.6914 2.06 13.92 2.06V6.06C15.0686 6.06 15.9829 6.31613 16.731 6.76499C17.4827 7.21601 18.175 7.92691 18.7754 8.99801L22.2646 7.04199ZM13.92 2.06C11.186 2.06 8.80417 2.90323 7.19826 4.91061L10.3217 7.40939C10.9558 6.61677 12.014 6.06 13.92 6.06V2.06ZM7.18499 4.92738C6.19635 6.19065 5.51499 8.00915 5.01317 10.1419L8.90683 11.0581C9.36501 9.11085 9.88366 7.96935 10.335 7.39262L7.18499 4.92738ZM5.01317 10.1419C4.49317 12.3519 4.24 14.7276 4.24 17.26H8.24C8.24 14.9924 8.46683 12.9281 8.90683 11.0581L5.01317 10.1419ZM4.24 17.26C4.24 21.604 5.01826 25.3506 6.71544 28.378L10.2046 26.422C8.94175 24.1694 8.24 21.156 8.24 17.26H4.24ZM6.72676 28.3979C8.5847 31.6249 11.4473 33.36 15.12 33.36V29.36C12.9527 29.36 11.3753 28.4551 10.1932 26.4021L6.72676 28.3979ZM37.2108 34L35.234 34.3041L35.4949 36H37.2108V34ZM36.8508 31.66L36.5389 29.6845L34.5711 29.9952L34.874 31.9641L36.8508 31.66ZM41.4708 30.4L42.4998 32.115L42.4998 32.115L41.4708 30.4ZM42.3708 6.22L40.5138 6.96278L40.5447 7.04002L40.5819 7.11442L42.3708 6.22ZM36.9108 5.92L34.9537 6.33202L35.325 8.096L37.118 7.90924L36.9108 5.92ZM36.4308 3.64L35.6356 1.80489L34.1373 2.45414L34.4737 4.05202L36.4308 3.64ZM41.8308 2.08L42.2543 4.03465L42.2698 4.03129L42.2852 4.02768L41.8308 2.08ZM47.4108 1.18L48.7561 -0.299879L48.1581 -0.843568L47.3502 -0.819085L47.4108 1.18ZM48.0708 1.78H50.0708V0.895264L49.4161 0.300124L48.0708 1.78ZM48.3708 30.64L47.1214 32.2017L47.2868 32.3341L47.4764 32.4289L48.3708 30.64ZM49.2708 30.94L48.8369 32.8924L48.8995 32.9063L48.9628 32.9161L49.2708 30.94ZM53.8908 31.66L55.8803 31.8641L56.074 29.9761L54.1988 29.6839L53.8908 31.66ZM53.6508 34V36H55.4561L55.6403 34.2041L53.6508 34ZM39.1875 33.6959L38.8275 31.3559L34.874 31.9641L35.234 34.3041L39.1875 33.6959ZM37.1627 33.6355C39.4291 33.2777 41.3288 32.8176 42.4998 32.115L40.4418 28.685C40.0127 28.9424 38.8325 29.3223 36.5389 29.6845L37.1627 33.6355ZM42.4998 32.115C43.9233 31.2609 44.6708 29.8776 44.6708 28.24H40.6708C40.6708 28.4368 40.6319 28.5117 40.6225 28.5287C40.6145 28.5431 40.5816 28.6011 40.4418 28.685L42.4998 32.115ZM44.6708 28.24V9.82H40.6708V28.24H44.6708ZM44.6708 9.82C44.6708 8.79556 44.6455 7.93322 44.5889 7.25391C44.5606 6.91485 44.5222 6.59185 44.4678 6.30142C44.4192 6.04212 44.3346 5.67555 44.1596 5.32557L40.5819 7.11442C40.5069 6.96445 40.5099 6.89788 40.5363 7.03858C40.5568 7.14815 40.5809 7.32515 40.6027 7.58609C40.6461 8.10678 40.6708 8.84444 40.6708 9.82H44.6708ZM44.2277 5.47721C43.5613 3.81118 41.8125 3.62 40.9308 3.62V7.62C41.1942 7.62 41.2204 7.65735 41.1215 7.61615C41.0605 7.59072 40.9468 7.53269 40.8229 7.41657C40.6934 7.29521 40.5845 7.13949 40.5138 6.96278L44.2277 5.47721ZM40.9308 3.62C40.0544 3.62 38.6194 3.7312 36.7036 3.93076L37.118 7.90924C39.0422 7.7088 40.2872 7.62 40.9308 7.62V3.62ZM38.8679 5.50798L38.3879 3.22798L34.4737 4.05202L34.9537 6.33202L38.8679 5.50798ZM37.226 5.47511C38.244 5.03398 39.8915 4.54657 42.2543 4.03465L41.4073 0.125353C38.97 0.653425 37.0176 1.20601 35.6356 1.80489L37.226 5.47511ZM42.2852 4.02768C44.6465 3.47671 46.3526 3.21298 47.4714 3.17908L47.3502 -0.819085C45.829 -0.772985 43.815 -0.436713 41.3763 0.132317L42.2852 4.02768ZM46.0654 2.65987L46.7254 3.25988L49.4161 0.300124L48.7561 -0.299879L46.0654 2.65987ZM46.0708 1.78V29.68H50.0708V1.78H46.0708ZM46.0708 29.68C46.0708 30.2749 46.1634 31.4353 47.1214 32.2017L49.6202 29.0783C49.9143 29.3135 50.0222 29.5792 50.0547 29.6834C50.0849 29.7801 50.0708 29.7972 50.0708 29.68H46.0708ZM47.4764 32.4289C47.9056 32.6435 48.3722 32.7891 48.8369 32.8924L49.7046 28.9876C49.4494 28.9309 49.316 28.8765 49.2652 28.8511L47.4764 32.4289ZM48.9628 32.9161L53.5828 33.6361L54.1988 29.6839L49.5788 28.9639L48.9628 32.9161ZM51.9012 31.4559L51.6612 33.7959L55.6403 34.2041L55.8803 31.8641L51.9012 31.4559ZM53.6508 32H37.2108V36H53.6508V32Z" fill="#03989E" mask="url(#path-1-outside-1_3155_7158)"/>
</svg>
