<svg width="61" height="35" viewBox="0 0 61 35" fill="none" xmlns="http://www.w3.org/2000/svg">
<mask id="path-1-outside-1_3155_147" maskUnits="userSpaceOnUse" x="-2.5" y="-2" width="65" height="39" fill="black">
<rect fill="white" x="-2.5" y="-2" width="65" height="39"/>
<path d="M28.62 17.44C28.62 22.6 27.34 26.74 24.78 29.86C22.26 32.98 18.76 34.54 14.28 34.54C9.84 34.54 6.42 33.1 4.02 30.22C1.62 27.3 0.42 23.26 0.42 18.1C0.42 12.9 1.68 8.74 4.2 5.62C6.76 2.46 10.26 0.879997 14.7 0.879997C19.18 0.879997 22.62 2.34 25.02 5.26C27.42 8.18 28.62 12.24 28.62 17.44ZM15.12 31.36C17.44 31.36 19.16 30.66 20.28 29.26C21 28.34 21.6 26.86 22.08 24.82C22.56 22.78 22.8 20.56 22.8 18.16C22.8 14.04 22.04 10.66 20.52 8.02C19.04 5.38 16.84 4.06 13.92 4.06C11.6 4.06 9.88 4.76 8.76 6.16C8.04 7.08 7.44 8.56 6.96 10.6C6.48 12.64 6.24 14.86 6.24 17.26C6.24 21.38 6.98 24.76 8.46 27.4C9.98 30.04 12.2 31.36 15.12 31.36ZM35.9508 34V30.82C42.9908 25.1 47.1508 21.48 48.4308 19.96C50.5508 17.48 51.7708 15.66 52.0908 14.5C52.4108 13.34 52.5708 12.26 52.5708 11.26C52.5708 9.18 51.9708 7.46 50.7708 6.1C49.5708 4.74 47.9508 4.06 45.9108 4.06C43.8708 4.06 42.4708 4.36 41.7108 4.96C41.2308 5.36 40.7708 7.52 40.3308 11.44L37.0908 11.08C36.7708 9.64 36.6108 8.14 36.6108 6.58C36.6108 5.02 36.6308 4.04 36.6708 3.64C38.9908 1.8 42.1708 0.879997 46.2108 0.879997C50.2908 0.879997 53.3308 1.74 55.3308 3.46C57.3708 5.18 58.3908 7.52 58.3908 10.48C58.3908 13.4 57.1508 16.34 54.6708 19.3C52.1908 22.26 48.2508 25.6 42.8508 29.32L42.9708 29.74L46.5708 29.62C51.7308 29.46 54.6308 29.32 55.2708 29.2C55.9508 29.04 56.7108 27.48 57.5508 24.52L60.3108 24.76C60.3508 25.12 60.3708 25.72 60.3708 26.56C60.3708 29.32 60.0508 31.8 59.4108 34H35.9508Z"/>
</mask>
<path d="M24.78 29.86L23.2339 28.5914L23.229 28.5973L23.2241 28.6033L24.78 29.86ZM4.02 30.22L2.47488 31.49L2.48356 31.5004L4.02 30.22ZM4.2 5.62L2.64597 4.36104L2.64412 4.36332L4.2 5.62ZM25.02 5.26L23.4749 6.52993L25.02 5.26ZM20.28 29.26L21.8417 30.5094L21.8484 30.501L21.855 30.4926L20.28 29.26ZM22.08 24.82L20.1332 24.3619L20.1332 24.3619L22.08 24.82ZM20.52 8.02L18.7754 8.99801L18.781 9.008L18.7868 9.01793L20.52 8.02ZM8.76 6.16L7.19826 4.91061L7.19158 4.91896L7.18499 4.92738L8.76 6.16ZM6.96 10.6L5.01317 10.1419L5.01317 10.1419L6.96 10.6ZM8.46 27.4L6.71544 28.378L6.72104 28.388L6.72676 28.3979L8.46 27.4ZM26.62 17.44C26.62 22.2687 25.4267 25.9188 23.2339 28.5914L26.3261 31.1286C29.2533 27.5612 30.62 22.9313 30.62 17.44H26.62ZM23.2241 28.6033C21.1315 31.1942 18.2359 32.54 14.28 32.54V36.54C19.2841 36.54 23.3885 34.7658 26.3359 31.1167L23.2241 28.6033ZM14.28 32.54C10.3124 32.54 7.50514 31.2781 5.55644 28.9396L2.48356 31.5004C5.33486 34.9219 9.36765 36.54 14.28 36.54V32.54ZM5.56508 28.9501C3.55087 26.4994 2.42 22.9653 2.42 18.1H-1.58C-1.58 23.5547 -0.310873 28.1005 2.47492 31.4899L5.56508 28.9501ZM2.42 18.1C2.42 13.2201 3.59904 9.54705 5.75588 6.87667L2.64412 4.36332C-0.239042 7.93295 -1.58 12.5799 -1.58 18.1H2.42ZM5.75403 6.87896C7.89625 4.23466 10.8001 2.88 14.7 2.88V-1.12C9.71988 -1.12 5.62375 0.685339 2.64597 4.36104L5.75403 6.87896ZM14.7 2.88C18.7048 2.88 21.5266 4.15948 23.4749 6.52993L26.5651 3.99007C23.7134 0.520516 19.6552 -1.12 14.7 -1.12V2.88ZM23.4749 6.52993C25.4871 8.97807 26.62 12.5303 26.62 17.44H30.62C30.62 11.9497 29.3529 7.38193 26.5651 3.99007L23.4749 6.52993ZM15.12 33.36C17.854 33.36 20.2358 32.5168 21.8417 30.5094L18.7183 28.0106C18.0842 28.8032 17.026 29.36 15.12 29.36V33.36ZM21.855 30.4926C22.8437 29.2293 23.525 27.4108 24.0268 25.2781L20.1332 24.3619C19.675 26.3092 19.1563 27.4507 18.705 28.0274L21.855 30.4926ZM24.0268 25.2781C24.5468 23.0681 24.8 20.6924 24.8 18.16H20.8C20.8 20.4276 20.5732 22.4919 20.1332 24.3619L24.0268 25.2781ZM24.8 18.16C24.8 13.8085 23.999 10.0542 22.2532 7.02207L18.7868 9.01793C20.081 11.2658 20.8 14.2715 20.8 18.16H24.8ZM22.2646 7.04199C21.385 5.47309 20.2373 4.20399 18.789 3.33501C17.3371 2.46387 15.6914 2.06 13.92 2.06V6.06C15.0686 6.06 15.9829 6.31613 16.731 6.76499C17.4827 7.21601 18.175 7.92691 18.7754 8.99801L22.2646 7.04199ZM13.92 2.06C11.186 2.06 8.80417 2.90323 7.19826 4.91061L10.3217 7.40939C10.9558 6.61677 12.014 6.06 13.92 6.06V2.06ZM7.18499 4.92738C6.19635 6.19065 5.51499 8.00915 5.01317 10.1419L8.90683 11.0581C9.36501 9.11085 9.88366 7.96935 10.335 7.39262L7.18499 4.92738ZM5.01317 10.1419C4.49317 12.3519 4.24 14.7276 4.24 17.26H8.24C8.24 14.9924 8.46683 12.9281 8.90683 11.0581L5.01317 10.1419ZM4.24 17.26C4.24 21.604 5.01826 25.3506 6.71544 28.378L10.2046 26.422C8.94175 24.1694 8.24 21.156 8.24 17.26H4.24ZM6.72676 28.3979C8.5847 31.6249 11.4473 33.36 15.12 33.36V29.36C12.9527 29.36 11.3753 28.4551 10.1932 26.4021L6.72676 28.3979ZM35.9508 34H33.9508V36H35.9508V34ZM35.9508 30.82L34.6896 29.2678L33.9508 29.8681V30.82H35.9508ZM48.4308 19.96L46.9105 18.6604L46.9057 18.6661L46.901 18.6717L48.4308 19.96ZM52.0908 14.5L54.0188 15.0319L54.0188 15.0319L52.0908 14.5ZM50.7708 6.1L52.2705 4.77675L52.2705 4.77675L50.7708 6.1ZM41.7108 4.96L40.4715 3.39023L40.4507 3.40662L40.4304 3.42356L41.7108 4.96ZM40.3308 11.44L40.1099 13.4278L42.0955 13.6484L42.3183 11.6631L40.3308 11.44ZM37.0908 11.08L35.1384 11.5139L35.4486 12.9098L36.8699 13.0678L37.0908 11.08ZM36.6708 3.64L35.428 2.073L34.7649 2.59889L34.6807 3.44099L36.6708 3.64ZM55.3308 3.46L54.0267 4.97637L54.0341 4.98274L54.0416 4.98904L55.3308 3.46ZM42.8508 29.32L41.7162 27.673L40.533 28.488L40.9277 29.8694L42.8508 29.32ZM42.9708 29.74L41.0477 30.2894L41.4767 31.7909L43.0374 31.7389L42.9708 29.74ZM46.5708 29.62L46.5088 27.621L46.5042 27.6211L46.5708 29.62ZM55.2708 29.2L55.6394 31.1657L55.6843 31.1573L55.7289 31.1468L55.2708 29.2ZM57.5508 24.52L57.724 22.5275L56.0779 22.3844L55.6268 23.974L57.5508 24.52ZM60.3108 24.76L62.2985 24.5391L62.1175 22.9096L60.484 22.7675L60.3108 24.76ZM59.4108 34V36H60.9119L61.3312 34.5587L59.4108 34ZM37.9508 34V30.82H33.9508V34H37.9508ZM37.212 32.3722C40.7399 29.5058 43.5594 27.1549 45.6637 25.3237C47.7308 23.525 49.2061 22.1443 49.9606 21.2483L46.901 18.6717C46.3755 19.2957 45.1308 20.485 43.0379 22.3063C40.9822 24.0951 38.2017 26.4142 34.6896 29.2678L37.212 32.3722ZM49.951 21.2596C51.0397 19.986 51.9283 18.8463 52.5971 17.8486C53.2454 16.8814 53.7727 15.9237 54.0188 15.0319L50.1628 13.9681C50.0888 14.2363 49.8461 14.7686 49.2745 15.6214C48.7233 16.4437 47.9418 17.454 46.9105 18.6604L49.951 21.2596ZM54.0188 15.0319C54.3772 13.7325 54.5708 12.4718 54.5708 11.26H50.5708C50.5708 12.0482 50.4444 12.9475 50.1628 13.9681L54.0188 15.0319ZM54.5708 11.26C54.5708 8.76891 53.84 6.55552 52.2705 4.77675L49.2711 7.42324C50.1016 8.36447 50.5708 9.59109 50.5708 11.26H54.5708ZM52.2705 4.77675C50.641 2.93007 48.4448 2.06 45.9108 2.06V6.06C47.4567 6.06 48.5005 6.54992 49.2711 7.42324L52.2705 4.77675ZM45.9108 2.06C43.829 2.06 41.8082 2.33497 40.4715 3.39023L42.9501 6.52976C43.1334 6.38502 43.9125 6.06 45.9108 6.06V2.06ZM40.4304 3.42356C39.8691 3.89135 39.6039 4.55537 39.4771 4.90063C39.3133 5.34682 39.1739 5.87994 39.0496 6.46341C38.7994 7.63841 38.5658 9.23385 38.3433 11.2169L42.3183 11.6631C42.5357 9.72615 42.7521 8.28159 42.9619 7.29658C43.0677 6.80005 43.1608 6.47318 43.232 6.27937C43.3402 5.98463 43.3125 6.22864 42.9911 6.49644L40.4304 3.42356ZM40.5516 9.45223L37.3116 9.09223L36.8699 13.0678L40.1099 13.4278L40.5516 9.45223ZM39.0432 10.6461C38.7566 9.35651 38.6108 8.00242 38.6108 6.58H34.6108C34.6108 8.27757 34.785 9.92348 35.1384 11.5139L39.0432 10.6461ZM38.6108 6.58C38.6108 4.98472 38.633 4.11777 38.6609 3.839L34.6807 3.44099C34.6286 3.96223 34.6108 5.05528 34.6108 6.58H38.6108ZM37.9136 5.20699C39.7705 3.73423 42.459 2.88 46.2108 2.88V-1.12C41.8826 -1.12 38.211 -0.13424 35.428 2.073L37.9136 5.20699ZM46.2108 2.88C50.0621 2.88 52.5423 3.69981 54.0267 4.97637L56.6349 1.94363C54.1192 -0.219811 50.5194 -1.12 46.2108 -1.12V2.88ZM54.0416 4.98904C55.5781 6.28456 56.3908 8.03687 56.3908 10.48H60.3908C60.3908 7.00312 59.1634 4.07543 56.62 1.93095L54.0416 4.98904ZM56.3908 10.48C56.3908 12.7972 55.4143 15.2983 53.1377 18.0156L56.2038 20.5844C58.8872 17.3817 60.3908 14.0028 60.3908 10.48H56.3908ZM53.1377 18.0156C50.8265 20.7742 47.0556 23.9947 41.7162 27.673L43.9854 30.967C49.446 27.2053 53.5551 23.7458 56.2038 20.5844L53.1377 18.0156ZM40.9277 29.8694L41.0477 30.2894L44.8938 29.1906L44.7738 28.7706L40.9277 29.8694ZM43.0374 31.7389L46.6374 31.6189L46.5042 27.6211L42.9041 27.7411L43.0374 31.7389ZM46.6328 31.619C49.2169 31.5389 51.2452 31.4635 52.7122 31.3927C54.1008 31.3256 55.1515 31.2572 55.6394 31.1657L54.9022 27.2343C54.9034 27.234 54.8524 27.2427 54.7185 27.2566C54.5946 27.2695 54.4301 27.2837 54.2205 27.2991C53.8018 27.3299 53.2367 27.3627 52.5193 27.3973C51.0864 27.4665 49.0846 27.5411 46.5088 27.621L46.6328 31.619ZM55.7289 31.1468C56.5061 30.964 57.0272 30.4622 57.3293 30.1014C57.6542 29.7133 57.9218 29.2518 58.1488 28.7859C58.6054 27.8487 59.0432 26.587 59.4748 25.066L55.6268 23.974C55.2184 25.413 54.8562 26.4113 54.5528 27.0341C54.3998 27.3482 54.2974 27.4917 54.2623 27.5336C54.2044 27.6028 54.3755 27.356 54.8127 27.2532L55.7289 31.1468ZM57.3775 26.5125L60.1375 26.7525L60.484 22.7675L57.724 22.5275L57.3775 26.5125ZM58.323 24.9809C58.3497 25.2207 58.3708 25.7233 58.3708 26.56H62.3708C62.3708 25.7167 62.3519 25.0193 62.2985 24.5391L58.323 24.9809ZM58.3708 26.56C58.3708 29.1682 58.0681 31.4555 57.4904 33.4413L61.3312 34.5587C62.0335 32.1445 62.3708 29.4718 62.3708 26.56H58.3708ZM59.4108 32H35.9508V36H59.4108V32Z" fill="#03989E" mask="url(#path-1-outside-1_3155_147)"/>
</svg>
