<svg width="61" height="43" viewBox="0 0 61 43" fill="none" xmlns="http://www.w3.org/2000/svg">
<mask id="path-1-outside-1_3155_5182" maskUnits="userSpaceOnUse" x="-2" y="-2" width="65" height="47" fill="black">
<rect fill="white" x="-2" y="-2" width="65" height="47"/>
<path d="M29.12 17.44C29.12 22.6 27.84 26.74 25.28 29.86C22.76 32.98 19.26 34.54 14.78 34.54C10.34 34.54 6.92 33.1 4.52 30.22C2.12 27.3 0.92 23.26 0.92 18.1C0.92 12.9 2.18 8.74 4.7 5.62C7.26 2.46 10.76 0.879997 15.2 0.879997C19.68 0.879997 23.12 2.34 25.52 5.26C27.92 8.18 29.12 12.24 29.12 17.44ZM15.62 31.36C17.94 31.36 19.66 30.66 20.78 29.26C21.5 28.34 22.1 26.86 22.58 24.82C23.06 22.78 23.3 20.56 23.3 18.16C23.3 14.04 22.54 10.66 21.02 8.02C19.54 5.38 17.34 4.06 14.42 4.06C12.1 4.06 10.38 4.76 9.26 6.16C8.54 7.08 7.94 8.56 7.46 10.6C6.98 12.64 6.74 14.86 6.74 17.26C6.74 21.38 7.48 24.76 8.96 27.4C10.48 30.04 12.7 31.36 15.62 31.36ZM37.9508 42.28L37.6508 38.92C42.7708 38.24 46.8308 36.98 49.8308 35.14C52.8708 33.34 54.3908 31.02 54.3908 28.18C54.3908 26.3 53.6908 24.8 52.2908 23.68C50.8908 22.56 48.7708 22 45.9308 22C44.8508 22 43.8108 22.08 42.8108 22.24L42.9908 19.36C46.4708 18.8 49.0108 17.7 50.6108 16.06C52.2108 14.38 53.0108 12.56 53.0108 10.6C53.0108 8.64 52.4308 7.06 51.2708 5.86C50.1508 4.66 48.6108 4.06 46.6508 4.06C44.0508 4.06 42.4908 4.52 41.9708 5.44C41.4908 6.2 41.1508 8.2 40.9508 11.44L37.7708 11.08C37.4108 9.28 37.2308 7.7 37.2308 6.34C37.2308 4.94 37.2508 4.04 37.2908 3.64C40.0908 1.8 43.3108 0.879997 46.9508 0.879997C50.5908 0.879997 53.4508 1.62 55.5308 3.1C57.6508 4.58 58.7108 6.46 58.7108 8.74C58.7108 11.02 58.1508 12.94 57.0308 14.5C55.9108 16.06 54.4908 17.24 52.7708 18.04L52.8308 18.52C55.1108 18.96 56.9908 19.88 58.4708 21.28C59.9508 22.68 60.6908 24.58 60.6908 26.98C60.6908 30.98 58.5908 34.36 54.3908 37.12C50.1908 39.88 44.7108 41.6 37.9508 42.28Z"/>
</mask>
<path d="M25.28 29.86L23.7339 28.5914L23.729 28.5973L23.7241 28.6033L25.28 29.86ZM4.52 30.22L2.97488 31.49L2.98356 31.5004L4.52 30.22ZM4.7 5.62L3.14597 4.36104L3.14412 4.36332L4.7 5.62ZM25.52 5.26L23.9749 6.52993L25.52 5.26ZM20.78 29.26L22.3417 30.5094L22.3484 30.501L22.355 30.4926L20.78 29.26ZM22.58 24.82L20.6332 24.3619L20.6332 24.3619L22.58 24.82ZM21.02 8.02L19.2754 8.99801L19.281 9.008L19.2868 9.01793L21.02 8.02ZM9.26 6.16L7.69826 4.91061L7.69158 4.91896L7.68499 4.92738L9.26 6.16ZM7.46 10.6L5.51317 10.1419L5.51317 10.1419L7.46 10.6ZM8.96 27.4L7.21544 28.378L7.22104 28.388L7.22676 28.3979L8.96 27.4ZM27.12 17.44C27.12 22.2687 25.9267 25.9188 23.7339 28.5914L26.8261 31.1286C29.7533 27.5612 31.12 22.9313 31.12 17.44H27.12ZM23.7241 28.6033C21.6315 31.1942 18.7359 32.54 14.78 32.54V36.54C19.7841 36.54 23.8885 34.7658 26.8359 31.1167L23.7241 28.6033ZM14.78 32.54C10.8124 32.54 8.00514 31.2781 6.05644 28.9396L2.98356 31.5004C5.83486 34.9219 9.86765 36.54 14.78 36.54V32.54ZM6.06508 28.9501C4.05087 26.4994 2.92 22.9653 2.92 18.1H-1.08C-1.08 23.5547 0.189127 28.1005 2.97492 31.4899L6.06508 28.9501ZM2.92 18.1C2.92 13.2201 4.09904 9.54705 6.25588 6.87667L3.14412 4.36332C0.260958 7.93295 -1.08 12.5799 -1.08 18.1H2.92ZM6.25403 6.87896C8.39625 4.23466 11.3001 2.88 15.2 2.88V-1.12C10.2199 -1.12 6.12375 0.685339 3.14597 4.36104L6.25403 6.87896ZM15.2 2.88C19.2048 2.88 22.0266 4.15948 23.9749 6.52993L27.0651 3.99007C24.2134 0.520516 20.1552 -1.12 15.2 -1.12V2.88ZM23.9749 6.52993C25.9871 8.97807 27.12 12.5303 27.12 17.44H31.12C31.12 11.9497 29.8529 7.38193 27.0651 3.99007L23.9749 6.52993ZM15.62 33.36C18.354 33.36 20.7358 32.5168 22.3417 30.5094L19.2183 28.0106C18.5842 28.8032 17.526 29.36 15.62 29.36V33.36ZM22.355 30.4926C23.3437 29.2293 24.025 27.4108 24.5268 25.2781L20.6332 24.3619C20.175 26.3092 19.6563 27.4507 19.205 28.0274L22.355 30.4926ZM24.5268 25.2781C25.0468 23.0681 25.3 20.6924 25.3 18.16H21.3C21.3 20.4276 21.0732 22.4919 20.6332 24.3619L24.5268 25.2781ZM25.3 18.16C25.3 13.8085 24.499 10.0542 22.7532 7.02207L19.2868 9.01793C20.581 11.2658 21.3 14.2715 21.3 18.16H25.3ZM22.7646 7.04199C21.885 5.47309 20.7373 4.20399 19.289 3.33501C17.8371 2.46387 16.1914 2.06 14.42 2.06V6.06C15.5686 6.06 16.4829 6.31613 17.231 6.76499C17.9827 7.21601 18.675 7.92691 19.2754 8.99801L22.7646 7.04199ZM14.42 2.06C11.686 2.06 9.30417 2.90323 7.69826 4.91061L10.8217 7.40939C11.4558 6.61677 12.514 6.06 14.42 6.06V2.06ZM7.68499 4.92738C6.69635 6.19065 6.01499 8.00915 5.51317 10.1419L9.40683 11.0581C9.86501 9.11085 10.3837 7.96935 10.835 7.39262L7.68499 4.92738ZM5.51317 10.1419C4.99317 12.3519 4.74 14.7276 4.74 17.26H8.74C8.74 14.9924 8.96683 12.9281 9.40683 11.0581L5.51317 10.1419ZM4.74 17.26C4.74 21.604 5.51826 25.3506 7.21544 28.378L10.7046 26.422C9.44175 24.1694 8.74 21.156 8.74 17.26H4.74ZM7.22676 28.3979C9.0847 31.6249 11.9473 33.36 15.62 33.36V29.36C13.4527 29.36 11.8753 28.4551 10.6932 26.4021L7.22676 28.3979ZM37.9508 42.28L35.9587 42.4579L36.1386 44.4724L38.151 44.27L37.9508 42.28ZM37.6508 38.92L37.3875 36.9374L35.4883 37.1896L35.6587 39.0979L37.6508 38.92ZM49.8308 35.14L48.8118 33.419L48.7984 33.427L48.7851 33.4351L49.8308 35.14ZM52.2908 23.68L51.0414 25.2417L51.0414 25.2417L52.2908 23.68ZM42.8108 22.24L40.8147 22.1152L40.6588 24.6098L43.1268 24.2149L42.8108 22.24ZM42.9908 19.36L42.673 17.3854L41.0944 17.6394L40.9947 19.2352L42.9908 19.36ZM50.6108 16.06L52.0423 17.4566L52.0508 17.448L52.0591 17.4393L50.6108 16.06ZM51.2708 5.86L49.8087 7.22464L49.8206 7.23745L49.8328 7.25004L51.2708 5.86ZM41.9708 5.44L43.6618 6.50799L43.6879 6.46666L43.7119 6.42411L41.9708 5.44ZM40.9508 11.44L40.7258 13.4273L42.8173 13.6641L42.947 11.5632L40.9508 11.44ZM37.7708 11.08L35.8096 11.4722L36.0958 12.9032L37.5458 13.0673L37.7708 11.08ZM37.2908 3.64L36.1924 1.96859L35.3956 2.49223L35.3007 3.44099L37.2908 3.64ZM55.5308 3.1L54.3713 4.72958L54.3786 4.73478L54.3859 4.73991L55.5308 3.1ZM52.7708 18.04L51.9273 16.2266L50.6054 16.8414L50.7862 18.2881L52.7708 18.04ZM52.8308 18.52L50.8462 18.7681L51.0263 20.2087L52.4518 20.4838L52.8308 18.52ZM58.4708 21.28L59.8452 19.8271L59.8452 19.8271L58.4708 21.28ZM54.3908 37.12L55.4891 38.7914L55.4891 38.7914L54.3908 37.12ZM39.9429 42.1021L39.6429 38.7421L35.6587 39.0979L35.9587 42.4579L39.9429 42.1021ZM37.9141 40.9026C43.1926 40.2015 47.5534 38.883 50.8764 36.8449L48.7851 33.4351C46.1081 35.077 42.349 36.2785 37.3875 36.9374L37.9141 40.9026ZM50.8498 36.861C54.3256 34.8029 56.3908 31.9063 56.3908 28.18H52.3908C52.3908 30.1337 51.416 31.8771 48.8118 33.419L50.8498 36.861ZM56.3908 28.18C56.3908 25.7266 55.4406 23.6386 53.5402 22.1183L51.0414 25.2417C51.9409 25.9614 52.3908 26.8734 52.3908 28.18H56.3908ZM53.5402 22.1183C51.6308 20.5908 48.9764 20 45.9308 20V24C48.5652 24 50.1507 24.5292 51.0414 25.2417L53.5402 22.1183ZM45.9308 20C44.7519 20 43.6059 20.0873 42.4948 20.2651L43.1268 24.2149C44.0156 24.0727 44.9497 24 45.9308 24V20ZM44.8069 22.3648L44.9869 19.4848L40.9947 19.2352L40.8147 22.1152L44.8069 22.3648ZM43.3085 21.3346C46.9978 20.7409 50.0201 19.5294 52.0423 17.4566L49.1792 14.6634C48.0014 15.8706 45.9437 16.8591 42.673 17.3854L43.3085 21.3346ZM52.0591 17.4393C53.9438 15.4603 55.0108 13.1661 55.0108 10.6H51.0108C51.0108 11.9539 50.4777 13.2997 49.1625 14.6807L52.0591 17.4393ZM55.0108 10.6C55.0108 8.21824 54.2914 6.10722 52.7088 4.46995L49.8328 7.25004C50.5701 8.01278 51.0108 9.06176 51.0108 10.6H55.0108ZM52.7329 4.49536C51.1618 2.81207 49.0485 2.06 46.6508 2.06V6.06C48.173 6.06 49.1397 6.50793 49.8087 7.22464L52.7329 4.49536ZM46.6508 2.06C45.2592 2.06 44.0048 2.18009 42.9651 2.48666C41.9483 2.7865 40.8537 3.35182 40.2297 4.45589L43.7119 6.42411C43.6079 6.60818 43.5533 6.4835 44.0964 6.32334C44.6168 6.16991 45.4424 6.06 46.6508 6.06V2.06ZM40.2798 4.37201C39.8085 5.11824 39.5565 6.16056 39.3841 7.17481C39.1973 8.27369 39.0567 9.66239 38.9546 11.3168L42.947 11.5632C43.0449 9.97761 43.1743 8.74631 43.3275 7.84519C43.404 7.3951 43.4817 7.05614 43.5542 6.81209C43.6318 6.55091 43.6802 6.47875 43.6618 6.50799L40.2798 4.37201ZM41.1758 9.45269L37.9958 9.09269L37.5458 13.0673L40.7258 13.4273L41.1758 9.45269ZM39.7319 10.6878C39.3894 8.97531 39.2308 7.53174 39.2308 6.34H35.2308C35.2308 7.86825 35.4321 9.58469 35.8096 11.4722L39.7319 10.6878ZM39.2308 6.34C39.2308 4.91232 39.2528 4.11983 39.2809 3.839L35.3007 3.44099C35.2488 3.96017 35.2308 4.96767 35.2308 6.34H39.2308ZM38.3891 5.31141C40.8347 3.70432 43.6659 2.88 46.9508 2.88V-1.12C42.9556 -1.12 39.3469 -0.104327 36.1924 1.96859L38.3891 5.31141ZM46.9508 2.88C50.3457 2.88 52.7464 3.57344 54.3713 4.72958L56.6903 1.47042C54.1551 -0.333441 50.8359 -1.12 46.9508 -1.12V2.88ZM54.3859 4.73991C56.0533 5.90393 56.7108 7.20885 56.7108 8.74H60.7108C60.7108 5.71115 59.2483 3.25607 56.6756 1.46008L54.3859 4.73991ZM56.7108 8.74C56.7108 10.6819 56.239 12.1735 55.4061 13.3336L58.6554 15.6664C60.0626 13.7065 60.7108 11.3581 60.7108 8.74H56.7108ZM55.4061 13.3336C54.484 14.618 53.3316 15.5734 51.9273 16.2266L53.6142 19.8534C55.6499 18.9066 57.3376 17.502 58.6554 15.6664L55.4061 13.3336ZM50.7862 18.2881L50.8462 18.7681L54.8153 18.2719L54.7553 17.7919L50.7862 18.2881ZM52.4518 20.4838C54.4118 20.862 55.93 21.6296 57.0964 22.7329L59.8452 19.8271C58.0516 18.1304 55.8098 17.058 53.2098 16.5562L52.4518 20.4838ZM57.0964 22.7329C58.1059 23.6879 58.6908 25.0234 58.6908 26.98H62.6908C62.6908 24.1366 61.7957 21.6721 59.8452 19.8271L57.0964 22.7329ZM58.6908 26.98C58.6908 30.1317 57.0934 32.9508 53.2924 35.4486L55.4891 38.7914C60.0882 35.7692 62.6908 31.8283 62.6908 26.98H58.6908ZM53.2924 35.4486C49.4396 37.9804 44.2976 39.6315 37.7506 40.29L38.151 44.27C45.1239 43.5685 50.9419 41.7796 55.4891 38.7914L53.2924 35.4486Z" fill="#03989E" mask="url(#path-1-outside-1_3155_5182)"/>
</svg>
