<svg width="67" height="42" viewBox="0 0 67 42" fill="none" xmlns="http://www.w3.org/2000/svg">
<mask id="path-1-outside-1_3155_13" maskUnits="userSpaceOnUse" x="-2" y="-2" width="71" height="46" fill="black">
<rect fill="white" x="-2" y="-2" width="71" height="46"/>
<path d="M29.12 17.44C29.12 22.6 27.84 26.74 25.28 29.86C22.76 32.98 19.26 34.54 14.78 34.54C10.34 34.54 6.92 33.1 4.52 30.22C2.12 27.3 0.92 23.26 0.92 18.1C0.92 12.9 2.18 8.74 4.7 5.62C7.26 2.46 10.76 0.879997 15.2 0.879997C19.68 0.879997 23.12 2.34 25.52 5.26C27.92 8.18 29.12 12.24 29.12 17.44ZM15.62 31.36C17.94 31.36 19.66 30.66 20.78 29.26C21.5 28.34 22.1 26.86 22.58 24.82C23.06 22.78 23.3 20.56 23.3 18.16C23.3 14.04 22.54 10.66 21.02 8.02C19.54 5.38 17.34 4.06 14.42 4.06C12.1 4.06 10.38 4.76 9.26 6.16C8.54 7.08 7.94 8.56 7.46 10.6C6.98 12.64 6.74 14.86 6.74 17.26C6.74 21.38 7.48 24.76 8.96 27.4C10.48 30.04 12.7 31.36 15.62 31.36ZM36.5108 31.3L35.1308 27.64L54.1508 1.96C56.3908 1.44 58.1108 1.18 59.3108 1.18L59.9708 1.78V27.82L66.0908 27.94L65.5508 31.36H59.9708V41.32C58.6908 41.56 57.1108 41.68 55.2308 41.68L54.5708 41.08V31.36H36.5708L36.5108 31.3ZM39.3908 27.1L39.6308 27.52L54.5708 27.76V8.98C54.5708 8.14 54.6108 7.54 54.6908 7.18L54.3308 7L40.4708 25.78C40.1508 26.26 39.7908 26.7 39.3908 27.1Z"/>
</mask>
<path d="M25.28 29.86L23.7339 28.5914L23.729 28.5973L23.7241 28.6033L25.28 29.86ZM4.52 30.22L2.97488 31.49L2.98356 31.5004L4.52 30.22ZM4.7 5.62L3.14597 4.36104L3.14412 4.36332L4.7 5.62ZM25.52 5.26L23.9749 6.52993L25.52 5.26ZM20.78 29.26L22.3417 30.5094L22.3484 30.501L22.355 30.4926L20.78 29.26ZM22.58 24.82L20.6332 24.3619L20.6332 24.3619L22.58 24.82ZM21.02 8.02L19.2754 8.99801L19.281 9.008L19.2868 9.01793L21.02 8.02ZM9.26 6.16L7.69826 4.91061L7.69158 4.91896L7.68499 4.92738L9.26 6.16ZM7.46 10.6L5.51317 10.1419L5.51317 10.1419L7.46 10.6ZM8.96 27.4L7.21544 28.378L7.22104 28.388L7.22676 28.3979L8.96 27.4ZM27.12 17.44C27.12 22.2687 25.9267 25.9188 23.7339 28.5914L26.8261 31.1286C29.7533 27.5612 31.12 22.9313 31.12 17.44H27.12ZM23.7241 28.6033C21.6315 31.1942 18.7359 32.54 14.78 32.54V36.54C19.7841 36.54 23.8885 34.7658 26.8359 31.1167L23.7241 28.6033ZM14.78 32.54C10.8124 32.54 8.00514 31.2781 6.05644 28.9396L2.98356 31.5004C5.83486 34.9219 9.86765 36.54 14.78 36.54V32.54ZM6.06508 28.9501C4.05087 26.4994 2.92 22.9653 2.92 18.1H-1.08C-1.08 23.5547 0.189127 28.1005 2.97492 31.4899L6.06508 28.9501ZM2.92 18.1C2.92 13.2201 4.09904 9.54705 6.25588 6.87667L3.14412 4.36332C0.260958 7.93295 -1.08 12.5799 -1.08 18.1H2.92ZM6.25403 6.87896C8.39625 4.23466 11.3001 2.88 15.2 2.88V-1.12C10.2199 -1.12 6.12375 0.685339 3.14597 4.36104L6.25403 6.87896ZM15.2 2.88C19.2048 2.88 22.0266 4.15948 23.9749 6.52993L27.0651 3.99007C24.2134 0.520516 20.1552 -1.12 15.2 -1.12V2.88ZM23.9749 6.52993C25.9871 8.97807 27.12 12.5303 27.12 17.44H31.12C31.12 11.9497 29.8529 7.38193 27.0651 3.99007L23.9749 6.52993ZM15.62 33.36C18.354 33.36 20.7358 32.5168 22.3417 30.5094L19.2183 28.0106C18.5842 28.8032 17.526 29.36 15.62 29.36V33.36ZM22.355 30.4926C23.3437 29.2293 24.025 27.4108 24.5268 25.2781L20.6332 24.3619C20.175 26.3092 19.6563 27.4507 19.205 28.0274L22.355 30.4926ZM24.5268 25.2781C25.0468 23.0681 25.3 20.6924 25.3 18.16H21.3C21.3 20.4276 21.0732 22.4919 20.6332 24.3619L24.5268 25.2781ZM25.3 18.16C25.3 13.8085 24.499 10.0542 22.7532 7.02207L19.2868 9.01793C20.581 11.2658 21.3 14.2715 21.3 18.16H25.3ZM22.7646 7.04199C21.885 5.47309 20.7373 4.20399 19.289 3.33501C17.8371 2.46387 16.1914 2.06 14.42 2.06V6.06C15.5686 6.06 16.4829 6.31613 17.231 6.76499C17.9827 7.21601 18.675 7.92691 19.2754 8.99801L22.7646 7.04199ZM14.42 2.06C11.686 2.06 9.30417 2.90323 7.69826 4.91061L10.8217 7.40939C11.4558 6.61677 12.514 6.06 14.42 6.06V2.06ZM7.68499 4.92738C6.69635 6.19065 6.01499 8.00915 5.51317 10.1419L9.40683 11.0581C9.86501 9.11085 10.3837 7.96935 10.835 7.39262L7.68499 4.92738ZM5.51317 10.1419C4.99317 12.3519 4.74 14.7276 4.74 17.26H8.74C8.74 14.9924 8.96683 12.9281 9.40683 11.0581L5.51317 10.1419ZM4.74 17.26C4.74 21.604 5.51826 25.3506 7.21544 28.378L10.7046 26.422C9.44175 24.1694 8.74 21.156 8.74 17.26H4.74ZM7.22676 28.3979C9.0847 31.6249 11.9473 33.36 15.62 33.36V29.36C13.4527 29.36 11.8753 28.4551 10.6932 26.4021L7.22676 28.3979ZM36.5108 31.3L34.6394 32.0056L34.7916 32.4092L35.0966 32.7142L36.5108 31.3ZM35.1308 27.64L33.5236 26.4496L32.8748 27.3256L33.2594 28.3456L35.1308 27.64ZM54.1508 1.96L53.6985 0.0118034L52.9816 0.178225L52.5436 0.769632L54.1508 1.96ZM59.3108 1.18L60.6561 -0.29988L60.084 -0.820003H59.3108V1.18ZM59.9708 1.78H61.9708V0.895263L61.3161 0.300123L59.9708 1.78ZM59.9708 27.82H57.9708V29.7812L59.9316 29.8196L59.9708 27.82ZM66.0908 27.94L68.0663 28.2519L68.4242 25.9854L66.13 25.9404L66.0908 27.94ZM65.5508 31.36V33.36H67.2598L67.5263 31.6719L65.5508 31.36ZM59.9708 31.36V29.36H57.9708V31.36H59.9708ZM59.9708 41.32L60.3394 43.2857L61.9708 42.9799V41.32H59.9708ZM55.2308 41.68L53.8854 43.1599L54.4576 43.68H55.2308V41.68ZM54.5708 41.08H52.5708V41.9647L53.2254 42.5599L54.5708 41.08ZM54.5708 31.36H56.5708V29.36H54.5708V31.36ZM36.5708 31.36L35.1566 32.7742L35.7424 33.36H36.5708V31.36ZM39.3908 27.1L37.9766 25.6858L36.8964 26.766L37.6543 28.0923L39.3908 27.1ZM39.6308 27.52L37.8943 28.5123L38.4595 29.5014L39.5987 29.5197L39.6308 27.52ZM54.5708 27.76L54.5387 29.7597L56.5708 29.7924V27.76H54.5708ZM54.6908 7.18L56.6432 7.61386L56.9819 6.08949L55.5852 5.39114L54.6908 7.18ZM54.3308 7L55.2252 5.21114L53.7205 4.45881L52.7216 5.81237L54.3308 7ZM40.4708 25.78L38.8616 24.5924L38.8332 24.6308L38.8067 24.6706L40.4708 25.78ZM38.3822 30.5944L37.0022 26.9344L33.2594 28.3456L34.6394 32.0056L38.3822 30.5944ZM36.738 28.8304L55.758 3.15036L52.5436 0.769632L33.5236 26.4496L36.738 28.8304ZM54.603 3.90819C56.8036 3.39736 58.3444 3.18 59.3108 3.18V-0.820003C57.8772 -0.820003 55.978 -0.517362 53.6985 0.0118034L54.603 3.90819ZM57.9654 2.65987L58.6254 3.25988L61.3161 0.300123L60.6561 -0.29988L57.9654 2.65987ZM57.9708 1.78V27.82H61.9708V1.78H57.9708ZM59.9316 29.8196L66.0516 29.9396L66.13 25.9404L60.01 25.8204L59.9316 29.8196ZM64.1153 27.6281L63.5753 31.0481L67.5263 31.6719L68.0663 28.2519L64.1153 27.6281ZM65.5508 29.36H59.9708V33.36H65.5508V29.36ZM57.9708 31.36V41.32H61.9708V31.36H57.9708ZM59.6022 39.3543C58.4841 39.5639 57.0364 39.68 55.2308 39.68V43.68C57.1852 43.68 58.8974 43.5561 60.3394 43.2857L59.6022 39.3543ZM56.5761 40.2001L55.9161 39.6001L53.2254 42.5599L53.8854 43.1599L56.5761 40.2001ZM56.5708 41.08V31.36H52.5708V41.08H56.5708ZM54.5708 29.36H36.5708V33.36H54.5708V29.36ZM37.985 29.9458L37.925 29.8858L35.0966 32.7142L35.1566 32.7742L37.985 29.9458ZM37.6543 28.0923L37.8943 28.5123L41.3673 26.5277L41.1273 26.1077L37.6543 28.0923ZM39.5987 29.5197L54.5387 29.7597L54.6029 25.7603L39.6629 25.5203L39.5987 29.5197ZM56.5708 27.76V8.98H52.5708V27.76H56.5708ZM56.5708 8.98C56.5708 8.14888 56.6148 7.74126 56.6432 7.61386L52.7384 6.74614C52.6067 7.33874 52.5708 8.13111 52.5708 8.98H56.5708ZM55.5852 5.39114L55.2252 5.21114L53.4364 8.78886L53.7964 8.96885L55.5852 5.39114ZM52.7216 5.81237L38.8616 24.5924L42.08 26.9676L55.94 8.18762L52.7216 5.81237ZM38.8067 24.6706C38.5583 25.0432 38.2816 25.3807 37.9766 25.6858L40.805 28.5142C41.3 28.0193 41.7433 27.4768 42.1349 26.8894L38.8067 24.6706Z" fill="#03989E" mask="url(#path-1-outside-1_3155_13)"/>
</svg>
