<svg width="62" height="46" viewBox="0 0 62 46" fill="none" xmlns="http://www.w3.org/2000/svg">
<mask id="path-1-outside-1_3155_2545" maskUnits="userSpaceOnUse" x="-2.5" y="-2" width="66" height="50" fill="black">
<rect fill="white" x="-2.5" y="-2" width="66" height="50"/>
<path d="M28.62 20.44C28.62 25.6 27.34 29.74 24.78 32.86C22.26 35.98 18.76 37.54 14.28 37.54C9.84 37.54 6.42 36.1 4.02 33.22C1.62 30.3 0.42 26.26 0.42 21.1C0.42 15.9 1.68 11.74 4.2 8.62C6.76 5.46 10.26 3.88 14.7 3.88C19.18 3.88 22.62 5.34 25.02 8.26C27.42 11.18 28.62 15.24 28.62 20.44ZM15.12 34.36C17.44 34.36 19.16 33.66 20.28 32.26C21 31.34 21.6 29.86 22.08 27.82C22.56 25.78 22.8 23.56 22.8 21.16C22.8 17.04 22.04 13.66 20.52 11.02C19.04 8.38 16.84 7.06 13.92 7.06C11.6 7.06 9.88 7.76 8.76 9.16C8.04 10.08 7.44 11.56 6.96 13.6C6.48 15.64 6.24 17.86 6.24 20.26C6.24 24.38 6.98 27.76 8.46 30.4C9.98 33.04 12.2 34.36 15.12 34.36ZM37.4508 45.28L37.1508 41.92C42.7108 41.2 47.0908 39.8 50.2908 37.72C53.5308 35.64 55.1508 33.08 55.1508 30.04C55.1508 28.12 54.4108 26.5 52.9308 25.18C51.4908 23.82 49.4708 23.14 46.8708 23.14C44.2708 23.14 41.7308 23.6 39.2508 24.52L37.9308 22.96L39.2508 4.78H54.6108C54.8108 4.78 54.9708 4.72 55.0908 4.6C55.4108 4.2 55.7908 2.8 56.2308 0.399999L59.2908 0.819997C59.1308 4.58 58.8508 7.52 58.4508 9.64H42.8508L42.1308 20.38C44.1308 19.7 46.3508 19.36 48.7908 19.36C52.7508 19.36 55.8308 20.22 58.0308 21.94C60.2708 23.62 61.3908 25.92 61.3908 28.84C61.3908 33.04 59.1908 36.66 54.7908 39.7C50.3908 42.78 44.6108 44.64 37.4508 45.28Z"/>
</mask>
<path d="M24.78 32.86L23.2339 31.5914L23.229 31.5973L23.2241 31.6033L24.78 32.86ZM4.02 33.22L2.47488 34.49L2.48356 34.5004L4.02 33.22ZM4.2 8.62L2.64597 7.36104L2.64412 7.36332L4.2 8.62ZM25.02 8.26L23.4749 9.52993L25.02 8.26ZM20.28 32.26L21.8417 33.5094L21.8484 33.501L21.855 33.4926L20.28 32.26ZM22.08 27.82L20.1332 27.3619L20.1332 27.3619L22.08 27.82ZM20.52 11.02L18.7754 11.998L18.781 12.008L18.7868 12.0179L20.52 11.02ZM8.76 9.16L7.19826 7.91061L7.19158 7.91896L7.18499 7.92738L8.76 9.16ZM6.96 13.6L5.01317 13.1419L5.01317 13.1419L6.96 13.6ZM8.46 30.4L6.71544 31.378L6.72104 31.388L6.72676 31.3979L8.46 30.4ZM26.62 20.44C26.62 25.2687 25.4267 28.9188 23.2339 31.5914L26.3261 34.1286C29.2533 30.5612 30.62 25.9313 30.62 20.44H26.62ZM23.2241 31.6033C21.1315 34.1942 18.2359 35.54 14.28 35.54V39.54C19.2841 39.54 23.3885 37.7658 26.3359 34.1167L23.2241 31.6033ZM14.28 35.54C10.3124 35.54 7.50514 34.2781 5.55644 31.9396L2.48356 34.5004C5.33486 37.9219 9.36765 39.54 14.28 39.54V35.54ZM5.56508 31.9501C3.55087 29.4994 2.42 25.9653 2.42 21.1H-1.58C-1.58 26.5547 -0.310873 31.1005 2.47492 34.4899L5.56508 31.9501ZM2.42 21.1C2.42 16.2201 3.59904 12.547 5.75588 9.87667L2.64412 7.36332C-0.239042 10.933 -1.58 15.5799 -1.58 21.1H2.42ZM5.75403 9.87896C7.89625 7.23466 10.8001 5.88 14.7 5.88V1.88C9.71988 1.88 5.62375 3.68534 2.64597 7.36104L5.75403 9.87896ZM14.7 5.88C18.7048 5.88 21.5266 7.15948 23.4749 9.52993L26.5651 6.99007C23.7134 3.52052 19.6552 1.88 14.7 1.88V5.88ZM23.4749 9.52993C25.4871 11.9781 26.62 15.5303 26.62 20.44H30.62C30.62 14.9497 29.3529 10.3819 26.5651 6.99007L23.4749 9.52993ZM15.12 36.36C17.854 36.36 20.2358 35.5168 21.8417 33.5094L18.7183 31.0106C18.0842 31.8032 17.026 32.36 15.12 32.36V36.36ZM21.855 33.4926C22.8437 32.2293 23.525 30.4108 24.0268 28.2781L20.1332 27.3619C19.675 29.3092 19.1563 30.4507 18.705 31.0274L21.855 33.4926ZM24.0268 28.2781C24.5468 26.0681 24.8 23.6924 24.8 21.16H20.8C20.8 23.4276 20.5732 25.4919 20.1332 27.3619L24.0268 28.2781ZM24.8 21.16C24.8 16.8085 23.999 13.0542 22.2532 10.0221L18.7868 12.0179C20.081 14.2658 20.8 17.2715 20.8 21.16H24.8ZM22.2646 10.042C21.385 8.47309 20.2373 7.20399 18.789 6.33501C17.3371 5.46387 15.6914 5.06 13.92 5.06V9.06C15.0686 9.06 15.9829 9.31613 16.731 9.76499C17.4827 10.216 18.175 10.9269 18.7754 11.998L22.2646 10.042ZM13.92 5.06C11.186 5.06 8.80417 5.90323 7.19826 7.91061L10.3217 10.4094C10.9558 9.61677 12.014 9.06 13.92 9.06V5.06ZM7.18499 7.92738C6.19635 9.19065 5.51499 11.0092 5.01317 13.1419L8.90683 14.0581C9.36501 12.1108 9.88366 10.9693 10.335 10.3926L7.18499 7.92738ZM5.01317 13.1419C4.49317 15.3519 4.24 17.7276 4.24 20.26H8.24C8.24 17.9924 8.46683 15.9281 8.90683 14.0581L5.01317 13.1419ZM4.24 20.26C4.24 24.604 5.01826 28.3506 6.71544 31.378L10.2046 29.422C8.94175 27.1694 8.24 24.156 8.24 20.26H4.24ZM6.72676 31.3979C8.5847 34.6249 11.4473 36.36 15.12 36.36V32.36C12.9527 32.36 11.3753 31.4551 10.1932 29.4021L6.72676 31.3979ZM37.4508 45.28L35.4587 45.4579L35.6366 47.4501L37.6288 47.2721L37.4508 45.28ZM37.1508 41.92L36.8939 39.9366L34.9878 40.1834L35.1587 42.0979L37.1508 41.92ZM50.2908 37.72L49.2103 36.0369L49.2008 36.0431L50.2908 37.72ZM52.9308 25.18L51.5575 26.634L51.5783 26.6536L51.5996 26.6726L52.9308 25.18ZM39.2508 24.52L37.724 25.8119L38.6306 26.8833L39.9464 26.3951L39.2508 24.52ZM37.9308 22.96L35.936 22.8152L35.8769 23.629L36.404 24.2519L37.9308 22.96ZM39.2508 4.78V2.78H37.3907L37.256 4.63517L39.2508 4.78ZM55.0908 4.6L56.505 6.01421L56.5833 5.93588L56.6525 5.84939L55.0908 4.6ZM56.2308 0.399999L56.5027 -1.58142L54.6084 -1.84143L54.2636 0.0393432L56.2308 0.399999ZM59.2908 0.819997L61.289 0.905027L61.3664 -0.91387L59.5627 -1.16143L59.2908 0.819997ZM58.4508 9.64V11.64H60.1087L60.4161 10.0108L58.4508 9.64ZM42.8508 9.64V7.64H40.9804L40.8553 9.50622L42.8508 9.64ZM42.1308 20.38L40.1353 20.2462L39.9346 23.2391L42.7746 22.2735L42.1308 20.38ZM58.0308 21.94L56.7989 23.5156L56.8147 23.528L56.8308 23.54L58.0308 21.94ZM54.7908 39.7L53.6539 38.0545L53.6439 38.0615L54.7908 39.7ZM39.4429 45.1021L39.1429 41.7421L35.1587 42.0979L35.4587 45.4579L39.4429 45.1021ZM37.4076 43.9034C43.1365 43.1616 47.8399 41.6985 51.3808 39.3969L49.2008 36.0431C46.3417 37.9015 42.285 39.2384 36.8939 39.9366L37.4076 43.9034ZM51.3712 39.403C55.0107 37.0666 57.1508 33.9443 57.1508 30.04H53.1508C53.1508 32.2157 52.0508 34.2134 49.2103 36.037L51.3712 39.403ZM57.1508 30.04C57.1508 27.5289 56.1515 25.3727 54.262 23.6874L51.5996 26.6726C52.67 27.6273 53.1508 28.7111 53.1508 30.04H57.1508ZM54.304 23.726C52.3884 21.9167 49.817 21.14 46.8708 21.14V25.14C49.1245 25.14 50.5932 25.7233 51.5575 26.634L54.304 23.726ZM46.8708 21.14C44.0292 21.14 41.2538 21.6437 38.5552 22.6449L39.9464 26.3951C42.2077 25.5563 44.5124 25.14 46.8708 25.14V21.14ZM40.7776 23.2281L39.4576 21.6681L36.404 24.2519L37.724 25.8119L40.7776 23.2281ZM39.9255 23.1048L41.2455 4.92483L37.256 4.63517L35.936 22.8152L39.9255 23.1048ZM39.2508 6.78H54.6108V2.78H39.2508V6.78ZM54.6108 6.78C55.2393 6.78 55.9435 6.57568 56.505 6.01421L53.6766 3.18579C53.8199 3.04247 53.9931 2.93187 54.1785 2.86234C54.3578 2.79512 54.5111 2.78 54.6108 2.78V6.78ZM56.6525 5.84939C56.9263 5.50722 57.0979 5.11549 57.206 4.83739C57.3284 4.5228 57.4406 4.16187 57.5459 3.7739C57.7571 2.99608 57.9737 1.98405 58.198 0.760655L54.2636 0.0393432C54.0479 1.21595 53.8545 2.10392 53.6856 2.7261C53.6009 3.03813 53.5307 3.25219 53.478 3.38761C53.4112 3.5595 53.4153 3.49278 53.529 3.35061L56.6525 5.84939ZM55.9588 2.38142L59.0188 2.80142L59.5627 -1.16143L56.5027 -1.58142L55.9588 2.38142ZM57.2926 0.734968C57.1341 4.45836 56.8593 7.28794 56.4855 9.26918L60.4161 10.0108C60.8423 7.75206 61.1274 4.70164 61.289 0.905027L57.2926 0.734968ZM58.4508 7.64H42.8508V11.64H58.4508V7.64ZM40.8553 9.50622L40.1353 20.2462L44.1263 20.5138L44.8463 9.77378L40.8553 9.50622ZM42.7746 22.2735C44.5379 21.674 46.5365 21.36 48.7908 21.36V17.36C46.1651 17.36 43.7237 17.726 41.487 18.4865L42.7746 22.2735ZM48.7908 21.36C52.4865 21.36 55.0714 22.165 56.7989 23.5156L59.2626 20.3644C56.5902 18.275 53.0151 17.36 48.7908 17.36V21.36ZM56.8308 23.54C58.5424 24.8237 59.3908 26.5179 59.3908 28.84H63.3908C63.3908 25.3221 61.9991 22.4163 59.2308 20.34L56.8308 23.54ZM59.3908 28.84C59.3908 32.2049 57.6787 35.2738 53.6539 38.0545L55.9276 41.3455C60.7028 38.0462 63.3908 33.8751 63.3908 28.84H59.3908ZM53.6439 38.0615C49.6113 40.8843 44.1982 42.6689 37.2727 43.2879L37.6288 47.2721C45.0234 46.6111 51.1703 44.6757 55.9377 41.3385L53.6439 38.0615Z" fill="#03989E" mask="url(#path-1-outside-1_3155_2545)"/>
</svg>
