<svg width="63" height="42" viewBox="0 0 63 42" fill="none" xmlns="http://www.w3.org/2000/svg">
<mask id="path-1-outside-1_3155_2454" maskUnits="userSpaceOnUse" x="-2.5" y="-3" width="68" height="47" fill="black">
<rect fill="white" x="-2.5" y="-3" width="68" height="47"/>
<path d="M28.62 24.44C28.62 29.6 27.34 33.74 24.78 36.86C22.26 39.98 18.76 41.54 14.28 41.54C9.84 41.54 6.42 40.1 4.02 37.22C1.62 34.3 0.42 30.26 0.42 25.1C0.42 19.9 1.68 15.74 4.2 12.62C6.76 9.46 10.26 7.88 14.7 7.88C19.18 7.88 22.62 9.34 25.02 12.26C27.42 15.18 28.62 19.24 28.62 24.44ZM15.12 38.36C17.44 38.36 19.16 37.66 20.28 36.26C21 35.34 21.6 33.86 22.08 31.82C22.56 29.78 22.8 27.56 22.8 25.16C22.8 21.04 22.04 17.66 20.52 15.02C19.04 12.38 16.84 11.06 13.92 11.06C11.6 11.06 9.88 11.76 8.76 13.16C8.04 14.08 7.44 15.56 6.96 17.6C6.48 19.64 6.24 21.86 6.24 24.26C6.24 28.38 6.98 31.76 8.46 34.4C9.98 37.04 12.2 38.36 15.12 38.36ZM51.6108 15.74C54.7708 15.74 57.4508 16.92 59.6508 19.28C61.8508 21.6 62.9508 24.62 62.9508 28.34C62.9508 32.02 61.7308 35.14 59.2908 37.7C56.8508 40.26 53.6308 41.54 49.6308 41.54C45.6708 41.54 42.5508 40.16 40.2708 37.4C37.9908 34.64 36.8508 30.92 36.8508 26.24C36.8508 19.76 38.9108 14.16 43.0308 9.44C47.1508 4.72 52.1308 1.64 57.9708 0.2L59.1708 2.66C50.3708 6.34 45.1108 11.96 43.3908 19.52L43.8708 19.7C45.9108 17.06 48.4908 15.74 51.6108 15.74ZM54.9708 36.92C56.4908 35.28 57.2508 32.88 57.2508 29.72C57.2508 26.56 56.6708 24.14 55.5108 22.46C54.3508 20.74 52.8908 19.88 51.1308 19.88C50.2908 19.88 49.1908 20.02 47.8308 20.3C46.5108 20.58 45.4108 21.02 44.5308 21.62C43.2108 22.5 42.5508 23.88 42.5508 25.76C42.5508 34.32 45.3308 38.6 50.8908 38.6C52.5708 38.6 53.9308 38.04 54.9708 36.92Z"/>
</mask>
<path d="M24.78 36.86L23.2339 35.5914L23.229 35.5973L23.2241 35.6033L24.78 36.86ZM4.02 37.22L2.47488 38.49L2.48356 38.5004L4.02 37.22ZM4.2 12.62L2.64597 11.361L2.64412 11.3633L4.2 12.62ZM25.02 12.26L23.4749 13.5299L25.02 12.26ZM20.28 36.26L21.8417 37.5094L21.8484 37.501L21.855 37.4926L20.28 36.26ZM22.08 31.82L20.1332 31.3619L20.1332 31.3619L22.08 31.82ZM20.52 15.02L18.7754 15.998L18.781 16.008L18.7868 16.0179L20.52 15.02ZM8.76 13.16L7.19826 11.9106L7.19158 11.919L7.18499 11.9274L8.76 13.16ZM6.96 17.6L5.01317 17.1419L5.01317 17.1419L6.96 17.6ZM8.46 34.4L6.71544 35.378L6.72104 35.388L6.72676 35.3979L8.46 34.4ZM26.62 24.44C26.62 29.2687 25.4267 32.9188 23.2339 35.5914L26.3261 38.1286C29.2533 34.5612 30.62 29.9313 30.62 24.44H26.62ZM23.2241 35.6033C21.1315 38.1942 18.2359 39.54 14.28 39.54V43.54C19.2841 43.54 23.3885 41.7658 26.3359 38.1167L23.2241 35.6033ZM14.28 39.54C10.3124 39.54 7.50514 38.2781 5.55644 35.9396L2.48356 38.5004C5.33486 41.9219 9.36765 43.54 14.28 43.54V39.54ZM5.56508 35.9501C3.55087 33.4994 2.42 29.9653 2.42 25.1H-1.58C-1.58 30.5547 -0.310873 35.1005 2.47492 38.4899L5.56508 35.9501ZM2.42 25.1C2.42 20.2201 3.59904 16.547 5.75588 13.8767L2.64412 11.3633C-0.239042 14.933 -1.58 19.5799 -1.58 25.1H2.42ZM5.75403 13.879C7.89625 11.2347 10.8001 9.88 14.7 9.88V5.88C9.71988 5.88 5.62375 7.68534 2.64597 11.361L5.75403 13.879ZM14.7 9.88C18.7048 9.88 21.5266 11.1595 23.4749 13.5299L26.5651 10.9901C23.7134 7.52052 19.6552 5.88 14.7 5.88V9.88ZM23.4749 13.5299C25.4871 15.9781 26.62 19.5303 26.62 24.44H30.62C30.62 18.9497 29.3529 14.3819 26.5651 10.9901L23.4749 13.5299ZM15.12 40.36C17.854 40.36 20.2358 39.5168 21.8417 37.5094L18.7183 35.0106C18.0842 35.8032 17.026 36.36 15.12 36.36V40.36ZM21.855 37.4926C22.8437 36.2293 23.525 34.4108 24.0268 32.2781L20.1332 31.3619C19.675 33.3092 19.1563 34.4507 18.705 35.0274L21.855 37.4926ZM24.0268 32.2781C24.5468 30.0681 24.8 27.6924 24.8 25.16H20.8C20.8 27.4276 20.5732 29.4919 20.1332 31.3619L24.0268 32.2781ZM24.8 25.16C24.8 20.8085 23.999 17.0542 22.2532 14.0221L18.7868 16.0179C20.081 18.2658 20.8 21.2715 20.8 25.16H24.8ZM22.2646 14.042C21.385 12.4731 20.2373 11.204 18.789 10.335C17.3371 9.46387 15.6914 9.06 13.92 9.06V13.06C15.0686 13.06 15.9829 13.3161 16.731 13.765C17.4827 14.216 18.175 14.9269 18.7754 15.998L22.2646 14.042ZM13.92 9.06C11.186 9.06 8.80417 9.90323 7.19826 11.9106L10.3217 14.4094C10.9558 13.6168 12.014 13.06 13.92 13.06V9.06ZM7.18499 11.9274C6.19635 13.1907 5.51499 15.0092 5.01317 17.1419L8.90683 18.0581C9.36501 16.1108 9.88366 14.9693 10.335 14.3926L7.18499 11.9274ZM5.01317 17.1419C4.49317 19.3519 4.24 21.7276 4.24 24.26H8.24C8.24 21.9924 8.46683 19.9281 8.90683 18.0581L5.01317 17.1419ZM4.24 24.26C4.24 28.604 5.01826 32.3506 6.71544 35.378L10.2046 33.422C8.94175 31.1694 8.24 28.156 8.24 24.26H4.24ZM6.72676 35.3979C8.5847 38.6249 11.4473 40.36 15.12 40.36V36.36C12.9527 36.36 11.3753 35.4551 10.1932 33.4021L6.72676 35.3979ZM59.6508 19.28L58.1878 20.6438L58.1937 20.65L58.1995 20.6562L59.6508 19.28ZM59.2908 37.7L60.7385 39.0799L60.7385 39.0799L59.2908 37.7ZM40.2708 37.4L38.7289 38.6738L40.2708 37.4ZM43.0308 9.44L44.5375 10.7552L44.5375 10.7552L43.0308 9.44ZM57.9708 0.2L59.7683 -0.676849L59.0602 -2.12852L57.492 -1.74184L57.9708 0.2ZM59.1708 2.66L59.9424 4.50516L61.8973 3.68763L60.9683 1.78315L59.1708 2.66ZM43.3908 19.52L41.4406 19.0763L41.0531 20.7794L42.6885 21.3927L43.3908 19.52ZM43.8708 19.7L43.1685 21.5727L44.5507 22.091L45.4533 20.9229L43.8708 19.7ZM54.9708 36.92L56.4364 38.2809L56.4376 38.2795L54.9708 36.92ZM55.5108 22.46L53.8526 23.5783L53.8588 23.5874L53.865 23.5964L55.5108 22.46ZM47.8308 20.3L47.4275 18.341L47.4158 18.3435L47.8308 20.3ZM44.5308 21.62L45.6402 23.2841L45.6488 23.2783L45.6575 23.2725L44.5308 21.62ZM51.6108 17.74C54.2029 17.74 56.3571 18.6799 58.1878 20.6438L61.1137 17.9162C58.5444 15.1601 55.3386 13.74 51.6108 13.74V17.74ZM58.1995 20.6562C59.9899 22.5442 60.9508 25.0423 60.9508 28.34H64.9508C64.9508 24.1977 63.7116 20.6558 61.102 17.9038L58.1995 20.6562ZM60.9508 28.34C60.9508 31.5293 59.9129 34.1484 57.843 36.3201L60.7385 39.0799C63.5486 36.1316 64.9508 32.5107 64.9508 28.34H60.9508ZM57.843 36.3201C55.8316 38.4305 53.1624 39.54 49.6308 39.54V43.54C54.0991 43.54 57.87 42.0895 60.7385 39.0799L57.843 36.3201ZM49.6308 39.54C46.1956 39.54 43.6693 38.3737 41.8127 36.1262L38.7289 38.6738C41.4322 41.9463 45.1459 43.54 49.6308 43.54V39.54ZM41.8127 36.1262C39.9094 33.8222 38.8508 30.5997 38.8508 26.24H34.8508C34.8508 31.2403 36.0722 35.4578 38.7289 38.6738L41.8127 36.1262ZM38.8508 26.24C38.8508 20.2255 40.7473 15.0974 44.5375 10.7552L41.524 8.1248C37.0743 13.2226 34.8508 19.2945 34.8508 26.24H38.8508ZM44.5375 10.7552C48.3993 6.331 53.0257 3.47922 58.4496 2.14184L57.492 -1.74184C51.2358 -0.199229 45.9022 3.10899 41.524 8.1248L44.5375 10.7552ZM56.1732 1.07685L57.3732 3.53685L60.9683 1.78315L59.7683 -0.676849L56.1732 1.07685ZM58.3992 0.814837C49.1575 4.67956 43.3375 10.7389 41.4406 19.0763L45.3409 19.9637C46.8841 13.1811 51.5841 8.00044 59.9424 4.50516L58.3992 0.814837ZM42.6885 21.3927L43.1685 21.5727L44.573 17.8273L44.093 17.6473L42.6885 21.3927ZM45.4533 20.9229C47.145 18.7337 49.1582 17.74 51.6108 17.74V13.74C47.8233 13.74 44.6766 15.3863 42.2882 18.4771L45.4533 20.9229ZM56.4376 38.2795C58.4197 36.141 59.2508 33.1759 59.2508 29.72H55.2508C55.2508 32.5841 54.5619 34.419 53.5039 35.5605L56.4376 38.2795ZM59.2508 29.72C59.2508 26.3609 58.642 23.4749 57.1566 21.3236L53.865 23.5964C54.6996 24.8051 55.2508 26.7591 55.2508 29.72H59.2508ZM57.1689 21.3417C55.7138 19.1841 53.6819 17.88 51.1308 17.88V21.88C52.0996 21.88 52.9878 22.2959 53.8526 23.5783L57.1689 21.3417ZM51.1308 17.88C50.0964 17.88 48.8463 18.049 47.4275 18.3411L48.2341 22.2589C49.5353 21.991 50.4852 21.88 51.1308 21.88V17.88ZM47.4158 18.3435C45.9064 18.6637 44.5483 19.1874 43.4041 19.9675L45.6575 23.2725C46.2732 22.8526 47.1152 22.4963 48.2458 22.2565L47.4158 18.3435ZM43.4214 19.9559C41.4359 21.2796 40.5508 23.354 40.5508 25.76H44.5508C44.5508 24.406 44.9857 23.7204 45.6402 23.2841L43.4214 19.9559ZM40.5508 25.76C40.5508 30.1926 41.259 33.8628 42.9585 36.4794C44.755 39.2452 47.5056 40.6 50.8908 40.6V36.6C48.716 36.6 47.2966 35.8148 46.313 34.3006C45.2326 32.6372 44.5508 29.8874 44.5508 25.76H40.5508ZM50.8908 40.6C53.0656 40.6 54.9781 39.8513 56.4364 38.2809L53.5052 35.5591C52.8834 36.2287 52.076 36.6 50.8908 36.6V40.6Z" fill="#03989E" mask="url(#path-1-outside-1_3155_2454)"/>
</svg>
