<svg width="502" height="502" viewBox="0 0 502 502" fill="none" xmlns="http://www.w3.org/2000/svg">
<rect x="1" y="1" width="500" height="500" stroke="url(#paint0_linear_3155_6215)"/>
<rect x="1" y="1" width="500" height="500" stroke="url(#paint1_linear_3155_6215)"/>
<path fill-rule="evenodd" clip-rule="evenodd" d="M238.68 305.912C239.928 305.028 241.28 304.326 242.71 303.806L243.256 299.62L250.198 298.996L251.498 303C252.98 303.234 254.436 303.702 255.84 304.352L259.168 301.778L264.524 306.25L262.626 309.994C263.51 311.242 264.212 312.594 264.732 314.024L268.918 314.57L269.542 321.512L265.538 322.812C265.304 324.294 264.836 325.75 264.186 327.154L266.76 330.482L262.288 335.838L258.544 333.94C257.296 334.824 255.944 335.526 254.514 336.046L253.968 340.232L247.026 340.856L245.726 336.852C244.244 336.618 242.788 336.15 241.384 335.5L238.056 338.074L232.7 333.602L234.598 329.858C233.714 328.61 233.012 327.258 232.492 325.828L228.306 325.282L227.682 318.34L231.686 317.04C231.92 315.558 232.388 314.102 233.038 312.698L230.464 309.37L234.936 304.014L238.68 305.912ZM243.048 314.882C240.422 318.054 240.838 322.786 244.036 325.412C247.208 328.064 251.914 327.622 254.566 324.45C257.192 321.278 256.776 316.572 253.578 313.92C250.406 311.268 245.7 311.71 243.048 314.882Z" fill="#EBEBEB"/>
<path fill-rule="evenodd" clip-rule="evenodd" d="M279.859 328.717C280.665 328.145 281.497 327.703 282.381 327.391L282.745 324.765L287.087 324.375L287.893 326.871C288.829 327.027 289.739 327.313 290.623 327.729L292.729 326.117L296.083 328.925L294.887 331.265C295.433 332.045 295.875 332.903 296.213 333.787L298.813 334.125L299.229 338.493L296.707 339.299C296.551 340.235 296.265 341.145 295.875 342.029L297.461 344.109L294.679 347.489L292.313 346.293C291.533 346.839 290.701 347.281 289.791 347.619L289.453 350.219L285.111 350.635L284.279 348.113C283.369 347.957 282.433 347.671 281.575 347.255L279.469 348.867L276.115 346.085L277.311 343.719C276.765 342.939 276.297 342.081 275.985 341.197L273.359 340.859L272.969 336.517L275.491 335.685C275.647 334.749 275.907 333.839 276.323 332.981L274.711 330.875L277.519 327.521L279.859 328.717ZM282.615 334.333C280.951 336.335 281.211 339.299 283.213 340.937C285.189 342.601 288.153 342.341 289.817 340.339C291.481 338.363 291.195 335.399 289.219 333.735C287.217 332.071 284.253 332.357 282.615 334.333Z" fill="#EBEBEB"/>
<path fill-rule="evenodd" clip-rule="evenodd" d="M160.627 171.88C161.537 171.23 162.525 170.71 163.539 170.346L163.955 167.304L168.999 166.836L169.935 169.748C171.027 169.93 172.093 170.268 173.107 170.736L175.551 168.864L179.451 172.114L178.047 174.844C178.697 175.754 179.217 176.742 179.581 177.756L182.623 178.172L183.091 183.216L180.179 184.178C179.997 185.244 179.659 186.31 179.191 187.324L181.063 189.768L177.813 193.668L175.083 192.264C174.173 192.914 173.185 193.434 172.145 193.798L171.755 196.84L166.711 197.308L165.749 194.396C164.683 194.214 163.617 193.876 162.603 193.408L160.159 195.28L156.259 192.03L157.663 189.3C157.013 188.39 156.493 187.402 156.103 186.362L153.061 185.972L152.619 180.928L155.531 179.966C155.713 178.9 156.025 177.834 156.519 176.82L154.647 174.376L157.897 170.476L160.627 171.88ZM163.825 178.432C161.901 180.746 162.213 184.178 164.527 186.076C166.815 188 170.247 187.688 172.171 185.374C174.095 183.086 173.783 179.654 171.469 177.73C169.155 175.806 165.723 176.118 163.825 178.432Z" fill="#E0E0E0"/>
<path fill-rule="evenodd" clip-rule="evenodd" d="M256.255 140.893C257.165 140.269 258.153 139.749 259.167 139.359L259.557 136.343L264.601 135.875L265.537 138.787C266.603 138.969 267.669 139.281 268.683 139.775L271.101 137.903L274.975 141.127L273.597 143.857C274.247 144.767 274.767 145.755 275.131 146.769L278.147 147.159L278.615 152.203L275.703 153.139C275.521 154.205 275.209 155.271 274.741 156.285L276.587 158.703L273.363 162.577L270.659 161.199C269.749 161.849 268.761 162.369 267.721 162.733L267.331 165.749L262.313 166.217L261.351 163.305C260.285 163.123 259.219 162.811 258.231 162.343L255.787 164.189L251.913 160.965L253.291 158.261C252.667 157.351 252.147 156.363 251.757 155.323L248.741 154.933L248.273 149.915L251.185 148.953C251.367 147.887 251.705 146.821 252.173 145.807L250.301 143.389L253.525 139.515L256.255 140.893ZM259.453 147.393C257.529 149.707 257.841 153.113 260.155 155.037C262.443 156.935 265.849 156.623 267.773 154.335C269.697 152.021 269.385 148.615 267.071 146.717C264.783 144.793 261.351 145.105 259.453 147.393Z" fill="#F5F5F5"/>
<path fill-rule="evenodd" clip-rule="evenodd" d="M302.688 147.936C303.208 147.572 303.78 147.286 304.352 147.078L304.586 145.362L307.446 145.102L307.992 146.74C308.59 146.844 309.188 147.026 309.76 147.286L311.138 146.246L313.348 148.066L312.568 149.626C312.932 150.146 313.218 150.692 313.426 151.29L315.168 151.498L315.428 154.358L313.764 154.904C313.66 155.528 313.478 156.126 313.218 156.698L314.258 158.076L312.438 160.286L310.878 159.48C310.358 159.87 309.812 160.156 309.24 160.364L309.006 162.08L306.146 162.34L305.6 160.702C305.002 160.598 304.404 160.416 303.806 160.13L302.428 161.196L300.244 159.35L301.024 157.816C300.66 157.296 300.374 156.724 300.14 156.152L298.424 155.918L298.164 153.058L299.828 152.538C299.932 151.914 300.114 151.316 300.374 150.744L299.308 149.366L301.154 147.156L302.688 147.936ZM304.508 151.628C303.416 152.954 303.598 154.878 304.898 155.97C306.198 157.062 308.148 156.88 309.24 155.58C310.332 154.28 310.15 152.33 308.824 151.238C307.524 150.146 305.574 150.328 304.508 151.628Z" fill="#F5F5F5"/>
<path fill-rule="evenodd" clip-rule="evenodd" d="M133.454 230.279C134.286 229.681 135.196 229.213 136.158 228.849L136.522 226.067L141.176 225.625L142.06 228.329C143.048 228.485 144.036 228.797 144.972 229.213L147.208 227.497L150.822 230.487L149.522 233.009C150.12 233.867 150.614 234.777 150.952 235.713L153.76 236.077L154.176 240.731L151.498 241.615C151.316 242.603 151.03 243.591 150.588 244.527L152.304 246.763L149.314 250.377L146.792 249.077C145.96 249.675 145.05 250.169 144.088 250.507L143.724 253.315L139.07 253.731L138.186 251.053C137.198 250.871 136.21 250.585 135.274 250.143L133.038 251.859L129.45 248.869L130.724 246.347C130.126 245.515 129.658 244.605 129.294 243.643L126.486 243.279L126.07 238.625L128.748 237.741C128.93 236.753 129.242 235.765 129.658 234.829L127.942 232.593L130.932 229.005L133.454 230.279ZM136.418 236.311C134.624 238.417 134.91 241.589 137.042 243.357C139.174 245.151 142.346 244.839 144.114 242.707C145.908 240.601 145.596 237.429 143.464 235.661C141.332 233.867 138.186 234.179 136.418 236.311Z" fill="#E0E0E0"/>
<path d="M94.3516 192.836H75.9956C74.7216 192.836 73.6816 191.796 73.6816 190.548V165.12C73.6816 163.846 74.7216 162.832 75.9956 162.832H87.6436L96.6396 172.114V190.548C96.6396 191.796 95.6256 192.836 94.3516 192.836Z" fill="#EBEBEB"/>
<path d="M93.6756 192.834H76.6716C75.0336 192.834 73.6816 191.508 73.6816 189.844V183.734H96.6396V189.844C96.6396 191.508 95.3136 192.834 93.6756 192.834Z" fill="#E0E0E0"/>
<path d="M81.8184 189.613L82.4164 188.912C82.6504 189.224 82.9104 189.406 83.2484 189.406C83.6644 189.406 83.8724 189.146 83.8724 188.652V186.519H82.2864V185.688H84.9124V188.599C84.9124 189.717 84.3404 190.263 83.3004 190.263C82.7024 190.263 82.1564 190.029 81.8184 189.613Z" fill="#FAFAFA"/>
<path d="M85.5352 189.848L85.8732 189.146C86.1852 189.328 86.6532 189.484 87.0692 189.484C87.5372 189.484 87.6932 189.354 87.6932 189.172C87.6932 188.6 85.6132 189.172 85.6132 187.794C85.6132 187.144 86.2112 186.676 87.2252 186.676C87.6932 186.676 88.2132 186.78 88.5512 186.988L88.2132 187.69C87.8752 187.508 87.5372 187.43 87.2252 187.43C86.7572 187.43 86.5752 187.586 86.5752 187.742C86.5752 188.34 88.6552 187.768 88.6552 189.146C88.6552 189.77 88.0572 190.238 87.0172 190.238C86.4452 190.238 85.8472 190.082 85.5352 189.848Z" fill="#FAFAFA"/>
<path d="M78.5684 178.95L79.2704 178.092C79.7384 178.768 80.3624 179.132 81.0904 179.132C82.0784 179.132 82.5724 178.534 82.5724 177.364V172.502H79.4264V171.41H83.7944V177.312C83.7944 179.236 82.8584 180.198 81.0904 180.198C80.0504 180.198 79.1144 179.756 78.5684 178.95Z" fill="#FAFAFA"/>
<path d="M85.3281 179.393L85.8221 178.457C86.3941 178.847 87.2781 179.133 88.1361 179.133C89.2541 179.133 89.6961 178.821 89.6961 178.249C89.6961 176.767 85.5361 178.041 85.5361 175.441C85.5361 174.245 86.6021 173.465 88.2921 173.465C89.1501 173.465 90.1121 173.673 90.6841 174.063L90.1641 174.999C89.5921 174.609 88.9161 174.479 88.2661 174.479C87.2261 174.479 86.7321 174.869 86.7321 175.389C86.7321 176.923 90.8921 175.675 90.8921 178.223C90.8921 179.419 89.8001 180.173 88.0581 180.173C86.9661 180.173 85.8741 179.835 85.3281 179.393Z" fill="#FAFAFA"/>
<g opacity="0.3">
<path d="M87.6406 162.832V169.982C87.6406 171.152 88.6026 172.114 89.7726 172.114H96.6366L87.6406 162.832Z" fill="white"/>
</g>
<path d="M87.7231 170.609C87.7231 170.609 87.6451 172.351 89.6211 172.923C89.6904 172.941 89.7684 172.949 89.8551 172.949C90.7391 173.131 96.6411 174.171 96.6411 174.041C96.6411 173.885 96.6411 172.117 96.6411 172.117H89.7771C89.7771 172.117 88.0611 172.065 87.7231 170.609Z" fill="#E0E0E0"/>
<path d="M126.151 178.021H103.453C101.893 178.021 100.619 176.747 100.619 175.187V143.779C100.619 142.219 101.893 140.945 103.453 140.945H117.857L128.985 152.437V175.187C128.985 176.747 127.711 178.021 126.151 178.021Z" fill="#EBEBEB"/>
<path d="M125.605 178.02H103.999C102.127 178.02 100.619 176.512 100.619 174.666V167.412C100.619 167.074 100.905 166.762 101.269 166.762H128.335C128.699 166.762 128.985 167.074 128.985 167.412V174.666C128.985 176.512 127.477 178.02 125.605 178.02Z" fill="#E0E0E0"/>
<g opacity="0.2">
<path d="M117.857 140.945V149.785C117.857 151.241 119.027 152.437 120.483 152.437H128.985L117.857 140.945Z" fill="white"/>
</g>
<path d="M117.96 150.562C117.96 150.562 117.856 152.695 120.3 153.397C120.386 153.431 120.473 153.457 120.56 153.475C121.678 153.657 128.984 154.957 128.984 154.801C128.984 154.619 128.984 152.435 128.984 152.435H120.482C120.482 152.435 118.35 152.356 117.96 150.562Z" fill="#E0E0E0"/>
<path d="M108.727 171.675C108.727 170.349 109.767 169.387 111.119 169.387C111.899 169.387 112.523 169.673 112.939 170.167L112.289 170.791C111.994 170.444 111.621 170.271 111.171 170.271C110.365 170.271 109.767 170.843 109.767 171.675C109.767 172.507 110.365 173.079 111.171 173.079C111.621 173.079 111.994 172.905 112.289 172.559L112.939 173.157C112.523 173.677 111.899 173.963 111.119 173.963C109.767 173.963 108.727 173.001 108.727 171.675Z" fill="#FAFAFA"/>
<path d="M113.252 173.443L113.59 172.689C113.954 172.949 114.526 173.131 115.046 173.131C115.644 173.131 115.904 172.923 115.904 172.663C115.904 171.831 113.33 172.403 113.33 170.765C113.33 170.011 113.928 169.387 115.202 169.387C115.748 169.387 116.32 169.517 116.736 169.777L116.398 170.557C116.008 170.323 115.566 170.219 115.176 170.219C114.578 170.219 114.344 170.427 114.344 170.713C114.344 171.519 116.918 170.973 116.918 172.585C116.918 173.313 116.294 173.963 115.046 173.963C114.344 173.963 113.642 173.755 113.252 173.443Z" fill="#FAFAFA"/>
<path d="M117.256 173.443L117.62 172.689C117.984 172.949 118.53 173.131 119.076 173.131C119.674 173.131 119.908 172.923 119.908 172.663C119.908 171.831 117.36 172.403 117.36 170.765C117.36 170.011 117.958 169.387 119.206 169.387C119.778 169.387 120.324 169.517 120.74 169.777L120.428 170.557C120.012 170.323 119.596 170.219 119.206 170.219C118.608 170.219 118.374 170.427 118.374 170.713C118.374 171.519 120.922 170.973 120.922 172.585C120.922 173.313 120.324 173.963 119.05 173.963C118.348 173.963 117.646 173.755 117.256 173.443Z" fill="#FAFAFA"/>
<path d="M110.186 157.403C110.654 157.533 110.862 157.845 110.862 158.547V160.159C110.862 160.627 111.096 160.913 111.59 160.913H111.772V162.135H111.2C109.926 162.135 109.276 161.485 109.276 160.341V158.495C109.276 158.183 109.094 158.027 108.834 158.027H108.496V156.779H108.834C109.094 156.779 109.276 156.623 109.276 156.311V154.465C109.276 153.295 109.926 152.645 111.2 152.645H111.772V153.893H111.59C111.096 153.893 110.862 154.179 110.862 154.647V156.259C110.862 156.961 110.654 157.247 110.186 157.403Z" fill="#FAFAFA"/>
<path d="M121.106 156.779V158.027H120.768C120.482 158.027 120.326 158.183 120.326 158.495V160.341C120.326 161.485 119.676 162.135 118.402 162.135H117.83V160.913H118.012C118.506 160.913 118.74 160.627 118.74 160.159V158.547C118.74 157.845 118.948 157.533 119.416 157.403C118.948 157.247 118.74 156.961 118.74 156.259V154.647C118.74 154.179 118.506 153.893 118.012 153.893H117.83V152.645H118.402C119.676 152.645 120.326 153.295 120.326 154.465V156.311C120.326 156.623 120.482 156.779 120.768 156.779H121.106Z" fill="#FAFAFA"/>
<path d="M432.324 361.474C432.324 361.552 351.126 361.604 251 361.604C150.848 361.604 69.6758 361.552 69.6758 361.474C69.6758 361.396 150.848 361.344 251 361.344C351.126 361.344 432.324 361.396 432.324 361.474Z" fill="#263238"/>
<path d="M322.217 315.561H145.053C142.427 315.561 140.295 313.429 140.295 310.803V191.489C140.295 188.681 142.531 186.445 145.313 186.445H323.595C326.377 186.445 328.639 188.681 328.639 191.489V309.139C328.639 312.701 325.753 315.561 322.217 315.561Z" fill="#263238"/>
<path d="M177.602 207.843H164.316V204.957H177.602V207.843Z" fill="#455A64"/>
<path d="M170.972 220.816H164.316V217.93H170.972V220.816Z" fill="#03989E"/>
<path d="M178.67 227.343H169.336V224.457H178.67V227.343Z" fill="#455A64"/>
<path d="M185.612 227.343H180.178V224.457H185.612V227.343Z" fill="#455A64"/>
<path d="M234.492 227.343H223.26V224.457H234.492V227.343Z" fill="#455A64"/>
<path d="M267.225 233.71H248.297V230.824H267.225V233.71Z" fill="#455A64"/>
<path d="M296.45 227.343H287.35V224.457H296.45V227.343Z" fill="#455A64"/>
<path d="M317.508 227.343H299.23V224.457H317.508V227.343Z" fill="#455A64"/>
<path d="M178.67 233.71H169.336V230.824H178.67V233.71Z" fill="#455A64"/>
<path d="M172.924 240.054H163.59V237.168H172.924V240.054Z" fill="#03989E"/>
<path d="M172.927 246.402H168.559V243.516H172.927V246.402Z" fill="#455A64"/>
<path d="M188.968 259.765H184.6V256.879H188.968V259.765Z" fill="#455A64"/>
<path d="M253.265 283.917H244.711V281.031H253.265V283.917Z" fill="#455A64"/>
<path d="M300.949 283.917H280.045V281.031H300.949V283.917Z" fill="#455A64"/>
<path d="M221.102 277.574H212.574V274.688H221.102V277.574Z" fill="#E0E0E0"/>
<path d="M190.165 272.14H181.637V269.254H190.165V272.14Z" fill="#455A64"/>
<path d="M242.941 283.917H229.473V281.031H242.941V283.917Z" fill="#455A64"/>
<path d="M175.657 252.877H168.559V249.965H175.657V252.877Z" fill="#455A64"/>
<path d="M181.715 259.866H168.559V256.98H181.715V259.866Z" fill="#455A64"/>
<path d="M187.799 265.253H168.559V262.367H187.799V265.253Z" fill="#455A64"/>
<path d="M222.688 265.253H203.422V262.367H222.688V265.253Z" fill="#455A64"/>
<path d="M208.493 277.574H181.453V274.688H208.493V277.574Z" fill="#455A64"/>
<path d="M227.161 283.917H181.453V281.031H227.161V283.917Z" fill="#455A64"/>
<path d="M213.353 290.265H167.645V287.379H213.353V290.265Z" fill="#455A64"/>
<path d="M201.394 265.253H189.85V262.367H201.394V265.253Z" fill="#455A64"/>
<path d="M186.572 246.402H174.664V243.516H186.572V246.402Z" fill="#455A64"/>
<path d="M189.201 252.877H177.293V249.965H189.201V252.877Z" fill="#455A64"/>
<path d="M235.352 252.877H203.814V249.965H235.352V252.877Z" fill="#455A64"/>
<path d="M272.661 252.877H236.209V249.965H272.661V252.877Z" fill="#455A64"/>
<path d="M201.002 252.877H191.148V249.965H201.002V252.877Z" fill="#455A64"/>
<path d="M203.813 246.402H188.213V243.516H203.813V246.402Z" fill="#455A64"/>
<path d="M214.237 246.402H205.553V243.516H214.237V246.402Z" fill="#E0E0E0"/>
<path d="M189.928 233.71H180.178V230.824H189.928V233.71Z" fill="#455A64"/>
<path d="M244.685 233.71H196.533V230.824H244.685V233.71Z" fill="#455A64"/>
<path d="M298.739 252.877H275.963V249.965H298.739V252.877Z" fill="#455A64"/>
<path d="M278.249 283.917H255.473V281.031H278.249V283.917Z" fill="#455A64"/>
<path d="M283.817 227.343H236.393V224.457H283.817V227.343Z" fill="#455A64"/>
<path d="M220.322 227.343H187.328V224.457H220.322V227.343Z" fill="#455A64"/>
<path d="M186.546 214.002H164.316V211.09H186.546V214.002Z" fill="#455A64"/>
<path d="M219.204 214.002H188.758V211.09H219.204V214.002Z" fill="#455A64"/>
<path d="M189.46 207.843H179.684V204.957H189.46V207.843Z" fill="#E0E0E0"/>
<path d="M154.179 207.843H151.371V204.957H154.179V207.843Z" fill="#455A64"/>
<path d="M154.179 214.187H151.371V211.301H154.179V214.187Z" fill="#455A64"/>
<path d="M154.179 220.531H151.371V217.645H154.179V220.531Z" fill="#455A64"/>
<path d="M154.179 226.877H151.371V223.965H154.179V226.877Z" fill="#455A64"/>
<path d="M154.179 233.221H151.371V230.309H154.179V233.221Z" fill="#455A64"/>
<path d="M154.179 239.534H151.371V236.648H154.179V239.534Z" fill="#455A64"/>
<path d="M154.179 245.878H151.371V242.992H154.179V245.878Z" fill="#455A64"/>
<path d="M154.179 252.222H151.371V249.336H154.179V252.222Z" fill="#455A64"/>
<path d="M154.179 258.568H151.371V255.656H154.179V258.568Z" fill="#455A64"/>
<path d="M187.901 303.967H183.533V301.055H187.901V303.967Z" fill="#E0E0E0"/>
<path d="M180.879 303.967H167.723V301.055H180.879V303.967Z" fill="#03989E"/>
<path d="M154.179 303.624H151.371V300.738H154.179V303.624Z" fill="#455A64"/>
<path d="M154.179 264.912H151.371V262H154.179V264.912Z" fill="#455A64"/>
<path d="M154.179 271.256H151.371V268.344H154.179V271.256Z" fill="#455A64"/>
<path d="M154.179 277.574H151.371V274.688H154.179V277.574Z" fill="#455A64"/>
<path d="M154.179 283.917H151.371V281.031H154.179V283.917Z" fill="#455A64"/>
<path d="M154.179 290.265H151.371V287.379H154.179V290.265Z" fill="#455A64"/>
<path d="M180.957 296.943H167.645V294.031H180.957V296.943Z" fill="#455A64"/>
<path d="M213.665 296.943H183.531V294.031H213.665V296.943Z" fill="#455A64"/>
<path d="M154.179 296.943H151.371V294.031H154.179V296.943Z" fill="#455A64"/>
<path d="M232.697 213.975H222.895V211.062H232.697V213.975Z" fill="#E0E0E0"/>
<path d="M152.773 194.791C152.773 195.883 151.889 196.767 150.797 196.767C149.705 196.767 148.795 195.883 148.795 194.791C148.795 193.699 149.705 192.789 150.797 192.789C151.889 192.789 152.773 193.699 152.773 194.791Z" fill="#455A64"/>
<path d="M158.312 194.791C158.312 195.883 157.402 196.767 156.31 196.767C155.218 196.767 154.334 195.883 154.334 194.791C154.334 193.699 155.218 192.789 156.31 192.789C157.402 192.789 158.312 193.699 158.312 194.791Z" fill="#455A64"/>
<path d="M163.824 194.791C163.824 195.883 162.94 196.767 161.848 196.767C160.73 196.767 159.846 195.883 159.846 194.791C159.846 193.699 160.73 192.789 161.848 192.789C162.94 192.789 163.824 193.699 163.824 194.791Z" fill="#455A64"/>
<g opacity="0.3">
<path d="M312.1 308.751H241.172C239.092 308.751 237.402 307.087 237.402 305.007V267.567C237.402 265.487 239.092 263.797 241.172 263.797H312.1C314.18 263.797 315.844 265.487 315.844 267.567V305.007C315.844 307.087 314.18 308.751 312.1 308.751Z" fill="black"/>
</g>
<path d="M319.069 303.964H245.255C243.981 303.964 242.941 302.924 242.941 301.65V261.298C242.941 260.024 243.981 258.984 245.255 258.984H319.069C320.369 258.984 321.383 260.024 321.383 261.298V301.65C321.383 302.924 320.369 303.964 319.069 303.964Z" fill="#03989E"/>
<path fill-rule="evenodd" clip-rule="evenodd" d="M273.673 286.959H266.523L265.197 290.261H260.309L267.771 273.309H272.503L279.991 290.261H275.025L273.673 286.959ZM272.269 283.423L270.085 278.015L267.901 283.423H272.269Z" fill="white"/>
<path fill-rule="evenodd" clip-rule="evenodd" d="M293.094 274.089C294.22 274.591 295.087 275.319 295.694 276.273C296.318 277.209 296.63 278.318 296.63 279.601C296.63 280.866 296.318 281.967 295.694 282.903C295.087 283.839 294.22 284.558 293.094 285.061C291.967 285.581 290.632 285.841 289.09 285.841H286.152V290.261H281.342V273.309H289.09C290.632 273.309 291.967 273.569 293.094 274.089ZM291.04 281.421C291.542 280.987 291.794 280.381 291.794 279.601C291.794 278.803 291.542 278.188 291.04 277.755C290.537 277.321 289.792 277.105 288.804 277.105H286.152V282.045H288.804C289.792 282.045 290.537 281.837 291.04 281.421Z" fill="white"/>
<path d="M298.945 273.309H303.729V290.261H298.945V273.309Z" fill="white"/>
<path d="M159.144 204.125C159.222 204.125 159.274 229.059 159.274 259.817C159.274 290.575 159.222 315.509 159.144 315.509C159.066 315.509 159.014 290.575 159.014 259.817C159.014 229.059 159.066 204.125 159.144 204.125Z" fill="#455A64"/>
<path d="M218.968 324.324C218.968 324.324 218.968 324.402 218.968 324.558C218.986 324.714 218.994 324.931 218.994 325.208C218.994 325.78 219.02 326.612 219.02 327.678C219.02 329.862 219.046 333.008 219.072 336.856C219.072 338.806 219.072 340.912 219.072 343.2C219.072 343.772 219.072 344.353 219.072 344.942C219.072 345.514 219.124 346.112 219.046 346.736C218.916 347.984 218.214 349.18 217.148 349.96C216.628 350.35 216.004 350.61 215.328 350.766C214.678 350.896 214.002 350.844 213.326 350.844C211.992 350.844 210.622 350.844 209.218 350.844C206.436 350.844 203.55 350.87 200.612 350.87C188.782 350.844 178.096 350.818 170.348 350.818C166.474 350.792 163.354 350.792 161.17 350.766C160.104 350.766 159.272 350.766 158.674 350.74C158.397 350.74 158.18 350.74 158.024 350.74C157.886 350.74 157.816 350.732 157.816 350.714C157.816 350.714 157.886 350.714 158.024 350.714C158.18 350.714 158.397 350.706 158.674 350.688C159.272 350.688 160.104 350.688 161.17 350.662C163.354 350.662 166.474 350.636 170.348 350.636C178.096 350.61 188.782 350.61 200.612 350.584C203.55 350.584 206.436 350.584 209.218 350.584C210.622 350.584 211.992 350.584 213.326 350.584C214.002 350.584 214.678 350.636 215.276 350.506C215.926 350.376 216.498 350.116 216.992 349.752C218.006 349.024 218.682 347.88 218.812 346.71C218.864 346.138 218.838 345.514 218.838 344.942C218.856 344.353 218.864 343.772 218.864 343.2C218.864 340.912 218.864 338.806 218.864 336.856C218.89 333.008 218.916 329.862 218.916 327.678C218.916 326.612 218.942 325.78 218.942 325.208C218.942 324.931 218.942 324.714 218.942 324.558C218.96 324.402 218.968 324.324 218.968 324.324Z" fill="#03989E"/>
<path d="M220.788 322.505C220.788 323.519 219.956 324.325 218.968 324.325C217.954 324.325 217.148 323.519 217.148 322.505C217.148 321.517 217.954 320.711 218.968 320.711C219.956 320.711 220.788 321.517 220.788 322.505Z" fill="#03989E"/>
<path d="M159.691 350.427C159.691 351.441 158.859 352.247 157.871 352.247C156.857 352.247 156.051 351.441 156.051 350.427C156.051 349.439 156.857 348.633 157.871 348.633C158.859 348.633 159.691 349.439 159.691 350.427Z" fill="#03989E"/>
<path d="M364.985 308.256C364.985 309.66 363.867 310.804 362.463 310.804C361.059 310.804 359.941 309.66 359.941 308.256C359.941 306.878 361.059 305.734 362.463 305.734C363.867 305.734 364.985 306.878 364.985 308.256Z" fill="#03989E"/>
<path d="M377.259 297.049C377.259 298.453 376.141 299.571 374.737 299.571C373.333 299.571 372.215 298.453 372.215 297.049C372.215 295.645 373.333 294.527 374.737 294.527C376.141 294.527 377.259 295.645 377.259 297.049Z" fill="#03989E"/>
<path d="M365.246 285.845C365.246 287.223 364.102 288.367 362.698 288.367C361.32 288.367 360.176 287.223 360.176 285.845C360.176 284.441 361.32 283.297 362.698 283.297C364.102 283.297 365.246 284.441 365.246 285.845Z" fill="#03989E"/>
<path d="M374.373 297.052C374.373 297.13 364.519 297.182 352.377 297.182C340.209 297.182 330.381 297.13 330.381 297.052C330.381 296.974 340.209 296.922 352.377 296.922C364.519 296.922 374.373 296.974 374.373 297.052Z" fill="#03989E"/>
<path d="M362.462 309.423C362.384 309.423 362.332 304.249 362.332 297.853C362.332 291.483 362.384 286.309 362.462 286.309C362.54 286.309 362.592 291.483 362.592 297.853C362.592 304.249 362.54 309.423 362.462 309.423Z" fill="#03989E"/>
<path d="M234.308 193.306H196.192C193.774 193.306 191.824 191.356 191.824 188.964V166.708C191.824 164.29 193.774 162.34 196.192 162.34H234.308C236.7 162.34 238.65 164.29 238.65 166.708V188.964C238.65 191.356 236.7 193.306 234.308 193.306Z" fill="#03989E"/>
<g opacity="0.3">
<path d="M234.308 193.306H196.192C193.774 193.306 191.824 191.356 191.824 188.964V166.708C191.824 164.29 193.774 162.34 196.192 162.34H234.308C236.7 162.34 238.65 164.29 238.65 166.708V188.964C238.65 191.356 236.7 193.306 234.308 193.306Z" fill="black"/>
</g>
<path d="M231.164 193.306H193.048C190.63 193.306 188.68 191.356 188.68 188.964V166.708C188.68 164.29 190.63 162.34 193.048 162.34H231.164C233.556 162.34 235.506 164.29 235.506 166.708V188.964C235.506 191.356 233.556 193.306 231.164 193.306Z" fill="#03989E"/>
<path d="M207.036 176.09L200.666 178.352L207.036 180.614V183.526L197.182 179.886V176.818L207.036 173.152V176.09Z" fill="white"/>
<path d="M214.055 168.5H217.435L210.831 187.35H207.451L214.055 168.5Z" fill="white"/>
<path d="M227.524 176.818V179.886L217.67 183.526V180.614L224.04 178.352L217.67 176.09V173.152L227.524 176.818Z" fill="white"/>
<path fill-rule="evenodd" clip-rule="evenodd" d="M280.688 173.388C282.248 172.452 283.938 171.724 285.654 171.23L286.668 166.316L294.988 166.16L296.184 171.048C297.926 171.49 299.642 172.14 301.228 173.05L303.542 170.294H305.44L311.42 176.066L308.82 180.356C309.756 181.916 310.484 183.606 310.978 185.322L315.892 186.362L316.048 194.656L311.16 195.852C310.718 197.594 310.068 199.31 309.184 200.896L311.94 205.108L306.142 211.088H304.27L301.852 208.488C300.292 209.424 298.602 210.152 296.886 210.646L295.872 215.56L287.552 215.716L286.356 210.828C284.614 210.386 282.924 209.736 281.312 208.852L277.1 211.608H275.202L271.12 205.81L273.72 201.52C272.784 199.96 272.056 198.27 271.562 196.554L266.648 195.54L266.492 187.22L271.38 186.024C271.822 184.282 272.472 182.592 273.356 180.98L270.626 176.768L274.5 170.788H276.398L280.688 173.388ZM285.108 184.464C281.702 188 281.78 193.668 285.342 197.074C288.878 200.506 294.52 200.402 297.952 196.866C301.358 193.304 301.28 187.662 297.718 184.256C294.182 180.824 288.54 180.928 285.108 184.464Z" fill="#E0E0E0"/>
<g opacity="0.3">
<path fill-rule="evenodd" clip-rule="evenodd" d="M280.688 173.388C282.248 172.452 283.938 171.724 285.654 171.23L286.668 166.316L294.988 166.16L296.184 171.048C297.926 171.49 299.642 172.14 301.228 173.05L303.542 170.294H305.44L311.42 176.066L308.82 180.356C309.756 181.916 310.484 183.606 310.978 185.322L315.892 186.362L316.048 194.656L311.16 195.852C310.718 197.594 310.068 199.31 309.184 200.896L311.94 205.108L306.142 211.088H304.27L301.852 208.488C300.292 209.424 298.602 210.152 296.886 210.646L295.872 215.56L287.552 215.716L286.356 210.828C284.614 210.386 282.924 209.736 281.312 208.852L277.1 211.608H275.202L271.12 205.81L273.72 201.52C272.784 199.96 272.056 198.27 271.562 196.554L266.648 195.54L266.492 187.22L271.38 186.024C271.822 184.282 272.472 182.592 273.356 180.98L270.626 176.768L274.5 170.788H276.398L280.688 173.388ZM285.108 184.464C281.702 188 281.78 193.668 285.342 197.074C288.878 200.506 294.52 200.402 297.952 196.866C301.358 193.304 301.28 187.662 297.718 184.256C294.182 180.824 288.54 180.928 285.108 184.464Z" fill="black"/>
</g>
<path fill-rule="evenodd" clip-rule="evenodd" d="M278.789 173.388C280.349 172.452 282.039 171.724 283.755 171.23L284.795 166.316L293.089 166.16L294.285 171.048C296.027 171.49 297.743 172.14 299.329 173.05L303.541 170.294L309.521 176.066L306.921 180.356C307.857 181.916 308.585 183.606 309.079 185.322L313.993 186.362L314.149 194.656L309.261 195.852C308.845 197.594 308.169 199.31 307.285 200.896L310.041 205.108L304.269 211.088L299.953 208.488C298.393 209.424 296.729 210.152 294.987 210.646L293.973 215.56L285.653 215.716L284.457 210.828C282.715 210.386 281.025 209.736 279.413 208.852L275.201 211.608L269.221 205.81L271.821 201.52C270.885 199.96 270.157 198.27 269.663 196.554L264.749 195.54L264.619 187.22L269.481 186.024C269.923 184.282 270.573 182.592 271.483 180.98L268.727 176.768L274.499 170.788L278.789 173.388ZM283.209 184.464C279.803 188 279.881 193.668 283.443 197.074C286.979 200.506 292.621 200.402 296.053 196.866C299.459 193.304 299.381 187.662 295.819 184.256C292.283 180.824 286.641 180.928 283.209 184.464Z" fill="#E0E0E0"/>
<path d="M425.722 272.735H346.838C343.952 272.735 341.586 270.395 341.586 267.509V155.111C341.586 152.199 343.952 149.859 346.838 149.859H425.722C428.634 149.859 430.974 152.199 430.974 155.111V267.509C430.974 270.395 428.634 272.735 425.722 272.735Z" fill="white"/>
<path d="M397.146 235.759H375.41V217.637H397.146V235.759Z" fill="#E0E0E0"/>
<path d="M424.629 235.997H402.893V217.875H424.629V235.997Z" fill="#E0E0E0"/>
<path d="M369.666 235.997H347.93V217.875H369.666V235.997Z" fill="#E0E0E0"/>
<path d="M430.974 209.085H341.586V175.961H430.974V209.085Z" fill="#E0E0E0"/>
<path d="M430.974 162.131H341.586V154.695C341.586 152.017 343.744 149.859 346.422 149.859H425.566C428.556 149.859 430.974 152.277 430.974 155.267V162.131Z" fill="#E0E0E0"/>
<path d="M354.014 169.045C354.014 171.203 352.272 172.945 350.114 172.945C347.982 172.945 346.24 171.203 346.24 169.045C346.24 166.887 347.982 165.145 350.114 165.145C352.272 165.145 354.014 166.887 354.014 169.045Z" fill="#03989E"/>
<path d="M388.984 170.656H374.684V167.328H388.984V170.656Z" fill="#E0E0E0"/>
<path d="M406.794 170.656H392.494V167.328H406.794V170.656Z" fill="#E0E0E0"/>
<path d="M424.604 170.656H410.33V167.328H424.604V170.656Z" fill="#E0E0E0"/>
<path d="M369.666 245.045H347.93V242.133H369.666V245.045Z" fill="#E0E0E0"/>
<path d="M369.666 251.363H347.93V248.477H369.666V251.363Z" fill="#E0E0E0"/>
<path d="M359.708 257.706H347.93V254.82H359.708V257.706Z" fill="#E0E0E0"/>
<path d="M397.59 245.045H375.854V242.133H397.59V245.045Z" fill="#E0E0E0"/>
<path d="M397.59 251.363H375.854V248.477H397.59V251.363Z" fill="#E0E0E0"/>
<path d="M387.632 257.706H375.854V254.82H387.632V257.706Z" fill="#E0E0E0"/>
<path d="M425.513 245.045H403.777V242.133H425.513V245.045Z" fill="#E0E0E0"/>
<path d="M425.513 251.363H403.777V248.477H425.513V251.363Z" fill="#E0E0E0"/>
<path d="M415.555 257.706H403.777V254.82H415.555V257.706Z" fill="#E0E0E0"/>
<path d="M425.983 272.733C426.174 272.715 426.442 272.681 426.789 272.629C427.465 272.473 428.505 272.109 429.493 271.121C429.961 270.627 430.403 269.951 430.663 269.145C430.975 268.339 430.949 267.403 430.923 266.389C430.923 264.361 430.923 262.047 430.923 259.421C430.897 248.891 430.897 233.681 430.871 214.883C430.871 205.497 430.871 195.201 430.871 184.151C430.845 178.613 430.845 172.893 430.845 167.017C430.845 164.07 430.845 161.08 430.845 158.047C430.845 157.301 430.845 156.547 430.845 155.785C430.871 155.005 430.845 154.251 430.611 153.549C430.143 152.119 429.025 150.897 427.621 150.351C426.919 150.065 426.139 149.961 425.385 149.987C424.588 149.987 423.799 149.987 423.019 149.987C421.442 149.987 419.864 149.987 418.287 149.987C415.098 149.987 411.874 149.987 408.615 149.987C402.115 149.987 395.485 149.987 388.725 149.987C375.205 149.987 361.191 149.987 346.839 149.987C345.981 150.013 345.097 150.221 344.343 150.637C343.589 151.079 342.939 151.703 342.497 152.431C342.029 153.185 341.769 154.043 341.743 154.901C341.717 155.785 341.743 156.669 341.717 157.553C341.717 161.089 341.717 164.607 341.717 168.109C341.717 175.077 341.717 181.967 341.717 188.727C341.717 202.247 341.717 215.299 341.717 227.727C341.717 240.155 341.717 251.985 341.717 263.035C341.717 264.404 341.717 265.773 341.717 267.143C341.639 268.469 342.055 269.821 342.913 270.809C343.745 271.797 344.967 272.473 346.241 272.603C346.891 272.655 347.541 272.629 348.191 272.629C348.832 272.629 349.474 272.629 350.115 272.629C355.263 272.655 360.177 272.655 364.883 272.655C383.681 272.655 398.891 272.681 409.395 272.681C414.647 272.707 418.729 272.707 421.511 272.707C422.898 272.724 423.946 272.733 424.657 272.733C425.359 272.733 425.723 272.733 425.723 272.733C425.723 272.733 425.359 272.759 424.657 272.759C423.946 272.759 422.898 272.759 421.511 272.759C418.729 272.785 414.647 272.785 409.395 272.785C398.891 272.811 383.681 272.811 364.883 272.837C360.177 272.837 355.263 272.837 350.115 272.837C349.474 272.837 348.832 272.837 348.191 272.837C347.541 272.837 346.891 272.863 346.241 272.811C344.889 272.681 343.615 271.979 342.757 270.939C341.847 269.925 341.431 268.495 341.483 267.143C341.483 265.773 341.483 264.404 341.483 263.035C341.483 251.985 341.483 240.155 341.457 227.727C341.457 215.299 341.457 202.247 341.457 188.727C341.457 181.967 341.457 175.077 341.457 168.109C341.457 164.607 341.457 161.089 341.457 157.553C341.457 156.669 341.457 155.785 341.483 154.875C341.509 153.965 341.769 153.081 342.263 152.301C342.731 151.521 343.433 150.871 344.213 150.403C345.019 149.961 345.929 149.727 346.839 149.727C361.191 149.727 375.205 149.727 388.725 149.727C395.485 149.727 402.115 149.727 408.615 149.727C411.874 149.727 415.098 149.727 418.287 149.727C419.864 149.727 421.442 149.727 423.019 149.727C423.799 149.727 424.588 149.727 425.385 149.727C426.165 149.727 426.971 149.805 427.699 150.117C429.207 150.689 430.351 151.989 430.845 153.471C431.105 154.225 431.105 155.031 431.105 155.785C431.105 156.547 431.105 157.301 431.105 158.047C431.105 161.08 431.096 164.07 431.079 167.017C431.079 172.893 431.079 178.613 431.079 184.151C431.079 195.201 431.079 205.497 431.079 214.883C431.053 233.681 431.027 248.891 431.027 259.421C431.027 262.047 431.027 264.361 431.001 266.389C431.001 266.909 431.027 267.377 431.001 267.845C430.975 268.339 430.871 268.781 430.741 269.171C430.455 270.003 430.013 270.653 429.519 271.147C428.531 272.161 427.465 272.499 426.789 272.655C426.442 272.707 426.174 272.733 425.983 272.733Z" fill="#263238"/>
<path d="M350.321 156.642C350.321 157.448 349.645 158.124 348.839 158.124C348.007 158.124 347.357 157.448 347.357 156.642C347.357 155.81 348.007 155.16 348.839 155.16C349.645 155.16 350.321 155.81 350.321 156.642Z" fill="white"/>
<path d="M355.027 156.642C355.027 157.448 354.351 158.124 353.545 158.124C352.713 158.124 352.062 157.448 352.062 156.642C352.062 155.81 352.713 155.16 353.545 155.16C354.351 155.16 355.027 155.81 355.027 156.642Z" fill="white"/>
<path d="M359.734 156.642C359.734 157.448 359.084 158.124 358.252 158.124C357.42 158.124 356.77 157.448 356.77 156.642C356.77 155.81 357.42 155.16 358.252 155.16C359.084 155.16 359.734 155.81 359.734 156.642Z" fill="white"/>
<path d="M380.092 193.2V185.946C380.092 184.594 381.6 183.736 382.822 184.412L389.296 188.052L395.796 191.666C396.992 192.368 396.992 194.058 395.796 194.734L389.296 198.374L382.822 202.014C381.6 202.69 380.092 201.832 380.092 200.48V193.2Z" fill="white"/>
<path d="M422.865 361.463L388.545 361.307C384.437 361.307 381.109 358.135 381.109 354.235L381.473 273.141C381.499 269.241 384.853 266.095 388.987 266.121L423.307 266.251C427.441 266.277 430.769 269.449 430.743 273.349L430.379 354.443C430.353 358.343 426.999 361.489 422.865 361.463Z" fill="#263238"/>
<path d="M423.251 269.062L416.595 269.036L397.173 268.958L394.833 268.932L389.009 268.906C386.123 268.906 383.757 271.116 383.757 273.82L383.393 352.99C383.367 355.72 385.707 357.93 388.593 357.956L422.861 358.112C425.747 358.112 428.087 355.902 428.113 353.198L428.451 274.028C428.477 271.298 426.137 269.088 423.251 269.062Z" fill="white"/>
<path d="M423.541 276.421C423.541 276.655 423.359 276.837 423.125 276.837C422.891 276.837 422.709 276.655 422.709 276.421C422.709 276.213 422.891 276.031 423.125 276.031C423.359 276.031 423.541 276.213 423.541 276.421Z" fill="#263238"/>
<path d="M423.54 277.91C423.54 278.144 423.358 278.326 423.124 278.326C422.89 278.326 422.682 278.144 422.682 277.91C422.708 277.702 422.89 277.52 423.124 277.52C423.358 277.52 423.54 277.702 423.54 277.91Z" fill="#263238"/>
<path d="M423.54 279.39C423.54 279.624 423.358 279.806 423.124 279.806C422.89 279.806 422.682 279.624 422.682 279.39C422.682 279.182 422.89 279 423.124 279C423.358 279 423.54 279.182 423.54 279.39Z" fill="#263238"/>
<path d="M394.442 278.325C394.442 279.833 393.194 281.055 391.634 281.055C390.1 281.055 388.826 279.833 388.826 278.325C388.826 276.817 390.1 275.621 391.634 275.621C393.194 275.621 394.442 276.817 394.442 278.325Z" fill="#03989E"/>
<path d="M415.269 278.845H400.891C400.371 278.845 399.955 278.429 399.955 277.909C399.955 277.415 400.371 276.973 400.891 276.973H415.269C415.789 276.973 416.205 277.415 416.205 277.909C416.205 278.429 415.789 278.845 415.269 278.845Z" fill="#E0E0E0"/>
<path d="M397.484 313.528V305.468C397.484 303.96 399.174 303.024 400.526 303.778L407.702 307.808L414.878 311.812C416.204 312.566 416.204 314.464 414.878 315.218L407.702 319.222L400.526 323.252C399.174 324.006 397.484 323.07 397.484 321.562V313.528Z" fill="#03989E"/>
<path d="M321.694 348.503C324.736 343.641 329.884 342.523 334.564 343.589C333.862 336.699 336.956 329.523 342.468 325.337C347.98 321.151 355.702 320.059 362.15 322.581C368.624 325.103 373.564 331.161 374.76 337.999C379.596 334.541 386.876 336.881 390.438 341.639C394 346.397 394.208 356.589 390.048 361.373L322.864 360.983C322.864 360.983 317.742 354.769 321.694 348.503Z" fill="#03989E"/>
<g opacity="0.3">
<path d="M321.694 348.503C324.736 343.641 329.884 342.523 334.564 343.589C333.862 336.699 336.956 329.523 342.468 325.337C347.98 321.151 355.702 320.059 362.15 322.581C368.624 325.103 373.564 331.161 374.76 337.999C379.596 334.541 386.876 336.881 390.438 341.639C394 346.397 394.208 356.589 390.048 361.373L322.864 360.983C322.864 360.983 317.742 354.769 321.694 348.503Z" fill="black"/>
</g>
<path d="M315.925 348.503C318.967 343.641 324.115 342.523 328.795 343.589C328.093 336.699 331.187 329.523 336.699 325.337C342.211 321.151 349.933 320.059 356.381 322.581C362.855 325.103 367.795 331.161 368.991 337.999C373.827 334.541 381.107 336.881 384.669 341.639C388.231 346.397 388.439 356.589 384.279 361.373L317.095 360.983C317.095 360.983 311.973 354.769 315.925 348.503Z" fill="#03989E"/>
<path d="M148.04 361.473H81.7663C80.6483 361.473 79.7383 360.563 79.7383 359.471V296.291C79.7383 295.173 80.6483 294.289 81.7663 294.289H148.04C149.132 294.289 150.042 295.173 150.042 296.291V359.471C150.042 360.563 149.132 361.473 148.04 361.473Z" fill="#E0E0E0"/>
<path d="M150.173 315.738C150.173 315.79 134.469 315.868 115.099 315.868C95.7294 315.868 80.0254 315.79 80.0254 315.738C80.0254 315.66 95.7294 315.582 115.099 315.582C134.469 315.582 150.173 315.66 150.173 315.738Z" fill="#263238"/>
<path d="M150.173 337.294C150.173 337.372 134.469 337.45 115.099 337.45C95.7294 337.45 80.0254 337.372 80.0254 337.294C80.0254 337.216 95.7294 337.164 115.099 337.164C134.469 337.164 150.173 337.216 150.173 337.294Z" fill="#263238"/>
<path d="M94.0641 305.624C94.0641 306.456 93.3621 307.132 92.5301 307.132C91.6721 307.132 90.9961 306.456 90.9961 305.624C90.9961 304.766 91.6721 304.09 92.5301 304.09C93.3621 304.09 94.0641 304.766 94.0641 305.624Z" fill="white"/>
<path d="M99.5504 305.624C99.5504 306.456 98.8484 307.132 98.0164 307.132C97.1584 307.132 96.4824 306.456 96.4824 305.624C96.4824 304.766 97.1584 304.09 98.0164 304.09C98.8484 304.09 99.5504 304.766 99.5504 305.624Z" fill="white"/>
<path d="M132.623 308.458H132.363C132.051 308.458 131.791 308.224 131.791 307.912V303.83C131.791 303.518 132.051 303.258 132.363 303.258H132.623C132.935 303.258 133.195 303.518 133.195 303.83V307.912C133.195 308.224 132.935 308.458 132.623 308.458Z" fill="#263238"/>
<path d="M136.158 308.458H135.898C135.586 308.458 135.326 308.224 135.326 307.912V303.83C135.326 303.518 135.586 303.258 135.898 303.258H136.158C136.47 303.258 136.704 303.518 136.704 303.83V307.912C136.704 308.224 136.47 308.458 136.158 308.458Z" fill="#263238"/>
<path d="M139.408 308.458H139.148C138.81 308.458 138.576 308.224 138.576 307.912V303.83C138.576 303.518 138.81 303.258 139.148 303.258H139.408C139.72 303.258 139.954 303.518 139.954 303.83V307.912C139.954 308.224 139.72 308.458 139.408 308.458Z" fill="white"/>
<path d="M129.061 308.458H128.801C128.489 308.458 128.229 308.224 128.229 307.912V303.83C128.229 303.518 128.489 303.258 128.801 303.258H129.061C129.373 303.258 129.633 303.518 129.633 303.83V307.912C129.633 308.224 129.373 308.458 129.061 308.458Z" fill="#03989E"/>
<path d="M94.0641 326.581C94.0641 327.413 93.3621 328.115 92.5301 328.115C91.6721 328.115 90.9961 327.413 90.9961 326.581C90.9961 325.723 91.6721 325.047 92.5301 325.047C93.3621 325.047 94.0641 325.723 94.0641 326.581Z" fill="white"/>
<path d="M99.2373 326.581C99.2373 327.413 98.5613 328.115 97.7033 328.115C96.8713 328.115 96.1953 327.413 96.1953 326.581C96.1953 325.723 96.8713 325.047 97.7033 325.047C98.5613 325.047 99.2373 325.723 99.2373 326.581Z" fill="white"/>
<path d="M132.623 329.441H132.363C132.051 329.441 131.791 329.181 131.791 328.869V324.787C131.791 324.475 132.051 324.215 132.363 324.215H132.623C132.935 324.215 133.195 324.475 133.195 324.787V328.869C133.195 329.181 132.935 329.441 132.623 329.441Z" fill="#263238"/>
<path d="M136.158 329.441H135.898C135.586 329.441 135.326 329.181 135.326 328.869V324.787C135.326 324.475 135.586 324.215 135.898 324.215H136.158C136.47 324.215 136.704 324.475 136.704 324.787V328.869C136.704 329.181 136.47 329.441 136.158 329.441Z" fill="#263238"/>
<path d="M139.408 329.441H139.148C138.81 329.441 138.576 329.181 138.576 328.869V324.787C138.576 324.475 138.81 324.215 139.148 324.215H139.408C139.72 324.215 139.954 324.475 139.954 324.787V328.869C139.954 329.181 139.72 329.441 139.408 329.441Z" fill="white"/>
<path d="M129.061 329.441H128.801C128.489 329.441 128.229 329.181 128.229 328.869V324.787C128.229 324.475 128.489 324.215 128.801 324.215H129.061C129.373 324.215 129.633 324.475 129.633 324.787V328.869C129.633 329.181 129.373 329.441 129.061 329.441Z" fill="#03989E"/>
<path d="M94.0641 349.147C94.0641 349.979 93.3621 350.655 92.5301 350.655C91.6721 350.655 90.9961 349.979 90.9961 349.147C90.9961 348.289 91.6721 347.613 92.5301 347.613C93.3621 347.613 94.0641 348.289 94.0641 349.147Z" fill="white"/>
<path d="M99.6807 349.147C99.6807 349.979 99.0047 350.655 98.1467 350.655C97.3147 350.655 96.6387 349.979 96.6387 349.147C96.6387 348.289 97.3147 347.613 98.1467 347.613C99.0047 347.613 99.6807 348.289 99.6807 349.147Z" fill="white"/>
<path d="M132.623 351.981H132.363C132.051 351.981 131.791 351.747 131.791 351.435V347.353C131.791 347.041 132.051 346.781 132.363 346.781H132.623C132.935 346.781 133.195 347.041 133.195 347.353V351.435C133.195 351.747 132.935 351.981 132.623 351.981Z" fill="#263238"/>
<path d="M136.158 351.981H135.898C135.586 351.981 135.326 351.747 135.326 351.435V347.353C135.326 347.041 135.586 346.781 135.898 346.781H136.158C136.47 346.781 136.704 347.041 136.704 347.353V351.435C136.704 351.747 136.47 351.981 136.158 351.981Z" fill="#263238"/>
<path d="M139.408 351.981H139.148C138.81 351.981 138.576 351.747 138.576 351.435V347.353C138.576 347.041 138.81 346.781 139.148 346.781H139.408C139.72 346.781 139.954 347.041 139.954 347.353V351.435C139.954 351.747 139.72 351.981 139.408 351.981Z" fill="white"/>
<path d="M129.061 351.981H128.801C128.489 351.981 128.229 351.747 128.229 351.435V347.353C128.229 347.041 128.489 346.781 128.801 346.781H129.061C129.373 346.781 129.633 347.041 129.633 347.353V351.435C129.633 351.747 129.373 351.981 129.061 351.981Z" fill="#03989E"/>
<path d="M114.785 198.242C114.681 197.02 113.381 196.032 112.185 196.292C111.509 194.94 109.637 194.368 108.337 195.096C107.713 195.46 107.245 196.032 106.647 196.396C106.049 196.76 105.373 196.916 104.749 197.202C104.125 197.488 103.553 198.008 103.475 198.684C103.371 199.438 103.969 200.14 104.697 200.426C105.399 200.712 106.179 200.66 106.933 200.634C106.621 200.816 106.543 201.31 106.699 201.648C106.881 201.986 107.219 202.22 107.583 202.35C108.753 202.818 110.209 202.558 111.145 201.7L112.575 200.608C113.797 200.634 114.889 199.464 114.785 198.242Z" fill="#263238"/>
<path d="M111.223 203C110.963 203.26 110.495 203.234 110.235 202.974C109.949 202.714 109.897 202.298 110.001 201.96C110.105 201.596 110.365 201.31 110.677 201.102C110.989 200.894 111.327 200.79 111.691 200.66C112.237 200.504 112.783 200.374 113.355 200.348C113.563 200.348 113.771 200.348 113.953 200.426C114.161 200.504 114.317 200.686 114.317 200.868C114.343 201.154 114.109 201.388 113.875 201.544C113.017 202.194 112.107 202.74 111.145 203.208" fill="#03989E"/>
<path d="M110.391 202.846C109.065 201.338 105.685 201.546 104.905 202.534C103.735 201.91 102.123 202.43 101.525 203.6C100.346 203.86 99.1591 204.12 97.9631 204.38C97.3391 204.484 96.7151 204.64 96.2471 205.056C95.7791 205.446 95.5451 206.226 95.9351 206.72C94.6611 207.032 94.1671 208.904 95.1031 209.814C94.5831 210.334 94.6611 211.348 95.2851 211.764C94.2971 212.934 93.4911 214.286 92.9451 215.716C92.7111 216.34 92.5291 216.99 92.7631 217.614C92.9711 218.212 93.7771 218.628 94.2971 218.264C93.9331 218.732 93.9071 219.46 94.2191 219.98C93.5951 219.98 93.4131 220.916 93.8291 221.358C94.2451 221.8 94.9211 221.852 95.5191 221.826C96.1171 221.826 96.7671 221.8 97.2611 222.138C97.2351 222.32 97.1831 222.45 97.0791 222.528C96.0391 223.36 95.7271 224.816 96.4811 225.908C96.5678 226.012 96.6371 226.107 96.6891 226.194C97.0271 226.688 97.8851 227.156 98.4311 227.442C99.7831 228.144 100.615 228.014 102.123 228.248C101.707 229.236 104.177 231.42 107.011 229.314C112.653 230.874 116.735 231.472 122.585 231.524C123.417 231.55 124.431 231.42 124.795 230.692C125.471 230.874 126.199 230.562 126.719 230.068C127.213 229.6 127.525 228.95 127.837 228.326C129.293 227.936 130.411 226.558 130.489 225.05C131.477 224.296 132.101 223.1 132.205 221.878C133.609 221.462 134.389 219.642 133.739 218.316C133.453 216.6 132.881 214.91 132.049 213.376C133.011 213.168 133.375 211.894 132.985 210.984C132.595 210.1 131.737 209.502 130.905 208.982C131.607 209.164 132.257 208.28 132.075 207.552C131.919 206.824 131.269 206.33 130.645 205.94C129.709 205.368 128.721 204.926 127.681 204.614C127.343 203.34 125.757 201.884 124.587 201.338C119.829 199.05 116.501 198.452 110.391 202.846Z" fill="#263238"/>
<path d="M106.725 210.488C106.673 209.474 106.517 208.486 107.505 208.33L117.619 205.288C120.869 204.794 123.235 208.72 123.599 212.022C123.989 215.662 124.327 220.108 124.015 222.864C123.391 228.376 118.529 229.858 118.529 229.858L118.659 233.212C118.243 235.786 117.593 238.698 116.527 239.738C112.965 239.062 107.115 231.184 107.115 231.184L106.725 210.488Z" fill="#AE7461"/>
<path d="M118.292 220.339C118.292 220.287 118.76 220.183 119.514 220.053C119.696 220.027 119.878 220.001 119.904 219.845C119.956 219.715 119.852 219.507 119.748 219.299C119.558 218.831 119.35 218.346 119.124 217.843C118.24 215.789 117.59 214.099 117.668 214.047C117.746 214.021 118.526 215.659 119.41 217.713C119.636 218.216 119.844 218.701 120.034 219.169C120.112 219.377 120.268 219.637 120.164 219.923C120.138 220.079 119.982 220.183 119.878 220.235C119.748 220.261 119.644 220.261 119.54 220.287C118.786 220.365 118.292 220.391 118.292 220.339Z" fill="#263238"/>
<path d="M118.527 229.858C118.527 229.858 115.537 229.676 111.793 227.648C111.793 227.648 113.067 231.106 118.579 231.522L118.527 229.858Z" fill="#6F4439"/>
<path d="M115.072 211.919C114.994 212.127 114.24 212.049 113.356 212.205C112.472 212.335 111.77 212.621 111.64 212.439C111.588 212.361 111.692 212.153 111.978 211.945C112.264 211.737 112.706 211.529 113.252 211.451C113.772 211.373 114.266 211.425 114.604 211.555C114.916 211.659 115.098 211.815 115.072 211.919Z" fill="#263238"/>
<path d="M122.353 211.787C122.223 211.969 121.703 211.813 121.053 211.839C120.429 211.839 119.909 211.995 119.779 211.813C119.727 211.735 119.805 211.553 120.013 211.397C120.247 211.215 120.611 211.059 121.053 211.059C121.495 211.059 121.859 211.189 122.093 211.371C122.327 211.527 122.405 211.709 122.353 211.787Z" fill="#263238"/>
<path d="M126.07 214.649C126.018 213.791 125.732 212.907 125.16 212.283C124.822 211.945 124.406 211.685 124.12 211.295C123.522 210.489 123.6 209.371 123.34 208.383C123.002 207.109 122.014 206.043 120.766 205.601C119.752 205.237 118.582 205.289 117.62 204.769C116.892 204.379 116.346 203.729 115.618 203.391C114.188 202.741 112.524 203.469 111.172 204.275C110.912 205.367 111.588 206.277 112.238 207.187C112.888 208.071 113.954 208.643 115.072 208.721C115.93 208.773 116.918 208.565 117.516 209.189C118.166 209.813 117.906 210.957 118.426 211.685C119.18 212.751 120.87 212.335 121.988 212.985C122.846 213.505 123.21 214.519 123.652 215.429C124.068 216.313 124.822 217.249 125.81 217.197C125.966 216.365 126.122 215.507 126.07 214.649Z" fill="#263238"/>
<path d="M113.303 206.25C110.807 206.198 108.311 206.666 105.971 207.576C105.269 207.836 104.567 208.174 104.151 208.824C103.813 209.37 103.761 210.072 103.787 210.722C103.813 212.776 104.645 215.298 105.425 217.196L107.973 218.73C109.949 218.262 109.039 214.83 108.961 213.14C110.339 212.516 111.301 211.06 111.301 209.578C112.445 208.85 113.199 207.576 113.303 206.25Z" fill="#263238"/>
<path d="M107.953 217.976C107.875 216.806 106.445 216.572 105.431 217.196C104.859 217.508 104.443 218.184 104.521 219.432C104.729 222.76 108.031 221.876 108.031 221.772C108.031 221.72 108.057 219.354 107.953 217.976Z" fill="#AE7461"/>
<path d="M106.94 220.573C106.914 220.573 106.888 220.625 106.784 220.677C106.68 220.703 106.524 220.755 106.342 220.703C105.978 220.599 105.666 220.053 105.614 219.455C105.588 219.143 105.64 218.857 105.718 218.623C105.822 218.363 105.952 218.181 106.134 218.129C106.316 218.103 106.446 218.181 106.498 218.285C106.524 218.363 106.524 218.441 106.524 218.441C106.55 218.441 106.602 218.389 106.576 218.259C106.55 218.181 106.498 218.103 106.42 218.051C106.342 217.999 106.212 217.973 106.108 217.973C105.848 218.025 105.64 218.259 105.536 218.519C105.406 218.805 105.354 219.143 105.38 219.481C105.432 220.131 105.822 220.755 106.316 220.859C106.55 220.911 106.732 220.833 106.836 220.729C106.94 220.651 106.94 220.573 106.94 220.573Z" fill="#6F4439"/>
<path d="M106.544 221.98C106.561 221.98 106.561 221.988 106.544 222.006C106.544 222.032 106.544 222.084 106.492 222.136C106.466 222.266 106.336 222.396 106.128 222.5C105.92 222.578 105.634 222.656 105.296 222.656C105.122 222.673 104.94 222.664 104.75 222.63C104.568 222.604 104.36 222.552 104.178 222.448L104.23 222.422C104.152 222.89 103.84 223.384 103.346 223.644C102.826 223.904 102.124 223.878 101.578 223.488L101.63 223.462C101.552 223.618 101.396 223.722 101.214 223.774C101.032 223.8 100.85 223.774 100.668 223.722C100.486 223.644 100.33 223.54 100.226 223.358C100.122 223.202 100.07 223.02 100.07 222.812C100.044 222.422 100.174 222.032 100.434 221.72C100.668 221.382 100.98 221.122 101.292 220.862L101.318 220.94C101.032 220.758 100.85 220.472 100.772 220.134C100.72 219.822 100.746 219.484 100.876 219.172C101.006 218.86 101.214 218.574 101.448 218.34C101.708 218.08 101.968 217.872 102.228 217.664V217.742C101.994 217.508 101.89 217.118 101.916 216.78C101.916 216.416 102.072 216.078 102.28 215.792C102.722 215.246 103.32 214.934 103.892 214.648L103.866 214.726C103.684 213.972 103.918 213.192 104.412 212.672C104.88 212.152 105.608 211.918 106.284 211.996L106.232 212.048C106.102 211.45 106.31 210.852 106.674 210.41C107.038 209.994 107.558 209.734 108.078 209.734L108.026 209.786C108.026 209.162 108.364 208.642 108.78 208.33C109.196 207.992 109.716 207.862 110.184 207.94L110.132 207.966C110.158 207.654 110.262 207.368 110.418 207.108C110.556 206.865 110.721 206.666 110.912 206.51C111.276 206.172 111.718 206.042 112.056 206.016C112.09 206.016 112.134 206.016 112.186 206.016C112.22 206.016 112.255 206.016 112.29 206.016C112.368 206.016 112.446 206.016 112.498 206.042C112.628 206.068 112.732 206.094 112.81 206.12C112.896 206.154 112.966 206.18 113.018 206.198C113.052 206.215 113.07 206.224 113.07 206.224C113.07 206.241 113.044 206.241 112.992 206.224C112.957 206.206 112.896 206.18 112.81 206.146C112.732 206.12 112.628 206.094 112.498 206.068C112.446 206.042 112.368 206.042 112.29 206.042C112.255 206.042 112.22 206.042 112.186 206.042C112.134 206.042 112.09 206.042 112.056 206.042C111.718 206.068 111.302 206.224 110.938 206.536C110.756 206.692 110.6 206.9 110.47 207.134C110.314 207.394 110.21 207.654 110.21 207.966V208.018L110.158 207.992C109.742 207.94 109.222 208.07 108.832 208.382C108.442 208.694 108.104 209.188 108.104 209.76V209.812H108.078C107.584 209.812 107.09 210.072 106.726 210.488C106.388 210.878 106.18 211.45 106.31 212.022L106.336 212.074H106.258C105.634 211.996 104.932 212.256 104.464 212.75C103.996 213.244 103.814 213.998 103.97 214.7L103.996 214.726L103.944 214.752C103.372 215.038 102.774 215.324 102.358 215.844C102.15 216.13 102.02 216.442 102.02 216.78C101.994 217.118 102.072 217.456 102.306 217.664L102.358 217.716L102.306 217.742C101.76 218.158 101.214 218.6 100.954 219.198C100.85 219.484 100.824 219.822 100.876 220.134C100.928 220.42 101.11 220.706 101.344 220.862L101.422 220.888L101.37 220.94C101.032 221.2 100.72 221.46 100.486 221.772C100.252 222.084 100.122 222.448 100.148 222.812C100.174 223.176 100.356 223.54 100.694 223.644C101.006 223.774 101.396 223.696 101.578 223.436L101.604 223.384L101.63 223.41C102.15 223.8 102.826 223.826 103.32 223.566C103.788 223.332 104.1 222.864 104.152 222.422L104.178 222.396H104.204C104.386 222.5 104.594 222.552 104.776 222.578C104.949 222.612 105.122 222.63 105.296 222.63C105.634 222.604 105.894 222.552 106.102 222.474C106.31 222.37 106.44 222.24 106.492 222.136C106.544 222.032 106.544 221.98 106.544 221.98Z" fill="#455A64"/>
<path d="M93.8823 218.419C93.8823 218.419 93.8303 218.367 93.7523 218.211C93.7003 218.081 93.5963 217.847 93.5703 217.561C93.5703 217.275 93.6223 216.885 93.8563 216.521C94.0903 216.157 94.5063 215.819 95.0523 215.741L95.0263 215.793C94.9223 215.273 95.0003 214.675 95.3383 214.155C95.4943 213.869 95.7023 213.635 95.9883 213.453C96.2483 213.271 96.5863 213.167 96.8983 213.011C97.0543 212.959 97.1843 212.881 97.3143 212.777C97.453 212.655 97.557 212.517 97.6263 212.361C97.7823 212.049 97.8343 211.659 98.0163 211.321C98.3803 210.645 99.2123 210.177 100.044 210.307L99.9923 210.359C99.8623 209.605 100.122 208.773 100.668 208.175C101.266 207.551 102.124 207.239 102.93 207.343L102.878 207.395C102.774 206.433 103.32 205.471 104.126 205.081C104.906 204.665 105.868 204.769 106.518 205.211H106.466C106.804 204.873 107.22 204.665 107.61 204.509C108.026 204.353 108.442 204.275 108.806 204.223C109.586 204.145 110.262 204.223 110.782 204.353C111.328 204.509 111.718 204.691 111.952 204.847C112.082 204.925 112.16 205.003 112.238 205.055C112.29 205.089 112.316 205.115 112.316 205.133C112.316 205.133 112.186 205.029 111.952 204.873C111.692 204.717 111.302 204.535 110.782 204.405C110.236 204.301 109.586 204.197 108.832 204.301C108.442 204.327 108.052 204.431 107.636 204.587C107.246 204.717 106.856 204.951 106.518 205.289H106.492H106.466C105.842 204.873 104.932 204.769 104.152 205.159C103.398 205.549 102.878 206.459 102.982 207.395V207.447H102.93C102.15 207.343 101.318 207.629 100.746 208.227C100.2 208.799 99.9663 209.631 100.07 210.359L100.096 210.411H100.018C99.2383 210.281 98.4583 210.723 98.0943 211.373C97.9123 211.685 97.8603 212.049 97.7043 212.387C97.6263 212.569 97.5223 212.725 97.3923 212.829C97.2363 212.959 97.0803 213.037 96.9243 213.115C96.6123 213.245 96.3003 213.349 96.0403 213.531C95.7543 213.687 95.5463 213.921 95.3903 214.181C95.0783 214.701 95.0003 215.273 95.1043 215.767V215.819H95.0783C94.5323 215.897 94.1163 216.209 93.9083 216.547C93.6483 216.885 93.5963 217.275 93.6223 217.561C93.6223 217.847 93.7003 218.081 93.7783 218.211C93.8303 218.341 93.8823 218.419 93.8823 218.419Z" fill="#455A64"/>
<path d="M125.706 219.303C125.706 219.329 125.628 219.225 125.68 219.043C125.706 218.965 125.784 218.861 125.888 218.757C125.992 218.679 126.122 218.601 126.278 218.549C126.46 218.497 126.642 218.471 126.798 218.341C126.98 218.237 127.11 218.029 127.188 217.821C127.266 217.587 127.292 217.327 127.266 217.041C127.266 216.781 127.214 216.495 127.214 216.183C127.214 215.533 127.474 214.909 127.63 214.207C127.708 213.869 127.734 213.479 127.682 213.115C127.604 212.751 127.422 212.387 127.084 212.179C126.746 211.971 126.33 211.893 125.914 211.789C125.706 211.711 125.498 211.633 125.316 211.503C125.134 211.373 124.978 211.191 124.9 210.983C124.692 210.567 124.64 210.099 124.536 209.657C124.484 209.449 124.432 209.241 124.302 209.033C124.198 208.851 124.016 208.695 123.834 208.617C123.548 208.487 123.21 208.513 122.898 208.487C122.742 208.461 122.586 208.435 122.43 208.357C122.3 208.305 122.17 208.175 122.066 208.045C121.884 207.785 121.806 207.473 121.728 207.213C121.641 206.918 121.502 206.667 121.312 206.459C120.922 206.017 120.376 205.783 119.856 205.757C119.31 205.757 118.816 205.939 118.452 206.277L118.4 206.303L118.374 206.251C117.958 205.367 117.152 204.769 116.398 204.561C116.008 204.431 115.618 204.431 115.28 204.457C114.942 204.483 114.63 204.587 114.37 204.717C113.85 204.977 113.564 205.341 113.408 205.601C113.304 205.731 113.278 205.835 113.226 205.913C113.252 205.835 113.304 205.731 113.382 205.601C113.538 205.315 113.824 204.925 114.344 204.665C114.604 204.535 114.916 204.431 115.28 204.405C115.618 204.353 116.008 204.379 116.424 204.483C117.204 204.717 118.036 205.289 118.452 206.225L118.374 206.199C118.764 205.861 119.284 205.653 119.856 205.679C120.402 205.679 120.974 205.939 121.364 206.381C121.572 206.615 121.728 206.875 121.806 207.161C121.91 207.447 121.988 207.759 122.144 207.993C122.326 208.253 122.612 208.357 122.924 208.383C123.21 208.409 123.548 208.383 123.86 208.513C124.094 208.617 124.276 208.773 124.406 208.981C124.51 209.189 124.588 209.423 124.64 209.657C124.744 210.099 124.796 210.541 124.978 210.931C125.082 211.139 125.212 211.295 125.368 211.425C125.55 211.555 125.732 211.633 125.94 211.685C126.33 211.815 126.772 211.867 127.136 212.101C127.292 212.205 127.448 212.361 127.552 212.543C127.656 212.699 127.734 212.907 127.76 213.089C127.838 213.479 127.786 213.869 127.708 214.233C127.552 214.935 127.292 215.559 127.292 216.183C127.292 216.469 127.318 216.755 127.318 217.041C127.344 217.327 127.318 217.587 127.24 217.821C127.162 218.055 127.006 218.263 126.824 218.393C126.668 218.497 126.46 218.549 126.304 218.601C126.148 218.653 125.992 218.705 125.888 218.783C125.81 218.861 125.732 218.965 125.706 219.043C125.654 219.225 125.706 219.303 125.706 219.303Z" fill="#455A64"/>
<path d="M132.126 214.104C132.091 214.052 132.057 213.991 132.022 213.922C131.935 213.748 131.823 213.506 131.684 213.194C131.528 212.882 131.372 212.492 131.112 212.076C130.878 211.634 130.54 211.166 129.994 210.88C129.734 210.724 129.422 210.62 129.11 210.49C128.954 210.412 128.798 210.334 128.668 210.23C128.512 210.1 128.408 209.97 128.33 209.788C128.174 209.45 128.148 209.06 128.044 208.696C127.966 208.514 127.862 208.358 127.706 208.254C127.55 208.124 127.368 208.046 127.186 207.994C126.978 207.942 126.77 207.864 126.588 207.76C126.406 207.682 126.224 207.5 126.146 207.292C125.938 206.902 125.938 206.434 125.86 206.018C125.808 205.784 125.756 205.576 125.626 205.394C125.522 205.212 125.314 205.108 125.106 205.056C124.664 204.952 124.196 205.108 123.702 205.03C123.468 205.004 123.234 204.874 123.078 204.692C122.896 204.536 122.766 204.328 122.662 204.12C122.532 203.938 122.428 203.73 122.298 203.548C122.142 203.366 121.986 203.21 121.804 203.132C121.414 202.95 120.946 203.054 120.53 203.132C120.14 203.236 119.698 203.34 119.282 203.262C118.866 203.158 118.502 202.95 118.19 202.742C117.852 202.56 117.54 202.326 117.202 202.196C116.526 201.962 115.824 201.988 115.226 202.144C114.628 202.3 114.134 202.586 113.77 202.898C113.38 203.21 113.146 203.574 112.964 203.86C112.791 204.154 112.669 204.388 112.6 204.562C112.583 204.648 112.557 204.718 112.522 204.77C112.539 204.718 112.565 204.648 112.6 204.562C112.652 204.388 112.756 204.146 112.912 203.834C113.12 203.548 113.354 203.184 113.718 202.846C114.108 202.534 114.602 202.222 115.2 202.066C115.798 201.91 116.526 201.884 117.228 202.118C117.592 202.248 117.904 202.482 118.216 202.664C118.554 202.872 118.892 203.08 119.308 203.158C119.698 203.236 120.114 203.158 120.53 203.054C120.738 203.002 120.946 202.95 121.18 202.924C121.388 202.924 121.622 202.95 121.83 203.054C122.064 203.132 122.22 203.314 122.376 203.496C122.506 203.678 122.61 203.886 122.74 204.068C122.844 204.276 122.974 204.458 123.13 204.614C123.286 204.796 123.494 204.9 123.728 204.926C124.17 205.004 124.638 204.848 125.132 204.952C125.366 205.004 125.574 205.134 125.704 205.342C125.834 205.55 125.912 205.758 125.938 205.992C126.042 206.434 126.042 206.876 126.224 207.266C126.302 207.448 126.458 207.604 126.64 207.682C126.822 207.786 127.004 207.838 127.212 207.916C127.394 207.968 127.602 208.046 127.758 208.176C127.94 208.28 128.044 208.488 128.122 208.67C128.252 209.034 128.252 209.424 128.408 209.762C128.538 210.074 128.85 210.282 129.136 210.412C129.448 210.568 129.76 210.646 130.046 210.802C130.592 211.114 130.93 211.608 131.164 212.024C131.398 212.466 131.58 212.856 131.71 213.168C131.849 213.48 131.961 213.722 132.048 213.896C132.083 213.982 132.109 214.052 132.126 214.104Z" fill="#455A64"/>
<path d="M128.618 210.672C128.618 210.672 128.635 210.672 128.67 210.672C128.722 210.672 128.774 210.672 128.852 210.724C128.982 210.776 129.164 210.984 129.19 211.296C129.19 211.452 129.164 211.634 129.112 211.79C129.06 211.972 129.008 212.154 129.034 212.362C129.034 212.57 129.138 212.778 129.268 212.986C129.398 213.194 129.554 213.376 129.684 213.636C129.814 213.844 129.892 214.182 129.762 214.468C129.658 214.754 129.45 214.988 129.346 215.274C129.242 215.56 129.32 215.898 129.45 216.184C129.58 216.496 129.762 216.782 129.892 217.12C129.944 217.302 129.996 217.484 129.996 217.666C129.996 217.848 129.944 218.03 129.866 218.212C129.71 218.55 129.45 218.836 129.242 219.174C129.008 219.46 128.826 219.824 128.878 220.214C128.93 220.604 129.138 220.942 129.294 221.332C129.372 221.54 129.424 221.748 129.424 221.956C129.398 222.164 129.346 222.372 129.268 222.554C129.06 222.918 128.774 223.204 128.54 223.49C128.28 223.776 128.072 224.088 127.968 224.426C127.838 224.764 127.786 225.128 127.604 225.466C127.526 225.622 127.422 225.778 127.266 225.882C127.136 225.986 126.954 226.064 126.798 226.116C126.642 226.168 126.486 226.22 126.356 226.272C126.2 226.341 126.07 226.428 125.966 226.532C125.732 226.74 125.576 227 125.42 227.26C125.264 227.494 125.108 227.754 124.952 227.962C124.64 228.404 124.224 228.69 123.808 228.82C123.392 228.95 123.002 228.95 122.716 228.924C122.404 228.872 122.196 228.794 122.04 228.716C121.91 228.664 121.832 228.612 121.832 228.612C121.858 228.586 122.118 228.794 122.716 228.872C123.002 228.924 123.392 228.898 123.782 228.768C124.172 228.638 124.588 228.352 124.9 227.91C125.056 227.702 125.186 227.468 125.342 227.208C125.498 226.948 125.68 226.688 125.914 226.48C126.018 226.376 126.148 226.281 126.304 226.194C126.46 226.116 126.616 226.09 126.772 226.038C126.928 225.986 127.084 225.908 127.214 225.804C127.344 225.726 127.448 225.57 127.526 225.414C127.682 225.102 127.734 224.764 127.864 224.4C127.968 224.036 128.202 223.724 128.462 223.412C128.722 223.126 128.982 222.84 129.164 222.502C129.242 222.32 129.32 222.138 129.32 221.956C129.32 221.748 129.268 221.566 129.19 221.384C129.06 220.994 128.826 220.63 128.774 220.214C128.748 220.032 128.8 219.798 128.878 219.616C128.93 219.434 129.034 219.252 129.164 219.096C129.372 218.784 129.632 218.498 129.788 218.16C129.857 218.004 129.892 217.839 129.892 217.666C129.892 217.484 129.866 217.328 129.788 217.146C129.684 216.834 129.502 216.522 129.372 216.21C129.216 215.924 129.164 215.56 129.268 215.248C129.398 214.936 129.606 214.702 129.684 214.442C129.814 214.182 129.762 213.896 129.632 213.662C129.502 213.428 129.346 213.22 129.216 213.012C129.086 212.83 128.982 212.596 128.956 212.388C128.956 212.154 129.008 211.972 129.06 211.79C129.112 211.608 129.138 211.452 129.138 211.296C129.112 211.01 128.982 210.802 128.852 210.724C128.696 210.646 128.618 210.698 128.618 210.672Z" fill="#455A64"/>
<path d="M115.904 221.461C116.008 221.227 116.268 221.123 116.476 221.201C117.169 221.461 117.863 221.721 118.556 221.981L118.79 222.059C118.686 222.423 118.53 222.969 118.348 223.281C118.14 223.593 117.802 223.879 117.438 223.931C117.152 223.957 116.788 223.853 116.554 223.697C116.138 223.437 115.722 223.151 115.644 222.657C115.566 222.293 115.774 221.799 115.904 221.461Z" fill="#6F4439"/>
<path d="M104.594 221.434C104.594 221.434 104.386 221.486 104.1 221.72C103.814 221.928 103.424 222.37 103.294 223.046C103.216 223.384 103.216 223.748 103.32 224.138C103.424 224.528 103.606 224.892 103.918 225.23C104.23 225.568 104.62 225.828 105.088 225.984C105.53 226.14 106.076 226.166 106.57 226.01C107.064 225.88 107.506 225.62 107.818 225.256C108.156 224.892 108.364 224.45 108.442 224.008C108.572 223.124 108.26 222.292 107.792 221.824C107.532 221.564 107.272 221.434 107.012 221.33C106.778 221.226 106.544 221.174 106.362 221.148C106.18 221.148 106.024 221.148 105.946 221.174C105.842 221.2 105.79 221.226 105.79 221.226C105.79 221.226 105.998 221.148 106.362 221.2C106.544 221.226 106.752 221.278 106.986 221.382C107.22 221.512 107.48 221.642 107.714 221.876C108.156 222.344 108.468 223.124 108.312 223.982C108.234 224.398 108.052 224.814 107.74 225.152C107.428 225.516 107.012 225.776 106.518 225.906C106.05 226.036 105.556 226.01 105.114 225.88C104.672 225.724 104.308 225.464 103.996 225.152C103.71 224.84 103.528 224.476 103.424 224.112C103.32 223.748 103.32 223.384 103.372 223.072C103.502 222.422 103.84 221.98 104.126 221.746C104.412 221.512 104.594 221.434 104.594 221.434Z" fill="#E0E0E0"/>
<path d="M115.613 217.141C115.639 217.505 115.353 217.869 114.963 217.895C114.547 217.947 114.209 217.661 114.183 217.271C114.157 216.907 114.443 216.569 114.833 216.517C115.249 216.491 115.587 216.751 115.613 217.141Z" fill="#263238"/>
<path d="M122.557 216.966C122.583 217.356 122.297 217.694 121.907 217.72C121.491 217.772 121.153 217.486 121.127 217.096C121.101 216.732 121.387 216.394 121.777 216.342C122.193 216.316 122.531 216.576 122.557 216.966Z" fill="#263238"/>
<path d="M122.274 214.307C122.196 214.411 121.65 214.047 120.948 214.125C120.22 214.177 119.752 214.671 119.674 214.567C119.622 214.541 119.7 214.333 119.882 214.125C120.09 213.917 120.454 213.683 120.896 213.631C121.338 213.579 121.728 213.735 121.962 213.917C122.196 214.073 122.3 214.255 122.274 214.307Z" fill="#263238"/>
<path d="M115.488 214.884C115.384 214.988 114.786 214.52 113.928 214.546C113.096 214.52 112.472 215.014 112.368 214.884C112.316 214.832 112.42 214.65 112.68 214.442C112.966 214.208 113.408 214 113.954 214C114.474 214 114.916 214.208 115.176 214.416C115.462 214.65 115.54 214.832 115.488 214.884Z" fill="#263238"/>
<path d="M117.906 223.671C117.906 223.671 117.854 223.749 117.672 223.827C117.516 223.905 117.23 223.957 116.918 223.905C116.58 223.827 116.216 223.671 115.878 223.359C115.722 223.203 115.592 222.969 115.54 222.735C115.488 222.501 115.514 222.241 115.566 221.981C115.618 221.747 115.722 221.513 115.826 221.305C115.878 221.201 115.956 221.071 116.138 221.019C116.294 220.993 116.398 221.045 116.502 221.071C116.866 221.227 117.213 221.365 117.542 221.487C118.114 221.747 118.478 221.903 118.478 221.929C118.452 221.955 118.088 221.851 117.49 221.643C117.161 221.539 116.805 221.417 116.424 221.279C116.216 221.175 116.112 221.201 116.008 221.409C115.93 221.591 115.826 221.825 115.774 222.033C115.67 222.475 115.748 222.943 116.034 223.203C116.32 223.489 116.658 223.671 116.944 223.749C117.23 223.827 117.49 223.801 117.646 223.749C117.802 223.697 117.906 223.645 117.906 223.671Z" fill="#263238"/>
<path d="M131.815 200.428C131.789 200.454 131.529 200.168 130.905 199.908C130.593 199.778 130.177 199.674 129.709 199.7C129.215 199.7 128.669 199.83 128.175 200.142L128.097 200.168L128.071 200.116C127.733 199.544 127.135 199.076 126.407 198.868C125.653 198.686 124.769 198.738 124.067 199.258L123.963 199.31L123.911 199.232C123.287 198.374 122.247 197.698 121.051 197.516C120.167 197.36 119.231 197.516 118.477 197.906C117.697 198.27 117.073 198.842 116.657 199.492L116.631 199.544H116.579C115.565 199.57 114.655 199.83 113.901 200.194C113.147 200.558 112.549 201.026 112.107 201.416C111.223 202.274 110.937 202.924 110.885 202.898C110.885 202.898 110.902 202.864 110.937 202.794C110.989 202.716 111.041 202.586 111.119 202.456C111.301 202.17 111.587 201.78 112.029 201.338C112.471 200.896 113.069 200.428 113.823 200.064C114.577 199.674 115.539 199.388 116.579 199.336L116.501 199.388C116.917 198.712 117.567 198.088 118.373 197.698C119.179 197.308 120.141 197.126 121.103 197.282C122.325 197.49 123.417 198.192 124.067 199.102L123.937 199.076C124.691 198.53 125.679 198.478 126.459 198.686C127.239 198.92 127.863 199.414 128.201 200.012L128.097 199.986C128.643 199.674 129.215 199.544 129.709 199.57C130.203 199.57 130.619 199.674 130.931 199.83C131.243 199.96 131.477 200.116 131.607 200.246C131.745 200.368 131.815 200.428 131.815 200.428Z" fill="#263238"/>
<path d="M109.274 199.283C109.274 199.283 108.988 199.439 108.442 199.465C107.896 199.517 107.012 199.387 106.232 198.685C105.868 198.347 105.556 197.853 105.426 197.255C105.296 196.657 105.348 195.981 105.608 195.357C105.894 194.733 106.44 194.161 107.142 193.901C107.844 193.615 108.676 193.563 109.43 193.875L109.3 193.901C109.612 193.537 110.054 193.277 110.548 193.199C110.964 193.121 111.38 193.147 111.77 193.303C112.16 193.433 112.472 193.719 112.68 194.031C113.122 194.681 113.2 195.539 112.888 196.189L112.732 196.059C113.278 195.747 113.954 195.799 114.448 196.033C114.968 196.267 115.332 196.735 115.462 197.229C115.722 198.217 115.306 199.127 114.786 199.621C114.266 200.115 113.694 200.297 113.33 200.375C113.148 200.401 112.992 200.427 112.888 200.427C112.784 200.427 112.732 200.427 112.732 200.427C112.732 200.401 112.94 200.401 113.304 200.297C113.668 200.219 114.214 200.011 114.708 199.517C115.176 199.049 115.566 198.165 115.28 197.281C115.15 196.839 114.838 196.423 114.37 196.215C113.902 195.981 113.304 195.955 112.836 196.241L112.524 196.423L112.68 196.111C112.966 195.513 112.914 194.759 112.498 194.161C112.316 193.875 112.03 193.641 111.692 193.511C111.354 193.381 110.964 193.329 110.6 193.407C110.158 193.485 109.742 193.719 109.482 194.057L109.43 194.109L109.352 194.083C108.65 193.797 107.87 193.823 107.22 194.083C106.57 194.343 106.05 194.837 105.79 195.435C105.53 196.007 105.504 196.657 105.608 197.203C105.712 197.775 105.998 198.243 106.336 198.581C107.064 199.257 107.896 199.387 108.416 199.387C108.962 199.387 109.248 199.257 109.274 199.283Z" fill="#263238"/>
<path d="M93.4384 207.913C93.4384 207.913 93.4211 207.87 93.3864 207.783C93.3518 207.696 93.3084 207.566 93.2564 207.393C93.1784 207.055 93.1004 206.535 93.2044 205.885C93.3344 205.235 93.6724 204.455 94.3744 203.857C95.0764 203.285 96.0904 202.869 97.1824 202.999L97.0784 203.077C97.4944 202.193 98.3004 201.387 99.3144 200.945C100.068 200.633 100.9 200.555 101.654 200.685C102.408 200.815 103.084 201.127 103.63 201.543H103.5C104.306 201.101 105.138 200.945 105.866 200.971C106.62 200.971 107.244 201.153 107.738 201.335C108.232 201.543 108.57 201.777 108.804 201.959C109.012 202.141 109.116 202.245 109.116 202.245C109.09 202.297 108.648 201.829 107.686 201.465C107.192 201.283 106.594 201.127 105.866 201.127C105.164 201.127 104.358 201.309 103.604 201.699L103.552 201.751L103.5 201.699C102.98 201.309 102.33 201.023 101.602 200.893C100.9 200.789 100.12 200.867 99.3924 201.153C98.4304 201.569 97.6764 202.323 97.2604 203.155L97.2344 203.233H97.1564C96.1424 203.103 95.1544 203.467 94.5044 204.013C93.8284 204.559 93.4904 205.287 93.3604 205.911C93.2044 206.535 93.2564 207.055 93.3344 207.393C93.3864 207.731 93.4644 207.913 93.4384 207.913Z" fill="#263238"/>
<path d="M152.67 269.588L150.798 266.754L147.782 265.246L147.678 265.168C146.69 264.44 145.442 264.206 144.272 264.518C143.05 264.856 141.412 265.246 139.982 265.506L136.758 264.622V270.94L153.086 269.9L152.67 269.588Z" fill="#AE7461"/>
<path d="M152.561 269.407C152.561 269.381 152.301 269.147 151.859 268.783C151.417 268.419 150.793 267.925 150.117 267.379C149.892 267.205 149.675 267.032 149.467 266.859H149.441H149.415C148.765 266.729 148.167 266.625 147.751 266.547C147.335 266.495 147.101 266.469 147.101 266.495C147.075 266.521 147.335 266.573 147.725 266.677C148.141 266.781 148.713 266.911 149.389 267.041L149.337 267.015C149.545 267.188 149.762 267.361 149.987 267.535C150.689 268.081 151.313 268.549 151.781 268.887C152.249 269.225 152.535 269.433 152.561 269.407Z" fill="#6F4439"/>
<path d="M151.291 269.953C151.317 269.901 150.251 269.277 148.951 268.549C148.743 268.445 148.552 268.341 148.379 268.237L148.353 268.211H148.327C147.131 268.159 146.247 268.133 146.247 268.185C146.221 268.237 147.105 268.315 148.301 268.419L148.275 268.393C148.448 268.497 148.639 268.609 148.847 268.731C150.173 269.459 151.265 270.005 151.291 269.953Z" fill="#6F4439"/>
<path d="M171.677 251.726C171.131 251.414 170.429 251.544 170.065 252.064L156.909 269.874L136.109 270.134C135.277 270.186 134.289 271.876 135.017 272.682L158.521 272.37L172.067 253.52C172.509 252.922 172.327 252.09 171.677 251.726Z" fill="#E0E0E0"/>
<path d="M108.65 231.083C107.532 231.213 105.972 231.941 105.166 232.721C103.84 234.021 102.878 235.763 102.358 237.323C101.682 239.403 101.968 247.619 101.968 249.985C101.968 252.377 102.592 261.321 102.878 262.803C103.19 264.285 102.696 266.521 101.994 267.951C100.772 270.525 102.696 271.851 102.696 271.851L128.228 271.669L128.124 270.707C127.942 269.043 128.566 267.353 127.916 265.819C127.266 264.207 126.512 261.659 126.746 258.669C127.084 254.405 128.358 251.519 127.578 249.049C126.382 245.279 122.456 236.725 117.698 233.059C117.698 233.059 113.954 232.253 113.096 231.967C111.172 231.291 110.158 230.927 108.65 231.083Z" fill="#03989E"/>
<path d="M138.681 263.867L116.867 259.317L116.295 240.389C116.295 240.389 115.541 232.693 111.667 231.965L102.359 243.561C102.879 249.385 102.411 260.435 105.089 264.699C107.767 268.963 110.393 272.369 116.997 272.083C123.601 271.771 138.161 271.641 138.161 271.641L138.681 263.867Z" fill="#03989E"/>
<path d="M116.891 259.395C116.943 259.447 116.423 260.123 115.981 261.085C115.539 262.021 115.357 262.853 115.305 262.853C115.227 262.853 115.331 261.969 115.799 260.981C116.241 259.993 116.865 259.369 116.891 259.395Z" fill="#263238"/>
<g opacity="0.3">
<path d="M116.137 239.586C118.321 246.294 117.853 256.59 122.013 260.412L116.865 259.32C116.865 259.32 117.021 257.344 116.891 255.706C116.475 250.402 116.423 245.02 116.137 239.586Z" fill="black"/>
</g>
<path d="M115.671 237.191C115.671 237.191 115.853 237.711 116.035 238.725C116.139 239.219 116.243 239.843 116.321 240.597C116.373 241.325 116.399 242.183 116.425 243.145C116.555 247.019 116.737 252.557 116.945 259.317L116.867 259.239C123.133 260.539 130.595 262.099 138.681 263.763L138.785 263.789V263.893C138.629 266.363 138.447 268.989 138.265 271.641V271.745H138.161C137.329 271.745 136.419 271.771 135.509 271.771C131.713 271.823 128.021 271.875 124.459 271.953C122.674 271.988 120.923 272.031 119.207 272.083C117.491 272.135 115.775 272.291 114.137 272.031C113.331 271.927 112.525 271.693 111.771 271.433C111.017 271.121 110.315 270.757 109.665 270.289C108.391 269.379 107.403 268.183 106.519 267.013C106.103 266.424 105.705 265.826 105.323 265.219L105.037 264.777C104.959 264.621 104.881 264.465 104.803 264.309C104.717 264.171 104.63 264.023 104.543 263.867C104.491 263.694 104.431 263.529 104.361 263.373C103.867 262.099 103.581 260.825 103.399 259.603C102.983 257.133 102.853 254.897 102.749 252.921C102.645 250.945 102.593 249.255 102.567 247.851C102.515 246.473 102.463 245.407 102.437 244.653C102.403 244.307 102.385 244.038 102.385 243.847C102.368 243.657 102.359 243.561 102.359 243.561C102.359 243.561 102.368 243.648 102.385 243.821C102.403 244.029 102.429 244.307 102.463 244.653C102.515 245.381 102.593 246.473 102.645 247.851C102.697 249.255 102.749 250.945 102.879 252.921C102.983 254.871 103.113 257.133 103.529 259.577C103.737 260.799 104.023 262.073 104.517 263.321C104.587 263.477 104.647 263.633 104.699 263.789C104.786 263.945 104.864 264.093 104.933 264.231C105.037 264.387 105.115 264.543 105.193 264.699L105.479 265.141C105.861 265.731 106.259 266.32 106.675 266.909C107.533 268.079 108.521 269.223 109.795 270.133C110.419 270.575 111.121 270.939 111.849 271.251C112.577 271.511 113.357 271.745 114.163 271.849C115.775 272.083 117.465 271.927 119.181 271.875C120.897 271.823 122.657 271.78 124.459 271.745C128.021 271.667 131.713 271.589 135.509 271.537C136.419 271.537 137.329 271.537 138.161 271.511L138.057 271.615C138.239 268.963 138.395 266.363 138.551 263.867L138.655 263.997C130.543 262.281 123.081 260.721 116.841 259.421L116.763 259.395V259.317C116.581 252.583 116.425 247.019 116.321 243.171C116.295 242.209 116.295 241.325 116.243 240.597C116.165 239.843 116.087 239.219 116.009 238.725C115.905 238.231 115.827 237.841 115.749 237.581C115.732 237.46 115.715 237.365 115.697 237.295C115.68 237.226 115.671 237.191 115.671 237.191Z" fill="#263238"/>
<path d="M150.665 310.355L147.441 334.197L155.891 335.601L161.923 314.437L150.665 310.355Z" fill="#AE7461"/>
<path d="M124.977 273.696C124.977 273.696 155.943 271.668 162.365 272.682C166.265 273.306 169.593 279.364 167.487 283.03C166.473 284.746 164.913 290.128 164.913 290.128L148.273 286.332L124.977 273.696Z" fill="#455A64"/>
<path d="M148.272 290.129L141.564 300.347L149.442 305.469L158.022 292.339L148.272 290.129Z" fill="#AE7461"/>
<path d="M103.293 271.824C103.293 271.824 100.043 286.254 105.321 291.922C109.065 295.952 118.295 295.536 126.095 295.536C133.973 295.536 152.199 295.094 152.199 295.094C152.199 295.094 151.367 300.164 150.769 305.936C150.171 311.734 150.041 315.348 150.041 315.348L161.663 316.336C161.663 316.336 168.111 296.628 169.125 292.728C170.113 288.854 169.775 283.602 166.343 281.652C163.431 280.014 140.421 273.644 129.423 272.682L128.227 271.668L103.293 271.824Z" fill="#455A64"/>
<path d="M157.892 290.363C157.892 290.389 157.424 290.467 156.748 290.701C156.41 290.831 155.994 291.013 155.578 291.247C155.162 291.481 154.746 291.793 154.33 292.157C153.914 292.547 153.55 292.937 153.264 293.327C153.004 293.717 152.77 294.107 152.614 294.419C152.302 295.095 152.198 295.537 152.146 295.537C152.146 295.511 152.146 295.407 152.198 295.199C152.25 294.991 152.328 294.705 152.484 294.367C152.614 294.029 152.822 293.613 153.108 293.223C153.394 292.807 153.758 292.391 154.174 292.001C154.59 291.611 155.058 291.299 155.474 291.065C155.916 290.831 156.332 290.649 156.696 290.571C157.06 290.441 157.346 290.389 157.554 290.363C157.762 290.337 157.892 290.337 157.892 290.363Z" fill="#263238"/>
<path d="M156.515 278.457C156.463 278.431 156.697 277.885 157.113 277.261C157.529 276.637 157.971 276.221 158.023 276.247C158.049 276.299 157.711 276.793 157.295 277.391C156.879 277.989 156.567 278.509 156.515 278.457Z" fill="#263238"/>
<path d="M169.594 287.27C169.594 287.27 169.585 287.226 169.568 287.14C169.55 287.053 169.524 286.949 169.49 286.828C169.412 286.516 169.308 286.1 169.152 285.554C168.97 285.034 168.71 284.384 168.32 283.682C167.904 283.006 167.332 282.252 166.448 281.81C164.602 280.978 162.314 280.172 159.766 279.418C157.192 278.664 154.358 277.832 151.368 277.052C145.388 275.466 139.902 274.322 135.898 273.672C133.896 273.334 132.284 273.1 131.166 272.944C130.611 272.874 130.178 272.814 129.866 272.762C129.727 272.744 129.614 272.727 129.528 272.71C129.458 272.692 129.424 272.684 129.424 272.684C129.424 272.684 129.458 272.684 129.528 272.684C129.614 272.701 129.727 272.71 129.866 272.71C130.178 272.744 130.611 272.796 131.166 272.866C132.284 272.996 133.922 273.204 135.924 273.516C139.928 274.14 145.44 275.258 151.42 276.844C154.41 277.624 157.244 278.456 159.818 279.236C162.392 279.99 164.68 280.796 166.526 281.654C167.436 282.148 168.034 282.928 168.424 283.63C168.814 284.332 169.074 284.982 169.23 285.528C169.386 286.074 169.49 286.516 169.542 286.802C169.559 286.94 169.576 287.053 169.594 287.14C169.611 287.226 169.611 287.27 169.594 287.27Z" fill="#263238"/>
<path d="M156.563 334.976L156.823 333.936C153.235 333.572 150.037 332.22 147.489 329.906L144.629 336.12L163.765 344.622C164.467 342.802 156.563 334.976 156.563 334.976Z" fill="#263238"/>
<path d="M144.625 336.124L145.327 334.59L163.449 343.352C163.449 343.352 164.125 344.08 163.761 344.626L144.625 336.124Z" fill="#E0E0E0"/>
<path d="M156.306 334.841C156.254 334.945 155.76 334.763 155.162 334.867C154.564 334.919 154.148 335.231 154.07 335.153C153.992 335.075 154.408 334.607 155.11 334.503C155.838 334.399 156.358 334.763 156.306 334.841Z" fill="#E0E0E0"/>
<path d="M148.844 334.197C148.714 334.457 148.402 334.561 148.116 334.431C147.83 334.301 147.726 333.989 147.856 333.729C147.986 333.443 148.324 333.339 148.584 333.469C148.87 333.599 148.974 333.911 148.844 334.197Z" fill="#E0E0E0"/>
<path d="M156.173 334.715C156.173 334.741 156.017 334.715 155.757 334.637C155.471 334.559 155.055 334.455 154.665 334.065C154.578 333.978 154.5 333.874 154.431 333.753C154.353 333.623 154.275 333.467 154.275 333.311C154.249 333.129 154.379 332.895 154.561 332.817C154.743 332.739 154.977 332.765 155.133 332.843C155.809 333.181 156.303 333.883 156.329 334.715L156.043 334.689C156.095 334.533 156.155 334.385 156.225 334.247C156.667 333.467 157.551 333.051 158.305 333.077C158.409 333.077 158.513 333.077 158.643 333.129C158.747 333.207 158.825 333.311 158.851 333.415C158.877 333.649 158.799 333.831 158.721 333.987C158.513 334.273 158.227 334.455 157.967 334.559C157.447 334.793 156.953 334.767 156.667 334.767C156.355 334.741 156.173 334.741 156.173 334.715C156.173 334.689 156.355 334.689 156.667 334.663C156.953 334.611 157.421 334.611 157.889 334.377C158.123 334.273 158.357 334.091 158.513 333.857C158.591 333.727 158.617 333.597 158.591 333.467C158.565 333.363 158.487 333.337 158.305 333.337C157.629 333.337 156.875 333.701 156.485 334.377C156.415 334.515 156.363 334.645 156.329 334.767C156.303 334.845 156.225 334.871 156.147 334.845C156.069 334.845 156.043 334.793 156.043 334.715C156.043 334.013 155.575 333.363 155.029 333.077C154.769 332.947 154.483 333.077 154.509 333.285C154.509 333.519 154.665 333.779 154.821 333.935C155.133 334.299 155.523 334.429 155.783 334.533C156.043 334.637 156.199 334.715 156.173 334.715Z" fill="#E0E0E0"/>
<path d="M157.762 336.174C157.762 336.252 157.19 336.096 156.514 336.278C155.812 336.434 155.396 336.824 155.344 336.772C155.292 336.746 155.708 336.226 156.462 336.044C157.19 335.862 157.788 336.122 157.762 336.174Z" fill="#E0E0E0"/>
<path d="M158.828 337.393C158.828 337.445 158.308 337.445 157.71 337.627C157.112 337.783 156.696 338.095 156.644 338.043C156.618 337.991 157.008 337.601 157.658 337.419C158.308 337.211 158.854 337.341 158.828 337.393Z" fill="#E0E0E0"/>
<path d="M150.952 304.319L151.42 303.331C147.936 302.369 144.998 300.497 142.866 297.793L138.992 303.435L156.438 315.031C157.452 313.341 150.952 304.319 150.952 304.319Z" fill="#263238"/>
<path d="M138.992 303.433L139.954 302.055L156.334 313.729C156.334 313.729 156.88 314.561 156.438 315.029L138.992 303.433Z" fill="#E0E0E0"/>
<path d="M150.715 304.134C150.663 304.212 150.221 303.978 149.597 303.978C148.999 303.926 148.531 304.16 148.479 304.056C148.427 304.004 148.895 303.588 149.623 303.614C150.351 303.64 150.793 304.082 150.715 304.134Z" fill="white"/>
<path d="M143.492 302.241C143.31 302.475 142.972 302.527 142.738 302.371C142.478 302.189 142.426 301.851 142.582 301.617C142.764 301.383 143.102 301.305 143.362 301.487C143.622 301.669 143.674 302.007 143.492 302.241Z" fill="#E0E0E0"/>
<path d="M150.639 304.008C150.613 304.008 150.483 303.982 150.223 303.852C149.963 303.722 149.573 303.54 149.261 303.098C149.174 302.994 149.105 302.873 149.053 302.734C149.001 302.604 148.975 302.448 148.975 302.266C148.975 302.084 149.157 301.902 149.365 301.85C149.547 301.824 149.755 301.876 149.911 301.98C150.509 302.396 150.899 303.202 150.769 304.034L150.509 303.93C150.578 303.809 150.665 303.679 150.769 303.54C151.315 302.864 152.251 302.578 153.005 302.734C153.109 302.76 153.213 302.786 153.317 302.864C153.421 302.942 153.473 303.072 153.473 303.176C153.473 303.41 153.369 303.566 153.239 303.696C153.005 303.956 152.693 304.086 152.433 304.138C151.861 304.294 151.393 304.164 151.107 304.112C150.795 304.06 150.639 304.034 150.639 304.008C150.639 303.982 150.795 303.982 151.107 304.008C151.419 304.034 151.861 304.112 152.355 303.956C152.615 303.878 152.875 303.748 153.057 303.54C153.161 303.436 153.239 303.306 153.213 303.176C153.213 303.072 153.135 303.02 152.953 302.994C152.277 302.864 151.471 303.124 150.977 303.722C150.89 303.844 150.821 303.956 150.769 304.06C150.717 304.138 150.639 304.164 150.561 304.138C150.509 304.112 150.483 304.034 150.483 303.982C150.613 303.28 150.275 302.552 149.781 302.188C149.547 302.006 149.235 302.084 149.209 302.318C149.183 302.552 149.313 302.812 149.417 302.994C149.677 303.41 150.041 303.618 150.275 303.748C150.509 303.904 150.639 303.982 150.639 304.008Z" fill="white"/>
<path d="M151.938 305.699C151.912 305.777 151.392 305.517 150.69 305.569C149.988 305.621 149.494 305.959 149.442 305.881C149.416 305.855 149.884 305.413 150.664 305.361C151.444 305.309 151.99 305.673 151.938 305.699Z" fill="white"/>
<path d="M152.795 307.078C152.769 307.156 152.275 307.052 151.651 307.13C151.027 307.182 150.559 307.416 150.533 307.364C150.481 307.312 150.949 306.974 151.625 306.896C152.301 306.818 152.821 307.026 152.795 307.078Z" fill="white"/>
<defs>
<linearGradient id="paint0_linear_3155_6215" x1="510.101" y1="-1.0624" x2="321.396" y2="144.412" gradientUnits="userSpaceOnUse">
<stop stop-color="#03989E"/>
<stop offset="1" stop-color="#03989E" stop-opacity="0"/>
</linearGradient>
<linearGradient id="paint1_linear_3155_6215" x1="0.931193" y1="502.953" x2="149.115" y2="348.528" gradientUnits="userSpaceOnUse">
<stop stop-color="#03989E"/>
<stop offset="1" stop-color="#03989E" stop-opacity="0"/>
</linearGradient>
</defs>
</svg>
