<svg width="570" height="328" viewBox="0 0 570 328" fill="none" xmlns="http://www.w3.org/2000/svg">
<g clip-path="url(#clip0_923_3056)">
<path d="M123.827 290.866C140.186 290.866 153.448 277.604 153.448 261.245C153.448 244.885 140.186 231.623 123.827 231.623C107.467 231.623 94.2051 244.885 94.2051 261.245C94.2051 277.604 107.467 290.866 123.827 290.866Z" fill="#F2F2F2"/>
<path d="M128.643 286.532C145.003 286.532 158.265 273.27 158.265 256.911C158.265 240.551 145.003 227.289 128.643 227.289C112.284 227.289 99.0215 240.551 99.0215 256.911C99.0215 273.27 112.284 286.532 128.643 286.532Z" fill="#03989E"/>
<path d="M519 224.135H152.5V225.135H519V224.135Z" fill="#3F3D56"/>
<path d="M342.311 9.68897H212.226V7.00781H153.241V9.68897H22.6196C21.464 9.68897 20.3198 9.91657 19.2522 10.3588C18.1847 10.801 17.2146 11.4491 16.3976 12.2662C15.5805 13.0833 14.9323 14.0533 14.4901 15.1209C14.0479 16.1885 13.8203 17.3327 13.8203 18.4882V196.614C13.8203 198.948 14.7474 201.186 16.3976 202.836C18.0477 204.486 20.2859 205.414 22.6196 205.414H342.311C344.645 205.414 346.883 204.486 348.533 202.836C350.183 201.186 351.11 198.948 351.11 196.614V18.4882C351.11 17.3327 350.883 16.1885 350.441 15.1209C349.998 14.0533 349.35 13.0833 348.533 12.2662C347.716 11.4491 346.746 10.801 345.679 10.3588C344.611 9.91657 343.467 9.68897 342.311 9.68897Z" fill="#3F3D56"/>
<path d="M339.313 25.2402H25.6172V202.197H339.313V25.2402Z" fill="#03989E"/>
<path d="M182.196 20.4133C183.973 20.4133 185.413 18.9728 185.413 17.1959C185.413 15.419 183.973 13.9785 182.196 13.9785C180.419 13.9785 178.979 15.419 178.979 17.1959C178.979 18.9728 180.419 20.4133 182.196 20.4133Z" fill="#03989E"/>
<path opacity="0.1" d="M249.601 202.197H25.6172V25.2402L249.601 202.197Z" fill="black"/>
<path d="M74.7003 188.955C91.3536 188.955 104.854 175.455 104.854 158.802C104.854 142.149 91.3536 128.648 74.7003 128.648C58.047 128.648 44.5469 142.149 44.5469 158.802C44.5469 175.455 58.047 188.955 74.7003 188.955Z" fill="#F2F2F2"/>
<path d="M284.693 120.674H255.391V126.797H284.693V120.674Z" fill="white"/>
<path d="M320.119 73.0039H219.965V75.628H320.119V73.0039Z" fill="white"/>
<path d="M320.119 81.3125H219.965V83.9366H320.119V81.3125Z" fill="white"/>
<path d="M320.119 89.623H219.965V92.2472H320.119V89.623Z" fill="white"/>
<path d="M320.119 97.9316H219.965V100.556H320.119V97.9316Z" fill="white"/>
<path d="M320.119 106.242H219.965V108.866H320.119V106.242Z" fill="white"/>
<path d="M320.119 28.8301H307.873V41.0759H320.119V28.8301Z" fill="#F2F2F2"/>
<path d="M325.804 46.7626H310.934V31.8926H325.804V46.7626ZM311.58 46.1161H325.157V32.5391H311.58V46.1161Z" fill="#3F3D56"/>
<path d="M359.918 198.979H329.303V196.773C329.303 196.716 329.292 196.659 329.27 196.606C329.248 196.553 329.216 196.505 329.175 196.464C329.135 196.423 329.086 196.391 329.033 196.369C328.98 196.347 328.923 196.336 328.866 196.336H318.369C318.312 196.336 318.255 196.347 318.202 196.369C318.149 196.391 318.101 196.423 318.06 196.464C318.02 196.505 317.987 196.553 317.965 196.606C317.943 196.659 317.932 196.716 317.932 196.773V198.979H311.372V196.773C311.372 196.716 311.36 196.659 311.339 196.606C311.316 196.553 311.284 196.505 311.244 196.464C311.203 196.423 311.155 196.391 311.102 196.369C311.049 196.347 310.992 196.336 310.934 196.336H300.438C300.381 196.336 300.324 196.347 300.271 196.369C300.217 196.391 300.169 196.423 300.129 196.464C300.088 196.505 300.056 196.553 300.034 196.606C300.012 196.659 300.001 196.716 300.001 196.773V198.979H293.44V196.773C293.44 196.716 293.429 196.659 293.407 196.606C293.385 196.553 293.353 196.505 293.312 196.464C293.272 196.423 293.223 196.391 293.17 196.369C293.117 196.347 293.06 196.336 293.003 196.336H282.507C282.449 196.336 282.392 196.347 282.339 196.369C282.286 196.391 282.238 196.423 282.197 196.464C282.157 196.505 282.124 196.553 282.102 196.606C282.081 196.659 282.069 196.716 282.069 196.773V198.979H275.509V196.773C275.509 196.716 275.498 196.659 275.476 196.606C275.454 196.553 275.421 196.505 275.381 196.464C275.34 196.423 275.292 196.391 275.239 196.369C275.186 196.347 275.129 196.336 275.072 196.336H264.575C264.518 196.336 264.461 196.347 264.408 196.369C264.355 196.391 264.306 196.423 264.266 196.464C264.225 196.505 264.193 196.553 264.171 196.606C264.149 196.659 264.138 196.716 264.138 196.773V198.979H257.577V196.773C257.577 196.716 257.566 196.659 257.544 196.606C257.522 196.553 257.49 196.505 257.449 196.464C257.409 196.423 257.361 196.391 257.307 196.369C257.254 196.347 257.197 196.336 257.14 196.336H246.644C246.586 196.336 246.529 196.347 246.476 196.369C246.423 196.391 246.375 196.423 246.334 196.464C246.294 196.505 246.262 196.553 246.24 196.606C246.218 196.659 246.206 196.716 246.206 196.773V198.979H239.646V196.773C239.646 196.716 239.635 196.659 239.613 196.606C239.591 196.553 239.558 196.505 239.518 196.464C239.477 196.423 239.429 196.391 239.376 196.369C239.323 196.347 239.266 196.336 239.209 196.336H228.712C228.655 196.336 228.598 196.347 228.545 196.369C228.492 196.391 228.443 196.423 228.403 196.464C228.362 196.505 228.33 196.553 228.308 196.606C228.286 196.659 228.275 196.716 228.275 196.773V198.979H221.714V196.773C221.714 196.716 221.703 196.659 221.681 196.606C221.659 196.553 221.627 196.505 221.586 196.464C221.546 196.423 221.498 196.391 221.444 196.369C221.391 196.347 221.335 196.336 221.277 196.336H139.055C138.997 196.336 138.941 196.347 138.887 196.369C138.834 196.391 138.786 196.423 138.746 196.464C138.705 196.505 138.673 196.553 138.651 196.606C138.629 196.659 138.617 196.716 138.617 196.773V198.979H132.057V196.773C132.057 196.716 132.046 196.659 132.024 196.606C132.002 196.553 131.97 196.505 131.929 196.464C131.889 196.423 131.84 196.391 131.787 196.369C131.734 196.347 131.677 196.336 131.62 196.336H121.123C121.066 196.336 121.009 196.347 120.956 196.369C120.903 196.391 120.855 196.423 120.814 196.464C120.774 196.505 120.741 196.553 120.719 196.606C120.697 196.659 120.686 196.716 120.686 196.773V198.979H114.126V196.773C114.126 196.716 114.114 196.659 114.092 196.606C114.07 196.553 114.038 196.505 113.998 196.464C113.957 196.423 113.909 196.391 113.856 196.369C113.803 196.347 113.746 196.336 113.688 196.336H103.192C103.134 196.336 103.078 196.347 103.025 196.369C102.971 196.391 102.923 196.423 102.883 196.464C102.842 196.505 102.81 196.553 102.788 196.606C102.766 196.659 102.755 196.716 102.755 196.773V198.979H96.1943V196.773C96.1943 196.716 96.183 196.659 96.161 196.606C96.139 196.553 96.1068 196.505 96.0662 196.464C96.0256 196.423 95.9774 196.391 95.9243 196.369C95.8712 196.347 95.8144 196.336 95.7569 196.336H85.2605C85.203 196.336 85.1462 196.347 85.0931 196.369C85.04 196.391 84.9918 196.423 84.9512 196.464C84.9106 196.505 84.8784 196.553 84.8564 196.606C84.8344 196.659 84.8231 196.716 84.8231 196.773V198.979H78.2628V196.773C78.2628 196.716 78.2515 196.659 78.2296 196.606C78.2076 196.553 78.1754 196.505 78.1348 196.464C78.0941 196.423 78.0459 196.391 77.9929 196.369C77.9398 196.347 77.8829 196.336 77.8255 196.336H67.329C67.2716 196.336 67.2147 196.347 67.1616 196.369C67.1086 196.391 67.0604 196.423 67.0197 196.464C66.9791 196.505 66.9469 196.553 66.9249 196.606C66.903 196.659 66.8917 196.716 66.8917 196.773V198.979H60.3314V196.773C60.3314 196.716 60.3201 196.659 60.2981 196.606C60.2761 196.553 60.2439 196.505 60.2033 196.464C60.1627 196.423 60.1144 196.391 60.0614 196.369C60.0083 196.347 59.9515 196.336 59.894 196.336H49.3976C49.3401 196.336 49.2832 196.347 49.2302 196.369C49.1771 196.391 49.1289 196.423 49.0883 196.464C49.0477 196.505 49.0155 196.553 48.9935 196.606C48.9715 196.659 48.9602 196.716 48.9602 196.773V198.979H42.3999V196.773C42.3999 196.716 42.3886 196.659 42.3666 196.606C42.3447 196.553 42.3124 196.505 42.2718 196.464C42.2312 196.423 42.183 196.391 42.1299 196.369C42.0769 196.347 42.02 196.336 41.9626 196.336H31.4661C31.4087 196.336 31.3518 196.347 31.2987 196.369C31.2457 196.391 31.1975 196.423 31.1568 196.464C31.1162 196.505 31.084 196.553 31.062 196.606C31.0401 196.659 31.0287 196.716 31.0287 196.773V198.979H10.9105C8.12669 198.979 5.45688 200.085 3.48841 202.053C1.51994 204.022 0.414065 206.692 0.414062 209.475V214.222C0.41407 217.006 1.51995 219.675 3.48842 221.644C5.45688 223.612 8.1267 224.718 10.9105 224.718H359.918C362.702 224.718 365.372 223.612 367.34 221.644C369.309 219.675 370.414 217.006 370.414 214.222V209.475C370.414 206.692 369.309 204.022 367.34 202.053C365.372 200.085 362.702 198.979 359.918 198.979Z" fill="#3F3D56"/>
<path d="M82.0001 177.635C74.4844 177.635 67.1374 175.406 60.8884 171.231C54.6393 167.055 49.7687 161.12 46.8926 154.177C44.0165 147.233 43.2639 139.593 44.7302 132.221C46.1964 124.85 49.8156 118.079 55.13 112.765C60.4444 107.45 67.2153 103.831 74.5866 102.365C81.9579 100.899 89.5984 101.651 96.542 104.527C103.486 107.403 109.42 112.274 113.596 118.523C117.771 124.772 120 132.119 120 139.635C119.989 149.709 115.981 159.368 108.858 166.492C101.734 173.616 92.0748 177.623 82.0001 177.635ZM82.0001 102.635C74.6821 102.635 67.5286 104.805 61.4439 108.87C55.3593 112.936 50.6169 118.715 47.8165 125.475C45.016 132.236 44.2833 139.676 45.711 146.853C47.1386 154.03 50.6625 160.623 55.8371 165.798C61.0116 170.972 67.6044 174.496 74.7817 175.924C81.959 177.351 89.3985 176.619 96.1594 173.818C102.92 171.018 108.699 166.275 112.764 160.191C116.83 154.106 119 146.953 119 139.635C118.989 129.825 115.087 120.421 108.151 113.484C101.214 106.548 91.8097 102.646 82.0001 102.635Z" fill="white"/>
<path d="M421 16.6348H293.5V17.6348H421V16.6348Z" fill="#3F3D56"/>
<path d="M570 280.635H203.5V281.635H570V280.635Z" fill="#3F3D56"/>
<path d="M224.25 326.635H96.75V327.635H224.25V326.635Z" fill="#3F3D56"/>
<path d="M249.914 275.363H235.914V289.363H249.914V275.363Z" fill="#03989E"/>
<path d="M258.414 281.363H241.414V264.363H258.414V281.363ZM242.153 280.624H257.675V265.102H242.153V280.624Z" fill="#3F3D56"/>
<path d="M412.414 11.3633H398.414V25.3633H412.414V11.3633Z" fill="#03989E"/>
<path d="M420.914 17.3633H403.914V0.363281H420.914V17.3633ZM404.653 16.6241H420.175V1.10241H404.653V16.6241Z" fill="#3F3D56"/>
<path d="M553.414 275.363H539.414V289.363H553.414V275.363Z" fill="#03989E"/>
<path d="M561.914 281.363H544.914V264.363H561.914V281.363ZM545.653 280.624H561.175V265.102H545.653V280.624Z" fill="#3F3D56"/>
<path d="M529 116.342H527.811V83.7612C527.811 81.2848 527.323 78.8328 526.376 76.5449C525.428 74.2571 524.039 72.1784 522.288 70.4273C520.537 68.6763 518.458 67.2873 516.17 66.3397C513.882 65.392 511.43 64.9043 508.954 64.9043H439.927C437.451 64.9043 434.999 65.392 432.711 66.3397C430.423 67.2873 428.344 68.6763 426.593 70.4273C424.842 72.1784 423.453 74.2571 422.506 76.5449C421.558 78.8328 421.07 81.2848 421.07 83.7612V262.502C421.07 264.978 421.558 267.43 422.506 269.718C423.453 272.006 424.842 274.085 426.593 275.836C428.344 277.587 430.423 278.976 432.711 279.923C434.999 280.871 437.451 281.359 439.927 281.359H508.954C511.43 281.359 513.882 280.871 516.17 279.923C518.458 278.976 520.537 277.587 522.288 275.836C524.039 274.085 525.428 272.006 526.376 269.718C527.323 267.43 527.811 264.978 527.811 262.502V139.534H529V116.342Z" fill="#3F3D56"/>
<path d="M523.795 84.871V263.351C523.796 267.086 522.313 270.668 519.673 273.309C517.032 275.951 513.45 277.435 509.715 277.436H440.355C436.621 277.435 433.039 275.951 430.398 273.309C427.758 270.668 426.275 267.086 426.275 263.351V84.871C426.276 81.1369 427.759 77.5558 430.4 74.9154C433.04 72.275 436.621 70.7914 440.355 70.791H448.77C448.356 71.8068 448.198 72.9089 448.31 74.0001C448.423 75.0914 448.801 76.1383 449.413 77.0487C450.025 77.959 450.852 78.7049 451.82 79.2207C452.788 79.7364 453.868 80.0061 454.965 80.006H494.51C495.607 80.0061 496.688 79.7364 497.656 79.2207C498.624 78.705 499.451 77.9591 500.063 77.0487C500.675 76.1383 501.053 75.0914 501.165 74.0001C501.278 72.9089 501.12 71.8068 500.705 70.791H509.715C513.45 70.7914 517.031 72.275 519.671 74.9154C522.312 77.5558 523.795 81.1369 523.795 84.871Z" fill="#03989E"/>
<path d="M485.365 188.473H464.703V194.596H485.365V188.473Z" fill="white"/>
<path d="M510.345 140.801H439.725V143.425H510.345V140.801Z" fill="white"/>
<path d="M510.345 149.109H439.725V151.733H510.345V149.109Z" fill="white"/>
<path d="M510.345 157.42H439.725V160.044H510.345V157.42Z" fill="white"/>
<path d="M510.345 165.73H439.725V168.355H510.345V165.73Z" fill="white"/>
<path d="M510.345 174.039H439.725V176.663H510.345V174.039Z" fill="white"/>
<path d="M477.502 105.953H465.256V118.199H477.502V105.953Z" fill="#F2F2F2"/>
<path d="M469.943 109.016V123.886H484.813V109.016H469.943ZM484.168 123.241H470.588V109.661H484.168V123.241Z" fill="#3F3D56"/>
<path opacity="0.1" d="M523.795 244.291V263.351C523.796 267.086 522.313 270.668 519.673 273.31C517.032 275.951 513.45 277.435 509.715 277.436H440.355C436.621 277.435 433.039 275.951 430.398 273.31C427.758 270.668 426.275 267.086 426.275 263.351V167.246L484.71 213.411L485.71 214.201L496.58 222.786L497.595 223.591L523.795 244.291Z" fill="black"/>
<path d="M469.035 271.651C481.149 271.651 490.969 261.831 490.969 249.717C490.969 237.603 481.149 227.783 469.035 227.783C456.922 227.783 447.102 237.603 447.102 249.717C447.102 261.831 456.922 271.651 469.035 271.651Z" fill="#F2F2F2"/>
<path d="M160.5 327.635C151.897 327.635 143.486 325.084 136.333 320.304C129.179 315.524 123.604 308.73 120.311 300.781C117.019 292.833 116.157 284.087 117.836 275.648C119.514 267.21 123.657 259.459 129.741 253.376C135.824 247.292 143.575 243.149 152.014 241.471C160.452 239.792 169.198 240.654 177.147 243.946C185.095 247.238 191.889 252.814 196.669 259.967C201.449 267.121 204 275.531 204 284.135C203.987 295.668 199.4 306.725 191.245 314.88C183.09 323.035 172.033 327.622 160.5 327.635ZM160.5 241.635C152.094 241.635 143.877 244.127 136.888 248.797C129.899 253.467 124.452 260.105 121.235 267.871C118.018 275.637 117.177 284.182 118.817 292.426C120.457 300.67 124.504 308.243 130.448 314.187C136.392 320.131 143.965 324.178 152.209 325.818C160.453 327.458 168.998 326.616 176.764 323.4C184.53 320.183 191.168 314.736 195.838 307.747C200.508 300.757 203 292.54 203 284.135C202.987 272.867 198.506 262.064 190.538 254.097C182.571 246.129 171.768 241.648 160.5 241.635Z" fill="white"/>
<path d="M475.5 266.635C470.061 266.635 464.744 265.022 460.222 262C455.699 258.978 452.175 254.684 450.093 249.659C448.012 244.634 447.467 239.104 448.528 233.77C449.59 228.435 452.209 223.535 456.055 219.689C459.901 215.843 464.801 213.224 470.135 212.163C475.47 211.102 480.999 211.647 486.024 213.728C491.049 215.81 495.344 219.334 498.365 223.857C501.387 228.379 503 233.696 503 239.135C502.992 246.426 500.092 253.416 494.936 258.571C489.781 263.727 482.791 266.627 475.5 266.635ZM475.5 212.635C470.259 212.635 465.135 214.189 460.777 217.101C456.419 220.013 453.023 224.151 451.017 228.994C449.011 233.836 448.487 239.164 449.509 244.305C450.532 249.445 453.056 254.167 456.762 257.873C460.468 261.579 465.19 264.103 470.33 265.126C475.471 266.148 480.799 265.623 485.641 263.618C490.483 261.612 494.622 258.215 497.534 253.857C500.446 249.499 502 244.376 502 239.135C501.992 232.109 499.198 225.373 494.23 220.405C489.262 215.437 482.526 212.643 475.5 212.635Z" fill="white"/>
</g>
<defs>
<clipPath id="clip0_923_3056">
<rect width="569.586" height="327.271" fill="white" transform="translate(0.414062 0.363281)"/>
</clipPath>
</defs>
</svg>
