<svg width="60" height="60" viewBox="0 0 60 60" fill="none" xmlns="http://www.w3.org/2000/svg">
<g clip-path="url(#clip0_3145_5403)">
<path d="M19.1027 13.8594H40.487C40.9805 13.8594 41.474 14.4351 41.5974 15.1753L46.8612 56.2992C46.8866 56.4707 46.8729 56.6458 46.8211 56.8114C46.7693 56.9769 46.6808 57.1286 46.5622 57.2551C46.4436 57.3816 46.2979 57.4797 46.1361 57.5421C45.9742 57.6044 45.8004 57.6294 45.6275 57.6151H14.0444C13.8749 57.623 13.7058 57.5932 13.5491 57.528C13.3924 57.4629 13.252 57.3639 13.1381 57.2381C13.0241 57.1124 12.9394 56.963 12.8899 56.8007C12.8404 56.6384 12.8274 56.4671 12.8518 56.2992L18.1568 15.1753C18.2391 14.4351 18.7325 13.8594 19.1027 13.8594Z" fill="#03989E"/>
<path d="M11.207 55.0234H49.0821V59.9583H11.207V55.0234Z" fill="#076266"/>
<path d="M18.1981 25.3742H41.6386C42.324 25.3742 42.6942 25.2645 42.749 25.0452L49.1232 14.6408C49.1232 14.6408 48.054 13.8184 47.2315 13.8184H12.4819C11.6594 13.8184 11.1248 14.4352 11.2481 14.6408L16.7999 24.675C16.9546 24.9461 17.2033 25.1509 17.499 25.2508L18.1981 25.3742Z" fill="#076266"/>
<path d="M42.5834 0.000337151H46.4491C46.7908 -0.00522106 47.1302 0.057995 47.4471 0.186227C47.7639 0.314459 48.0517 0.505089 48.2934 0.746783C48.5351 0.988478 48.7257 1.2763 48.854 1.59314C48.9822 1.90999 49.0454 2.24938 49.0399 2.59114V15.2162C49.0453 15.5544 48.9834 15.8904 48.8577 16.2045C48.732 16.5186 48.5451 16.8046 48.3078 17.0457C48.0705 17.2868 47.7876 17.4783 47.4755 17.609C47.1635 17.7397 46.8285 17.807 46.4902 17.807H13.5911C13.2407 17.8237 12.8905 17.769 12.5617 17.6463C12.233 17.5236 11.9327 17.3354 11.6789 17.0932C11.4251 16.8509 11.2231 16.5596 11.0853 16.237C10.9474 15.9143 10.8766 15.567 10.877 15.2162V2.59114C10.877 1.90402 11.1499 1.24503 11.6358 0.759165C12.1217 0.273296 12.7806 0.000337151 13.4678 0.000337151H17.5801V6.95026C17.5765 7.14062 17.6156 7.32937 17.6945 7.50265C17.7734 7.67593 17.8901 7.82933 18.036 7.95161C18.182 8.07388 18.3534 8.16191 18.5378 8.20924C18.7223 8.25657 18.9149 8.26199 19.1017 8.2251H22.3916C22.7297 8.2251 23.054 8.09079 23.2931 7.85171C23.5322 7.61263 23.6665 7.28837 23.6665 6.95026V0.000337151H36.4971V6.95026C36.4971 7.28837 36.6314 7.61263 36.8705 7.85171C37.1096 8.09079 37.4338 8.2251 37.7719 8.2251H41.2675C41.6056 8.2251 41.9298 8.09079 42.1689 7.85171C42.408 7.61263 42.5423 7.28837 42.5423 6.95026L42.5834 0.000337151Z" fill="#03989E"/>
</g>
<defs>
<clipPath id="clip0_3145_5403">
<rect width="60" height="60" fill="white"/>
</clipPath>
</defs>
</svg>
