<svg width="40" height="41" viewBox="0 0 40 41" fill="none" xmlns="http://www.w3.org/2000/svg">
<g clip-path="url(#clip0_3101_7764)">
<g opacity="0.5">
<path d="M17.5725 8.99731C17.2356 7.54911 16.9502 6.32246 16.6406 5.35938L31.0137 9.52867C31.1086 9.55623 31.3556 9.66526 31.6971 10.5605C32.031 11.4353 32.3328 12.7217 32.767 14.5877L33.0268 15.7054C33.0844 15.954 33.1392 16.1912 33.1977 16.416L20.1714 12.8083L19.5136 12.4336C18.5831 11.9036 18.4121 11.7804 18.2916 11.6124C18.1575 11.4252 18.0767 11.165 17.8128 10.031L17.5725 8.99731Z" fill="black"/>
<path d="M24.9942 16.3906L35.8443 19.3957L36.5021 19.7703C38.0331 20.6424 39.0648 21.2337 39.7371 21.7725C40.3809 22.2882 40.4916 22.5961 40.5011 22.8583C40.5113 23.1341 40.4105 23.4803 39.792 24.1009C39.1552 24.7394 38.1639 25.4795 36.7077 26.5616L35.8432 27.2038C35.4346 27.5067 35.0645 27.7807 34.7534 28.0875L20.0098 23.8107L20.7867 23.2333C22.153 22.2182 23.2771 21.3832 24.0413 20.6168C24.8369 19.8189 25.4239 18.9195 25.3814 17.7648C25.3623 17.2466 25.2211 16.7942 24.9942 16.3906Z" fill="black"/>
<path d="M18.5621 25.6484L33.7555 30.0557C33.6924 30.362 33.6421 30.6912 33.5875 31.0469L33.412 32.1879C33.245 33.273 32.9984 34.2393 32.7362 35.0581C32.2747 36.5007 32.1567 36.7011 31.8098 36.9002C31.6607 36.9858 31.5205 37.0233 31.2267 36.9901C30.8671 36.9496 30.406 36.8198 29.6195 36.5917L17.0645 32.9497C17.2153 32.6321 17.3346 32.2923 17.4356 31.9463C17.7502 30.8697 17.9766 29.3996 18.2557 27.5867L18.4186 26.529C18.4765 26.1528 18.5222 25.8686 18.5621 25.6484Z" fill="black"/>
</g>
<path d="M9.96262 7.90758C11.203 6.52368 12.0523 5.58039 12.7377 5.00995C13.4317 4.43227 13.6583 4.4917 13.7286 4.51207C13.8236 4.53963 14.0705 4.64868 14.4121 5.54388C14.7459 6.41874 15.0477 7.7051 15.4819 9.57109L15.7418 10.6888C15.9437 11.5619 16.1116 12.2872 16.5302 12.8716C16.9619 13.4739 17.5885 13.8295 18.3028 14.235L18.4413 14.3137L19.2163 14.7551C20.7473 15.6271 21.779 16.2185 22.4513 16.7571C23.0948 17.273 23.2056 17.5809 23.2153 17.8431C23.2255 18.1189 23.1247 18.4651 22.5062 19.0856C21.8694 19.7242 20.8779 20.4643 19.4219 21.5463L18.5574 22.1885C17.8693 22.6984 17.291 23.1269 16.9181 23.7665C16.5532 24.3918 16.4412 25.124 16.3025 26.0305L16.127 27.171C15.8319 29.087 15.6252 30.4137 15.3558 31.336C15.2042 31.8552 15.0599 32.1449 14.9381 32.3102C14.7034 32.2229 14.3906 32.0955 14.0215 31.9187C13.1436 31.4983 11.9542 30.8015 10.7361 29.7058L10.059 29.0968L10.0293 29.0701C9.68286 28.7583 9.37486 28.4814 9.09603 28.27C8.79447 28.0414 8.46917 27.8434 8.07106 27.7279C7.36722 27.5238 6.64255 27.6596 5.86116 27.8063L5.69242 27.8379L4.82473 27.9989C3.10718 28.3174 1.95594 28.5274 1.13009 28.5428C0.337 28.5575 0.170274 28.3865 0.0810938 28.2622C-0.0435118 28.0882 -0.159733 27.7513 0.0337951 26.8023C0.226456 25.8574 0.660008 24.5975 1.2893 22.7785L1.66227 21.701C1.9629 20.8348 2.20331 20.1421 2.17649 19.4109C2.14949 18.6746 1.8558 18.011 1.49325 17.1915L1.04334 16.1723C0.283526 14.4506 -0.237711 13.2633 -0.497149 12.3554C-0.753944 11.4568 -0.67408 11.0928 -0.544924 10.8714C-0.437739 10.6876 -0.243626 10.492 0.538241 10.3954C1.36102 10.2938 2.5206 10.3395 4.25238 10.4132L5.12735 10.4505L5.29247 10.4577C6.0873 10.4931 6.81502 10.5254 7.49061 10.2269C8.14779 9.93652 8.64471 9.38031 9.21485 8.74214L9.33361 8.60936L9.96262 7.90758Z" fill="white"/>
</g>
<defs>
<clipPath id="clip0_3101_7764">
<rect width="40" height="40" fill="white" transform="translate(0 0.5)"/>
</clipPath>
</defs>
</svg>
