<svg width="40" height="41" viewBox="0 0 40 41" fill="none" xmlns="http://www.w3.org/2000/svg">
<g clip-path="url(#clip0_3101_7774)">
<path d="M12.7338 9.73828H26.9901C27.3191 9.73828 27.648 10.1221 27.7303 10.6156L31.2395 38.0315C31.2564 38.1459 31.2473 38.2626 31.2128 38.3729C31.1782 38.4833 31.1192 38.5844 31.0402 38.6688C30.9611 38.7531 30.864 38.8185 30.7561 38.8601C30.6482 38.9016 30.5323 38.9183 30.417 38.9088H9.36165C9.24863 38.914 9.13587 38.8942 9.03141 38.8507C8.92696 38.8073 8.83339 38.7413 8.75742 38.6574C8.68145 38.5736 8.62495 38.474 8.59196 38.3658C8.55897 38.2576 8.5503 38.1434 8.56659 38.0315L12.1032 10.6156C12.1581 10.1221 12.4871 9.73828 12.7338 9.73828Z" fill="white"/>
<path d="M7.4707 37.1836H32.7207V40.4735H7.4707V37.1836Z" fill="black"/>
<path d="M12.1314 17.4148H27.7584C28.2154 17.4148 28.4621 17.3417 28.4987 17.1955L32.7481 10.2593C32.7481 10.2593 32.0353 9.71094 31.487 9.71094H8.32058C7.77226 9.71094 7.41586 10.1222 7.49811 10.2593L11.1993 16.9487C11.3024 17.1294 11.4682 17.266 11.6653 17.3326L12.1314 17.4148Z" fill="black"/>
<path d="M28.3896 0.500225H30.9667C31.1945 0.496519 31.4208 0.538663 31.632 0.624151C31.8433 0.709639 32.0351 0.836726 32.1963 0.997856C32.3574 1.15899 32.4845 1.35087 32.57 1.5621C32.6555 1.77332 32.6976 1.99958 32.6939 2.22743V10.6441C32.6975 10.8696 32.6563 11.0936 32.5725 11.303C32.4887 11.5124 32.364 11.703 32.2058 11.8638C32.0476 12.0246 31.859 12.1522 31.651 12.2393C31.443 12.3265 31.2197 12.3713 30.9941 12.3713H9.0614C8.82776 12.3824 8.59429 12.346 8.37515 12.2642C8.15601 12.1824 7.95576 12.057 7.78656 11.8954C7.61736 11.7339 7.48273 11.5397 7.39084 11.3246C7.29894 11.1095 7.25169 10.878 7.25195 10.6441V2.22743C7.25195 1.76934 7.43393 1.33002 7.75784 1.00611C8.08175 0.682197 8.52107 0.500225 8.97915 0.500225H11.7207V5.13351C11.7183 5.26041 11.7444 5.38625 11.797 5.50176C11.8496 5.61728 11.9274 5.71956 12.0247 5.80107C12.122 5.88259 12.2363 5.94127 12.3592 5.97283C12.4822 6.00438 12.6106 6.00799 12.7351 5.9834H14.9284C15.1538 5.9834 15.37 5.89386 15.5294 5.73447C15.6888 5.57509 15.7783 5.35892 15.7783 5.13351V0.500225H24.3321V5.13351C24.3321 5.35892 24.4216 5.57509 24.581 5.73447C24.7404 5.89386 24.9565 5.9834 25.1819 5.9834H27.5123C27.7377 5.9834 27.9539 5.89386 28.1133 5.73447C28.2726 5.57509 28.3622 5.35892 28.3622 5.13351L28.3896 0.500225Z" fill="white"/>
</g>
<defs>
<clipPath id="clip0_3101_7774">
<rect width="40" height="40" fill="white" transform="translate(0 0.5)"/>
</clipPath>
</defs>
</svg>
