<svg width="40" height="41" viewBox="0 0 40 41" fill="none" xmlns="http://www.w3.org/2000/svg">
<path d="M33.3327 3.83203H9.99935C8.1584 3.83203 6.66602 5.32442 6.66602 7.16536V33.832C6.66602 35.673 8.1584 37.1654 9.99935 37.1654H33.3327C35.1736 37.1654 36.666 35.673 36.666 33.832V7.16536C36.666 5.32442 35.1736 3.83203 33.3327 3.83203Z" fill="white"/>
<path d="M8.33398 15.4987H5.00065C4.55862 15.4987 4.1347 15.3231 3.82214 15.0105C3.50958 14.698 3.33398 14.2741 3.33398 13.832C3.33398 13.39 3.50958 12.9661 3.82214 12.6535C4.1347 12.341 4.55862 12.1654 5.00065 12.1654H8.33398C8.77601 12.1654 9.19994 12.341 9.5125 12.6535C9.82506 12.9661 10.0007 13.39 10.0007 13.832C10.0007 14.2741 9.82506 14.698 9.5125 15.0105C9.19994 15.3231 8.77601 15.4987 8.33398 15.4987ZM10.0007 20.4987C10.0007 20.0567 9.82506 19.6327 9.5125 19.3202C9.19994 19.0076 8.77601 18.832 8.33398 18.832H5.00065C4.55862 18.832 4.1347 19.0076 3.82214 19.3202C3.50958 19.6327 3.33398 20.0567 3.33398 20.4987C3.33398 20.9407 3.50958 21.3646 3.82214 21.6772C4.1347 21.9898 4.55862 22.1654 5.00065 22.1654H8.33398C8.77601 22.1654 9.19994 21.9898 9.5125 21.6772C9.82506 21.3646 10.0007 20.9407 10.0007 20.4987ZM10.0007 27.1654C10.0007 26.7233 9.82506 26.2994 9.5125 25.9869C9.19994 25.6743 8.77601 25.4987 8.33398 25.4987H5.00065C4.55862 25.4987 4.1347 25.6743 3.82214 25.9869C3.50958 26.2994 3.33398 26.7233 3.33398 27.1654C3.33398 27.6074 3.50958 28.0313 3.82214 28.3439C4.1347 28.6564 4.55862 28.832 5.00065 28.832H8.33398C8.77601 28.832 9.19994 28.6564 9.5125 28.3439C9.82506 28.0313 10.0007 27.6074 10.0007 27.1654ZM33.334 3.83203H30.0007V37.1654H33.334C34.218 37.1654 35.0659 36.8142 35.691 36.1891C36.3161 35.5639 36.6673 34.7161 36.6673 33.832V7.16536C36.6673 6.28131 36.3161 5.43346 35.691 4.80834C35.0659 4.18322 34.218 3.83203 33.334 3.83203Z" fill="black"/>
</svg>
