<svg width="61" height="91" viewBox="0 0 61 91" fill="none" xmlns="http://www.w3.org/2000/svg">
<path d="M1.12 27.12C1.44 18.56 4.24 11.96 9.52 7.32C14.8 2.68 21.96 0.359995 31 0.359995C37 0.359995 42.12 1.4 46.36 3.48C50.68 5.56 53.92 8.39999 56.08 12C58.32 15.6 59.44 19.64 59.44 24.12C59.44 29.4 58.12 33.72 55.48 37.08C52.84 40.36 49.76 42.6 46.24 43.8V44.28C50.8 45.8 54.4 48.32 57.04 51.84C59.68 55.36 61 59.88 61 65.4C61 70.36 59.84 74.76 57.52 78.6C55.28 82.36 51.96 85.32 47.56 87.48C43.24 89.64 38.08 90.72 32.08 90.72C22.48 90.72 14.8 88.36 9.04 83.64C3.36 78.92 0.36 71.8 0.0400004 62.28H19.96C20.04 65.8 21.04 68.6 22.96 70.68C24.88 72.68 27.68 73.68 31.36 73.68C34.48 73.68 36.88 72.8 38.56 71.04C40.32 69.2 41.2 66.8 41.2 63.84C41.2 60 39.96 57.24 37.48 55.56C35.08 53.8 31.2 52.92 25.84 52.92H22V36.24H25.84C29.92 36.24 33.2 35.56 35.68 34.2C38.24 32.76 39.52 30.24 39.52 26.64C39.52 23.76 38.72 21.52 37.12 19.92C35.52 18.32 33.32 17.52 30.52 17.52C27.48 17.52 25.2 18.44 23.68 20.28C22.24 22.12 21.4 24.4 21.16 27.12H1.12Z" fill="#03989E"/>
</svg>
