<svg width="34" height="34" viewBox="0 0 34 34" fill="none" xmlns="http://www.w3.org/2000/svg">
<path d="M33.2461 17.0039C33.2461 25.9781 25.9703 33.2539 16.9961 33.2539C8.02188 33.2539 0.746094 25.9781 0.746094 17.0039C0.746094 8.02969 8.02188 0.753906 16.9961 0.753906C25.9703 0.753906 33.2461 8.02969 33.2461 17.0039ZM13.5586 11.2117V22.7961C13.5588 23.0335 13.6266 23.2659 13.754 23.4662C13.8814 23.6665 14.0633 23.8263 14.2782 23.927C14.4932 24.0278 14.7324 24.0652 14.9679 24.0349C15.2033 24.0047 15.4253 23.908 15.6078 23.7562L22.568 17.9648C22.709 17.8475 22.8224 17.7006 22.9003 17.5346C22.9782 17.3685 23.0185 17.1873 23.0185 17.0039C23.0185 16.8205 22.9782 16.6393 22.9003 16.4732C22.8224 16.3072 22.709 16.1603 22.568 16.043L15.6078 10.2516C15.4253 10.0998 15.2033 10.0031 14.9679 9.97287C14.7324 9.94262 14.4932 9.98005 14.2782 10.0808C14.0633 10.1815 13.8814 10.3413 13.754 10.5416C13.6266 10.7419 13.5588 10.9743 13.5586 11.2117Z" fill="white"/>
</svg>
