<svg width="456" height="314" viewBox="0 0 456 314" fill="none" xmlns="http://www.w3.org/2000/svg">
<path d="M449.338 0.535156H6.8583C5.17293 0.536691 3.55703 1.20691 2.36531 2.39867C1.17359 3.59043 0.503434 5.20633 0.501953 6.8917V306.728C0.503432 308.414 1.17359 310.03 2.36531 311.221C3.55703 312.413 5.17293 313.083 6.8583 313.085H449.338C450.257 313.085 451.165 312.885 452 312.5C452.834 312.115 453.575 311.554 454.171 310.854C454.222 310.799 454.268 310.741 454.31 310.679C454.689 310.215 454.997 309.697 455.221 309.141C455.541 308.377 455.704 307.557 455.702 306.728V6.89175C455.7 5.20518 455.029 3.58833 453.836 2.39642C452.642 1.20452 451.025 0.535061 449.338 0.535156ZM453.887 306.728C453.888 307.615 453.626 308.482 453.136 309.221C452.7 309.872 452.109 310.403 451.416 310.767C450.774 311.099 450.061 311.271 449.338 311.27H6.8583C5.65429 311.268 4.49999 310.789 3.64863 309.938C2.79726 309.087 2.31832 307.932 2.31686 306.728V6.89175C2.31831 5.68773 2.79726 4.53343 3.64863 3.68205C4.49999 2.83068 5.65428 2.35173 6.8583 2.35026H449.338C450.543 2.35011 451.699 2.82832 452.552 3.67983C453.405 4.53134 453.885 5.68655 453.887 6.89175V306.728Z" fill="#3F3D56"/>
<path d="M454.822 26.0039H1.43945V27.8211H454.822V26.0039Z" fill="#3F3D56"/>
<path d="M16.889 19.6413C19.8998 19.6413 22.3405 17.2006 22.3405 14.1898C22.3405 11.179 19.8998 8.73828 16.889 8.73828C13.8782 8.73828 11.4375 11.179 11.4375 14.1898C11.4375 17.2006 13.8782 19.6413 16.889 19.6413Z" fill="#3F3D56"/>
<path d="M32.516 19.6413C35.5267 19.6413 37.9674 17.2006 37.9674 14.1898C37.9674 11.179 35.5267 8.73828 32.516 8.73828C29.5052 8.73828 27.0645 11.179 27.0645 14.1898C27.0645 17.2006 29.5052 19.6413 32.516 19.6413Z" fill="#3F3D56"/>
<path d="M48.139 19.6413C51.1498 19.6413 53.5905 17.2006 53.5905 14.1898C53.5905 11.179 51.1498 8.73828 48.139 8.73828C45.1282 8.73828 42.6875 11.179 42.6875 14.1898C42.6875 17.2006 45.1282 19.6413 48.139 19.6413Z" fill="#3F3D56"/>
<path d="M202.354 180.465C196.902 176.916 194.19 168.668 195.526 161.125C196.862 153.581 201.893 147.084 207.924 144.282C210.858 142.96 214.074 142.387 217.284 142.615C220.494 142.843 223.597 143.865 226.314 145.589C231.845 148.971 239.667 150.824 242.293 157.59C244.312 162.79 241.752 173.348 239.035 178.399C236.687 182.764 232.226 184.761 228.034 185.628C223.397 186.574 218.611 186.513 213.999 185.449C209.387 184.385 205.058 182.342 201.304 179.461L202.354 180.465Z" fill="#2F2E41"/>
<path d="M199.598 220.584L195.238 228.1L194.663 229.091L193.824 230.549H180.973L181.84 229.091L184.085 225.308L189.319 216.473L195.246 218.842L199.598 220.584Z" fill="#FFB8B8"/>
<path d="M180.014 230.51L177.667 229.052L177.375 228.87L192.107 202.022C192.741 200.86 193.599 199.836 194.631 199.007C195.663 198.179 196.85 197.564 198.121 197.197C199.727 196.719 201.427 196.656 203.064 197.015C204.018 197.216 204.937 197.56 205.79 198.035C206.141 198.227 206.479 198.442 206.803 198.677C208.049 199.55 209.073 200.704 209.792 202.044C210.648 203.614 211.071 205.383 211.017 207.17C210.963 208.957 210.435 210.698 209.486 212.213L203.807 221.289L198.952 229.052L198.041 230.51H180.014Z" fill="#2F2E41"/>
<path d="M217.781 190.015C227.669 190.015 235.685 181.999 235.685 172.111C235.685 162.223 227.669 154.207 217.781 154.207C207.893 154.207 199.877 162.223 199.877 172.111C199.877 181.999 207.893 190.015 217.781 190.015Z" fill="#FFB8B8"/>
<path d="M235.805 230.504H195.559L195.742 229.987C195.639 229.673 195.545 229.36 195.457 229.046C195.362 228.718 195.282 228.383 195.209 228.055C194.555 225.003 194.558 221.848 195.217 218.797C197.44 207.877 206.311 199.006 206.311 199.006C206.465 198.889 206.618 198.78 206.771 198.671C208.09 197.704 209.522 196.901 211.035 196.28C217.625 193.546 224.536 194.647 229.179 196.061C230.796 196.55 232.377 197.152 233.91 197.861C234.449 198.117 234.741 198.277 234.741 198.277L235.2 212.28L235.754 229.046L235.805 230.504Z" fill="#03989E"/>
<path d="M254.34 229.038L251.264 213.394L248.158 197.62C248.029 196.968 247.705 196.371 247.231 195.907C246.756 195.442 246.152 195.132 245.497 195.017L238.995 193.895L232.945 192.852C232.361 192.747 231.76 192.804 231.206 193.016C230.652 193.228 230.167 193.587 229.803 194.055C229.348 194.622 229.099 195.326 229.096 196.052C229.096 196.501 229.188 196.945 229.366 197.357C232.522 204.72 232.58 216.376 231.778 229.038C231.742 229.519 231.713 230.007 231.676 230.496H254.631L254.34 229.038Z" fill="#2F2E41"/>
<path d="M211.065 196.309C210.931 195.778 210.667 195.289 210.297 194.886C209.928 194.483 209.463 194.178 208.947 193.999C208.43 193.819 207.876 193.771 207.336 193.859C206.796 193.947 206.286 194.167 205.853 194.501L203.061 197.038L191.63 207.447C191.274 207.767 190.995 208.163 190.814 208.606C189.524 211.69 187.009 217.777 184.086 225.292C183.612 226.517 183.124 227.778 182.621 229.076C182.445 229.557 182.256 230.045 182.066 230.534H200.903C201.056 230.045 201.209 229.557 201.362 229.076C202.2 226.43 203.017 223.834 203.804 221.312C206.108 213.986 208.185 207.331 209.789 202.068C210.234 200.61 210.639 199.264 211.006 198.029C211.178 197.471 211.198 196.877 211.065 196.309Z" fill="#2F2E41"/>
<path d="M258.575 230.536H259.792L259.624 230.128L259.18 229.078L252.32 212.801L251.271 213.435L242.844 218.53L247.167 229.078L247.764 230.536H254.638H258.575Z" fill="#FFB8B8"/>
<path d="M251.712 199.905C250.784 197.476 248.952 195.5 246.601 194.39C244.249 193.28 241.559 193.122 239.094 193.95C238.779 194.054 238.469 194.176 238.168 194.314C236.441 195.085 234.969 196.331 233.925 197.908C233.499 198.538 233.149 199.215 232.883 199.927C232.41 201.163 232.186 202.48 232.225 203.802C232.264 205.125 232.564 206.427 233.109 207.632L235.216 212.327L242.753 229.093L243.409 230.551H258.666L259.716 230.143L262.442 229.093L262.821 228.947L251.712 199.905Z" fill="#2F2E41"/>
<path d="M231.866 151.58C232.491 151.767 233.159 151.743 233.768 151.512C234.377 151.281 234.893 150.856 235.236 150.302C235.56 149.737 235.751 149.105 235.794 148.455C235.837 147.806 235.73 147.155 235.482 146.552C234.974 145.35 234.174 144.294 233.153 143.48C231.994 142.431 230.583 141.701 229.058 141.36C228.296 141.196 227.508 141.198 226.747 141.365C225.985 141.532 225.269 141.861 224.646 142.33C224.034 142.814 223.581 143.469 223.344 144.212C223.107 144.956 223.097 145.753 223.315 146.501C223.779 147.846 225.034 148.747 226.288 149.417C228.776 150.746 231.52 151.526 234.335 151.705L231.866 151.58Z" fill="#2F2E41"/>
<path d="M235.36 171.582C232.481 171.979 232.851 170.514 231.698 167.847C230.545 165.18 229.002 162.013 226.109 161.743C223.738 161.522 221.785 163.417 219.864 164.825C216.441 167.333 211.827 168.561 207.858 167.056C203.89 165.551 201.132 160.822 202.638 156.854C203.107 155.758 203.796 154.77 204.662 153.951C205.528 153.133 206.552 152.501 207.673 152.094C209.92 151.295 212.307 150.963 214.687 151.12C219.981 151.289 225.173 152.618 229.896 155.013C233.156 156.669 236.33 159.039 237.567 162.48C238.803 165.922 239.617 170.758 236.081 171.689L235.36 171.582Z" fill="#2F2E41"/>
<path d="M230.347 142.083C228.925 139.606 230.099 136.208 232.427 134.553C234.755 132.899 237.878 132.736 240.656 133.4C243.403 134.092 245.92 135.494 247.954 137.466C249.989 139.438 251.469 141.91 252.246 144.634C253.425 148.965 252.724 153.617 253.723 157.993C254.255 160.326 255.259 162.525 256.673 164.455C258.087 166.385 259.881 168.005 261.945 169.215C264.009 170.426 266.299 171.201 268.674 171.493C271.049 171.785 273.458 171.588 275.754 170.914C278.744 170.036 281.783 167.901 282.077 164.799C282.386 168.361 281.574 171.932 279.753 175.01C277.933 178.088 275.195 180.52 271.924 181.965C268.071 183.572 263.774 183.677 259.601 183.57C256.881 183.5 254.1 183.336 251.591 182.284C249.855 181.492 248.295 180.362 247.001 178.96C245.708 177.557 244.707 175.911 244.058 174.117C242.781 170.511 242.436 166.64 243.056 162.865C243.466 159.929 244.283 157.05 244.512 154.094C244.74 151.138 244.307 147.981 242.484 145.643C240.662 143.304 237.18 142.109 234.589 143.551C233.548 144.13 232.708 145.076 231.576 145.45C230.445 145.824 228.841 145.167 228.944 143.98L230.347 142.083Z" fill="#2F2E41"/>
<path d="M352.533 230.513L352.672 229.055L356.783 186.28C358.131 185.224 359.579 184.304 361.106 183.531C369.569 179.267 377.734 181.308 382.151 183.072C383.322 183.531 384.453 184.084 385.533 184.727L387.939 229.055L388.019 230.513H352.533Z" fill="#03989E"/>
<path d="M371.844 174.937C381.732 174.937 389.748 166.921 389.748 157.033C389.748 147.145 381.732 139.129 371.844 139.129C361.955 139.129 353.939 147.145 353.939 157.033C353.939 166.921 361.955 174.937 371.844 174.937Z" fill="#FFB8B8"/>
<path d="M386.328 167.905C387.658 166.502 388.542 164.736 388.866 162.829C389.19 160.923 388.939 158.964 388.146 157.2C387.354 155.437 386.054 153.949 384.413 152.926C382.772 151.904 380.865 151.392 378.932 151.457C376.456 151.539 374.124 152.553 371.761 153.296C368.18 154.514 364.359 154.858 360.619 154.299C356.855 153.715 353.459 151.71 351.13 148.697C348.915 145.652 348.224 141.43 349.789 138.005C351.596 134.052 355.816 131.873 359.786 130.103C361.387 129.302 363.097 128.74 364.861 128.436C365.745 128.289 366.65 128.326 367.518 128.545C368.387 128.764 369.202 129.16 369.91 129.708C371.026 130.668 371.68 132.11 372.894 132.942C374.26 133.878 376.035 133.853 377.684 134.018C381.396 134.39 384.907 135.883 387.751 138.299C390.594 140.715 392.634 143.939 393.6 147.543C394.566 151.146 394.412 154.959 393.159 158.473C391.905 161.987 389.611 165.036 386.582 167.215L386.328 167.905Z" fill="#2F2E41"/>
<path d="M363.876 190.979L361.208 183.573L361.042 183.111C360.963 182.892 360.835 182.694 360.668 182.532C360.501 182.37 360.3 182.247 360.079 182.175C359.858 182.102 359.623 182.08 359.392 182.112C359.162 182.143 358.941 182.226 358.748 182.355L355.719 184.375C355.719 184.375 336.292 184.375 334.732 196.031C334.71 196.213 334.681 196.417 334.659 196.636C334.658 196.646 334.656 196.656 334.652 196.665C334.455 197.43 330.789 211.601 327.639 229.096C327.552 229.577 327.465 230.066 327.377 230.554H369.591C370.965 212.98 370.196 196.639 363.876 190.979Z" fill="#2F2E41"/>
<path d="M414.264 229.095C411.961 211.148 408.666 196.635 408.666 196.635C408.637 196.416 408.607 196.212 408.585 196.03C407.033 184.373 387.606 184.373 387.606 184.373L384.579 182.355C384.385 182.226 384.164 182.143 383.934 182.112C383.703 182.08 383.468 182.102 383.247 182.175C383.026 182.248 382.824 182.37 382.658 182.533C382.491 182.695 382.363 182.893 382.284 183.112L379.449 190.978C373.128 196.638 372.36 212.978 373.734 230.553L414.446 230.553C414.388 230.065 414.322 229.576 414.264 229.095Z" fill="#2F2E41"/>
<path d="M72.3262 188.176L67.9962 229.041L67.8431 230.499H56.1289C56.2674 230.025 56.4058 229.537 56.5518 229.041C59.8759 217.64 64.4027 200.998 63.914 196.588C63.1487 189.706 68.5067 187.41 68.5067 187.41L68.842 187.476L72.3262 188.176Z" fill="#03989E"/>
<path d="M91.2185 175.562C101.107 175.562 109.123 167.546 109.123 157.658C109.123 147.77 101.107 139.754 91.2185 139.754C81.3304 139.754 73.3145 147.77 73.3145 157.658C73.3145 167.546 81.3304 175.562 91.2185 175.562Z" fill="#A0616A"/>
<path d="M114.362 221.812C113.459 223.476 112.719 225.224 112.153 227.031C111.942 227.673 111.738 228.343 111.548 229.029C111.41 229.503 111.286 229.991 111.162 230.487H63.9395C64.0053 230.006 64.0633 229.517 64.1292 229.029C66.5421 209.966 68.4955 190.62 68.809 187.463C68.8382 187.164 68.8528 187.011 68.8528 187.011C97.151 172.097 117.803 191.604 117.803 191.604C117.803 191.604 117.832 191.742 117.876 192.012C118.328 194.738 120.631 210.659 114.362 221.812Z" fill="#03989E"/>
<path d="M112.086 227.09L108.938 220.34L109.703 193.572L117.809 192.071L118.093 192.02C122.283 194.455 125.525 198.237 127.293 202.75C128.867 206.686 131.863 218.525 134.393 229.087C134.51 229.576 134.626 230.064 134.743 230.545H113.697L113.019 229.087L112.086 227.09Z" fill="#03989E"/>
<path d="M140.843 110.223H37.3154C35.0948 110.225 32.9659 111.109 31.3957 112.679C29.8255 114.249 28.9422 116.378 28.9395 118.598V222.126C28.9422 224.346 29.8255 226.475 31.3957 228.045C32.9659 229.615 35.0948 230.499 37.3154 230.501H140.843C143.064 230.5 145.193 229.617 146.763 228.047C148.334 226.476 149.217 224.347 149.218 222.126V118.598C149.217 116.378 148.334 114.248 146.763 112.677C145.193 111.107 143.064 110.224 140.843 110.223ZM147.76 222.126C147.759 223.96 147.029 225.719 145.732 227.016C144.435 228.313 142.677 229.042 140.843 229.043H37.3154C35.4815 229.041 33.7235 228.311 32.4267 227.014C31.13 225.717 30.4002 223.959 30.3974 222.126V118.598C30.4002 116.765 31.13 115.007 32.4267 113.71C33.7235 112.413 35.4815 111.683 37.3154 111.681H140.843C142.677 111.682 144.435 112.412 145.732 113.709C147.029 115.006 147.759 116.764 147.76 118.598V222.126ZM67.8514 229.043L67.6983 230.501H111.05C111.174 230.006 111.298 229.517 111.436 229.043H67.8514Z" fill="#3F3D56"/>
<path d="M279.905 110.223H176.378C174.157 110.225 172.028 111.109 170.458 112.679C168.888 114.249 168.005 116.378 168.002 118.598V222.126C168.005 224.346 168.888 226.475 170.458 228.045C172.028 229.615 174.157 230.499 176.378 230.501H279.905C282.126 230.5 284.256 229.617 285.826 228.047C287.396 226.476 288.279 224.347 288.281 222.126V118.598C288.279 116.378 287.396 114.248 285.826 112.677C284.256 111.107 282.126 110.224 279.905 110.223ZM286.823 222.126C286.821 223.96 286.092 225.719 284.795 227.016C283.498 228.313 281.739 229.042 279.905 229.043H176.378C174.544 229.041 172.786 228.311 171.489 227.014C170.192 225.717 169.463 223.959 169.46 222.126V118.598C169.463 116.765 170.192 115.007 171.489 113.71C172.786 112.413 174.544 111.683 176.378 111.681H279.905C281.739 111.682 283.498 112.412 284.795 113.709C286.092 115.006 286.821 116.764 286.823 118.598V222.126ZM195.499 229.043C195.586 229.357 195.681 229.67 195.783 229.984L195.601 230.501H231.801C231.837 230.013 231.867 229.525 231.903 229.043H195.499Z" fill="#3F3D56"/>
<path d="M418.809 110.223H315.282C313.061 110.224 310.932 111.107 309.361 112.677C307.791 114.248 306.908 116.377 306.906 118.598V222.126C306.908 224.347 307.791 226.476 309.361 228.047C310.932 229.617 313.061 230.5 315.282 230.501H418.809C421.03 230.499 423.159 229.615 424.729 228.045C426.299 226.475 427.182 224.346 427.185 222.126V118.598C427.182 116.378 426.299 114.249 424.729 112.679C423.159 111.109 421.03 110.225 418.809 110.223ZM425.727 222.126C425.724 223.959 424.995 225.717 423.698 227.014C422.401 228.311 420.643 229.041 418.809 229.043H315.282C313.448 229.042 311.689 228.313 310.392 227.016C309.095 225.719 308.366 223.96 308.364 222.126V118.598C308.366 116.764 309.095 115.005 310.392 113.708C311.689 112.411 313.448 111.682 315.282 111.681H418.809C420.643 111.683 422.401 112.413 423.698 113.71C424.995 115.007 425.724 116.765 425.727 118.598V222.126ZM369.655 229.043C369.619 229.525 369.582 230.013 369.546 230.501H400.957C401.015 230.02 401.081 229.532 401.139 229.043H369.655Z" fill="#3F3D56"/>
<path d="M348.454 272.824H107.896C106.349 272.824 104.866 272.209 103.773 271.115C102.679 270.022 102.064 268.539 102.064 266.992C102.064 265.445 102.679 263.962 103.773 262.868C104.866 261.775 106.349 261.16 107.896 261.16H348.454C350 261.16 351.484 261.775 352.577 262.868C353.671 263.962 354.285 265.445 354.285 266.992C354.285 268.539 353.671 270.022 352.577 271.115C351.484 272.209 350 272.824 348.454 272.824Z" fill="#CCCCCC"/>
<path d="M280.939 79.6204H175.24C173.693 79.6204 172.21 79.006 171.116 77.9124C170.023 76.8187 169.408 75.3354 169.408 73.7887C169.408 72.2421 170.023 70.7588 171.116 69.6651C172.21 68.5715 173.693 67.957 175.24 67.957H280.939C282.486 67.957 283.969 68.5715 285.063 69.6651C286.157 70.7588 286.771 72.2421 286.771 73.7887C286.771 75.3354 286.157 76.8187 285.063 77.9124C283.969 79.006 282.486 79.6204 280.939 79.6204Z" fill="#03989E"/>
<path d="M99.736 173.263C100.342 173.861 101.144 174.22 101.994 174.274C102.843 174.329 103.684 174.075 104.362 173.559C108.582 170.431 112.286 166.538 114.478 161.789C116.99 156.347 117.271 149.67 114.242 144.498C111.681 140.126 107.16 137.304 102.654 134.988C100.905 134 99.0202 133.274 97.0605 132.832C95.0797 132.395 93.0069 132.729 91.2641 133.767C90.4115 134.302 89.7397 135.081 89.3366 136.003C88.9334 136.925 88.8174 137.947 89.0039 138.936C86.8395 136.466 84.0673 134.606 80.962 133.538C79.0067 132.773 76.8656 132.617 74.8203 133.092C71.9609 133.903 69.8734 136.444 68.7316 139.188C67.8083 141.275 67.4894 143.58 67.8113 145.84C67.9808 146.964 68.3843 148.041 68.9959 148.999C69.6075 149.958 70.4135 150.778 71.3618 151.405C73.7259 152.868 76.742 152.762 79.457 152.165C82.1721 151.567 84.8002 150.528 87.5678 150.265C90.3353 150.002 93.4172 150.692 95.1015 152.904C96.2877 154.461 96.5923 156.497 96.8585 158.436L98.2434 168.524C98.3566 169.984 98.7294 171.411 99.344 172.74C99.4505 172.931 99.5824 173.107 99.736 173.263Z" fill="#2F2E41"/>
</svg>
