<svg width="114" height="19" viewBox="0 0 114 19" fill="none" xmlns="http://www.w3.org/2000/svg">
<path d="M9.42062 15.5753C9.16105 15.4226 8.83904 15.4226 8.57946 15.5753L5.01229 17.6748C4.39838 18.0361 3.64469 17.5062 3.77696 16.8063L4.59727 12.4654C4.64893 12.192 4.56004 11.9109 4.36056 11.717L1.23789 8.68062C0.739246 8.19576 1.02318 7.3494 1.71335 7.26335L5.86262 6.74607C6.15252 6.70993 6.40201 6.5239 6.51937 6.25637L8.24072 2.33248C8.53087 1.67105 9.4692 1.67106 9.75935 2.33248L11.4807 6.25637C11.598 6.5239 11.8475 6.70993 12.1374 6.74607L16.2867 7.26336C16.9768 7.3494 17.2608 8.19576 16.7621 8.68062L13.6395 11.717C13.44 11.9109 13.3511 12.192 13.4028 12.4654L14.2231 16.8063C14.3554 17.5062 13.6017 18.0361 12.9878 17.6748L9.42062 15.5753Z" fill="#03989E"/>
<path d="M33.4206 15.5753C33.161 15.4226 32.839 15.4226 32.5795 15.5753L29.0123 17.6748C28.3984 18.0361 27.6447 17.5062 27.777 16.8063L28.5973 12.4654C28.6489 12.192 28.56 11.9109 28.3606 11.717L25.2379 8.68062C24.7392 8.19576 25.0232 7.3494 25.7133 7.26335L29.8626 6.74607C30.1525 6.70993 30.402 6.5239 30.5194 6.25637L32.2407 2.33248C32.5309 1.67105 33.4692 1.67106 33.7594 2.33248L35.4807 6.25637C35.598 6.5239 35.8475 6.70993 36.1374 6.74607L40.2867 7.26336C40.9768 7.3494 41.2608 8.19576 40.7621 8.68062L37.6395 11.717C37.44 11.9109 37.3511 12.192 37.4028 12.4654L38.2231 16.8063C38.3554 17.5062 37.6017 18.0361 36.9878 17.6748L33.4206 15.5753Z" fill="#03989E"/>
<path d="M57.4206 15.5753C57.161 15.4226 56.839 15.4226 56.5795 15.5753L53.0123 17.6748C52.3984 18.0361 51.6447 17.5062 51.777 16.8063L52.5973 12.4654C52.6489 12.192 52.56 11.9109 52.3606 11.717L49.2379 8.68062C48.7392 8.19576 49.0232 7.3494 49.7133 7.26335L53.8626 6.74607C54.1525 6.70993 54.402 6.5239 54.5194 6.25637L56.2407 2.33248C56.5309 1.67105 57.4692 1.67106 57.7594 2.33248L59.4807 6.25637C59.598 6.5239 59.8475 6.70993 60.1374 6.74607L64.2867 7.26336C64.9768 7.3494 65.2608 8.19576 64.7621 8.68062L61.6395 11.717C61.44 11.9109 61.3511 12.192 61.4028 12.4654L62.2231 16.8063C62.3554 17.5062 61.6017 18.0361 60.9878 17.6748L57.4206 15.5753Z" fill="#03989E"/>
<path d="M81.4206 15.5753C81.161 15.4226 80.839 15.4226 80.5795 15.5753L77.0123 17.6748C76.3984 18.0361 75.6447 17.5062 75.777 16.8063L76.5973 12.4654C76.6489 12.192 76.56 11.9109 76.3606 11.717L73.2379 8.68062C72.7392 8.19576 73.0232 7.3494 73.7133 7.26335L77.8626 6.74607C78.1525 6.70993 78.402 6.5239 78.5194 6.25637L80.2407 2.33248C80.5309 1.67105 81.4692 1.67106 81.7594 2.33248L83.4807 6.25637C83.598 6.5239 83.8475 6.70993 84.1374 6.74607L88.2867 7.26336C88.9768 7.3494 89.2608 8.19576 88.7621 8.68062L85.6395 11.717C85.44 11.9109 85.3511 12.192 85.4028 12.4654L86.2231 16.8063C86.3554 17.5062 85.6017 18.0361 84.9878 17.6748L81.4206 15.5753Z" fill="#03989E"/>
<path d="M105.421 15.5753C105.161 15.4226 104.839 15.4226 104.579 15.5753L101.012 17.6748C100.398 18.0361 99.6447 17.5062 99.777 16.8063L100.597 12.4654C100.649 12.192 100.56 11.9109 100.361 11.717L97.2379 8.68062C96.7392 8.19576 97.0232 7.3494 97.7133 7.26335L101.863 6.74607C102.153 6.70993 102.402 6.5239 102.519 6.25637L104.241 2.33248C104.531 1.67105 105.469 1.67106 105.759 2.33248L107.481 6.25637C107.598 6.5239 107.848 6.70993 108.137 6.74607L112.287 7.26336C112.977 7.3494 113.261 8.19576 112.762 8.68062L109.64 11.717C109.44 11.9109 109.351 12.192 109.403 12.4654L110.223 16.8063C110.355 17.5062 109.602 18.0361 108.988 17.6748L105.421 15.5753Z" fill="#03989E"/>
</svg>
