<svg width="24" height="25" viewBox="0 0 24 25" fill="none" xmlns="http://www.w3.org/2000/svg">
<path fill-rule="evenodd" clip-rule="evenodd" d="M7.95047 5.15625C6.64234 5.15625 5.45944 5.48319 4.60084 6.28045C3.73411 7.08528 3.29297 8.28046 3.29297 9.81375V15.4838C3.29297 17.0171 3.73411 18.2122 4.60084 19.0171C5.45944 19.8143 6.64234 20.1413 7.95047 20.1413H16.0505C17.3586 20.1413 18.5415 19.8143 19.4001 19.0171C20.2668 18.2122 20.708 17.0171 20.708 15.4838V9.81375C20.708 8.28046 20.2668 7.08528 19.4001 6.28045C18.5415 5.48319 17.3586 5.15625 16.0505 5.15625H7.95047ZM17.8556 9.70221C18.121 9.49707 18.1699 9.11555 17.9647 8.85006C17.7596 8.58457 17.3781 8.53565 17.1126 8.7408L12.6195 12.2126C12.2549 12.4944 11.746 12.4944 11.3813 12.2126L6.88823 8.7408C6.62274 8.53565 6.24122 8.58457 6.03607 8.85006C5.83093 9.11555 5.87984 9.49707 6.14533 9.70221L10.6385 13.1741C11.4407 13.7939 12.5602 13.7939 13.3624 13.1741L17.8556 9.70221Z" fill="white"/>
</svg>
