<svg width="18" height="17" viewBox="0 0 18 17" fill="none" xmlns="http://www.w3.org/2000/svg">
<path d="M14.8969 2.68787C16.4441 4.23512 17.4049 6.34412 17.4049 8.61737C17.4049 10.9146 16.4441 12.9771 14.8969 14.5236C13.3496 16.0701 11.2639 17.0084 8.99061 17.0084C6.69336 17.0084 4.63086 16.0709 3.08436 14.5236C1.53786 12.9764 0.599609 10.9139 0.599609 8.61737C0.599609 6.34412 1.53711 4.23437 3.08436 2.68787C4.63161 1.14137 6.69411 0.203125 8.99061 0.203125C11.2639 0.203125 13.3504 1.14062 14.8969 2.68787ZM9.95136 13.3521H9.99861C10.0691 13.3521 10.1396 13.3754 10.1861 13.4459C10.2334 13.4931 10.2799 13.5396 10.3736 13.5396C10.3969 13.5396 10.4209 13.5164 10.4209 13.4691C10.4209 13.3754 10.4441 13.2816 10.4441 13.2584C10.4674 13.1879 10.5146 13.1879 10.5611 13.1879C10.5844 13.1879 10.5844 13.1879 10.5844 13.1406L10.5371 13.0934C10.5139 13.0934 10.4899 13.1166 10.4899 13.1406C10.4666 13.1639 10.4426 13.1879 10.4194 13.1406L10.2784 13.2344L10.1141 13.1871L9.83286 12.7649L9.92661 12.1551C9.92661 12.1319 9.90336 12.0846 9.83286 12.0614C9.76236 12.0381 9.76236 11.9909 9.78561 11.9676C9.69186 11.9204 9.57486 11.8739 9.43386 11.8739C9.41061 11.8739 9.34011 11.8971 9.22311 11.9211C9.10611 11.9211 9.03561 11.9211 9.03561 11.8739C9.03561 11.8034 9.10611 11.6631 9.15261 11.4989C9.17586 11.4284 9.19986 11.3114 9.22311 11.2641C9.22311 11.2169 9.24636 11.1704 9.24636 11.1704L9.36336 10.8891L9.34011 10.8419L9.17586 10.8186C9.12861 10.8186 8.96511 10.9124 8.84736 11.0061C8.73036 11.1471 8.63661 11.2641 8.63661 11.3579L8.16786 11.4516C8.07411 11.4516 7.98036 11.4284 7.90986 11.3346C7.88661 11.2176 7.81611 11.0766 7.72236 10.9364C7.62861 10.8194 7.60536 10.7016 7.60536 10.5846C7.60536 10.4436 7.62861 10.2561 7.67586 10.1391C7.72311 9.99812 7.72311 9.83462 7.62861 9.69362C7.65186 9.69362 7.72236 9.64637 7.67586 9.59987L7.79286 9.45887L7.81611 9.43562L7.83936 9.45887C7.93311 9.38837 8.09736 9.36512 8.23761 9.38837C8.40186 9.41162 8.49561 9.34112 8.54211 9.22412L8.70636 9.38837C8.75361 9.41162 8.84736 9.24737 8.84736 9.20087L8.77686 9.15362L9.19911 9.05987L9.22236 9.10712H9.40986L9.64461 9.24812C9.66786 9.24812 9.69186 9.22487 9.71511 9.20087C9.76236 9.15362 9.78561 9.15362 9.80886 9.17762L10.0196 9.41237C9.99636 9.45962 9.99636 9.50612 9.99636 9.55337C10.0196 9.57662 10.0436 9.60062 10.0436 9.62387C10.0436 9.71762 10.2544 10.1399 10.3721 10.1399C10.4426 10.1399 10.4659 10.0926 10.4426 9.99887V9.81137C10.4426 9.69437 10.4194 9.55337 10.3721 9.41312C10.3016 9.29612 10.2551 9.13187 10.2079 8.99087V8.94362C10.2079 8.87312 10.2551 8.80262 10.3489 8.75612C10.4194 8.70887 10.4659 8.66237 10.4659 8.66237C10.5364 8.61512 10.6069 8.54537 10.7006 8.49812C10.7711 8.45087 10.8416 8.33387 10.8881 8.26337L10.9586 8.09912V8.00537H11.0291C11.0291 8.00537 11.0764 7.98212 11.0764 7.93487C11.0764 7.93487 11.0531 7.91162 11.0291 7.91162C11.0059 7.88837 10.9354 7.84112 10.8881 7.79462L10.9354 7.74737C11.0059 7.67687 11.0291 7.51262 10.9826 7.44287L11.1701 7.34912C11.1229 7.44287 11.2639 7.46612 11.3111 7.44287L11.4049 7.23212C11.3576 7.11512 11.3344 7.23212 11.4049 7.09112C11.4754 7.06787 11.5459 7.04387 11.6156 6.99737C11.6861 6.97412 11.7326 6.95012 11.8031 6.95012C11.8264 6.95012 11.8504 6.97337 11.8504 6.97337C11.8976 6.97337 11.9209 6.95012 11.9209 6.95012C11.9209 6.87962 11.8976 6.83312 11.8736 6.83312L11.9906 6.57512C12.0844 6.57512 12.1781 6.52787 12.2254 6.43412L12.4129 6.41087C12.4601 6.41087 12.4834 6.38762 12.4834 6.34037V6.29312L12.8351 6.19937L12.8824 6.08237L12.7886 5.94137C12.7886 5.94137 12.8119 5.91812 12.8119 5.89412C12.8119 5.87012 12.7886 5.84687 12.7646 5.82362C12.7414 5.82362 12.7174 5.80037 12.6941 5.80037C12.6709 5.77712 12.6469 5.75312 12.6236 5.75312H12.8111C12.8111 5.75312 12.9049 5.72987 12.9049 5.65937C12.9049 5.56562 12.8576 5.54237 12.7639 5.54237C12.5059 5.54237 12.1076 5.63612 11.9666 5.91737L11.8256 5.98787L12.0131 5.80037L12.0364 5.75312C12.0364 5.72987 12.0131 5.70587 11.9659 5.68262H11.8954C12.1301 5.68262 12.2704 5.61212 12.3641 5.54162C12.4346 5.47112 12.5051 5.40062 12.6686 5.35412C12.8329 5.37737 12.9971 5.37737 13.1606 5.37737C13.3016 5.35412 13.4419 5.35412 13.6061 5.35412C13.6766 5.30687 13.7704 5.21312 13.8169 5.11937L14.0516 5.09612C14.0989 5.14337 14.2624 5.02562 14.2624 4.95512C14.2624 4.88462 14.2391 4.86137 14.1686 4.83812C14.0981 4.81487 14.0276 4.76762 14.0276 4.69712V4.62662C14.0509 4.60337 14.0276 4.57937 14.0044 4.57937C13.9106 4.57937 13.6759 4.69637 13.6061 4.74362C13.5589 4.79087 13.5356 4.72037 13.5356 4.67312L13.5589 4.69637L13.6526 4.64912L13.8874 4.55537L13.9106 4.53212C13.9106 4.43837 13.7696 4.41512 13.7231 4.41512C13.6999 4.41512 13.6526 4.43837 13.6061 4.46237C13.5589 4.46237 13.5124 4.46237 13.5124 4.41512L13.5356 4.36787C13.3714 4.25087 13.2311 4.01612 13.2311 3.94562V3.85187C13.2544 3.82862 13.2311 3.82862 13.1839 3.82862H13.1134C13.0901 3.85187 13.0661 3.82862 13.0661 3.78137C13.0661 3.73412 12.9724 3.47687 12.8554 3.47687L12.7849 3.54737C12.7849 3.59462 12.7616 3.61787 12.7144 3.64112C12.6671 3.66437 12.6439 3.68837 12.6439 3.71162H12.6206L12.3859 3.85262C12.3859 3.80537 12.3626 3.80537 12.3386 3.82937C12.3154 3.82937 12.3154 3.85262 12.2681 3.85262H12.2209C12.3379 3.85262 12.3146 3.68837 12.2209 3.68837L12.0334 3.71162C11.9861 3.71162 11.9861 3.71162 12.0334 3.66437C12.0566 3.61712 12.1039 3.57062 12.0566 3.52337C12.0566 3.47612 12.0334 3.47612 12.0094 3.50012L12.0566 3.42962C12.1039 3.40637 12.0334 3.31262 11.9861 3.26537L11.7754 3.24212L11.6344 3.10113C11.6111 3.12437 11.5871 3.10112 11.5406 3.07787C11.5174 3.05462 11.4701 3.00738 11.4469 3.00738L11.2826 3.07787L10.8604 2.98412C10.8131 2.98412 10.7434 3.00737 10.7434 3.07787C10.7434 3.10112 10.7434 3.12512 10.7666 3.12512C10.8139 3.14837 10.8139 3.17237 10.8139 3.19562C10.8139 3.21887 10.8371 3.31262 10.8611 3.43037C10.8611 3.54737 10.8611 3.59462 10.7906 3.57137L10.6969 3.71237C10.6969 3.75962 10.7441 3.78287 10.7674 3.78287C10.8379 3.83012 10.9084 3.89987 10.9549 3.97037C11.0021 4.01762 11.0021 4.08737 10.9781 4.15787L10.5326 4.50962V4.53287C10.5326 4.60337 10.5326 4.64987 10.5559 4.69712C10.6031 4.74437 10.6031 4.81412 10.6496 4.88462C10.7666 4.93187 10.7666 4.97837 10.6729 5.02562C10.6256 5.02562 10.5791 5.04887 10.5319 5.07287L10.4846 5.12012C10.4846 5.14337 10.4614 5.14337 10.4374 5.14337H10.3204C10.3204 5.14337 10.3204 5.12012 10.3436 5.12012C10.3436 5.12012 10.3669 5.09687 10.3669 5.07287L10.1561 4.95587L10.0624 4.79162C10.0856 4.72112 10.0856 4.67462 10.0624 4.65062C10.0391 4.62662 10.0391 4.58012 10.0391 4.53362C10.0391 4.48712 9.99186 4.36937 9.89811 4.36937C9.78111 4.36937 9.68736 4.39262 9.56961 4.41662C9.61686 4.39337 9.52236 4.27562 9.49911 4.27562C9.38211 4.27562 9.24111 4.22837 9.07686 4.13462C8.91261 4.04087 8.79561 3.99362 8.70186 3.99362C8.63136 3.99362 8.49111 4.01687 8.39736 4.06412C8.44461 4.04087 8.44461 4.01687 8.46786 3.94712L8.32686 3.71237L8.30361 3.68912C8.25636 3.68912 8.20986 3.71237 8.16261 3.75962C8.11536 3.78287 8.04561 3.75962 8.04561 3.66587C8.04561 3.64262 8.06886 3.61862 8.06886 3.61862C8.09211 3.59537 8.09211 3.59537 8.06886 3.57137C8.06886 3.50087 8.09211 3.43037 8.16261 3.36062C8.20986 3.31337 8.23311 3.21962 8.25636 3.14987C8.30361 3.12662 8.30361 3.10262 8.30361 3.07937C8.30361 3.03212 8.32686 3.03212 8.35086 3.03212C8.39811 3.03212 8.46786 3.00887 8.51511 2.98487C8.56236 2.93762 8.60886 2.91437 8.67936 2.91437L8.70261 2.84387C8.70261 2.82062 8.63211 2.79662 8.49186 2.77337C8.32761 2.75012 8.25711 2.75012 8.25711 2.70287L8.28036 2.67962C8.42136 2.72687 8.53836 2.75012 8.60886 2.75012C8.74986 2.77337 8.81961 2.72687 8.96061 2.65637C9.00786 2.63312 9.14811 2.58587 9.26511 2.51537C9.26511 2.49212 9.24186 2.49212 9.17136 2.46812H9.26511L9.42936 2.37437V2.28062L9.38211 2.23337L9.61686 2.18612C9.59361 2.13887 9.64011 2.11562 9.66411 2.11562C9.71136 2.11562 9.75786 2.13887 9.80511 2.18612C9.85236 2.23337 9.87561 2.23337 9.89886 2.23337L10.1096 2.16287C10.1096 2.13962 10.1329 2.13962 10.1801 2.13962C10.2274 2.11637 10.2506 2.09237 10.2274 2.06912L10.0631 1.90487C10.0159 1.90487 9.99261 1.83437 10.0399 1.83437C10.1104 1.83437 10.1569 1.81112 10.1104 1.74062C10.0631 1.71737 9.99336 1.67012 9.92286 1.64687C9.85236 1.59962 9.78186 1.57637 9.71211 1.57637C9.66486 1.57637 9.57111 1.59962 9.57111 1.67012C9.57111 1.71737 9.59436 1.71737 9.61836 1.71737C9.66561 1.71737 9.68886 1.74062 9.68886 1.76462C9.73611 1.78787 9.71211 1.81187 9.66561 1.81187H9.61836C9.57111 1.81187 9.50136 1.85912 9.45411 1.95287C9.40686 2.02337 9.33711 2.09387 9.26661 2.11712C9.24336 2.11712 9.24336 2.11712 9.24336 2.09387C9.26661 2.07062 9.24336 2.07062 9.24336 2.04662C9.22011 2.02337 9.19611 1.99937 9.17286 1.99937C9.12561 1.97612 9.07911 1.97612 9.07911 1.95212C9.07911 1.90487 9.12636 1.88162 9.17286 1.81112C9.19611 1.74062 9.12561 1.71737 9.00861 1.71737C8.96136 1.71737 8.91486 1.74062 8.89161 1.78787C8.86836 1.81112 8.84436 1.85837 8.82111 1.90487L8.58636 1.64687L8.39886 1.62362C8.39886 1.57637 8.42211 1.52987 8.44611 1.48262C8.49336 1.38887 8.30511 1.27187 8.23536 1.20137C8.21211 1.20137 8.16486 1.17812 8.11836 1.17812C8.09511 1.17812 7.95411 1.29512 7.86036 1.34237C7.81311 1.36562 7.78986 1.38962 7.78986 1.41287C7.78986 1.46012 7.83711 1.46012 7.90686 1.46012H7.88361C7.83636 1.46012 7.81311 1.48337 7.81311 1.55387C7.81311 1.57712 8.00061 1.62437 8.04786 1.62437C8.09511 1.62437 8.14161 1.62437 8.14161 1.64762C8.16486 1.67087 8.16486 1.67087 8.21211 1.67087L8.28261 1.64762V1.69487L8.25936 1.74212L8.28261 1.81262L8.04786 1.92962L8.02461 1.95287C8.00136 1.95287 7.97736 1.95287 7.97736 1.97612C7.97736 1.99937 7.97736 2.04662 8.02461 2.09312C8.04786 2.14037 8.02461 2.16362 7.90761 2.16362L7.83711 2.11637C7.83711 2.06912 7.78986 2.02262 7.67286 1.97537C7.46211 1.90487 7.08711 1.88162 6.75861 1.88162C6.59436 1.85837 6.47736 1.85837 6.38361 1.85837L6.03186 1.97537L6.12561 2.16287C6.10236 2.16287 6.05511 2.18612 6.05511 2.18612C5.96136 2.11562 5.82036 1.97537 5.77386 1.97537L5.60961 1.95212C5.09361 1.97537 4.48461 2.46812 3.89886 3.05387C3.31311 3.63962 2.79711 4.29587 2.53911 4.69487H2.58636C2.63361 4.69487 2.65686 4.67162 2.72736 4.64762C2.77461 4.62437 2.79786 4.67087 2.79786 4.74137C2.79786 4.78862 2.79786 4.81187 2.77461 4.85837C2.75136 4.90487 2.79786 4.92887 2.89161 4.92887C2.91486 4.92887 2.93886 4.90562 2.93886 4.85837C2.96211 4.81112 2.96211 4.81112 2.96211 4.85837L3.00936 5.02262V5.04587C3.00936 5.06912 2.98611 5.09312 2.96211 5.11637C2.89161 5.13962 2.96211 5.21012 3.03261 5.21012H3.14961L3.19686 5.18687L3.22011 5.16362C3.22011 5.25737 3.31386 5.28062 3.38436 5.28062H3.40761C3.40761 5.28062 3.38436 5.32787 3.36036 5.35112C3.31311 5.35112 3.31311 5.37437 3.36036 5.39837L3.59511 5.44562V5.46887L3.73611 5.77337C3.73611 5.82062 3.68886 5.93762 3.64236 5.93762C3.59586 5.93762 3.59511 5.91437 3.59511 5.89037C3.61836 5.89037 3.61836 5.86712 3.61836 5.81987C3.61836 5.79662 3.59511 5.77262 3.59511 5.74937C3.57186 5.72612 3.52461 5.72612 3.43086 5.72612C3.40761 5.72612 3.33711 5.72612 3.38361 5.79662L3.50061 6.05462L3.54786 6.10187C3.40686 6.10187 3.38361 6.57062 3.38361 6.71162L3.40686 6.89912L3.43011 6.96962V6.99287L3.40686 7.20362L3.68811 7.67237H3.75861C3.75861 7.69562 3.75861 7.71962 3.73536 7.74287C3.71211 7.76612 3.71211 7.79012 3.71211 7.83662L3.80586 7.90712C3.80586 8.04812 3.85311 8.07137 3.97011 8.18837C3.97011 8.25887 4.06386 8.35262 4.20486 8.44637C4.36911 8.51687 4.46286 8.56337 4.50936 8.58737C4.60311 8.91587 4.76736 9.26687 5.00136 9.47837L5.02461 9.61937L4.97736 9.66662C4.93011 9.66662 4.93011 9.68987 4.95411 9.71387L5.14161 9.80762C5.18886 9.76037 5.21211 9.80762 5.25861 9.87812C5.30586 9.97187 5.32911 10.0191 5.35236 10.0424V10.1129L5.46936 10.2771L5.51661 10.3244L5.56386 10.2074C5.51661 10.0904 5.35311 9.83237 5.21211 9.62162C5.14161 9.50462 5.07111 9.38687 5.00136 9.29312C4.95411 9.22262 4.93086 9.17612 4.93086 9.15212C4.93086 9.12812 4.90761 8.87087 4.88361 8.82362C4.90686 8.84687 4.97736 8.87087 5.02461 8.89412C5.09511 8.91737 5.16561 8.94137 5.21211 8.96462C5.23536 9.15212 5.30586 9.29312 5.42286 9.41012C5.51661 9.50387 5.61036 9.62087 5.68086 9.76187C5.63361 9.80912 5.72811 9.80912 5.77461 9.80912C5.79786 9.85637 5.79786 9.87962 5.79786 9.97337C6.00861 10.1841 6.43086 10.6769 6.43086 10.8876V10.9109L6.38361 11.0519C6.47736 11.2626 6.68811 11.4269 6.89961 11.4974H6.94686C7.06386 11.5679 7.22811 11.6384 7.39236 11.7081C7.53336 11.8019 7.67361 11.8724 7.81461 11.9189L8.04936 11.7779C8.16636 11.8011 8.30736 11.9189 8.47161 12.0591C8.63586 12.1994 8.84661 12.3636 9.12786 12.4109C9.22161 12.3404 9.26886 12.3636 9.26886 12.4581V12.5054L9.52686 12.8099L9.57411 12.9509C9.71511 13.0446 9.87861 13.1856 9.94911 13.3491L9.95136 13.3521ZM6.92811 1.56287L6.90486 1.51562C6.85761 1.49237 6.74061 1.44512 6.69411 1.44512C6.67086 1.44512 6.62361 1.46837 6.52986 1.49237C6.36561 1.58612 6.10761 1.65662 5.92011 1.75037C5.82636 1.79762 5.75586 1.82087 5.70936 1.82087C5.80311 1.82087 5.89686 1.79762 5.99061 1.75037C6.06111 1.70312 6.15486 1.67987 6.24861 1.67987L6.31911 1.72712C6.36636 1.75037 6.38961 1.75037 6.43611 1.75037C6.45936 1.75037 6.48336 1.75037 6.52986 1.79762C6.57711 1.77437 6.62361 1.77437 6.69411 1.82087L6.76461 1.77362V1.67987L6.74136 1.63262L6.78861 1.65587C6.83586 1.65587 6.88236 1.63262 6.92961 1.56212L6.92811 1.56287ZM10.4666 15.2969L10.4899 15.4379C10.4899 15.4851 10.4666 15.4851 10.4426 15.5316C10.3721 15.5789 10.2551 15.6486 10.2551 15.7896C10.2551 15.8129 10.2784 15.8369 10.2784 15.8834C10.3016 15.9066 10.3256 15.9306 10.3256 15.9771C10.3256 16.0004 10.3024 16.0244 10.3024 16.0476C11.9194 15.7664 13.3729 14.9931 14.4979 13.7976H14.4746C14.4274 13.8209 14.3576 13.8209 14.3336 13.7976L14.2631 13.8209L14.1461 13.7976H14.0756C14.0284 13.7271 13.9819 13.6806 13.9114 13.6334L13.8881 13.6101C13.8649 13.6101 13.8409 13.6101 13.8409 13.6574C13.8409 13.4466 13.6766 13.2591 13.4891 13.2591C13.4891 13.2824 13.4659 13.2824 13.4659 13.2824H13.4186L13.3714 13.2591H13.4419L13.4891 13.1181L13.3721 13.0476L13.3489 13.0709C13.2551 13.0476 13.1846 13.0004 13.1381 12.9066L13.0676 12.8834V12.9066L13.0204 12.9299C12.9266 12.9531 12.8561 12.9771 12.8096 13.0004C12.7159 12.9771 12.6454 12.9299 12.6221 12.9066L12.3409 12.9299C12.3409 12.8361 12.2936 12.7191 12.1766 12.7191C12.0356 12.7191 11.8481 12.7191 11.8016 12.8834C11.8016 12.9306 11.8249 13.0004 11.8489 13.0244V13.1181L11.8256 13.1654L11.8024 13.1886H11.7791L11.7086 13.0244L11.7791 12.9306C11.7559 12.8834 11.7559 12.8601 11.7559 12.8136C11.7559 12.7671 11.7326 12.7431 11.7326 12.6966L11.7094 12.6734H11.6389L11.4979 12.7671H11.4041L11.3809 12.8144C11.3576 12.8144 11.3576 12.8376 11.3576 12.8616C11.3576 12.8616 11.3344 12.8616 11.3344 12.8849L11.3111 12.8616H11.2174C11.1701 12.9089 11.1469 12.9786 11.1236 13.0491L11.1709 13.0964L11.0539 13.1436L11.0306 13.1909L10.9601 13.2381V13.2614H10.9369V13.3784H10.9136C10.8904 13.2846 10.8199 13.1909 10.6789 13.1204H10.6084V13.1676C10.6084 13.2149 10.6556 13.2381 10.7021 13.2614C10.7494 13.3086 10.7726 13.3551 10.7959 13.3784C10.7726 13.3551 10.7254 13.3784 10.7254 13.4016V13.4489L10.8664 13.6596V14.0579L10.9136 14.1516C10.8664 14.2686 10.8199 14.3864 10.7494 14.4561V14.4329L10.7021 14.4561L10.6789 14.4794L10.6556 14.5731L10.6789 14.5964V14.6196L10.6316 14.5724L10.6084 14.7134L10.4914 14.7606C10.4441 14.7839 10.4209 14.8079 10.4441 14.8776C10.4441 14.9249 10.4209 14.9481 10.3736 14.9714L10.3969 15.0186L10.3496 15.0891C10.3496 15.1124 10.3496 15.1364 10.3264 15.1364V15.2301L10.3496 15.3944L10.3969 15.4176L10.4441 15.3944L10.4666 15.2969Z" fill="white"/>
</svg>
