<svg width="24" height="24" viewBox="0 0 24 24" fill="none" xmlns="http://www.w3.org/2000/svg">
<circle cx="12" cy="12" r="12" fill="white" fill-opacity="0.2"/>
<path d="M14.513 6H9.48502C7.30102 6 5.99902 7.302 5.99902 9.486V14.508C5.99902 16.698 7.30102 18 9.48502 18H14.507C16.691 18 17.993 16.698 17.993 14.514V9.486C17.999 7.302 16.697 6 14.513 6ZM11.999 14.328C10.715 14.328 9.67102 13.284 9.67102 12C9.67102 10.716 10.715 9.672 11.999 9.672C13.283 9.672 14.327 10.716 14.327 12C14.327 13.284 13.283 14.328 11.999 14.328ZM15.551 8.928C15.521 9 15.479 9.066 15.425 9.126C15.365 9.18 15.299 9.222 15.227 9.252C15.155 9.282 15.077 9.3 14.999 9.3C14.837 9.3 14.687 9.24 14.573 9.126C14.519 9.066 14.477 9 14.447 8.928C14.417 8.856 14.399 8.778 14.399 8.7C14.399 8.622 14.417 8.544 14.447 8.472C14.477 8.394 14.519 8.334 14.573 8.274C14.711 8.136 14.921 8.07 15.113 8.112C15.155 8.118 15.191 8.13 15.227 8.148C15.263 8.16 15.299 8.178 15.335 8.202C15.365 8.22 15.395 8.25 15.425 8.274C15.479 8.334 15.521 8.394 15.551 8.472C15.581 8.544 15.599 8.622 15.599 8.7C15.599 8.778 15.581 8.856 15.551 8.928Z" fill="white"/>
</svg>
