<svg width="80" height="80" viewBox="0 0 80 80" fill="none" xmlns="http://www.w3.org/2000/svg">
<circle cx="40" cy="40" r="40" fill="#03989E" fill-opacity="0.2"/>
<path fill-rule="evenodd" clip-rule="evenodd" d="M26.9262 62.8927V31.996H16.6578V62.8926H26.9262V62.8927ZM21.7931 27.7791C25.3727 27.7791 27.6026 25.4046 27.6026 22.4398C27.5349 19.409 25.3727 17.1016 21.8602 17.1016C18.3471 17.1017 16.0508 19.4091 16.0508 22.4399C16.0508 25.4047 18.2794 27.7792 21.7255 27.7792L21.7931 27.7791ZM32.6093 62.8927C32.6093 62.8927 32.744 34.8949 32.6093 31.9961H42.8792V36.4768H42.8111C44.1614 34.3683 46.5942 31.2706 52.1336 31.2706C58.8915 31.2706 63.9569 35.6865 63.9569 45.1768V62.8928H53.6887V46.3639C53.6887 42.2107 52.2029 39.3767 48.4858 39.3767C45.6495 39.3767 43.9592 41.2873 43.2169 43.1342C42.9453 43.7915 42.8792 44.7149 42.8792 45.6383V62.8927H32.6093Z" fill="#03989E"/>
</svg>
