<svg width="80" height="80" viewBox="0 0 80 80" fill="none" xmlns="http://www.w3.org/2000/svg">
<circle cx="40" cy="40" r="40" fill="#03989E" fill-opacity="0.2"/>
<path d="M48.378 20H31.618C24.338 20 19.998 24.34 19.998 31.62V48.36C19.998 55.66 24.338 60 31.618 60H48.358C55.638 60 59.978 55.66 59.978 48.38V31.62C59.998 24.34 55.658 20 48.378 20ZM39.998 47.76C35.718 47.76 32.238 44.28 32.238 40C32.238 35.72 35.718 32.24 39.998 32.24C44.278 32.24 47.758 35.72 47.758 40C47.758 44.28 44.278 47.76 39.998 47.76ZM51.838 29.76C51.738 30 51.598 30.22 51.418 30.42C51.218 30.6 50.998 30.74 50.758 30.84C50.518 30.94 50.258 31 49.998 31C49.458 31 48.958 30.8 48.578 30.42C48.398 30.22 48.258 30 48.158 29.76C48.058 29.52 47.998 29.26 47.998 29C47.998 28.74 48.058 28.48 48.158 28.24C48.258 27.98 48.398 27.78 48.578 27.58C49.038 27.12 49.738 26.9 50.378 27.04C50.518 27.06 50.638 27.1 50.758 27.16C50.878 27.2 50.998 27.26 51.118 27.34C51.218 27.4 51.318 27.5 51.418 27.58C51.598 27.78 51.738 27.98 51.838 28.24C51.938 28.48 51.998 28.74 51.998 29C51.998 29.26 51.938 29.52 51.838 29.76Z" fill="#03989E"/>
</svg>
