<svg width="24" height="24" viewBox="0 0 24 24" fill="none" xmlns="http://www.w3.org/2000/svg">
<circle cx="12" cy="12" r="12" fill="white" fill-opacity="0.2"/>
<g clip-path="url(#clip0_3110_3421)">
<path fill-rule="evenodd" clip-rule="evenodd" d="M8.07902 18.8702V9.60114H4.99852V18.8701H8.07902V18.8702ZM6.53909 8.33608C7.61299 8.33608 8.28194 7.62373 8.28194 6.73428C8.26163 5.82505 7.61299 5.13281 6.55923 5.13281C5.5053 5.13284 4.81641 5.82508 4.81641 6.73431C4.81641 7.62376 5.48499 8.33611 6.51881 8.33611L6.53909 8.33608ZM9.78396 18.8702C9.78396 18.8702 9.82437 10.4708 9.78396 9.60117H12.8649V10.9454H12.8445C13.2496 10.3128 13.9794 9.38351 15.6412 9.38351C17.6686 9.38351 19.1883 10.7083 19.1883 13.5554V18.8702H16.1078V13.9115C16.1078 12.6656 15.6621 11.8153 14.5469 11.8153C13.696 11.8153 13.1889 12.3885 12.9662 12.9426C12.8848 13.1398 12.8649 13.4168 12.8649 13.6938V18.8702H9.78396Z" fill="white"/>
</g>
<defs>
<clipPath id="clip0_3110_3421">
<rect width="14.4" height="14.4" fill="white" transform="translate(4.80078 4.80078)"/>
</clipPath>
</defs>
</svg>
