<svg width="32" height="33" viewBox="0 0 32 33" fill="none" xmlns="http://www.w3.org/2000/svg">
<circle cx="16" cy="16.5" r="16" fill="#03989E" fill-opacity="0.2"/>
<path d="M23.1645 10.3093C24.9138 12.0586 26 14.443 26 17.0131C26 19.6104 24.9138 21.9423 23.1645 23.6907C21.4151 25.4392 19.057 26.5 16.4869 26.5C13.8896 26.5 11.5577 25.4401 9.80926 23.6907C8.06078 21.9414 7 19.6096 7 17.0131C7 14.443 8.05994 12.0577 9.80926 10.3093C11.5586 8.56078 13.8904 7.5 16.4869 7.5C19.057 7.5 21.416 8.55994 23.1645 10.3093ZM17.5731 22.3662H17.6265C17.7062 22.3662 17.7859 22.3925 17.8385 22.4722C17.8919 22.5257 17.9445 22.5782 18.0505 22.5782C18.0768 22.5782 18.1039 22.5519 18.1039 22.4985C18.1039 22.3925 18.1302 22.2865 18.1302 22.2603C18.1565 22.1805 18.2099 22.1805 18.2625 22.1805C18.2887 22.1805 18.2887 22.1805 18.2887 22.1271L18.2353 22.0737C18.209 22.0737 18.1819 22.1 18.1819 22.1271C18.1556 22.1534 18.1285 22.1805 18.1022 22.1271L17.9428 22.2331L17.7571 22.1797L17.4391 21.7023L17.5451 21.0129C17.5451 20.9866 17.5188 20.9332 17.4391 20.9069C17.3594 20.8806 17.3594 20.8272 17.3857 20.8009C17.2797 20.7475 17.1474 20.6949 16.988 20.6949C16.9617 20.6949 16.882 20.7212 16.7497 20.7484C16.6174 20.7484 16.5377 20.7484 16.5377 20.6949C16.5377 20.6152 16.6174 20.4567 16.67 20.271C16.6963 20.1913 16.7234 20.059 16.7497 20.0056C16.7497 19.9521 16.776 19.8996 16.776 19.8996L16.9083 19.5816L16.882 19.5282L16.6963 19.5019C16.6429 19.5019 16.458 19.6079 16.3249 19.7139C16.1926 19.8733 16.0866 20.0056 16.0866 20.1115L15.5567 20.2175C15.4507 20.2175 15.3447 20.1913 15.265 20.0853C15.2387 19.953 15.159 19.7936 15.053 19.635C14.947 19.5027 14.9207 19.3696 14.9207 19.2373C14.9207 19.0779 14.947 18.8659 15.0004 18.7336C15.0538 18.5742 15.0538 18.3894 14.947 18.2299C14.9733 18.2299 15.053 18.1765 15.0004 18.124L15.1327 17.9645L15.159 17.9383L15.1853 17.9645C15.2912 17.8848 15.4769 17.8585 15.6355 17.8848C15.8212 17.9111 15.9272 17.8314 15.9798 17.6991L16.1655 17.8848C16.2189 17.9111 16.3249 17.7254 16.3249 17.6728L16.2452 17.6194L16.7226 17.5134L16.7489 17.5669H16.9609L17.2263 17.7263C17.2526 17.7263 17.2797 17.7 17.306 17.6728C17.3594 17.6194 17.3857 17.6194 17.412 17.6466L17.6502 17.912C17.624 17.9654 17.624 18.018 17.624 18.0714C17.6502 18.0977 17.6774 18.1248 17.6774 18.1511C17.6774 18.2571 17.9157 18.7345 18.0488 18.7345C18.1285 18.7345 18.1548 18.6811 18.1285 18.5751V18.3631C18.1285 18.2308 18.1022 18.0714 18.0488 17.9128C17.9691 17.7805 17.9165 17.5948 17.8631 17.4354V17.382C17.8631 17.3023 17.9165 17.2226 18.0225 17.17C18.1022 17.1166 18.1548 17.064 18.1548 17.064C18.2345 17.0106 18.3142 16.9317 18.4202 16.8783C18.4999 16.8249 18.5796 16.6926 18.6322 16.6129L18.7119 16.4272V16.3212H18.7916C18.7916 16.3212 18.845 16.2949 18.845 16.2415C18.845 16.2415 18.8187 16.2152 18.7916 16.2152C18.7653 16.1889 18.6856 16.1355 18.6322 16.0829L18.6856 16.0295C18.7653 15.9498 18.7916 15.7641 18.739 15.6853L18.951 15.5793C18.8976 15.6853 19.057 15.7115 19.1104 15.6853L19.2164 15.447C19.163 15.3147 19.1367 15.447 19.2164 15.2876C19.2961 15.2613 19.3758 15.2341 19.4547 15.1816C19.5344 15.1553 19.587 15.1282 19.6667 15.1282C19.693 15.1282 19.7201 15.1544 19.7201 15.1544C19.7735 15.1544 19.7998 15.1282 19.7998 15.1282C19.7998 15.0484 19.7735 14.9959 19.7464 14.9959L19.8787 14.7042C19.9846 14.7042 20.0906 14.6508 20.1441 14.5448L20.3561 14.5185C20.4095 14.5185 20.4358 14.4922 20.4358 14.4388V14.3853L20.8334 14.2794L20.8869 14.1471L20.7809 13.9877C20.7809 13.9877 20.8072 13.9614 20.8072 13.9342C20.8072 13.9071 20.7809 13.8808 20.7537 13.8545C20.7275 13.8545 20.7003 13.8282 20.674 13.8282C20.6477 13.802 20.6206 13.7748 20.5943 13.7748H20.8063C20.8063 13.7748 20.9123 13.7485 20.9123 13.6688C20.9123 13.5628 20.8589 13.5366 20.7529 13.5366C20.4612 13.5366 20.0109 13.6425 19.8515 13.9605L19.6921 14.0402L19.9041 13.8282L19.9304 13.7748C19.9304 13.7485 19.9041 13.7214 19.8507 13.6951H19.771C20.0364 13.6951 20.1949 13.6154 20.3009 13.5357C20.3806 13.456 20.4603 13.3763 20.6452 13.3237C20.8309 13.35 21.0166 13.35 21.2015 13.35C21.3609 13.3237 21.5194 13.3237 21.7051 13.3237C21.7848 13.2703 21.8908 13.1643 21.9434 13.0583L22.2088 13.032C22.2622 13.0854 22.4471 12.9523 22.4471 12.8726C22.4471 12.7929 22.4208 12.7666 22.3411 12.7403C22.2614 12.714 22.1817 12.6606 22.1817 12.5809V12.5012C22.208 12.4749 22.1817 12.4478 22.1554 12.4478C22.0494 12.4478 21.784 12.5801 21.7051 12.6335C21.6517 12.6869 21.6254 12.6072 21.6254 12.5538L21.6517 12.5801L21.7577 12.5266L22.0231 12.4206L22.0494 12.3944C22.0494 12.2884 21.89 12.2621 21.8374 12.2621C21.8111 12.2621 21.7577 12.2884 21.7051 12.3155C21.6517 12.3155 21.5991 12.3155 21.5991 12.2621L21.6254 12.2087C21.4397 12.0764 21.2812 11.811 21.2812 11.7313V11.6253C21.3074 11.599 21.2812 11.599 21.2277 11.599H21.148C21.1217 11.6253 21.0946 11.599 21.0946 11.5456C21.0946 11.4921 20.9886 11.2013 20.8563 11.2013L20.7766 11.281C20.7766 11.3344 20.7503 11.3607 20.6969 11.387C20.6435 11.4133 20.6172 11.4404 20.6172 11.4667H20.5909L20.3255 11.6261C20.3255 11.5727 20.2992 11.5727 20.2721 11.5998C20.2458 11.5998 20.2458 11.6261 20.1924 11.6261H20.139C20.2713 11.6261 20.245 11.4404 20.139 11.4404L19.927 11.4667C19.8736 11.4667 19.8736 11.4667 19.927 11.4133C19.9533 11.3599 20.0067 11.3073 19.9533 11.2539C19.9533 11.2005 19.927 11.2005 19.8999 11.2276L19.9533 11.1479C20.0067 11.1216 19.927 11.0156 19.8736 10.9622L19.6353 10.9359L19.4759 10.7765C19.4496 10.8028 19.4225 10.7765 19.3699 10.7502C19.3436 10.7239 19.2902 10.6705 19.2639 10.6705L19.0782 10.7502L18.6008 10.6442C18.5474 10.6442 18.4685 10.6705 18.4685 10.7502C18.4685 10.7765 18.4685 10.8036 18.4948 10.8036C18.5482 10.8299 18.5482 10.857 18.5482 10.8833C18.5482 10.9096 18.5745 11.0156 18.6016 11.1487C18.6016 11.281 18.6016 11.3344 18.5219 11.3081L18.4159 11.4676C18.4159 11.521 18.4694 11.5473 18.4956 11.5473C18.5754 11.6007 18.6551 11.6795 18.7076 11.7592C18.7611 11.8127 18.7611 11.8915 18.7339 11.9712L18.2302 12.3689V12.3952C18.2302 12.4749 18.2302 12.5275 18.2565 12.5809C18.3099 12.6343 18.3099 12.7132 18.3625 12.7929C18.4948 12.8463 18.4948 12.8989 18.3888 12.9523C18.3354 12.9523 18.2828 12.9786 18.2294 13.0057L18.176 13.0592C18.176 13.0854 18.1497 13.0854 18.1226 13.0854H17.9903C17.9903 13.0854 17.9903 13.0592 18.0166 13.0592C18.0166 13.0592 18.0428 13.0329 18.0428 13.0057L17.8046 12.8735L17.6986 12.6878C17.7249 12.608 17.7249 12.5555 17.6986 12.5283C17.6723 12.5012 17.6723 12.4486 17.6723 12.3961C17.6723 12.3435 17.6189 12.2104 17.5129 12.2104C17.3806 12.2104 17.2746 12.2366 17.1415 12.2638C17.1949 12.2375 17.0881 12.1044 17.0618 12.1044C16.9295 12.1044 16.7701 12.0509 16.5844 11.945C16.3987 11.839 16.2664 11.7855 16.1604 11.7855C16.0807 11.7855 15.9221 11.8118 15.8161 11.8652C15.8695 11.839 15.8695 11.8118 15.8958 11.733L15.7364 11.4676L15.7101 11.4413C15.6567 11.4413 15.6041 11.4676 15.5507 11.521C15.4973 11.5473 15.4184 11.521 15.4184 11.415C15.4184 11.3887 15.4447 11.3616 15.4447 11.3616C15.471 11.3353 15.471 11.3353 15.4447 11.3081C15.4447 11.2284 15.471 11.1487 15.5507 11.0699C15.6041 11.0164 15.6304 10.9105 15.6567 10.8316C15.7101 10.8053 15.7101 10.7782 15.7101 10.7519C15.7101 10.6985 15.7364 10.6985 15.7636 10.6985C15.817 10.6985 15.8958 10.6722 15.9493 10.645C16.0027 10.5916 16.0553 10.5653 16.135 10.5653L16.1612 10.4856C16.1612 10.4593 16.0815 10.4322 15.923 10.4059C15.7373 10.3796 15.6576 10.3796 15.6576 10.3262L15.6838 10.2999C15.8433 10.3533 15.9755 10.3796 16.0553 10.3796C16.2147 10.4059 16.2935 10.3533 16.4529 10.2736C16.5064 10.2474 16.6649 10.1939 16.7972 10.1142C16.7972 10.0879 16.7709 10.0879 16.6912 10.0608H16.7972L16.9829 9.95481V9.84882L16.9295 9.7954L17.1949 9.74198C17.1686 9.68856 17.2212 9.66227 17.2483 9.66227C17.3017 9.66227 17.3543 9.68856 17.4077 9.74198C17.4612 9.7954 17.4874 9.7954 17.5137 9.7954L17.752 9.71569C17.752 9.6894 17.7783 9.6894 17.8317 9.6894C17.8851 9.66312 17.9114 9.63598 17.8851 9.6097L17.6994 9.424C17.646 9.424 17.6197 9.34429 17.6731 9.34429C17.7528 9.34429 17.8054 9.318 17.7528 9.2383C17.6994 9.21201 17.6206 9.15859 17.5409 9.1323C17.4612 9.07888 17.3814 9.0526 17.3026 9.0526C17.2492 9.0526 17.1432 9.07888 17.1432 9.15859C17.1432 9.21201 17.1695 9.21201 17.1966 9.21201C17.25 9.21201 17.2763 9.2383 17.2763 9.26543C17.3297 9.29172 17.3026 9.31885 17.25 9.31885H17.1966C17.1432 9.31885 17.0643 9.37227 17.0109 9.47827C16.9575 9.55797 16.8786 9.63768 16.7989 9.66397C16.7726 9.66397 16.7726 9.66397 16.7726 9.63768C16.7989 9.61139 16.7726 9.61139 16.7726 9.58426C16.7463 9.55797 16.7192 9.53084 16.6929 9.53084C16.6395 9.50455 16.5869 9.50455 16.5869 9.47742C16.5869 9.424 16.6403 9.39771 16.6929 9.318C16.7192 9.2383 16.6395 9.21201 16.5072 9.21201C16.4538 9.21201 16.4012 9.2383 16.3749 9.29172C16.3486 9.318 16.3215 9.37142 16.2952 9.424L16.0298 9.1323L15.8178 9.10602C15.8178 9.0526 15.8441 9.00002 15.8712 8.9466C15.9247 8.84061 15.7118 8.70833 15.633 8.62862C15.6067 8.62862 15.5533 8.60233 15.5007 8.60233C15.4744 8.60233 15.315 8.73461 15.209 8.78804C15.1556 8.81432 15.1293 8.84146 15.1293 8.86774C15.1293 8.92116 15.1827 8.92116 15.2616 8.92116H15.2353C15.1819 8.92116 15.1556 8.94745 15.1556 9.02716C15.1556 9.05344 15.3676 9.10686 15.421 9.10686C15.4744 9.10686 15.527 9.10686 15.527 9.13315C15.5533 9.15944 15.5533 9.15944 15.6067 9.15944L15.6864 9.13315V9.18657L15.6601 9.23999L15.6864 9.3197L15.421 9.45198L15.3947 9.47827C15.3684 9.47827 15.3413 9.47827 15.3413 9.50455C15.3413 9.53084 15.3413 9.58426 15.3947 9.63683C15.421 9.69025 15.3947 9.71654 15.2624 9.71654L15.1827 9.66312C15.1827 9.6097 15.1293 9.55713 14.997 9.5037C14.7587 9.424 14.3348 9.39771 13.9634 9.39771C13.7777 9.37142 13.6454 9.37142 13.5394 9.37142L13.1417 9.5037L13.2477 9.71569C13.2214 9.71569 13.168 9.74198 13.168 9.74198C13.062 9.66227 12.9026 9.5037 12.85 9.5037L12.6643 9.47742C12.0809 9.5037 11.3924 10.0608 10.7301 10.7231C10.0679 11.3853 9.48449 12.1273 9.1928 12.5784H9.24622C9.29964 12.5784 9.32592 12.5521 9.40563 12.5249C9.45905 12.4987 9.48534 12.5512 9.48534 12.6309C9.48534 12.6844 9.48534 12.7106 9.45905 12.7632C9.43277 12.8158 9.48534 12.8429 9.59133 12.8429C9.61762 12.8429 9.64475 12.8166 9.64475 12.7632C9.67104 12.7098 9.67104 12.7098 9.67104 12.7632L9.72446 12.9489V12.9752C9.72446 13.0015 9.69817 13.0286 9.67104 13.0549C9.59133 13.0812 9.67104 13.1609 9.75075 13.1609H9.88303L9.93645 13.1346L9.96273 13.1083C9.96273 13.2143 10.0687 13.2406 10.1484 13.2406H10.1747C10.1747 13.2406 10.1484 13.294 10.1213 13.3203C10.0679 13.3203 10.0679 13.3466 10.1213 13.3737L10.3867 13.4272V13.4535L10.5461 13.7977C10.5461 13.8511 10.4927 13.9834 10.4401 13.9834C10.3876 13.9834 10.3867 13.9571 10.3867 13.93C10.413 13.93 10.413 13.9037 10.413 13.8503C10.413 13.824 10.3867 13.7969 10.3867 13.7706C10.3604 13.7443 10.307 13.7443 10.201 13.7443C10.1747 13.7443 10.095 13.7443 10.1476 13.824L10.2799 14.1157L10.3333 14.1691C10.1739 14.1691 10.1476 14.6991 10.1476 14.8585L10.1739 15.0705L10.2002 15.1502V15.1765L10.1739 15.4148L10.4919 15.9447H10.5716C10.5716 15.971 10.5716 15.9981 10.5453 16.0244C10.519 16.0507 10.519 16.0779 10.519 16.1304L10.625 16.2101C10.625 16.3695 10.6784 16.3958 10.8107 16.5281C10.8107 16.6078 10.9167 16.7138 11.0761 16.8198C11.2618 16.8995 11.3678 16.9521 11.4204 16.9792C11.5264 17.3506 11.7121 17.7475 11.9766 17.9866L12.0029 18.146L11.9495 18.1994C11.8961 18.1994 11.8961 18.2257 11.9232 18.2528L12.1352 18.3588C12.1886 18.3054 12.2149 18.3588 12.2675 18.4385C12.3209 18.5445 12.3472 18.598 12.3735 18.6242V18.704L12.5057 18.8897L12.5592 18.9431L12.6126 18.8108C12.5592 18.6785 12.3743 18.3868 12.2149 18.1485C12.1352 18.0163 12.0555 17.8831 11.9766 17.7771C11.9232 17.6974 11.8969 17.6449 11.8969 17.6177C11.8969 17.5906 11.8706 17.2997 11.8435 17.2463C11.8698 17.2726 11.9495 17.2997 12.0029 17.326C12.0826 17.3523 12.1623 17.3795 12.2149 17.4057C12.2412 17.6177 12.3209 17.7771 12.4532 17.9094C12.5592 18.0154 12.6651 18.1477 12.7449 18.3071C12.6914 18.3605 12.7983 18.3605 12.8509 18.3605C12.8771 18.414 12.8771 18.4402 12.8771 18.5462C13.1154 18.7845 13.5928 19.3416 13.5928 19.5799V19.6062L13.5394 19.7656C13.6454 20.0039 13.8837 20.1896 14.1228 20.2693H14.1762C14.3085 20.349 14.4942 20.4287 14.6799 20.5075C14.8393 20.6135 14.9979 20.6932 15.1573 20.7458L15.4227 20.5864C15.555 20.6127 15.7144 20.7458 15.9001 20.9044C16.0858 21.063 16.3241 21.2486 16.642 21.3021C16.748 21.2224 16.8014 21.2486 16.8014 21.3555V21.4089L17.0931 21.7532L17.1466 21.9126C17.306 22.0186 17.4908 22.178 17.5705 22.3629L17.5731 22.3662ZM14.155 9.03733L14.1287 8.98391C14.0753 8.95762 13.943 8.9042 13.8904 8.9042C13.8642 8.9042 13.8107 8.93049 13.7047 8.95762C13.519 9.06362 13.2273 9.14333 13.0154 9.24932C12.9094 9.30274 12.8297 9.32903 12.7771 9.32903C12.8831 9.32903 12.9891 9.30274 13.0951 9.24932C13.1748 9.1959 13.2808 9.16961 13.3868 9.16961L13.4665 9.22303C13.5199 9.24932 13.5462 9.24932 13.5987 9.24932C13.625 9.24932 13.6522 9.24932 13.7047 9.30274C13.7582 9.27645 13.8107 9.27645 13.8904 9.32903L13.9701 9.27561V9.16961L13.9439 9.11619L13.9973 9.14248C14.0507 9.14248 14.1033 9.11619 14.1567 9.03648L14.155 9.03733ZM18.1556 24.565L18.1819 24.7244C18.1819 24.7778 18.1556 24.7778 18.1285 24.8304C18.0488 24.8838 17.9165 24.9627 17.9165 25.1221C17.9165 25.1484 17.9428 25.1755 17.9428 25.2281C17.9691 25.2544 17.9962 25.2815 17.9962 25.3341C17.9962 25.3604 17.9699 25.3875 17.9699 25.4138C19.7981 25.0958 21.4414 24.2216 22.7133 22.8699H22.6871C22.6336 22.8962 22.5548 22.8962 22.5276 22.8699L22.4479 22.8962L22.3157 22.8699H22.236C22.1825 22.7902 22.13 22.7376 22.0503 22.6842L22.024 22.6579C21.9977 22.6579 21.9705 22.6579 21.9705 22.7114C21.9705 22.4731 21.7848 22.2611 21.5729 22.2611C21.5729 22.2874 21.5466 22.2874 21.5466 22.2874H21.4931L21.4397 22.2611H21.5194L21.5729 22.1017L21.4406 22.022L21.4143 22.0483C21.3083 22.022 21.2286 21.9686 21.176 21.8626L21.0963 21.8363V21.8626L21.0429 21.8889C20.9369 21.9151 20.8572 21.9423 20.8046 21.9686C20.6986 21.9423 20.6189 21.8889 20.5926 21.8626L20.2746 21.8889C20.2746 21.7829 20.2212 21.6506 20.0889 21.6506C19.9295 21.6506 19.7175 21.6506 19.665 21.8363C19.665 21.8897 19.6913 21.9686 19.7184 21.9957V22.1017L19.6921 22.1551L19.6658 22.1814H19.6395L19.5598 21.9957L19.6395 21.8897C19.6132 21.8363 19.6132 21.81 19.6132 21.7574C19.6132 21.7048 19.587 21.6777 19.587 21.6251L19.5607 21.5989H19.481L19.3216 21.7048H19.2156L19.1893 21.7583C19.163 21.7583 19.163 21.7846 19.163 21.8117C19.163 21.8117 19.1367 21.8117 19.1367 21.838L19.1104 21.8117H19.0044C18.951 21.8651 18.9247 21.944 18.8984 22.0237L18.9518 22.0771L18.8196 22.1305L18.7933 22.1839L18.7136 22.2374V22.2636H18.6873V22.3959H18.661C18.6347 22.2899 18.555 22.1839 18.3956 22.1042H18.3159V22.1577C18.3159 22.2111 18.3693 22.2374 18.4219 22.2636C18.4753 22.3171 18.5016 22.3696 18.5279 22.3959C18.5016 22.3696 18.4482 22.3959 18.4482 22.4222V22.4756L18.6076 22.7139V23.1642L18.661 23.2702C18.6076 23.4024 18.555 23.5356 18.4753 23.6144V23.5881L18.4219 23.6144L18.3956 23.6407L18.3693 23.7467L18.3956 23.773V23.7993L18.3422 23.7459L18.3159 23.9053L18.1836 23.9587C18.1302 23.985 18.1039 24.0121 18.1302 24.091C18.1302 24.1444 18.1039 24.1707 18.0505 24.197L18.0768 24.2504L18.0233 24.3301C18.0233 24.3564 18.0233 24.3835 17.9971 24.3835V24.4895L18.0233 24.6752L18.0768 24.7015L18.1302 24.6752L18.1556 24.565Z" fill="#03989E"/>
</svg>
