<svg width="12" height="21" viewBox="0 0 12 21" fill="none" xmlns="http://www.w3.org/2000/svg">
<path fill-rule="evenodd" clip-rule="evenodd" d="M8.795 0.601562H3.205C2.09 0.601562 1.686 0.717563 1.279 0.935563C0.876384 1.1487 0.547137 1.47795 0.334 1.88056C0.116 2.28756 0 2.69156 0 3.80656V17.3966C0 18.5106 0.116 18.9156 0.334 19.3226C0.552 19.7296 0.872 20.0496 1.279 20.2676C1.686 20.4856 2.09 20.6016 3.205 20.6016H8.795C9.909 20.6016 10.314 20.4856 10.721 20.2676C11.128 20.0496 11.448 19.7296 11.666 19.3226C11.884 18.9156 12 18.5116 12 17.3966V3.80656C12 2.69156 11.884 2.28756 11.666 1.88056C11.4529 1.47795 11.1236 1.1487 10.721 0.935563C10.314 0.717563 9.91 0.601562 8.795 0.601562ZM2 16.5966V4.60656H10V16.5966H2Z" fill="white"/>
</svg>
