<svg width="32" height="29" viewBox="0 0 32 29" fill="none" xmlns="http://www.w3.org/2000/svg">
<path d="M29.3327 23.7103C29.9747 23.7106 30.592 23.9579 31.0567 24.401C31.5213 24.844 31.7977 25.4489 31.8286 26.0901C31.8594 26.7314 31.6424 27.36 31.2224 27.8456C30.8024 28.3312 30.2117 28.6367 29.5727 28.6986L29.3327 28.7103H2.66602C2.02399 28.71 1.40669 28.4627 0.942038 28.0196C0.477385 27.5765 0.200996 26.9717 0.170142 26.3304C0.139288 25.6891 0.356335 25.0606 0.776308 24.575C1.19628 24.0893 1.78698 23.7839 2.42602 23.722L2.66602 23.7103H29.3327ZM29.3327 12.0436C29.9957 12.0436 30.6316 12.307 31.1004 12.7759C31.5693 13.2447 31.8327 13.8806 31.8327 14.5436C31.8327 15.2067 31.5693 15.8425 31.1004 16.3114C30.6316 16.7802 29.9957 17.0436 29.3327 17.0436H2.66602C2.00297 17.0436 1.36709 16.7802 0.898249 16.3114C0.429408 15.8425 0.166016 15.2067 0.166016 14.5436C0.166016 13.8806 0.429408 13.2447 0.898249 12.7759C1.36709 12.307 2.00297 12.0436 2.66602 12.0436H29.3327ZM29.3327 0.376953C29.9957 0.376953 30.6316 0.640345 31.1004 1.10919C31.5693 1.57803 31.8327 2.21391 31.8327 2.87695C31.8327 3.53999 31.5693 4.17588 31.1004 4.64472C30.6316 5.11356 29.9957 5.37695 29.3327 5.37695H2.66602C2.00297 5.37695 1.36709 5.11356 0.898249 4.64472C0.429408 4.17588 0.166016 3.53999 0.166016 2.87695C0.166016 2.21391 0.429408 1.57803 0.898249 1.10919C1.36709 0.640345 2.00297 0.376953 2.66602 0.376953H29.3327Z" fill="#03989E"/>
</svg>
