<svg width="462" height="450" viewBox="0 0 462 450" fill="none" xmlns="http://www.w3.org/2000/svg">
<path d="M381.942 228.895C294.348 178.311 152.75 178.311 65.7508 228.895C-21.2983 279.48 -20.8524 361.476 66.7417 412.06C154.385 462.645 295.933 462.645 382.982 412.06C470.031 361.476 469.536 279.48 381.942 228.895Z" fill="#F5F5F5"/>
<path d="M418.16 327.342C425.988 322.784 438.671 322.784 446.499 327.342C454.278 331.851 454.228 339.233 446.4 343.741C438.572 348.25 425.889 348.25 418.061 343.741C410.282 339.233 410.332 331.851 418.16 327.342Z" fill="#E6E6E6"/>
<path d="M31.3682 391.748C52.2263 379.709 85.9659 379.709 106.675 391.748C127.385 403.787 127.286 423.308 106.428 435.347C85.5695 447.386 51.8795 447.386 31.1205 435.347C10.411 423.308 10.5101 403.787 31.3682 391.748Z" fill="#E6E6E6"/>
<path d="M122.133 289.738C102.464 278.392 70.7062 278.392 51.1857 289.738C31.6653 301.083 31.7644 319.514 51.4335 330.859C71.053 342.205 102.86 342.205 122.381 330.859C141.901 319.514 141.802 301.083 122.133 289.738Z" fill="#E6E6E6"/>
<path d="M158.895 374.458C180.942 361.725 216.614 361.725 238.513 374.458C260.461 387.191 260.312 407.851 238.265 420.583C216.218 433.316 180.546 433.316 158.598 420.583C136.699 407.851 136.799 387.191 158.895 374.458Z" fill="#E6E6E6"/>
<path d="M151.314 245.842L395.716 385.952L408.25 378.669L163.8 238.559L151.314 245.842Z" fill="#E6E6E6"/>
<path d="M72.7344 60.002C73.3785 61.4883 72.6353 63.2224 71.149 63.8664C69.6131 64.5105 67.8791 63.8169 67.235 62.281C66.5909 60.7947 67.3341 59.0607 68.8204 58.4166C70.3068 57.7725 72.0904 58.4661 72.7344 59.9525C72.7344 59.9855 72.7344 60.002 72.7344 60.002Z" fill="#37474F"/>
<path d="M66.7401 62.7259C64.5106 62.4782 63.7674 60.7937 65.1547 58.9605C66.7896 57.0283 69.2173 55.9879 71.6945 56.1861C73.9735 56.4338 74.7167 58.1183 73.3295 59.9514C71.6945 61.8836 69.2668 62.9241 66.7401 62.7259Z" fill="#455A64"/>
<path d="M66.2454 61.784C63.9168 61.4867 63.1736 59.7527 64.5609 57.87C66.2454 55.8882 68.7721 54.8478 71.3484 54.9964C73.677 55.2937 74.4202 57.0277 72.9834 58.9104C71.3484 60.8922 68.8217 61.9821 66.2454 61.784Z" fill="#37474F"/>
<path d="M65.6993 60.844C63.3212 60.5467 62.5284 58.7631 64.0148 56.8309C65.7488 54.7996 68.3251 53.7096 71.0005 53.9078C73.3786 54.2051 74.1713 55.9887 72.7345 57.9209C70.951 59.9522 68.3747 61.0422 65.6993 60.844Z" fill="#455A64"/>
<path d="M65.1537 59.8018C62.6765 59.5045 61.8838 57.6714 63.3702 55.6896C65.1537 53.5592 67.8291 52.4197 70.5541 52.6179C73.0313 52.9151 73.824 54.7483 72.3377 56.7796C70.5541 58.8604 67.8787 59.9999 65.1537 59.8018Z" fill="#37474F"/>
<path d="M64.5603 58.7629C62.0335 58.4161 61.2408 56.583 62.7767 54.5021C64.6098 52.3717 67.3348 51.2322 70.1092 51.4304C72.636 51.7276 73.4782 53.6103 71.9424 55.6416C70.1092 57.8216 67.3843 58.9611 64.5603 58.7629Z" fill="#455A64"/>
<path d="M54.6998 25.2706C47.5159 28.2928 44.1469 36.5667 47.1691 43.8002C47.1691 43.8002 47.1691 43.8167 47.1691 43.8497C51.5785 54.2044 60.8433 52.3217 62.6269 56.4835C63.0728 57.2266 63.8655 57.7221 64.7573 57.7221C67.185 57.9202 69.5135 56.9294 71.099 55.0467C71.6935 54.4026 71.8917 53.5108 71.6439 52.6686C69.8604 48.5068 77.6388 43.1561 73.2789 32.8013C70.2072 25.5679 61.9333 22.1989 54.7494 25.2211C54.7163 25.2541 54.6998 25.2706 54.6998 25.2706Z" fill="#03989E"/>
<g opacity="0.6">
<path d="M54.6998 25.2706C47.5159 28.2928 44.1469 36.5667 47.1691 43.8002C47.1691 43.8002 47.1691 43.8167 47.1691 43.8497C51.5785 54.2044 60.8433 52.3217 62.6269 56.4835C63.0728 57.2266 63.8655 57.7221 64.7573 57.7221C67.185 57.9202 69.5135 56.9294 71.099 55.0467C71.6935 54.4026 71.8917 53.5108 71.6439 52.6686C69.8604 48.5068 77.6388 43.1561 73.2789 32.8013C70.2072 25.5679 61.9333 22.1989 54.7494 25.2211C54.7163 25.2541 54.6998 25.2706 54.6998 25.2706Z" fill="white"/>
</g>
<path d="M65.3024 56.8785C63.717 56.6307 63.1225 55.4417 64.1133 54.1535C65.3024 52.7167 67.086 51.9736 68.9191 52.1222C70.5045 52.3204 71.0495 53.559 70.0586 54.8471C68.8696 56.2344 67.1355 56.9775 65.3024 56.8785Z" fill="#03989E"/>
<path fill-rule="evenodd" clip-rule="evenodd" d="M68.7205 53.4119C68.4728 53.511 68.225 53.4119 68.0764 53.1642C67.036 50.6374 66.2928 48.0116 65.8469 45.3362C65.7148 44.5435 65.6322 43.7673 65.5992 43.0076C65.1368 43.0076 64.6909 42.9746 64.2615 42.9086C63.4358 42.7764 62.6431 42.5287 61.8834 42.1654C61.6192 42.9581 61.2393 43.6847 60.7439 44.3453C60.4796 44.7087 60.1824 45.0555 59.8521 45.3858C60.4136 45.9473 60.9255 46.5418 61.3879 47.1693C63.0229 49.3493 64.4101 51.7274 65.4506 54.2542C65.5497 54.5019 65.4506 54.7496 65.2029 54.8487C64.9551 54.9478 64.6579 54.8487 64.5588 54.601C63.5184 52.1733 62.1807 49.8447 60.5952 47.7639C60.1328 47.1363 59.6374 46.5418 59.1089 45.9803C58.2667 46.5253 57.2262 46.6244 56.2849 46.2776C55.5913 46.0298 55.1949 45.2867 55.3436 44.5435C55.4426 44.0481 55.839 43.6517 56.3344 43.5031C57.4244 43.5031 58.4153 43.949 59.1585 44.7417C59.4557 44.4444 59.72 44.1306 59.9512 43.8004C60.4136 43.1398 60.7769 42.4296 61.0411 41.6699C60.1989 41.1745 59.5548 40.3818 59.3071 39.4405C59.208 38.8459 59.5548 38.3009 60.1493 38.0532C60.6943 37.8055 61.3384 37.9541 61.6852 38.4496C62.2302 39.2423 62.3788 40.2827 62.0816 41.224C62.8082 41.5874 63.5679 41.8186 64.3606 41.9177C64.757 41.9837 65.1698 42.0002 65.5992 41.9672C65.5497 40.9268 65.946 39.8864 66.6892 39.1432C67.1351 38.8459 67.6801 38.8459 68.126 39.1432C68.77 39.5395 69.0178 40.3818 68.7205 41.0754C68.3241 41.9672 67.5314 42.6113 66.5405 42.859C66.5736 43.6187 66.6561 44.3949 66.7883 45.1876C67.1846 47.8134 67.9278 50.3402 68.9682 52.7678C69.0673 53.0156 68.9682 53.3128 68.7205 53.4119ZM56.4831 44.494C56.384 44.5435 56.2849 44.6921 56.2849 44.7912C56.1858 45.1876 56.5822 45.3858 56.6813 45.4353C57.2262 45.6335 57.8208 45.5839 58.3162 45.2867C57.8208 44.7912 57.2262 44.5435 56.5326 44.494H56.4831ZM66.6396 41.769C67.1846 41.6204 67.6305 41.2241 67.8287 40.6791C67.8782 40.58 68.0269 40.1341 67.6801 39.9359C67.4819 39.8368 67.3828 39.8864 67.2837 39.9359C67.036 40.0845 66.7387 40.7286 66.6396 41.769ZM60.5457 38.945C60.3971 38.9946 60.298 39.1927 60.298 39.3414C60.4466 39.8864 60.7934 40.3323 61.2889 40.6295C61.3879 40.0845 61.2889 39.5395 60.9916 39.0441C60.8925 38.8955 60.6943 38.8459 60.5457 38.945Z" fill="white"/>
<path d="M52.6697 20.2661C52.6037 20.3322 52.5376 20.3817 52.4715 20.4147C52.0256 20.6129 51.4807 20.4147 51.2825 19.9193L49.3503 15.5099C49.1521 15.0144 49.3503 14.4694 49.7962 14.2713C49.8292 14.2713 49.8457 14.2713 49.8457 14.2713C50.2916 14.0731 50.8366 14.2713 51.0348 14.7667L52.967 19.1761C53.1156 19.5725 53.0165 20.0184 52.6697 20.2661Z" fill="#E0E0E0"/>
<path d="M44.3467 26.9057C43.9999 27.1534 43.554 27.1534 43.2072 26.9057L39.3427 24.0321C38.9464 23.7349 38.8968 23.1403 39.2436 22.744C39.5409 22.3972 40.0363 22.2981 40.4327 22.5458L44.2971 25.4194C44.6935 25.7166 44.7926 26.3112 44.4953 26.7075C44.4623 26.7736 44.4128 26.8396 44.3467 26.9057Z" fill="#E0E0E0"/>
<path d="M40.4323 36.8155C40.2341 36.9641 39.9864 37.0632 39.7387 37.0137L34.9329 36.4687C34.3879 36.4192 34.0411 35.9237 34.0906 35.4283C34.1402 34.9328 34.6356 34.586 35.1311 34.6356L39.9368 35.1806C40.4323 35.2301 40.7791 35.676 40.7295 36.1714C40.7295 36.4192 40.5809 36.6669 40.4323 36.8155Z" fill="#E0E0E0"/>
<path d="M41.969 47.3687C41.903 47.4347 41.8369 47.4843 41.7709 47.5173L37.3614 49.4495C36.866 49.6477 36.3705 49.4495 36.1228 49.0036C36.1228 48.9706 36.1228 48.9541 36.1228 48.9541C35.9246 48.5082 36.1228 47.9632 36.6183 47.765L41.0277 45.7833C41.5231 45.5851 42.0186 45.8328 42.2167 46.3282C42.3654 46.675 42.2663 47.1209 41.969 47.3687Z" fill="#E0E0E0"/>
<path d="M84.1789 29.0874C84.1459 29.1534 84.0964 29.2195 84.0303 29.2855L79.5713 31.1682C79.0759 31.3664 78.5309 31.1187 78.3327 30.6728C78.1346 30.1773 78.3823 29.6323 78.8282 29.4342L83.2376 27.5515C83.733 27.3533 84.278 27.601 84.4762 28.0469C84.6248 28.4433 84.4762 28.8396 84.1789 29.0874Z" fill="#E0E0E0"/>
<path d="M73.1321 22.6447C72.7358 22.9915 72.1413 22.8924 71.844 22.4961C71.5963 22.1493 71.5963 21.7034 71.844 21.3566L74.7176 17.4921C75.0148 17.0958 75.5598 16.9967 76.0057 17.2939C76.0057 17.2939 76.0057 17.3105 76.0057 17.3435C76.4021 17.6407 76.5011 18.1857 76.2039 18.5821C76.2039 18.6151 76.2039 18.6316 76.2039 18.6316L73.3303 22.4961C73.2643 22.5621 73.1982 22.6117 73.1321 22.6447Z" fill="#E0E0E0"/>
<path d="M63.2227 18.731C62.8263 19.0283 62.2318 18.9787 61.9345 18.5824C61.7859 18.3842 61.7363 18.1365 61.7363 17.8888L62.3309 13.1325C62.4299 12.6371 62.9254 12.3398 63.4208 12.4389C63.8667 12.538 64.164 12.8848 64.164 13.3307L63.619 18.1365C63.5695 18.3842 63.4208 18.5824 63.2227 18.731Z" fill="#E0E0E0"/>
<path d="M413.302 301.279L432.278 301.824L451.303 301.279C452.095 314.111 449.569 327.191 446.15 333.533H446.1C445.506 334.969 444.267 336.307 442.385 337.397C436.737 340.617 427.72 340.617 422.121 337.397C420.189 336.257 418.95 334.87 418.356 333.433C414.937 327.042 412.46 314.012 413.302 301.279Z" fill="white"/>
<path d="M418.901 293.5C411.42 297.761 411.419 304.747 418.802 309.057C426.184 313.318 438.223 313.318 445.655 309.057C453.136 304.747 453.136 297.761 445.754 293.5C438.372 289.19 426.332 289.19 418.901 293.5Z" fill="#EBEBEB"/>
<path d="M421.825 295.185C416.029 298.554 415.979 304.004 421.776 307.323C427.523 310.692 436.936 310.692 442.733 307.323C448.53 304.004 448.579 298.554 442.783 295.185C437.036 291.816 427.622 291.816 421.825 295.185Z" fill="#E0E0E0"/>
<g opacity="0.1">
<path d="M421.825 295.185C416.029 298.554 415.979 304.004 421.776 307.323C427.523 310.692 436.936 310.692 442.733 307.323C448.53 304.004 448.579 298.554 442.783 295.185C437.036 291.816 427.622 291.816 421.825 295.185Z" fill="black"/>
</g>
<path d="M441.99 262.387C445.062 258.523 448.629 255.104 451.503 251.042C453.435 248.317 455.02 244.948 454.227 241.678C453.484 238.656 450.66 236.377 447.589 235.832C444.517 235.237 441.296 236.178 438.621 237.813C435.995 239.448 433.815 241.777 431.883 244.254C421.281 257.581 416.078 275.12 417.763 292.114C417.961 294.046 418.308 296.127 419.547 297.613C420.884 299.248 423.213 299.942 425.195 299.347C430.397 297.811 429.703 290.826 430.545 286.713C431.685 281.065 433.716 275.616 436.491 270.562C438.076 267.688 439.909 264.964 441.99 262.387Z" fill="#455A64"/>
<path opacity="0.2" d="M441.99 262.387C445.062 258.523 448.629 255.104 451.503 251.042C453.435 248.317 455.02 244.948 454.227 241.678C453.484 238.656 450.66 236.377 447.589 235.832C444.517 235.237 441.296 236.178 438.621 237.813C435.995 239.448 433.815 241.777 431.883 244.254C421.281 257.581 416.078 275.12 417.763 292.114C417.961 294.046 418.308 296.127 419.547 297.613C420.884 299.248 423.213 299.942 425.195 299.347C430.397 297.811 429.703 290.826 430.545 286.713C431.685 281.065 433.716 275.616 436.491 270.562C438.076 267.688 439.909 264.964 441.99 262.387Z" fill="white"/>
<path d="M424.897 294.145C425.095 294.095 425.243 293.947 425.243 293.699C425.64 285.425 428.315 257.036 447.885 240.934C448.034 240.786 448.083 240.488 447.935 240.34C447.786 240.142 447.489 240.092 447.291 240.241C427.473 256.59 424.698 285.276 424.352 293.699C424.352 293.947 424.55 294.145 424.797 294.145C424.831 294.145 424.864 294.145 424.897 294.145Z" fill="#F0F0F0"/>
<path d="M422.024 295.037C422.619 298.307 425.443 302.32 428.366 303.856C431.289 305.342 434.708 305.738 437.977 305.441C441.297 305.144 444.567 304.202 447.738 303.112C449.323 302.617 451.057 301.874 451.206 299.942C451.305 298.951 450.859 297.96 450.116 297.217C449.785 296.919 449.439 296.639 449.075 296.375C448.332 295.78 448.679 294.591 449.62 294.541C450.545 294.475 451.47 294.36 452.395 294.195C454.525 293.798 456.606 293.005 458.241 291.569C459.43 290.479 460.371 289.091 460.916 287.556C461.412 286.267 461.511 284.633 460.52 283.642C459.975 283.097 459.182 282.898 458.39 282.7C457.696 282.568 457.002 282.453 456.309 282.353C455.367 282.205 455.219 280.917 456.061 280.57L459.034 279.331C459.826 278.984 460.718 278.638 461.263 277.944C462.155 276.854 462.105 275.269 461.808 273.881C461.461 272.048 460.817 270.265 460.421 268.432C459.975 266.598 459.727 264.666 460.223 262.833C454.723 262.288 449.026 262.536 443.675 263.973C442.09 264.369 440.455 264.914 439.166 265.905C437.333 267.391 436.887 269.621 437.086 271.999C437.086 272.445 436.491 272.643 436.243 272.246L434.361 268.729C433.816 267.688 432.528 267.292 431.438 267.837C429.803 268.58 428.366 269.819 427.127 271.206C425.839 272.692 425.145 274.724 425.294 276.705C425.542 279.43 425.988 282.155 426.681 284.831C426.83 285.475 426.087 286.02 425.492 285.574L425.393 285.524C424.898 285.178 424.254 284.93 423.659 285.029C421.975 285.227 421.529 286.912 421.43 288.348C421.281 290.429 421.628 292.857 422.024 295.037Z" fill="#455A64"/>
<path opacity="0.2" d="M422.024 295.037C422.619 298.307 425.443 302.32 428.366 303.856C431.289 305.342 434.708 305.738 437.977 305.441C441.297 305.144 444.567 304.202 447.738 303.112C449.323 302.617 451.057 301.874 451.206 299.942C451.305 298.951 450.859 297.96 450.116 297.217C449.785 296.919 449.439 296.639 449.075 296.375C448.332 295.78 448.679 294.591 449.62 294.541C450.545 294.475 451.47 294.36 452.395 294.195C454.525 293.798 456.606 293.005 458.241 291.569C459.43 290.479 460.371 289.091 460.916 287.556C461.412 286.267 461.511 284.633 460.52 283.642C459.975 283.097 459.182 282.898 458.39 282.7C457.696 282.568 457.002 282.453 456.309 282.353C455.367 282.205 455.219 280.917 456.061 280.57L459.034 279.331C459.826 278.984 460.718 278.638 461.263 277.944C462.155 276.854 462.105 275.269 461.808 273.881C461.461 272.048 460.817 270.265 460.421 268.432C459.975 266.598 459.727 264.666 460.223 262.833C454.723 262.288 449.026 262.536 443.675 263.973C442.09 264.369 440.455 264.914 439.166 265.905C437.333 267.391 436.887 269.621 437.086 271.999C437.086 272.445 436.491 272.643 436.243 272.246L434.361 268.729C433.816 267.688 432.528 267.292 431.438 267.837C429.803 268.58 428.366 269.819 427.127 271.206C425.839 272.692 425.145 274.724 425.294 276.705C425.542 279.43 425.988 282.155 426.681 284.831C426.83 285.475 426.087 286.02 425.492 285.574L425.393 285.524C424.898 285.178 424.254 284.93 423.659 285.029C421.975 285.227 421.529 286.912 421.43 288.348C421.281 290.429 421.628 292.857 422.024 295.037Z" fill="black"/>
<path opacity="0.2" d="M422.024 295.037C422.619 298.307 425.443 302.32 428.366 303.856C431.289 305.342 434.708 305.738 437.977 305.441C441.297 305.144 444.567 304.202 447.738 303.112C449.323 302.617 451.057 301.874 451.206 299.942C451.305 298.951 450.859 297.96 450.116 297.217C449.785 296.919 449.439 296.639 449.075 296.375C448.332 295.78 448.679 294.591 449.62 294.541C450.545 294.475 451.47 294.36 452.395 294.195C454.525 293.798 456.606 293.005 458.241 291.569C459.43 290.479 460.371 289.091 460.916 287.556C461.412 286.267 461.511 284.633 460.52 283.642C459.975 283.097 459.182 282.898 458.39 282.7C457.696 282.568 457.002 282.453 456.309 282.353C455.367 282.205 455.219 280.917 456.061 280.57L459.034 279.331C459.826 278.984 460.718 278.638 461.263 277.944C462.155 276.854 462.105 275.269 461.808 273.881C461.461 272.048 460.817 270.265 460.421 268.432C459.975 266.598 459.727 264.666 460.223 262.833C454.723 262.288 449.026 262.536 443.675 263.973C442.09 264.369 440.455 264.914 439.166 265.905C437.333 267.391 436.887 269.621 437.086 271.999C437.086 272.445 436.491 272.643 436.243 272.246L434.361 268.729C433.816 267.688 432.528 267.292 431.438 267.837C429.803 268.58 428.366 269.819 427.127 271.206C425.839 272.692 425.145 274.724 425.294 276.705C425.542 279.43 425.988 282.155 426.681 284.831C426.83 285.475 426.087 286.02 425.492 285.574L425.393 285.524C424.898 285.178 424.254 284.93 423.659 285.029C421.975 285.227 421.529 286.912 421.43 288.348C421.281 290.429 421.628 292.857 422.024 295.037Z" fill="white"/>
<path d="M430.795 303.41C430.795 303.261 431.934 297.762 435.254 290.528C435.254 290.396 435.303 290.281 435.402 290.182C435.501 289.95 435.6 289.719 435.7 289.488C434.758 280.867 431.34 274.823 431.29 274.773C431.191 274.575 431.241 274.278 431.488 274.129C431.686 274.03 431.984 274.08 432.083 274.328C432.132 274.377 435.254 279.926 436.443 288.002C440.159 280.471 446.203 271.652 455.418 265.211C455.666 265.063 455.914 265.112 456.062 265.311C456.211 265.558 456.161 265.806 455.963 265.955C446.401 272.594 440.357 281.809 436.74 289.439C444.172 285.822 452.099 287.259 452.445 287.308C452.693 287.358 452.842 287.605 452.842 287.853C452.792 288.051 452.644 288.2 452.445 288.2C452.412 288.233 452.363 288.233 452.297 288.2C452.198 288.2 443.577 286.615 436.096 290.826C432.826 297.96 431.686 303.46 431.686 303.559C431.637 303.757 431.488 303.905 431.34 303.905C431.274 303.938 431.208 303.938 431.141 303.905C430.894 303.856 430.745 303.608 430.795 303.41Z" fill="#F0F0F0"/>
<path d="M393.635 331.056L393.982 147.495C393.982 143.432 391.108 138.428 387.541 136.397L159.885 5.30307C158.151 4.26265 156.516 4.16356 155.377 4.80763L162.115 0.943186C163.254 0.200024 164.939 0.249568 166.772 1.29L394.428 132.384C397.995 134.465 400.868 139.419 400.819 143.482L400.521 327.092C400.521 329.025 399.877 330.362 398.787 331.106C398.688 331.172 398.573 331.238 398.441 331.304L391.802 335.168C392.941 334.475 393.635 333.087 393.635 331.056Z" fill="#03989E"/>
<path opacity="0.3" d="M162.115 0.943186C163.254 0.200024 164.939 0.249568 166.772 1.29L394.428 132.384C396.409 133.523 398.143 135.555 399.332 137.883L392.446 141.847C391.306 139.568 389.523 137.536 387.541 136.397L159.885 5.30307C158.151 4.26265 156.516 4.16356 155.377 4.80763L162.115 0.943186Z" fill="white"/>
<path opacity="0.2" d="M400.82 143.481L400.523 327.092C400.523 329.024 399.878 330.362 398.788 331.105C398.689 331.171 398.574 331.237 398.442 331.303L391.803 335.168C392.942 334.474 393.636 333.087 393.636 331.056L393.983 147.494C393.983 145.661 393.388 143.679 392.447 141.846L399.333 137.883C400.275 139.716 400.869 141.698 400.82 143.481Z" fill="white"/>
<path d="M393.932 155.819L393.635 331.057C393.635 333.088 392.941 334.476 391.801 335.169C391.768 335.202 391.735 335.219 391.702 335.219C391.669 335.252 391.653 335.268 391.653 335.268C390.464 335.863 388.928 335.764 387.194 334.773L159.538 203.679C155.971 201.598 153.098 196.644 153.098 192.532L153.444 17.0957L393.932 155.819Z" fill="#03989E"/>
<path opacity="0.2" d="M393.932 155.819L393.635 331.057C393.635 333.088 392.941 334.476 391.801 335.169C391.768 335.202 391.735 335.219 391.702 335.219C391.669 335.252 391.653 335.268 391.653 335.268C390.464 335.863 388.928 335.764 387.194 334.773L159.538 203.679C155.971 201.598 153.098 196.644 153.098 192.532L153.444 17.0957L393.932 155.819Z" fill="black"/>
<path d="M181.734 198.226L181.982 52.5664L377.781 165.131L377.533 310.543L181.734 198.226Z" fill="white"/>
<path d="M262.787 185.89L262.936 110.633L349.737 160.524L349.588 235.732L262.787 185.89Z" fill="#455A64"/>
<path d="M153.443 8.96783C153.443 6.98607 154.137 5.54928 155.276 4.85566C155.31 4.85566 155.326 4.85566 155.326 4.85566C155.326 4.85566 155.343 4.83915 155.376 4.80612C156.515 4.16205 158.15 4.26114 159.884 5.30156L387.54 136.395C391.107 138.427 393.98 143.431 393.98 147.493L393.931 155.817L153.443 17.0931V8.96783Z" fill="#03989E"/>
<path opacity="0.3" d="M153.443 8.96783C153.443 6.98607 154.137 5.54928 155.276 4.85566C155.31 4.85566 155.326 4.85566 155.326 4.85566C155.326 4.85566 155.343 4.83915 155.376 4.80612C156.515 4.16205 158.15 4.26114 159.884 5.30156L387.54 136.395C391.107 138.427 393.98 143.431 393.98 147.493L393.931 155.817L153.443 17.0931V8.96783Z" fill="black"/>
<g opacity="0.4">
<path d="M170.486 17.84C169.545 17.295 168.752 17.7409 168.752 18.8309C168.703 19.9704 169.495 21.3081 170.486 21.8531C171.428 22.4476 172.22 22.0017 172.22 20.8622C172.22 19.7722 171.477 18.385 170.486 17.84Z" fill="white"/>
<path d="M165.681 15.0646C164.74 14.5196 163.947 14.9655 163.947 16.0555C163.947 17.195 164.69 18.5327 165.681 19.1273C166.672 19.6722 167.465 19.2263 167.465 18.0868C167.465 16.9968 166.672 15.6096 165.681 15.0646Z" fill="white"/>
<path d="M160.877 12.2892C159.935 11.7443 159.143 12.1901 159.143 13.2801C159.143 14.4196 159.935 15.7573 160.877 16.3519C161.868 16.8968 162.66 16.4509 162.66 15.3114C162.66 14.2215 161.868 12.8838 160.877 12.2892Z" fill="white"/>
</g>
<path d="M161.817 73.0762L169.794 77.6838L169.744 86.8495L161.768 82.2418L161.817 73.0762Z" fill="white"/>
<path d="M169.695 99.4835L161.768 94.8759V85.7598L169.744 90.3674L169.695 99.4835Z" fill="white"/>
<path d="M161.671 131.787L169.598 136.395V145.511L161.621 140.903L161.671 131.787Z" fill="white"/>
<path d="M169.549 158.193L161.572 153.586L161.622 144.42L169.549 149.028V158.193Z" fill="white"/>
<path d="M161.67 119.104L169.647 123.711L169.597 132.877L161.67 128.269V119.104Z" fill="white"/>
<path fill-rule="evenodd" clip-rule="evenodd" d="M159.144 114.695L172.223 122.276L172.025 187.922L158.945 180.341L159.144 114.695ZM161.621 144.422V153.587L169.548 158.195L169.597 149.029L161.621 144.422ZM169.647 123.712L161.72 119.154L161.67 128.27L169.647 132.878V123.712ZM169.597 136.346L161.621 131.788V140.904L169.548 145.512L169.597 136.346ZM169.498 170.779L169.548 161.663L164.94 158.988L161.571 157.056V166.221L169.498 170.779ZM169.498 183.463V174.297L161.571 169.739L161.522 178.855L169.498 183.463Z" fill="#03989E"/>
<path fill-rule="evenodd" clip-rule="evenodd" d="M159.343 43.3516L172.422 50.9318L172.224 116.578L159.145 108.998L159.343 43.3516ZM169.846 52.4181L161.919 47.8105L161.869 56.9267L169.846 61.5343V52.4181ZM169.797 65.1015L165.189 62.4261L161.82 60.4938V69.61L169.747 74.2176L169.797 65.1015ZM169.797 77.7848L161.82 73.1772V82.2933L169.747 86.9009L169.797 77.7848ZM169.797 90.4681L161.82 85.8605L161.77 95.0261L169.747 99.5842L169.797 90.4681ZM169.747 103.151L161.82 98.5438L161.77 107.66L169.747 112.268V103.151Z" fill="#03989E"/>
<path fill-rule="evenodd" clip-rule="evenodd" d="M159.144 114.695L172.223 122.276L172.025 187.922L158.945 180.341L159.144 114.695ZM161.621 144.422V153.587L169.548 158.195L169.597 149.029L161.621 144.422ZM169.647 123.712L161.72 119.154L161.67 128.27L169.647 132.878V123.712ZM169.597 136.346L161.621 131.788V140.904L169.548 145.512L169.597 136.346ZM169.498 170.779L169.548 161.663L164.94 158.988L161.571 157.056V166.221L169.498 170.779ZM169.498 183.463V174.297L161.571 169.739L161.522 178.855L169.498 183.463Z" fill="#455A64"/>
<path fill-rule="evenodd" clip-rule="evenodd" d="M159.343 43.3516L172.422 50.9318L172.224 116.578L159.145 108.998L159.343 43.3516ZM169.846 52.4181L161.919 47.8105L161.869 56.9267L169.846 61.5343V52.4181ZM169.797 65.1015L165.189 62.4261L161.82 60.4938V69.61L169.747 74.2176L169.797 65.1015ZM169.797 77.7848L161.82 73.1772V82.2933L169.747 86.9009L169.797 77.7848ZM169.797 90.4681L161.82 85.8605L161.77 95.0261L169.747 99.5842L169.797 90.4681ZM169.747 103.151L161.82 98.5438L161.77 107.66L169.747 112.268V103.151Z" fill="#455A64"/>
<path d="M161.82 69.5595L161.87 60.4434L165.239 62.3756L169.797 65.051V74.1671L161.82 69.5595Z" fill="white"/>
<path d="M159.342 43.3511V38.248L172.421 45.8283V50.9314L159.342 43.3511Z" fill="white"/>
<path d="M161.869 56.9254V47.7598L169.846 52.3674V61.533L161.869 56.9254Z" fill="white"/>
<path d="M161.768 98.3945L169.695 103.002V112.168L161.719 107.56L161.768 98.3945Z" fill="white"/>
<path d="M161.572 166.22V157.104L164.941 159.036L169.549 161.662L169.499 170.827L161.572 166.22Z" fill="white"/>
<path d="M169.498 174.346V183.462L161.521 178.904V169.738L169.498 174.346Z" fill="white"/>
<path d="M329.574 238.409V242.571L262.541 203.332L262.591 199.17L329.574 238.409Z" fill="#37474F"/>
<path d="M309.361 253.421V257.583L262.492 229.937V225.775L309.361 253.421Z" fill="#37474F"/>
<path d="M297.569 232.713V236.875L262.541 216.066V211.904L297.569 232.713Z" fill="#37474F"/>
<path d="M329.525 258.675V262.836L262.492 223.597V219.436L329.525 258.675Z" fill="#37474F"/>
<path d="M329.574 244.802V248.964L262.541 209.675V205.514L329.574 244.802Z" fill="#37474F"/>
<path d="M203.287 179.352C207.696 181.928 211.263 188.121 211.263 193.224C211.263 198.328 207.647 200.359 203.237 197.832C198.778 195.256 195.211 189.063 195.211 183.96C195.26 178.857 198.828 176.825 203.287 179.352Z" fill="#E0E0E0"/>
<path d="M203.335 156.018C207.745 158.544 211.361 164.787 211.312 169.84C211.312 174.944 207.695 177.024 203.286 174.448C198.876 171.872 195.26 165.679 195.309 160.576C195.309 155.522 198.926 153.441 203.335 156.018Z" fill="#E0E0E0"/>
<path d="M225.136 168.602C229.545 171.128 233.162 177.371 233.113 182.424C233.113 187.528 229.496 189.608 225.086 187.032C220.677 184.456 217.06 178.263 217.11 173.16C217.11 168.106 220.727 166.025 225.136 168.602Z" fill="#E0E0E0"/>
<path d="M246.884 204.522C251.294 207.098 254.861 213.291 254.861 218.394C254.861 223.497 251.244 225.529 246.785 223.002C242.376 220.426 238.809 214.233 238.809 209.13C238.809 204.027 242.425 201.995 246.884 204.522Z" fill="#E0E0E0"/>
<path d="M246.935 181.186C251.345 183.712 254.961 189.955 254.912 195.008C254.912 200.112 251.295 202.192 246.886 199.616C242.427 197.04 238.859 190.847 238.859 185.744C238.909 180.69 242.476 178.609 246.935 181.186Z" fill="#E0E0E0"/>
<path d="M225.085 191.936C229.495 194.512 233.062 200.705 233.062 205.808C233.062 210.912 229.445 212.943 225.036 210.416C220.577 207.84 217.01 201.647 217.01 196.544C217.059 191.441 220.626 189.409 225.085 191.936Z" fill="#E0E0E0"/>
<path d="M417.071 105.036L331.161 55.4421C330.467 55.0458 329.873 55.0458 329.427 55.2935L322.986 59.9011C323.432 59.6534 324.027 59.6534 324.72 60.0497L410.63 109.643C411.968 110.436 413.058 112.319 413.058 113.904L412.711 190.599C412.711 191.342 412.463 191.837 412.017 192.134H412.067L418.557 187.477C418.904 187.18 419.152 186.685 419.152 185.941L419.498 109.297C419.498 107.711 418.408 105.829 417.071 105.036Z" fill="#03989E"/>
<path d="M412.71 190.598L413.057 113.904C413.057 112.319 411.967 110.436 410.629 109.643L324.72 60.0496C324.026 59.6532 323.432 59.6532 322.986 59.9009C322.54 60.1486 322.243 60.6936 322.243 61.4863L321.945 138.181C321.945 139.717 323.035 141.599 324.373 142.392L410.283 191.986C410.976 192.382 411.571 192.432 412.017 192.134C412.463 191.837 412.71 191.342 412.71 190.598Z" fill="#455A64"/>
<g opacity="0.3">
<path d="M335.324 116.234L335.274 125.35L327.396 120.792V111.676L335.324 116.234Z" fill="black"/>
</g>
<g opacity="0.3">
<path d="M335.324 133.275L335.274 142.341L327.396 137.783V128.717L335.324 133.275Z" fill="black"/>
</g>
<path d="M343.25 137.833L343.201 146.9L335.273 142.342L335.323 133.275L343.25 137.833Z" fill="white"/>
<g opacity="0.5">
<path d="M387.097 148.883L387.047 152.45L339.98 125.25V121.732L387.097 148.883Z" fill="white"/>
</g>
<g opacity="0.3">
<path d="M335.373 102.31L335.324 111.377L327.396 106.819L327.446 97.752L335.373 102.31Z" fill="black"/>
</g>
<g opacity="0.5">
<path d="M387.147 120.986V124.553L340.08 97.3536V93.8359L387.147 120.986Z" fill="white"/>
</g>
<g opacity="0.5">
<path d="M387.096 134.96V138.527L340.029 111.327V107.76L387.096 134.96Z" fill="white"/>
</g>
<g opacity="0.3">
<path d="M335.37 88.3374V97.4535L327.443 92.8954L327.493 83.7793L335.37 88.3374Z" fill="black"/>
</g>
<path d="M407.607 130.056L407.557 139.123L391.307 129.759L391.356 120.643L407.607 130.056Z" fill="white"/>
<path d="M407.508 157.947V167.013L391.258 157.649V148.533L407.508 157.947Z" fill="white"/>
<path d="M407.557 143.977V153.093L391.307 143.68V134.613L407.557 143.977Z" fill="white"/>
<g opacity="0.3">
<path d="M410.631 109.643C411.968 110.436 413.058 112.318 413.058 113.904V121.236L360.244 90.7171V80.5605L410.631 109.643Z" fill="black"/>
</g>
<path d="M355.487 82.3433L326.008 65.3496V68.7186L355.487 85.7123V82.3433Z" fill="white"/>
<path d="M403.346 108.006V108.947L409.291 112.366V111.424L403.346 108.006Z" fill="white"/>
<path d="M403.346 113.803L409.241 117.221V116.28L403.346 112.861V113.803Z" fill="white"/>
<path d="M403.346 110.583L409.241 114.001L409.291 113.06L403.346 109.592V110.583Z" fill="white"/>
<path d="M403.346 112.168L409.241 115.586V114.645L403.346 111.227V112.168Z" fill="white"/>
<path d="M417.071 105.036L331.161 55.4421C330.467 55.0458 329.873 55.0458 329.427 55.2935L322.986 59.9011C323.432 59.6534 324.027 59.6534 324.72 60.0497L410.63 109.643C411.373 110.089 412.017 110.882 412.463 111.774L419.251 107.86C418.854 106.72 418.012 105.581 417.071 105.036Z" fill="#37474F"/>
<path d="M412.463 111.775C412.86 112.469 413.058 113.212 413.058 113.906L412.711 190.6C412.711 191.343 412.463 191.839 412.018 192.136H412.067L418.557 187.479C418.904 187.182 419.152 186.686 419.152 185.943L419.499 109.298C419.499 108.852 419.4 108.357 419.251 107.861L412.463 111.775Z" fill="#263238"/>
<path d="M284.39 49.8938L198.53 0.349593C197.837 -0.0467599 197.193 -0.0963048 196.747 0.151416L190.355 4.75902C190.801 4.5113 191.396 4.56085 192.09 4.9572L277.95 54.5509C279.337 55.2941 280.427 57.2263 280.427 58.7622L280.08 93.8394C280.08 94.5826 279.832 95.1276 279.386 95.3753L285.877 90.7182C286.273 90.4209 286.521 89.9255 286.521 89.2318L286.868 54.1546C286.868 52.6187 285.778 50.6865 284.39 49.8938Z" fill="#03989E"/>
<path d="M280.08 93.8393L280.427 58.762C280.427 57.2261 279.337 55.2939 277.95 54.5507L192.09 4.95702C191.396 4.56066 190.802 4.51112 190.356 4.75884C189.91 5.00656 189.612 5.55155 189.612 6.34425L189.266 41.4215C189.266 42.9574 190.356 44.8896 191.743 45.6823L277.603 95.2265C278.296 95.6724 278.941 95.6724 279.386 95.3751C279.832 95.1274 280.08 94.5824 280.08 93.8393Z" fill="#455A64"/>
<g opacity="0.5">
<path d="M205.814 33.0968V45.6315L194.914 39.3394V26.8047L205.814 33.0968Z" fill="white"/>
</g>
<g opacity="0.5">
<path d="M222.855 42.5109L222.806 55.0455L211.906 48.7534V36.2188L222.855 42.5109Z" fill="white"/>
</g>
<g opacity="0.5">
<path d="M239.852 51.9249L239.802 64.4596L228.902 58.1675L228.952 45.6328L239.852 51.9249Z" fill="white"/>
</g>
<g opacity="0.5">
<path d="M256.844 61.337L256.794 73.8717L245.895 67.5796L245.944 55.0449L256.844 61.337Z" fill="white"/>
</g>
<g opacity="0.5">
<path d="M273.836 70.753L273.786 83.2877L262.887 76.9956L262.936 64.4609L273.836 70.753Z" fill="white"/>
</g>
<g opacity="0.3">
<path d="M277.951 54.4997C279.338 55.2924 280.428 57.2246 280.428 58.7605L280.379 66.093L227.564 35.6234L227.614 25.4668L277.951 54.4997Z" fill="black"/>
</g>
<path d="M222.858 27.2541L193.379 10.2109V13.5799L222.808 30.5736L222.858 27.2541Z" fill="white"/>
<path d="M270.668 52.8672V53.8085L276.613 57.2271V56.2857L270.668 52.8672Z" fill="white"/>
<path d="M270.668 58.664L276.613 62.0825V61.1907L270.668 57.7227V58.664Z" fill="white"/>
<path d="M270.668 55.4433L276.613 58.8618V57.9205L270.668 54.502V55.4433Z" fill="white"/>
<path d="M270.668 57.0781L276.613 60.4966V59.5553L270.668 56.1367V57.0781Z" fill="white"/>
<path d="M284.39 49.8938L198.53 0.349593C197.837 -0.0467599 197.193 -0.0963048 196.747 0.151416L190.355 4.75902C190.801 4.5113 191.396 4.56085 192.09 4.9572L277.95 54.5509C278.742 54.9473 279.386 55.74 279.832 56.6318L286.57 52.7673C286.174 51.5783 285.381 50.4883 284.39 49.8938Z" fill="#37474F"/>
<path d="M279.833 56.632C280.179 57.3256 280.427 58.0688 280.427 58.7624L280.08 93.8397C280.08 94.5829 279.833 95.1278 279.387 95.3756L285.877 90.7184C286.273 90.4212 286.521 89.9257 286.521 89.2321L286.868 54.1548C286.868 53.7089 286.769 53.2135 286.571 52.7676L279.833 56.632Z" fill="#263238"/>
<path d="M417.071 204.471L331.161 154.878C330.467 154.481 329.873 154.481 329.427 154.729L322.986 159.337C323.432 159.089 324.027 159.138 324.72 159.485L410.63 209.079C411.968 209.872 413.058 211.804 413.058 213.34L412.711 330.66C412.711 331.453 412.463 331.949 412.017 332.246H412.067L418.557 327.589C418.904 327.291 419.152 326.796 419.152 326.053L419.498 208.732C419.498 207.147 418.408 205.264 417.071 204.471Z" fill="#03989E"/>
<path d="M412.71 330.66L413.057 213.34C413.057 211.804 411.967 209.872 410.629 209.079L324.72 159.485C324.026 159.138 323.432 159.089 322.986 159.336C322.54 159.584 322.243 160.129 322.243 160.922L321.945 278.242C321.945 279.828 323.035 281.711 324.373 282.503L410.283 332.097C410.976 332.493 411.571 332.493 412.017 332.246C412.463 331.948 412.71 331.453 412.71 330.66Z" fill="#03989E"/>
<g opacity="0.3">
<path d="M410.631 209.079C411.968 209.871 413.058 211.754 413.058 213.339V220.672L360.244 190.153V179.996L410.631 209.079Z" fill="black"/>
</g>
<path d="M331.853 242.421L325.809 238.953V246.236L331.853 249.754V242.421Z" fill="white"/>
<path d="M331.904 232.068L325.859 228.551V235.883L331.854 239.351L331.904 232.068Z" fill="white"/>
<path d="M355.487 181.781L326.008 164.787V168.156L355.487 185.15V181.781Z" fill="white"/>
<path d="M406.816 239.402L406.221 238.411L405.131 239.006L404.091 237.123L403.496 237.47L405.131 240.343L406.816 239.402Z" fill="white"/>
<path d="M331.953 216.759L325.909 213.291L325.859 220.624L331.904 224.092L331.953 216.759Z" fill="white"/>
<path d="M331.955 206.406L325.91 202.938V210.27L331.955 213.738V206.406Z" fill="white"/>
<path d="M325.959 189.51V196.842L401.117 240.193V232.861L325.959 189.51Z" fill="#03989E"/>
<path fill-rule="evenodd" clip-rule="evenodd" d="M401.117 232.861L409.193 237.568V244.851L401.117 240.194V232.861ZM403.446 237.469L405.13 240.342L406.815 239.352L406.22 238.361L405.13 239.005L404.04 237.122L403.446 237.469Z" fill="#03989E"/>
<path d="M326.009 178.561L325.959 185.893L401.117 229.294L401.167 221.961L326.009 178.561Z" fill="#03989E"/>
<path d="M406.865 228.45L406.271 227.459L405.181 228.103L404.091 226.221L403.496 226.568L405.181 229.392L406.865 228.45Z" fill="white"/>
<path fill-rule="evenodd" clip-rule="evenodd" d="M401.167 221.961L409.242 226.618L409.193 233.951L401.117 229.293L401.167 221.961ZM403.545 226.519L405.229 229.393L406.864 228.451L406.319 227.46L405.229 228.055L404.139 226.222L403.545 226.519Z" fill="#03989E"/>
<path d="M360.095 225.876L359.55 224.885L358.46 225.48L357.37 223.646L356.775 223.944L358.46 226.817L360.095 225.876Z" fill="white"/>
<path fill-rule="evenodd" clip-rule="evenodd" d="M354.398 226.717V219.385L362.524 224.042L362.474 231.374L354.398 226.717ZM356.777 223.943L358.461 226.816L360.146 225.875L359.551 224.884L358.461 225.528L357.371 223.646L356.777 223.943Z" fill="#03989E"/>
<path d="M334.975 225.876L354.346 237.073L354.396 229.74L334.975 218.543V225.876Z" fill="#03989E"/>
<path d="M354.397 219.384L335.025 208.188V215.52L354.397 226.717V219.384Z" fill="#03989E"/>
<path d="M358.41 237.171L360.095 236.229L359.5 235.239L358.41 235.833L357.32 234L356.775 234.297L358.41 237.171Z" fill="white"/>
<path fill-rule="evenodd" clip-rule="evenodd" d="M354.348 237.071L354.397 229.738L362.473 234.395V241.728L354.348 237.071ZM356.775 234.296L358.41 237.17L360.095 236.229L359.5 235.238L358.41 235.832L357.32 233.999L356.775 234.296Z" fill="#03989E"/>
<path fill-rule="evenodd" clip-rule="evenodd" d="M401.069 256.691L409.145 261.349L409.095 268.681L401.02 264.024L401.069 256.691ZM403.447 261.249L405.132 264.123L406.767 263.182L406.222 262.191L405.132 262.785L404.042 260.903L403.447 261.249Z" fill="#03989E"/>
<path fill-rule="evenodd" clip-rule="evenodd" d="M401.016 271.951L409.092 276.608V283.941L400.967 279.284L401.016 271.951ZM403.394 276.509L405.079 279.383L406.714 278.441L406.169 277.451L405.079 278.095L403.989 276.212L403.394 276.509Z" fill="#03989E"/>
<path fill-rule="evenodd" clip-rule="evenodd" d="M400.967 282.305L409.042 286.962V294.294L400.967 289.637V282.305ZM403.345 286.912L404.98 289.786L406.664 288.795L406.07 287.804L404.98 288.448L403.89 286.565L403.345 286.912Z" fill="#03989E"/>
<path d="M381.596 271.109L381.547 278.442L400.968 289.639V282.306L381.596 271.109Z" fill="#03989E"/>
<path d="M381.598 260.754V268.086L400.969 279.283L401.019 271.951L381.598 260.754Z" fill="#03989E"/>
<path d="M381.646 245.494V252.827L401.018 264.024L401.068 256.691L381.646 245.494Z" fill="#03989E"/>
<path d="M381.696 235.139L381.646 242.422L401.068 253.619V246.336L381.696 235.139Z" fill="#03989E"/>
<path d="M406.765 252.828L406.22 251.837L405.13 252.432L404.04 250.549L403.445 250.896L405.13 253.769L406.765 252.828Z" fill="white"/>
<path fill-rule="evenodd" clip-rule="evenodd" d="M401.068 246.338L409.144 250.995V258.328L401.068 253.621V246.338ZM403.446 250.896L405.131 253.77L406.766 252.828L406.221 251.837L405.131 252.432L404.041 250.549L403.446 250.896Z" fill="#03989E"/>
<path d="M372.531 247.575L378.576 251.043V243.71L372.581 240.242L372.531 247.575Z" fill="white"/>
<path d="M378.624 233.357L372.58 229.889V237.172L378.575 240.689L378.624 233.357Z" fill="white"/>
<path d="M405.08 264.123L406.765 263.181L406.17 262.191L405.08 262.785L403.99 260.902L403.445 261.249L405.08 264.123Z" fill="white"/>
<path d="M334.926 241.133L354.347 252.33V244.998L334.975 233.801L334.926 241.133Z" fill="#03989E"/>
<path fill-rule="evenodd" clip-rule="evenodd" d="M354.348 245L362.423 249.707V256.99L354.348 252.333V245ZM356.676 249.608L358.361 252.481L360.045 251.49L359.451 250.499L358.361 251.143L357.271 249.261L356.676 249.608Z" fill="#03989E"/>
<path d="M358.36 252.48L360.044 251.539L359.45 250.498L358.36 251.142L357.319 249.26L356.725 249.607L358.36 252.48Z" fill="white"/>
<path d="M358.36 261.498L357.27 259.615L356.676 259.962L358.36 262.836L359.995 261.894L359.45 260.854L358.36 261.498Z" fill="white"/>
<path fill-rule="evenodd" clip-rule="evenodd" d="M354.297 255.404L362.422 260.061L362.373 267.394L354.297 262.687V255.404ZM356.675 260.012L358.31 262.885L359.994 261.944L359.4 260.904L358.31 261.548L357.27 259.665L356.675 260.012Z" fill="#03989E"/>
<path d="M342.307 270.365L342.357 263.082L336.312 259.564V266.897L342.307 270.365Z" fill="white"/>
<path d="M334.926 251.49L354.298 262.687V255.404L334.926 244.207V251.49Z" fill="#03989E"/>
<path d="M354.248 286.07L325.76 269.621L325.711 276.954L354.199 293.402L354.248 286.07Z" fill="#03989E"/>
<path d="M357.668 292.462L358.263 293.503L359.947 292.562L359.353 291.571L358.263 292.215L357.173 290.332L356.578 290.629L357.668 292.462Z" fill="white"/>
<path fill-rule="evenodd" clip-rule="evenodd" d="M354.249 286.07L362.324 290.727L362.275 298.06L354.199 293.403L354.249 286.07ZM356.577 290.628L357.667 292.462L358.262 293.502L359.946 292.561L359.352 291.57L358.262 292.214L357.172 290.331L356.577 290.628Z" fill="#03989E"/>
<path d="M400.869 313.023L372.381 296.574V303.907L400.869 320.355V313.023Z" fill="#03989E"/>
<path opacity="0.3" d="M325.959 189.51V196.842L401.117 240.193V232.861L325.959 189.51Z" fill="black"/>
<path opacity="0.3" d="M326.009 178.561L325.959 185.893L401.117 229.294L401.167 221.961L326.009 178.561Z" fill="black"/>
<path opacity="0.3" d="M334.975 225.876L354.346 237.073L354.396 229.74L334.975 218.543V225.876Z" fill="black"/>
<path opacity="0.3" d="M354.397 219.384L335.025 208.188V215.52L354.397 226.717V219.384Z" fill="black"/>
<path opacity="0.3" d="M381.596 271.109L381.547 278.442L400.968 289.639V282.306L381.596 271.109Z" fill="black"/>
<path opacity="0.3" d="M381.598 260.754V268.086L400.969 279.283L401.019 271.951L381.598 260.754Z" fill="black"/>
<path opacity="0.3" d="M381.646 245.494V252.827L401.018 264.024L401.068 256.691L381.646 245.494Z" fill="black"/>
<path opacity="0.3" d="M381.696 235.139L381.646 242.422L401.068 253.619V246.336L381.696 235.139Z" fill="black"/>
<path opacity="0.3" d="M334.926 241.133L354.347 252.33V244.998L334.975 233.801L334.926 241.133Z" fill="black"/>
<path opacity="0.3" d="M334.926 251.49L354.298 262.687V255.404L334.926 244.207V251.49Z" fill="black"/>
<path opacity="0.3" d="M354.248 286.07L325.76 269.621L325.711 276.954L354.199 293.402L354.248 286.07Z" fill="black"/>
<path opacity="0.3" d="M400.869 313.023L372.381 296.574V303.907L400.869 320.355V313.023Z" fill="black"/>
<path fill-rule="evenodd" clip-rule="evenodd" d="M408.994 317.681L408.945 325.013L400.869 320.356V313.023L408.994 317.681ZM403.297 317.582L404.981 320.455L406.616 319.514L406.071 318.473L404.981 319.117L404.288 317.928L403.891 317.235L403.297 317.582Z" fill="#03989E"/>
<path opacity="0.4" fill-rule="evenodd" clip-rule="evenodd" d="M401.117 232.861L409.193 237.568V244.851L401.117 240.194V232.861ZM403.446 237.469L405.13 240.342L406.815 239.352L406.22 238.361L405.13 239.005L404.04 237.122L403.446 237.469Z" fill="black"/>
<path opacity="0.4" fill-rule="evenodd" clip-rule="evenodd" d="M401.167 221.961L409.242 226.618L409.193 233.951L401.117 229.293L401.167 221.961ZM403.545 226.519L405.229 229.393L406.864 228.451L406.319 227.46L405.229 228.055L404.139 226.222L403.545 226.519Z" fill="black"/>
<path opacity="0.4" fill-rule="evenodd" clip-rule="evenodd" d="M354.398 226.717V219.385L362.524 224.042L362.474 231.374L354.398 226.717ZM356.777 223.943L358.461 226.816L360.146 225.875L359.551 224.884L358.461 225.528L357.371 223.646L356.777 223.943Z" fill="black"/>
<path opacity="0.4" fill-rule="evenodd" clip-rule="evenodd" d="M354.348 237.071L354.397 229.738L362.473 234.395V241.728L354.348 237.071ZM356.775 234.296L358.41 237.17L360.095 236.229L359.5 235.238L358.41 235.832L357.32 233.999L356.775 234.296Z" fill="black"/>
<path opacity="0.4" fill-rule="evenodd" clip-rule="evenodd" d="M401.069 256.691L409.145 261.349L409.095 268.681L401.02 264.024L401.069 256.691ZM403.447 261.249L405.132 264.123L406.767 263.182L406.222 262.191L405.132 262.785L404.042 260.903L403.447 261.249Z" fill="black"/>
<path opacity="0.4" fill-rule="evenodd" clip-rule="evenodd" d="M401.016 271.951L409.092 276.608V283.941L400.967 279.284L401.016 271.951ZM403.394 276.509L405.079 279.383L406.714 278.441L406.169 277.451L405.079 278.095L403.989 276.212L403.394 276.509Z" fill="black"/>
<path opacity="0.4" fill-rule="evenodd" clip-rule="evenodd" d="M400.967 282.305L409.042 286.962V294.294L400.967 289.637V282.305ZM403.345 286.912L404.98 289.786L406.664 288.795L406.07 287.804L404.98 288.448L403.89 286.565L403.345 286.912Z" fill="black"/>
<path opacity="0.4" fill-rule="evenodd" clip-rule="evenodd" d="M401.068 246.338L409.144 250.995V258.328L401.068 253.621V246.338ZM403.446 250.896L405.131 253.77L406.766 252.828L406.221 251.837L405.131 252.432L404.041 250.549L403.446 250.896Z" fill="black"/>
<path opacity="0.4" fill-rule="evenodd" clip-rule="evenodd" d="M354.348 245L362.423 249.707V256.99L354.348 252.333V245ZM356.676 249.608L358.361 252.481L360.045 251.49L359.451 250.499L358.361 251.143L357.271 249.261L356.676 249.608Z" fill="black"/>
<path opacity="0.4" fill-rule="evenodd" clip-rule="evenodd" d="M354.297 255.404L362.422 260.061L362.373 267.394L354.297 262.687V255.404ZM356.675 260.012L358.31 262.885L359.994 261.944L359.4 260.904L358.31 261.548L357.27 259.665L356.675 260.012Z" fill="black"/>
<path opacity="0.4" fill-rule="evenodd" clip-rule="evenodd" d="M354.249 286.07L362.324 290.727L362.275 298.06L354.199 293.403L354.249 286.07ZM356.577 290.628L357.667 292.462L358.262 293.502L359.946 292.561L359.352 291.57L358.262 292.214L357.172 290.331L356.577 290.628Z" fill="black"/>
<path opacity="0.4" fill-rule="evenodd" clip-rule="evenodd" d="M408.994 317.681L408.945 325.013L400.869 320.356V313.023L408.994 317.681ZM403.297 317.582L404.981 320.455L406.616 319.514L406.071 318.473L404.981 319.117L404.288 317.928L403.891 317.235L403.297 317.582Z" fill="black"/>
<path d="M406.567 319.513L406.023 318.523L404.933 319.117L404.239 317.928L403.843 317.234L403.248 317.581L404.933 320.455L406.567 319.513Z" fill="white"/>
<path d="M372.48 273.19L378.475 276.658L378.525 269.375L372.48 265.857V273.19Z" fill="white"/>
<path d="M372.48 262.834L378.525 266.303V258.97L372.53 255.502L372.48 262.834Z" fill="white"/>
<path d="M406.716 278.442L406.121 277.451L405.031 278.096L403.941 276.213L403.396 276.56L405.031 279.433L406.716 278.442Z" fill="white"/>
<path d="M406.665 288.796L406.12 287.805L405.03 288.449L403.94 286.566L403.346 286.913L405.03 289.787L406.665 288.796Z" fill="white"/>
<path d="M331.804 256.99L325.809 253.521L325.76 260.804L331.804 264.322V256.99Z" fill="white"/>
<path d="M360.045 280.622L366.04 284.09L366.089 276.757L360.045 273.289V280.622Z" fill="white"/>
<path d="M370.549 286.665L376.593 290.182V282.85L370.549 279.332V286.665Z" fill="white"/>
<path d="M392.447 291.967V299.299L398.442 302.817L398.492 295.484L392.447 291.967Z" fill="white"/>
<path d="M402.951 305.393L408.996 308.861L409.045 301.578L403.001 298.061L402.951 305.393Z" fill="white"/>
<path d="M403.348 207.445V208.387L409.293 211.805V210.864L403.348 207.445Z" fill="white"/>
<path d="M403.348 213.242L409.243 216.661V215.719L403.348 212.301V213.242Z" fill="white"/>
<path d="M403.348 210.021L409.243 213.44L409.293 212.499L403.348 209.08V210.021Z" fill="white"/>
<path d="M403.348 211.607L409.243 215.026V214.134L403.348 210.666V211.607Z" fill="white"/>
<path opacity="0.3" d="M417.071 204.471L331.161 154.878C330.467 154.481 329.873 154.481 329.427 154.729L322.986 159.337C323.432 159.089 324.027 159.138 324.72 159.485L410.63 209.079C411.373 209.525 412.017 210.318 412.463 211.209L419.251 207.345C418.854 206.156 418.012 205.016 417.071 204.471Z" fill="white"/>
<path opacity="0.2" d="M412.463 211.21C412.86 211.904 413.058 212.647 413.058 213.341L412.711 330.661C412.711 331.454 412.463 331.949 412.018 332.247H412.067L418.557 327.589C418.904 327.292 419.152 326.797 419.152 326.054L419.499 208.733C419.499 208.287 419.4 207.792 419.251 207.346L412.463 211.21Z" fill="white"/>
<path d="M159.935 108.901C159.935 108.901 160.629 105.928 158.795 105.532C158.795 105.532 160.381 102.113 158.35 101.469C156.318 100.775 153.742 107.613 150.72 110.387C150.175 110.982 146.707 114.152 146.211 113.112V113.161L141.405 114.995C141.158 116.431 140.811 117.868 140.068 118.859C134.915 126.687 129.019 130.452 124.659 136.051L120.399 131.939L112.273 143.185L120.201 149.131C124.313 152.202 130.06 151.211 132.933 147L147.549 125.201C148.193 124.309 149.035 123.516 149.977 122.922C152.305 121.534 156.814 118.76 158.449 116.729C160.728 113.905 161.074 110.882 159.935 108.901Z" fill="#FFC3C2"/>
<path d="M95.5762 112.716C103.701 112.369 114.7 125.498 120.893 131.741C120.447 139.321 112.273 144.275 112.273 144.275C103.057 137.983 95.5762 131.245 95.5762 131.245V112.716Z" fill="#03989E"/>
<path opacity="0.3" d="M95.5762 112.716C103.701 112.369 114.7 125.498 120.893 131.741C120.447 139.321 112.273 144.275 112.273 144.275C103.057 137.983 95.5762 131.245 95.5762 131.245V112.716Z" fill="white"/>
<path d="M169.15 55.6914L194.368 109.744L150.225 121.684L124.957 67.6315L169.15 55.6914Z" fill="#03989E"/>
<g opacity="0.3">
<path d="M169.15 55.6914L194.368 109.744L150.225 121.684L124.957 67.6315L169.15 55.6914Z" fill="white"/>
</g>
<path fill-rule="evenodd" clip-rule="evenodd" d="M182.479 96.0197L183.074 97.4069C183.107 97.9684 182.908 98.4638 182.479 98.8932C182.083 99.3226 181.604 99.6199 181.042 99.785C180.217 99.9832 179.424 99.8676 178.664 99.4382C178.268 99.207 177.888 98.8767 177.525 98.4473C177.359 99.1409 177.062 99.7685 176.633 100.33C176.236 100.858 175.658 101.222 174.899 101.42C173.677 101.75 172.455 101.569 171.233 100.875C171.067 100.776 170.919 100.677 170.787 100.578C169.366 99.6199 168.243 98.2161 167.418 96.3665C166.476 94.4838 166.179 92.8488 166.476 91.5111C166.741 90.19 167.649 89.3147 169.201 88.8853C169.763 88.7532 170.357 88.6871 170.985 88.6871C171.645 88.7201 172.223 88.8357 172.719 89.0339L170.093 83.3363C169.565 82.2133 169.003 81.4537 168.408 81.0573C168.342 81.0243 168.293 80.9913 168.26 80.9582C167.698 80.6279 167.137 80.5454 166.575 80.7105C165.981 80.8757 165.601 81.239 165.436 81.8005C165.667 81.8335 165.882 81.8996 166.08 81.9987C166.245 82.1308 166.427 82.2794 166.625 82.4446C166.988 82.8079 167.286 83.2538 167.517 83.7822C167.963 84.674 168.062 85.4668 167.913 86.1604C167.781 86.821 167.401 87.2338 166.774 87.399C166.179 87.5641 165.584 87.4815 164.99 87.1513C164.891 87.0852 164.775 87.0191 164.643 86.9531C163.95 86.4246 163.372 85.6649 162.909 84.674C162.447 83.6832 162.232 82.6923 162.265 81.7014C162.265 80.6775 162.595 79.7857 163.256 79.026C163.883 78.2333 164.858 77.6553 166.179 77.292C167.897 76.8295 169.465 77.0112 170.886 77.8369C170.952 77.87 171.001 77.903 171.034 77.936C172.521 78.8278 173.776 80.3802 174.8 82.5932L180.051 93.8893C180.481 94.8141 180.976 95.4416 181.538 95.7719C181.835 95.9041 182.149 95.9866 182.479 96.0197ZM175.741 97.1096C175.939 96.9115 176.088 96.6802 176.187 96.416L174.255 92.3038C173.957 92.1387 173.644 92.0231 173.313 91.957C172.95 91.924 172.636 91.924 172.372 91.957C171.877 92.1222 171.579 92.4855 171.48 93.047C171.414 93.6415 171.596 94.4012 172.025 95.326C172.389 96.1187 172.834 96.7133 173.363 97.1096C173.462 97.1757 173.561 97.2418 173.66 97.3078C174.123 97.572 174.585 97.6381 175.047 97.506C175.312 97.4399 175.543 97.3078 175.741 97.1096Z" fill="white"/>
<path fill-rule="evenodd" clip-rule="evenodd" d="M169.648 101.122C169.78 101.651 169.83 102.096 169.797 102.46L162.464 104.442C162.101 104.177 161.754 103.814 161.424 103.352C161.093 102.889 160.796 102.41 160.532 101.915C161.572 101.618 161.771 100.825 161.126 99.4376C160.862 98.8761 160.499 98.232 160.036 97.5054L159.442 96.6631L153.348 98.2981L153.645 99.2394C153.877 100.164 154.075 100.808 154.24 101.172C154.603 101.931 155.016 102.443 155.478 102.707C155.941 102.972 156.453 103.021 157.014 102.856C157.246 103.385 157.411 103.897 157.51 104.392C157.642 104.92 157.691 105.383 157.658 105.779L151.614 107.414C151.251 107.117 150.904 106.737 150.574 106.275C150.243 105.845 149.963 105.366 149.731 104.838C150.227 104.706 150.574 104.342 150.772 103.748C150.97 103.186 150.953 102.427 150.722 101.469L145.52 79.6199C144.628 79.4548 143.637 79.5208 142.547 79.8181C141.986 78.596 141.722 77.5225 141.755 76.5977L149.186 74.5664L165.486 97.3072C166.081 98.166 166.725 98.7935 167.419 99.1899C168.079 99.5862 168.657 99.7183 169.153 99.5862C169.384 100.115 169.549 100.627 169.648 101.122ZM152.407 94.7804L157.312 93.4923L150.425 83.4348C149.863 82.6421 149.318 81.9815 148.79 81.4531L152.407 94.7804Z" fill="white"/>
<path d="M99.7896 285.428C99.641 288.846 99.7896 292.909 99.7896 292.909L97.8079 293.008C95.8756 293.107 94.1911 294.395 93.4975 296.228L93.448 296.327C93.1012 297.318 92.0607 297.814 91.1194 297.517C90.624 297.368 90.2276 296.972 89.9799 296.526L88.9395 287.855L99.7896 285.428Z" fill="#FFC3C2"/>
<path d="M102.763 315.45C108.014 317.68 116.04 318.126 119.36 312.775V314.212C116.04 319.563 108.014 319.117 102.763 316.887C97.5109 314.658 98.6504 310.992 93.9437 309.01C90.9215 307.87 89.3361 306.136 89.3361 306.136C89.3361 305.69 89.237 305.145 89.1875 304.551C90.0298 305.294 91.8133 306.731 93.9437 307.573C98.6504 309.555 97.5109 313.221 102.763 315.45Z" fill="#37474F"/>
<path d="M89.1873 299.795C89.435 298.21 89.2863 297.219 89.1377 296.674C89.0386 296.228 89.1377 295.732 89.3854 295.287L89.7818 294.94L89.98 296.525C90.2277 296.971 90.624 297.367 91.1195 297.516C92.0608 297.813 93.1012 297.318 93.4481 296.327L93.4976 296.228C94.1912 294.395 95.8757 293.107 97.8079 293.008L99.8392 292.908C100.483 292.859 101.028 293.255 101.276 293.8C103.357 298.854 108.658 304.502 112.721 307.029C115.693 306.979 119.36 309.456 119.36 312.478V312.776C116.04 318.126 108.014 317.681 102.762 315.451C97.5107 313.222 98.6502 309.555 93.9435 307.574C91.8131 306.731 90.0295 305.295 89.1873 304.551C89.0386 303.313 88.89 301.678 89.1873 299.795Z" fill="#03989E"/>
<path d="M99.3444 303.908C99.0966 304.206 98.7003 304.255 98.403 304.008C98.1553 303.76 98.1057 303.363 98.3039 303.066C100.434 300.44 103.011 299.895 105.191 300.094C105.455 300.424 105.736 300.754 106.033 301.084C103.556 300.985 101.326 301.481 99.3444 303.908Z" fill="white"/>
<path d="M97.2629 301.58C97.0647 301.878 96.6188 301.927 96.3711 301.68C96.0738 301.481 96.0242 301.035 96.2224 300.788C98.3528 298.162 101.028 297.468 103.406 297.666C103.638 298.063 103.902 298.443 104.199 298.806C101.623 298.608 99.3437 299.103 97.2629 301.58Z" fill="white"/>
<path d="M101.523 306.187C101.276 306.485 100.83 306.485 100.582 306.286C100.285 306.039 100.235 305.642 100.483 305.345C102.514 302.818 104.991 302.174 107.122 302.323C107.485 302.686 107.832 303.033 108.162 303.363C105.685 303.215 103.505 303.76 101.523 306.187Z" fill="white"/>
<path d="M112.72 307.03C115.693 306.98 119.359 309.458 119.359 312.48V312.777C116.089 318.029 108.261 317.682 103.01 315.552C103.406 308.318 110.342 307.03 112.72 307.03Z" fill="white"/>
<path d="M103.704 308.368C103.506 308.616 103.06 308.665 102.762 308.418C102.515 308.219 102.465 307.774 102.663 307.526C104.744 304.95 107.221 304.355 109.352 304.504C109.781 304.867 110.211 305.214 110.64 305.544C108.064 305.346 105.785 305.841 103.704 308.368Z" fill="white"/>
<path d="M71.8951 291.77C71.7465 295.238 71.8951 299.3 71.8951 299.3L69.9133 299.399C67.9316 299.498 66.2471 300.787 65.603 302.62L65.5534 302.719C65.2066 303.66 64.1662 304.205 63.2249 303.908C62.6799 303.71 62.2835 303.363 62.0854 302.917L61.0449 294.247L71.8951 291.77Z" fill="#FFC3C2"/>
<path d="M74.8185 321.843C80.0702 324.073 88.1459 324.518 91.4654 319.168V320.604C88.1459 325.955 80.0702 325.509 74.8185 323.28C69.5668 321.05 70.7559 317.384 66.0492 315.402C63.027 314.263 61.4416 312.529 61.4416 312.529C61.3921 312.083 61.3425 311.538 61.293 310.943C62.1352 311.687 63.8693 313.123 66.0492 313.966C70.7559 315.947 69.5668 319.564 74.8185 321.843Z" fill="#37474F"/>
<path d="M61.2927 306.137C61.4909 304.601 61.3918 303.61 61.2432 303.065C61.0945 302.57 61.1936 302.074 61.4909 301.678L61.8872 301.281L62.0854 302.916C62.2836 303.362 62.68 303.709 63.2249 303.907C64.1663 304.204 65.2067 303.66 65.5535 302.718L65.6031 302.619C66.2471 300.786 67.9316 299.498 69.9134 299.399L71.9447 299.3C72.5392 299.25 73.1338 299.597 73.3815 300.191C75.4624 305.245 80.714 310.843 84.7767 313.42C87.7493 313.37 91.4651 315.847 91.4651 318.87V319.167C88.1457 324.518 80.07 324.072 74.8183 321.842C69.5666 319.563 70.7557 315.946 66.049 313.965C63.869 313.122 62.135 311.686 61.2927 310.942C61.1441 309.704 60.9955 308.069 61.2927 306.137Z" fill="#03989E"/>
<path d="M71.451 310.299C71.2033 310.596 70.8069 310.596 70.5097 310.398C70.2124 310.15 70.1628 309.754 70.4106 309.457C72.541 306.831 75.0677 306.286 77.2477 306.484C77.5449 306.814 77.8422 307.145 78.1394 307.475C75.6622 307.376 73.4328 307.871 71.451 310.299Z" fill="white"/>
<path d="M69.3695 307.971C69.1217 308.268 68.7254 308.318 68.4281 308.07C68.1804 307.822 68.0813 307.426 68.329 307.178C70.4099 304.553 73.1348 303.859 75.4634 304.057C75.7276 304.453 75.9919 304.833 76.2561 305.197C73.6798 304.998 71.4008 305.494 69.3695 307.971Z" fill="white"/>
<path d="M73.5807 312.577C73.333 312.874 72.9366 312.874 72.6393 312.676C72.3916 312.428 72.3421 312.032 72.5403 311.735C74.6211 309.159 77.0983 308.564 79.2287 308.713C79.559 309.076 79.9058 309.423 80.2691 309.753C77.7919 309.604 75.5624 310.149 73.5807 312.577Z" fill="white"/>
<path d="M84.779 313.421C87.7517 313.371 91.4675 315.848 91.4675 318.871V319.168C88.1976 324.419 80.32 324.073 75.0684 321.942C75.4647 314.709 82.4009 313.421 84.779 313.421Z" fill="white"/>
<path d="M75.8104 314.759C75.5626 315.006 75.1663 315.056 74.869 314.808C74.5718 314.61 74.5222 314.164 74.7699 313.916C76.8508 311.34 79.328 310.746 81.4584 310.894C81.8878 311.258 82.3006 311.604 82.697 311.935C80.1207 311.736 77.8417 312.232 75.8104 314.759Z" fill="white"/>
<path d="M106.577 176.48L105.636 243.464L102.465 290.383C94.4388 295.436 86.1649 290.63 86.1649 290.63C83.1427 268.434 83.0436 254.661 84.6786 245.446L83.6877 209.675L82.1023 246.635L74.5716 294.049C66.3968 299.35 57.4293 293.851 57.4293 293.851C57.4293 276.857 55.6952 256.593 60.4019 244.306C57.0825 206.356 62.681 177.174 62.681 177.174L106.577 176.48Z" fill="#37474F"/>
<path opacity="0.3" d="M87.007 196.2L83.6875 209.676L84.1829 226.917L89.1374 199.073C96.2717 196.299 97.2131 192.385 97.2131 192.385C92.5559 195.803 87.007 196.2 87.007 196.2Z" fill="black"/>
<path d="M65.8002 119.207C77.4431 113.757 86.1134 113.113 95.6258 112.717C109.845 121.882 104.494 129.512 104.296 141.7C104.048 153.938 105.535 168.107 108.656 181.633C90.0273 196.496 65.4039 192.978 59.7559 189.411C61.0936 153.046 59.5081 121.833 65.8002 119.207Z" fill="#03989E"/>
<path opacity="0.6" d="M65.8002 119.207C77.4431 113.757 86.1134 113.113 95.6258 112.717C109.845 121.882 104.494 129.512 104.296 141.7C104.048 153.938 105.535 168.107 108.656 181.633C90.0273 196.496 65.4039 192.978 59.7559 189.411C61.0936 153.046 59.5081 121.833 65.8002 119.207Z" fill="white"/>
<path d="M101.076 94.7318C103.008 93.3445 104.396 91.2141 104.891 88.8855C105.387 86.557 104.941 84.0302 103.752 81.9989C104.792 81.5035 105.832 80.6612 106.278 79.5712C106.774 78.5804 106.526 77.2922 105.733 76.4995C104.99 75.6573 103.702 75.4095 102.662 75.8554C103.306 74.27 102.563 72.0901 101.076 71.2478C99.5899 70.356 97.509 70.7524 96.419 72.0901C96.5181 71.0001 95.775 69.9597 94.7345 69.6129C93.6941 69.266 92.5546 69.4642 91.5142 69.811C90.4737 70.1578 89.4828 70.7028 88.4424 71.0001C86.7084 71.5451 84.8257 71.5946 82.9926 71.6937C81.1594 71.8423 79.2272 72.1396 77.6913 73.1305C76.1555 74.1214 74.7682 76.45 75.6105 78.4813C75.115 77.8372 74.2728 77.3417 73.4305 77.2922C72.5883 77.2922 71.746 77.639 71.1515 78.2831C72.3406 78.9767 73.4305 79.7694 74.5701 80.463C73.4305 79.9676 71.6965 80.7603 71.0524 81.8503C70.4579 82.9898 70.4083 84.3275 70.4579 85.5661C70.6065 90.4214 71.4983 95.1777 72.9846 99.7853C73.7773 102.163 75.9573 106.176 78.2363 107.266L101.076 94.7318Z" fill="#263238"/>
<path d="M101.076 82.248C99.0947 84.3289 95.7753 85.6666 92.9512 85.6666C90.0777 85.7161 87.3032 84.7748 84.5287 84.0316C84.281 85.3198 83.6369 86.6079 82.6461 87.4997C81.6552 88.4411 80.0698 89.0356 78.7321 89.2338C79.1284 91.8101 79.1284 94.4359 78.6825 97.0122C78.633 97.5572 78.2366 98.0526 77.7412 98.2013C76.7998 98.4985 76.1558 97.5572 75.7099 96.7645C75.2144 95.8727 74.5704 95.0304 73.6786 94.535C72.8363 93.99 71.6968 93.7918 70.805 94.2377C70.0123 94.5845 69.5169 95.2782 69.2691 96.0709C69.0214 96.8636 69.0214 97.7554 69.1205 98.5481C69.3187 99.9353 69.8141 101.273 70.7555 102.313C71.6473 103.403 72.9354 104.147 74.3226 104.196C75.7099 104.246 77.0971 103.701 77.7907 102.462L77.8403 102.759C77.9394 103.156 78.0715 103.552 78.2366 103.948C79.4752 107.218 82.2993 109.646 85.7673 110.389C87.5014 110.785 89.4336 111.132 91.4154 111.43C92.4063 111.562 93.3806 111.694 94.3385 111.826C98.1038 112.272 101.522 109.745 102.166 106.029C103.504 98.4985 103.95 89.7292 101.076 82.248Z" fill="#FFC3C2"/>
<path d="M78.2363 103.945V117.075C80.664 120.394 84.6771 122.673 88.7892 122.921C90.1269 123.02 91.5637 122.871 92.6041 121.979C93.3968 121.236 93.7437 120.047 93.5455 119.007C93.3473 118.214 92.8519 117.52 92.2078 117.075C91.7123 116.777 91.4151 116.232 91.4151 115.687V111.426C89.4333 111.129 87.5011 110.782 85.767 110.386C82.299 109.643 79.4749 107.215 78.2363 103.945Z" fill="#FFC3C2"/>
<path d="M87.006 113.309C88.4428 113.705 89.9291 113.904 91.4154 114.052V111.426C89.4336 111.129 87.5014 110.782 85.7674 110.386C82.4975 109.692 79.8221 107.512 78.4844 104.49C78.8312 106.571 79.723 108.503 81.1102 109.99C82.6956 111.625 84.826 112.665 87.006 113.309Z" fill="#FFA8A7"/>
<path d="M94.4863 93.4941L99.3417 99.3404L94.8827 100.876L94.4863 93.4941Z" fill="#FFA8A7"/>
<path d="M87.6973 94.2361C87.6973 94.9297 88.2918 95.5243 89.035 95.5243C89.7286 95.5738 90.3231 94.9793 90.3231 94.2361C90.3231 93.493 89.7781 92.8984 89.035 92.8984C88.2918 92.8984 87.6973 93.493 87.6973 94.2361Z" fill="#263238"/>
<path d="M98.7969 93.8409C98.7969 94.584 99.3914 95.1786 100.135 95.1786C100.878 95.1786 101.472 94.584 101.472 93.8904C101.472 93.1473 100.878 92.5527 100.135 92.5527C99.441 92.5527 98.7969 93.1473 98.7969 93.8409Z" fill="#263238"/>
<path d="M98.1035 87.9938C99.2926 88.1259 100.482 88.2581 101.671 88.3902C101.572 87.647 100.928 86.9534 100.184 86.8048C99.4412 86.6561 98.4503 87.3002 98.1035 87.9938Z" fill="#263238"/>
<path d="M90.2251 87.9948C89.0691 88.3251 87.9131 88.6554 86.757 88.9857C86.7075 88.2426 87.2525 87.4499 87.9461 87.2021C88.6893 86.9049 89.7297 87.4003 90.2251 87.9948Z" fill="#263238"/>
<path d="M89.4337 102.807C90.6558 103.401 91.8779 103.996 93.1 104.59C92.6046 105.432 91.2173 105.829 90.3255 105.383C89.4337 104.987 89.1365 103.748 89.4337 102.807Z" fill="#FFA8A7"/>
<path opacity="0.3" d="M89.4337 102.807C90.6558 103.401 91.8779 103.996 93.1 104.59C92.6046 105.432 91.2173 105.829 90.3255 105.383C89.4337 104.987 89.1365 103.748 89.4337 102.807Z" fill="black"/>
<path d="M91.6124 105.53C91.1665 105.58 90.7206 105.58 90.3243 105.381C89.5811 105.084 89.2839 104.242 89.3334 103.449C89.8784 103.449 90.3738 103.598 90.7702 103.945C91.2656 104.341 91.5629 104.936 91.6124 105.53Z" fill="#FFA8A7"/>
<path d="M55.6934 194.961L39.2943 166.176C37.808 163.154 37.6593 159.636 38.997 156.515L48.1132 135.062C51.1354 128.027 56.8329 122.527 64.0168 119.852L66.2959 119.01C67.6336 131.842 63.7196 138.035 51.9776 160.379C51.9776 160.379 58.1706 181.237 63.026 190.502C66.7913 192.286 70.4576 194.911 73.3807 197.983C74.0248 198.677 74.0743 199.767 73.4798 200.46V200.51C72.9348 201.154 72.043 201.352 71.2998 200.956C69.7144 200.163 68.129 199.321 66.5436 198.528C68.2281 202.095 70.2594 205.613 72.6871 208.685C73.2816 209.428 73.2321 210.518 72.588 211.211C72.1421 211.707 71.498 211.905 70.9035 211.806C69.186 211.542 67.4684 211.294 65.7509 211.063C62.7287 210.617 60.1029 208.685 58.7652 205.96C57.0807 202.492 55.9907 198.627 55.6934 194.961Z" fill="#FFC3C2"/>
<path d="M66.2952 119.008C56.3368 122.426 50.6888 124.656 42.7617 146.158C46.7253 152.302 57.625 151.459 57.625 151.459C71.8441 130.056 66.2952 119.008 66.2952 119.008Z" fill="#03989E"/>
<path opacity="0.3" d="M66.2952 119.008C56.3368 122.426 50.6888 124.656 42.7617 146.158C46.7253 152.302 57.625 151.459 57.625 151.459C71.8441 130.056 66.2952 119.008 66.2952 119.008Z" fill="white"/>
<path d="M146.21 113.113C146.161 112.964 146.161 112.667 146.309 112.221C147.052 109.545 147.845 107.019 146.359 105.929C145.962 105.631 145.368 105.83 145.12 106.325C144.575 107.564 143.188 109.793 142.395 111.329C141.9 112.221 141.702 113.608 141.404 114.995L146.21 113.162V113.113Z" fill="#FFC3C2"/>
<path d="M125.454 233.454C125.206 232.612 125.603 228.797 124.711 228.153C123.77 227.509 125.504 226.122 127.188 227.509C128.823 228.847 125.454 233.454 125.454 233.454Z" fill="#FFA8A7"/>
<path d="M126.545 205.214L126.644 235.189L138.039 228.649L137.94 198.625L126.545 205.214Z" fill="#F0F0F0"/>
<path d="M127.734 205.86L127.784 211.707L136.801 206.455V200.658L127.734 205.86Z" fill="#03989E"/>
<path d="M127.781 213.044V218.841L136.798 213.638V207.842L127.781 213.044Z" fill="#03989E"/>
<path d="M127.781 220.179V226.025L136.848 220.823L136.798 214.977L127.781 220.179Z" fill="#03989E"/>
<path d="M127.781 227.362L127.831 233.159L136.848 227.957V222.16L127.781 227.362Z" fill="#03989E"/>
<g opacity="0.6">
<path d="M127.734 205.86L127.784 211.707L136.801 206.455V200.658L127.734 205.86Z" fill="white"/>
</g>
<g opacity="0.4">
<path d="M127.781 213.044V218.841L136.798 213.638V207.842L127.781 213.044Z" fill="white"/>
</g>
<g opacity="0.2">
<path d="M127.781 220.179V226.025L136.848 220.823L136.798 214.977L127.781 220.179Z" fill="white"/>
</g>
<path d="M54.4073 230.332L37.9091 267.738L46.3316 276.953L43.3589 289.538L26.7121 275.12C23.6404 272.445 22.7486 268.085 24.5321 264.468L37.8595 236.674C39.7917 232.661 43.9039 230.134 48.3629 230.233L54.4073 230.332Z" fill="#E0E0E0"/>
<path opacity="0.3" d="M34.541 272.346C34.541 272.346 37.1669 270.166 37.91 267.738L39.3963 269.373C38.6036 270.513 37.0678 271.801 34.541 272.346Z" fill="black"/>
<path d="M66.1506 429.303C66.8442 430.74 69.0737 432.077 71.4518 432.474C73.8795 432.87 76.3071 432.375 78.7348 432.028C82.302 431.532 85.9683 431.433 89.5354 431.78C91.8145 431.978 94.044 432.325 96.2734 432.226C98.5525 432.176 100.881 431.631 102.615 430.244C103.903 429.253 104.795 427.767 104.993 426.182C105.29 428.213 104.25 430.343 102.615 431.631C100.881 433.019 98.5525 433.564 96.2734 433.663C94.044 433.712 91.8145 433.366 89.5354 433.167C85.9683 432.87 82.302 432.92 78.7348 433.465C76.3071 433.762 73.6813 434.455 71.3032 434.059C68.8755 433.663 66.6956 432.325 66.002 430.888L66.1506 429.303Z" fill="#263238"/>
<path d="M92.4606 425.043C90.4293 425.043 91.1725 422.021 89.2402 420.039C90.0329 420.072 90.8256 420.089 91.6183 420.089C93.3524 422.566 93.8478 425.043 92.4606 425.043Z" fill="white"/>
<path d="M88.2493 424.843C86.218 424.843 86.763 421.276 84.7812 419.195C85.2437 419.36 85.7061 419.493 86.1685 419.592C86.5648 419.691 86.9612 419.773 87.3575 419.839C89.1411 422.366 89.6366 424.843 88.2493 424.843Z" fill="white"/>
<path d="M68.2827 418.008C68.3818 417.364 68.7782 416.769 69.3232 416.373L80.2229 416.125C81.3624 417.611 82.9974 418.602 84.781 419.197C86.7627 421.278 86.2177 424.845 88.249 424.845C89.6363 424.845 89.1408 422.368 87.3573 419.841C87.9848 419.94 88.6124 420.006 89.2399 420.039C91.1722 422.021 90.429 425.043 92.4603 425.043C93.8475 425.043 93.3521 422.566 91.618 420.089C92.1135 420.089 92.6254 420.089 93.1539 420.089C93.6163 420.056 94.0787 420.022 94.5412 419.989C98.5542 423.16 98.901 426.628 98.4056 432.029C97.712 432.161 97.0019 432.227 96.2752 432.227C94.0457 432.326 91.8162 431.979 89.5372 431.781C85.97 431.434 82.3037 431.533 78.7366 432.029C76.3089 432.376 73.8812 432.871 71.4536 432.475C69.0754 432.078 66.846 430.741 66.1523 429.304L68.2827 418.008Z" fill="#455A64"/>
<path d="M94.541 419.989C96.3741 419.841 98.2568 419.544 99.9909 419.989C102.22 420.534 104.351 422.07 104.945 424.25C105.094 424.894 105.094 425.538 104.995 426.182C104.797 427.768 103.905 429.254 102.617 430.245C101.428 431.186 99.9413 431.731 98.4055 432.029C98.9009 426.628 98.5541 423.16 94.541 419.989Z" fill="white"/>
<path d="M80.5683 413.002V418.254C80.5683 419.443 79.5774 420.434 78.3883 420.434H72.8889C70.9567 420.434 69.3713 418.898 69.3217 416.965L69.2227 413.002H80.5683Z" fill="#FFA8A7"/>
<path d="M44.1499 410.675C44.7939 411.963 45.983 412.854 47.4693 412.954C48.9061 413.102 50.442 412.706 51.631 411.963C53.5632 410.724 54.2569 408.841 55.5945 407.157C56.8827 405.423 58.5177 404.036 60.1526 402.698C61.8371 401.212 63.5712 399.676 64.5125 397.595C64.7602 397.05 64.9584 396.406 65.0079 395.762C65.2061 396.951 65.0079 398.239 64.5125 399.329C63.5712 401.36 61.8371 402.946 60.1526 404.382C58.5177 405.77 56.8827 407.157 55.5945 408.841C54.2569 410.575 53.5632 412.458 51.631 413.647C50.442 414.44 48.9061 414.787 47.4693 414.688C45.983 414.539 44.7939 413.697 44.1499 412.359C43.9021 411.913 43.9021 410.575 43.9517 409.436C43.9517 409.981 44.0012 410.427 44.1499 410.675Z" fill="#263238"/>
<path d="M56.5351 399.081C56.6837 399.378 56.8819 399.675 56.8323 400.022C56.7333 400.319 56.5351 400.567 56.2378 400.666C55.7919 400.815 55.346 400.666 54.9992 400.369C54.6524 400.072 54.4047 399.675 54.157 399.328C53.4138 398.437 52.4229 397.693 51.3329 397.297C50.7714 397.099 50.2099 396.983 49.6484 396.95C50.1108 396.521 50.5733 396.091 51.0357 395.662C51.8779 395.761 52.7202 395.91 53.5129 396.306C54.7515 396.901 55.8415 397.892 56.5351 399.081Z" fill="white"/>
<path d="M56.2369 394.769C57.525 395.364 58.615 396.355 59.3086 397.593C59.4573 397.841 59.6554 398.138 59.5564 398.485C59.5068 398.782 59.2591 399.03 58.9618 399.129C58.5655 399.278 58.07 399.129 57.7232 398.832C57.426 398.535 57.1782 398.188 56.881 397.841C56.1874 396.9 55.1965 396.157 54.1065 395.76C53.2147 395.463 52.2734 395.314 51.332 395.413C51.7614 394.984 52.2073 394.571 52.6697 394.175C53.9083 394.026 55.1469 394.224 56.2369 394.769Z" fill="white"/>
<path d="M53.5117 393.383C54.8494 392.244 56.1871 391.154 57.8221 390.509C59.8038 389.766 62.2315 389.915 63.7178 391.352C64.8573 392.442 65.2537 394.126 65.006 395.761C64.9564 396.405 64.7582 397.049 64.5105 397.594C64.1637 398.387 63.6683 399.13 63.1728 399.774C62.6278 395.068 58.5652 392.838 53.5117 393.383Z" fill="white"/>
<path d="M44.0501 406.017C44.1492 404.333 44.2483 402.896 45.0905 401.459L47.7659 398.635C48.3935 398.073 49.021 397.512 49.6486 396.95C50.2101 396.984 50.7716 397.099 51.3331 397.297C52.4231 397.694 53.4139 398.437 54.1571 399.329C54.4048 399.675 54.6525 400.072 54.9994 400.369C55.3462 400.666 55.7921 400.815 56.238 400.666C56.5352 400.567 56.7334 400.319 56.8325 400.022C56.882 399.675 56.6839 399.378 56.5352 399.081C55.8416 397.892 54.7516 396.901 53.513 396.306C52.7203 395.91 51.8781 395.761 51.0358 395.662C51.1349 395.596 51.234 395.514 51.3331 395.415C52.2744 395.316 53.2158 395.464 54.1076 395.761C55.1975 396.158 56.1884 396.901 56.882 397.842C57.1793 398.189 57.427 398.536 57.7243 398.833C58.0711 399.13 58.5665 399.279 58.9629 399.13C59.2602 399.031 59.5079 398.784 59.5574 398.486C59.6565 398.14 59.4583 397.842 59.3097 397.595C58.6161 396.356 57.5261 395.365 56.238 394.771C55.148 394.226 53.9094 394.027 52.6708 394.176C52.7038 394.143 52.7203 394.126 52.7203 394.126C52.9846 393.895 53.2488 393.648 53.513 393.383C58.5665 392.838 62.6292 395.068 63.1741 399.774C62.2823 400.864 61.1924 401.806 60.1519 402.698C58.517 404.035 56.882 405.423 55.5939 407.157C54.2562 408.841 53.5626 410.724 51.6303 411.962C50.4413 412.706 48.9054 413.102 47.4686 412.953C45.9823 412.854 44.7933 411.962 44.1492 410.674C44.0006 410.426 43.951 409.981 43.951 409.436C43.9015 408.197 44.0005 406.513 44.0501 406.017Z" fill="#455A64"/>
<path d="M53.6122 397.744L53.315 403.392C49.7478 405.423 45.9824 404.284 44.7438 402.996L44.4961 397.744H53.6122Z" fill="#FFA8A7"/>
<path d="M46.0347 276.509C46.2659 276.245 46.4476 275.947 46.5797 275.617C57.7767 281.513 71.1536 283.049 83.3415 279.828C85.9673 299.2 88.1968 331.998 86.8096 353.649C85.6701 378.867 81.0625 414.539 81.0625 414.539C74.9685 416.372 70.46 415.233 68.726 413.945C66.7442 388.925 62.2852 371.782 65.7038 355.284C63.4247 343.691 61.9384 329.174 61.9384 329.174L60.2044 354.739L54.3086 399.626C48.5119 402.599 43.6566 399.081 43.6566 399.081C39.3958 373.417 37.7609 356.027 41.5262 343.295C35.7791 301.132 35.4818 290.381 46.0347 276.509Z" fill="#37474F"/>
<path opacity="0.3" d="M59.4125 324.171L56.2417 310.843C52.5259 310.249 46.7788 307.821 43.707 302.768C48.0669 306.137 53.5663 308.168 59.0657 308.168L61.9393 329.175L61.3448 338.192L61.097 334.922C60.7998 331.305 60.2548 327.688 59.4125 324.171Z" fill="black"/>
<path d="M68.9727 230.878L78.2375 232.712C80.2688 236.427 82.3497 239.945 84.381 243.661C85.9168 246.485 87.5022 249.507 87.4032 252.678C87.2545 256.096 85.025 259.366 81.8542 260.654L86.66 292.511C74.1749 303.807 42.0702 295.732 38.1562 292.363C39.8408 283.841 43.507 280.522 45.4392 271.604C46.9751 264.42 43.9529 256.592 43.4575 254.263C42.7143 250.845 41.9712 247.377 41.8721 243.859C41.8225 240.341 42.4666 236.725 44.3493 233.752C44.3493 233.719 44.3658 233.686 44.3988 233.653C46.7769 229.887 51.335 228.054 55.7444 228.798L68.9727 230.878Z" fill="white"/>
<path d="M54.4048 192.282C49.9954 195.205 47.32 200.605 47.6668 205.956C47.865 208.978 49.0045 212 48.6577 215.072C48.41 216.855 47.7164 218.639 48.2118 220.373C48.6082 221.859 49.7477 222.999 51.0854 223.693C52.4231 224.386 55.5443 224.188 57.0307 224.485C61.5392 228.597 67.1872 227.062 70.8039 223.395C74.4207 219.779 80.2173 206.055 80.2173 206.055C81.9018 203.429 82.9423 200.159 83.0909 197.087C83.1404 195.254 82.8927 193.372 81.7532 191.984C80.6632 190.548 78.3842 189.953 76.997 191.092C78.3347 190.052 77.3933 187.674 75.9565 186.683C74.5693 185.742 72.7362 185.841 71.1012 186.336C69.4662 186.832 67.9304 187.624 66.2954 187.922C64.0659 188.318 61.8364 187.823 59.607 188.021C57.3775 188.268 54.6525 190.052 54.4048 192.282Z" fill="#37474F"/>
<path d="M81.1598 210.119L83.9838 214.974L80.9121 216.114L81.1598 210.119Z" fill="#FF9192"/>
<path d="M81.5069 207.939C81.0115 203.629 79.7729 199.566 76.9984 197.535C77.9397 203.134 76.0075 209.574 73.778 212.894C73.4808 211.457 72.7376 210.169 71.6972 209.228C70.6072 208.237 69.0218 207.791 67.6841 208.336C66.7428 208.732 66.0491 209.624 65.7023 210.565C64.9592 212.398 65.3555 214.628 66.7427 216.065C68.0804 217.501 70.3099 218.046 72.1926 217.452C71.5485 221.267 68.2786 224.388 64.5133 225.23C62.0361 225.775 59.4102 225.429 57.0321 224.487L55.8926 230.284C60.5993 235.337 68.6254 231.919 68.6254 231.919L69.6659 226.271C78.9306 226.816 79.8224 226.667 80.8133 221.564C81.4078 218.74 82.0519 213.142 81.5069 207.939Z" fill="#FFA8A7"/>
<path d="M72.1934 217.451C72.1439 219.185 72.1934 220.82 72.0944 222.604C72.0448 224.437 71.9953 226.32 72.6393 228.004C73.2834 229.738 74.8193 231.274 76.702 231.274C73.6798 233.751 69.2703 234.445 65.5545 233.305C61.8387 232.166 58.767 229.045 57.677 225.329C57.2806 228.054 58.4202 230.878 60.3028 232.86C56.9834 233.85 53.1189 232.909 50.4931 230.68C47.8673 228.5 46.4305 224.883 46.8268 221.464C47.0746 219.037 48.1645 216.857 48.9077 214.528C49.7004 212.249 50.0967 209.623 49.0068 207.443C51.0876 210.02 53.7135 212.645 56.1907 214.825C58.6679 217.005 61.591 218.839 64.8114 219.532C66.0004 219.829 67.2886 219.928 68.4776 219.681C69.6667 219.433 71.4998 218.442 72.1934 217.451Z" fill="#37474F"/>
<path opacity="0.2" d="M58.7647 197.535C58.7647 202.489 54.7516 206.502 49.7972 206.502C49.0706 206.502 48.3604 206.42 47.6668 206.255C47.6668 206.155 47.6668 206.056 47.6668 205.957C47.32 200.606 49.9954 195.206 54.4048 192.283C54.5039 191.589 54.8012 190.995 55.2471 190.4C57.3775 192.035 58.7647 194.612 58.7647 197.535Z" fill="black"/>
<path d="M41.9707 194.512C41.9707 199.467 45.9838 203.48 50.9382 203.48C55.8926 203.48 59.9057 199.467 59.9057 194.512C59.9057 189.558 55.8926 185.545 50.9382 185.545C45.9838 185.545 41.9707 189.558 41.9707 194.512Z" fill="#37474F"/>
<path d="M130.159 246.783C122.926 257.881 115.048 267.443 110.341 272.249C108.707 273.884 106.13 274.181 104.198 272.893C94.091 266.254 85.7676 255.007 85.7676 255.007L96.7168 247.477L106.13 259.764L124.016 242.175L125.205 232.415C125.304 231.573 125.849 230.879 126.592 230.533L131.645 228.353C132.24 228.055 132.934 228.055 133.528 228.303L136.451 229.542C137.244 229.888 137.492 230.83 136.996 231.474C136.699 231.92 136.104 232.118 135.609 231.969L134.172 231.523L137.541 234.1C138.235 234.595 138.631 235.388 138.631 236.23V238.014C138.631 238.906 138.185 239.748 137.442 240.243L137.046 240.491C136.352 240.937 135.46 240.739 135.064 240.045C134.42 243.711 130.159 246.783 130.159 246.783Z" fill="#FFA8A7"/>
<path d="M134.173 231.524L133.232 230.93C132.935 230.731 132.539 230.632 132.142 230.731L127.98 231.524L131.845 230.186C132.489 229.988 133.133 230.186 133.529 230.731L134.173 231.524Z" fill="#F28F8F"/>
<path d="M135.064 240.045C135.461 238.658 135.659 236.824 135.064 236.131L136.749 237.072L136.551 238.806L135.064 240.045Z" fill="#F28F8F"/>
<path d="M114.159 249.903C113.416 249.705 112.673 249.903 112.128 250.448L109.601 252.826C109.106 253.322 108.858 254.015 108.957 254.759V254.957L109.7 254.263C118.618 257.137 117.627 266.005 117.627 266.005L116.389 267.64C117.181 267.739 117.974 267.442 118.47 266.847L121.591 262.884C121.938 262.487 122.086 261.942 122.086 261.447C121.938 258.92 120.996 251.588 114.159 249.903Z" fill="white"/>
<path d="M114.159 249.903C113.416 249.705 112.673 249.903 112.128 250.448L109.601 252.826C109.106 253.322 108.858 254.015 108.957 254.759V254.957L109.7 254.263C118.618 257.137 117.627 266.005 117.627 266.005L116.389 267.64C117.181 267.739 117.974 267.442 118.47 266.847L121.591 262.884C121.938 262.487 122.086 261.942 122.086 261.447C121.938 258.92 120.996 251.588 114.159 249.903Z" fill="#F0F0F0"/>
<path d="M109.698 254.264L108.955 254.957L105.982 257.831L104.892 256.196L92.7538 240.292C89.4344 236.032 84.5295 233.207 79.1787 232.563L77.5438 232.365C77.5438 232.365 74.2738 246.089 81.2596 253.669L94.6365 267.839C96.866 270.217 100.582 272.793 103.604 274.726C106.279 276.509 109.896 275.865 111.878 273.338L117.625 266.006C117.625 266.006 118.616 257.137 109.698 254.264Z" fill="#E0E0E0"/>
<path d="M178.959 121.038L182.526 124.357L176.383 158.642L172.568 181.036L159.488 182.572L164.839 158.642L174.996 119.105L178.959 121.038Z" fill="#9C5756"/>
<path d="M173.757 178.261C164.74 174.892 158.844 179.648 158.844 179.648L157.357 217.946L173.459 208.731L173.757 178.261Z" fill="#03989E"/>
<path d="M173.757 178.261C164.74 174.892 158.844 179.648 158.844 179.648L157.357 217.946L173.459 208.731L173.757 178.261Z" fill="#263238"/>
<path opacity="0.1" d="M173.757 178.261C164.74 174.892 158.844 179.648 158.844 179.648L157.357 217.946L173.459 208.731L173.757 178.261Z" fill="white"/>
<path d="M181.782 68.1222C180.296 67.28 179.107 67.9736 179.107 69.6581L178.611 124.751C178.611 126.436 179.8 128.517 181.287 129.359L247.577 167.607C249.063 168.499 250.252 167.805 250.252 166.071L250.748 111.027C250.748 109.343 249.559 107.262 248.072 106.37L181.782 68.1222Z" fill="#03989E"/>
<path d="M202.791 96.166L184.757 110.336L184.707 124.208L244.606 158.74L244.655 144.917L233.211 122.226L223.005 130.203L226.621 141.449L221.37 131.441L202.791 96.166Z" fill="white"/>
<path d="M222.408 103.151C219.633 101.516 217.305 102.805 217.305 106.074C217.305 109.295 219.584 113.258 222.408 114.893C225.232 116.479 227.511 115.191 227.511 111.97C227.511 108.7 225.232 104.786 222.408 103.151Z" fill="white"/>
<path d="M220.973 199.961L235.241 195.205L244.605 159.83C244.803 158.79 244.704 157.75 244.308 156.759L243.317 154.282C242.822 152.993 242.574 151.606 242.623 150.169L242.772 144.769C242.822 143.877 243.565 143.184 244.457 143.184C245.249 143.184 245.943 143.778 246.042 144.521L246.934 149.228L248.916 151.507L250.501 145.066V136.693L254.762 142.787C255.852 144.373 256.248 146.305 255.951 148.237L254.266 158.493L249.708 198.277C249.015 204.123 245.15 209.127 239.651 211.257L224.688 217.004L220.973 199.961Z" fill="#9C5756"/>
<path d="M190.5 415.183C191.293 417.611 193.918 418.998 196.495 419.197C199.022 419.395 201.548 418.652 204.025 418.206C209.624 417.215 215.074 418.206 220.672 418.057C222.505 418.057 224.339 417.958 226.122 417.462C227.906 417.017 229.59 416.125 230.779 414.738C231.473 413.895 231.968 412.855 232.117 411.814C232.414 413.4 231.82 415.134 230.779 416.372C229.59 417.76 227.906 418.652 226.122 419.147C224.339 419.593 222.505 419.692 220.672 419.742C215.074 419.841 209.624 418.85 204.025 419.841C201.548 420.336 199.022 421.03 196.495 420.831C193.918 420.633 191.293 419.246 190.5 416.818C190.252 415.976 190.203 415.084 190.302 414.242C190.335 414.539 190.401 414.853 190.5 415.183Z" fill="#263238"/>
<path d="M190.649 410.525C190.98 408.808 191.327 407.107 191.69 405.422C191.888 404.53 192.037 403.589 192.532 402.846C193.028 402.053 193.919 401.459 194.811 401.508C197.883 401.112 202.193 400.022 204.77 401.756C208.783 404.53 213.638 405.918 218.493 405.769C221.02 405.67 223.596 405.125 226.123 405.472C228.65 405.769 231.276 407.156 232.019 409.584C232.217 410.327 232.267 411.07 232.118 411.813C231.969 412.854 231.474 413.894 230.78 414.736C229.591 416.124 227.907 417.016 226.123 417.461C224.34 417.957 222.506 418.056 220.673 418.056C215.075 418.205 209.625 417.214 204.026 418.205C201.549 418.65 199.022 419.394 196.496 419.195C193.919 418.997 191.294 417.61 190.501 415.182C190.402 414.852 190.336 414.538 190.303 414.241C190.154 413.002 190.402 411.714 190.649 410.525Z" fill="#37474F"/>
<path d="M205.512 396.404L205.71 403.043C205.76 404.48 204.719 405.669 203.282 405.768C201.003 405.917 198.774 405.917 196.594 405.719C194.711 405.52 193.275 404.034 193.175 402.151L192.928 397.247L205.512 396.404Z" fill="#9C5756"/>
<path d="M162.163 392.887C162.212 393.878 162.46 394.869 163.055 395.612C163.748 396.603 164.987 397.148 166.176 397.396C169.099 397.941 172.27 396.652 173.954 394.175C174.797 392.986 175.242 391.549 176.035 390.311C177.125 388.626 178.81 387.338 180.395 386.1C182.03 384.861 183.665 383.573 184.805 381.888C185.894 380.204 186.39 378.073 185.647 376.24C185.812 376.471 185.944 376.719 186.043 376.983C186.935 378.866 186.439 381.195 185.25 382.929C184.111 384.712 182.426 386 180.791 387.289C179.156 388.577 177.472 389.865 176.332 391.648C175.54 392.937 175.044 394.423 174.202 395.662C172.468 398.139 169.248 399.526 166.275 398.931C165.036 398.733 163.798 398.139 163.055 397.148C162.262 396.058 162.113 394.671 162.113 393.333C162.113 393.168 162.13 393.019 162.163 392.887Z" fill="#263238"/>
<path d="M164.145 384.562C166.176 380.995 170.338 378.419 173.558 375.942C175.391 374.505 177.472 373.316 179.801 373.118C182.08 372.919 184.606 373.96 185.597 376.09C185.597 376.123 185.614 376.173 185.647 376.239C186.39 378.072 185.894 380.202 184.805 381.887C183.665 383.571 182.03 384.86 180.395 386.098C178.81 387.337 177.125 388.625 176.035 390.309C175.242 391.548 174.797 392.985 173.954 394.174C172.27 396.651 169.099 397.939 166.176 397.394C164.987 397.147 163.748 396.602 163.055 395.611C162.46 394.868 162.212 393.877 162.163 392.886C162.13 392.555 162.113 392.242 162.113 391.944C162.163 389.368 162.906 386.792 164.145 384.562Z" fill="#37474F"/>
<path d="M172.913 381.49V387.535C167.414 389.814 163.55 387.089 163.55 387.089L162.955 381.688L172.913 381.49Z" fill="#9C5756"/>
<path d="M161.369 271.998C159.585 277.398 161.815 303.211 162.855 327.933C158.941 337.297 159.981 363.853 162.261 382.729C162.261 382.729 170.138 385.306 177.223 382.878L182.177 330.658L183.416 301.229C183.416 301.229 185.645 327.339 188.172 344.085C185.794 356.917 184.803 358.75 188.618 399.079C188.618 399.079 198.477 402.349 205.711 398.782C209.08 343.391 207.841 292.856 207.197 274.673L161.369 271.998Z" fill="#03989E"/>
<path opacity="0.3" d="M161.369 271.998C159.585 277.398 161.815 303.211 162.855 327.933C158.941 337.297 159.981 363.853 162.261 382.729C162.261 382.729 170.138 385.306 177.223 382.878L182.177 330.658L183.416 301.229C183.416 301.229 185.645 327.339 188.172 344.085C185.794 356.917 184.803 358.75 188.618 399.079C188.618 399.079 198.477 402.349 205.711 398.782C209.08 343.391 207.841 292.856 207.197 274.673L161.369 271.998Z" fill="black"/>
<path opacity="0.3" d="M182.622 319.164L183.662 295.185C177.469 295.185 171.672 290.528 167.312 286.168C171.524 293.649 179.649 296.969 179.649 296.969L182.622 319.164Z" fill="black"/>
<path d="M208.14 276.159C180.445 287.753 162.559 277.299 160.082 271.849C161.37 252.725 156.862 230.331 157.209 220.818C157.555 211.306 158.695 200.604 173.459 202.735L189.115 204.271L197.092 206.203L206.604 226.021L208.14 276.159Z" fill="#263238"/>
<path d="M173.459 195.254C172.518 195.353 171.032 194.907 170.388 194.213C169.744 193.52 169.496 192.479 169.645 191.588C168.753 191.389 167.911 190.745 167.564 189.854C167.217 189.011 167.514 187.773 168.059 187.03C166.721 186.683 165.532 185.692 164.938 184.453C164.343 183.215 164.244 181.58 164.789 180.341C163.303 179.945 162.064 178.756 161.668 177.269C161.222 175.833 161.519 173.9 162.56 172.81C161.272 171.126 160.974 168.748 161.866 166.815C162.708 164.883 164.888 163.496 167.019 163.347C166.672 161.316 167.465 159.136 169.05 157.798C170.586 156.461 172.766 156.064 174.748 156.659C175.392 154.974 177.027 153.637 178.86 153.389C180.693 153.092 182.724 153.686 183.864 155.123C184.756 154.083 186.192 153.538 187.53 153.736C188.917 153.934 190.354 154.677 190.899 155.965C192.633 155.173 194.763 155.371 196.349 156.411C197.934 157.452 198.826 159.384 198.826 161.316C200.213 161.663 201.254 163.1 201.155 164.586C201.105 166.023 199.866 167.509 198.43 167.707C197.092 175.139 194.565 182.521 191.097 189.259C189.512 192.281 187.629 195.353 184.607 196.889C181.337 198.623 176.234 197.632 173.459 195.254Z" fill="#263238"/>
<path d="M173.459 195.254C172.518 195.353 171.032 194.907 170.388 194.213C169.744 193.52 169.496 192.479 169.645 191.588C168.753 191.389 167.911 190.745 167.564 189.854C167.217 189.011 167.514 187.773 168.059 187.03C166.721 186.683 165.532 185.692 164.938 184.453C164.343 183.215 164.244 181.58 164.789 180.341C163.303 179.945 162.064 178.756 161.668 177.269C161.222 175.833 161.519 173.9 162.56 172.81C161.272 171.126 160.974 168.748 161.866 166.815C162.708 164.883 164.888 163.496 167.019 163.347C166.672 161.316 167.465 159.136 169.05 157.798C170.586 156.461 172.766 156.064 174.748 156.659C175.392 154.974 177.027 153.637 178.86 153.389C180.693 153.092 182.724 153.686 183.864 155.123C184.756 154.083 186.192 153.538 187.53 153.736C188.917 153.934 190.354 154.677 190.899 155.965C192.633 155.173 194.763 155.371 196.349 156.411C197.934 157.452 198.826 159.384 198.826 161.316C200.213 161.663 201.254 163.1 201.155 164.586C201.105 166.023 199.866 167.509 198.43 167.707C197.092 175.139 194.565 182.521 191.097 189.259C189.512 192.281 187.629 195.353 184.607 196.889C181.337 198.623 176.234 197.632 173.459 195.254Z" fill="#263238"/>
<path d="M199.569 177.566L202.789 183.165L199.271 184.503L199.569 177.566Z" fill="#F28F8F"/>
<path d="M199.569 177.566L202.789 183.165L199.271 184.503L199.569 177.566Z" fill="#803837"/>
<path d="M198.429 167.707C200.609 175.485 200.906 183.759 199.371 191.686C199.123 193.024 198.776 194.461 197.884 195.501C196.893 196.69 195.308 197.285 193.772 197.384C192.187 197.533 190.651 197.235 189.115 196.938V204.271C183.566 205.608 177.819 206.104 173.459 202.735V195.254C176.58 196.145 179.999 196.542 183.17 195.848C187.034 193.767 187.827 186.732 187.282 184.899C186.687 185.84 185.35 186.187 184.26 185.939C183.17 185.692 182.327 184.899 181.782 183.958C181.188 183.016 180.99 181.926 180.841 180.836C180.643 179.499 180.643 178.062 181.386 176.972C182.278 175.585 184.161 175.089 185.746 175.485C187.331 175.931 188.619 177.12 189.412 178.557C189.676 179.02 189.891 179.482 190.056 179.944C190.403 180.836 191.691 180.688 191.741 179.746C191.939 177.665 191.592 175.485 190.651 173.603C191.889 173.603 193.078 172.661 193.822 171.671C194.565 170.68 194.763 169.342 194.416 168.153C196.249 168.351 198.429 167.707 198.429 167.707Z" fill="#9C5756"/>
<path d="M178.66 122.325L181.534 114.894L182.822 109.048C182.971 108.304 182.574 107.561 181.831 107.314C181.038 107.066 180.196 107.462 179.948 108.255L178.858 111.426V102.508L175.143 109.147C174.598 110.187 174.35 111.327 174.399 112.466L173.656 124.208L178.66 122.325Z" fill="#9C5756"/>
<path d="M197.041 206.203C205.859 203.28 221.565 198.523 221.565 198.523C228.6 205.658 228.006 217.103 228.006 217.103L206.603 226.02C186.19 232.511 183.218 210.761 197.041 206.203Z" fill="#263238"/>
<path opacity="0.1" d="M197.041 206.203C205.859 203.28 221.565 198.523 221.565 198.523C228.6 205.658 228.006 217.103 228.006 217.103L206.603 226.02C186.19 232.511 183.218 210.761 197.041 206.203Z" fill="white"/>
</svg>
